<?xml version="1.0" encoding="UTF-8" standalone="no"?>
<!-- Created with Inkscape (http://www.inkscape.org/) -->
<svg
   xmlns:svg="http://www.w3.org/2000/svg"
   xmlns="http://www.w3.org/2000/svg"
   version="1.0"
   width="400"
   height="400"
   id="svg3341">
  <defs
     id="defs3343" />
  <g
     id="layer1">
    <path
       d="M 46.910841,275.98605 L 45.374841,275.98605 L 45.374841,253.29805 L 39.134841,253.29805 L 39.134841,251.85805 L 53.150841,251.85805 L 53.150841,253.29805 L 46.910841,253.29805 L 46.910841,275.98605 M 72.101841,262.09805 L 72.101841,251.85805 L 73.637841,251.85805 L 73.637841,275.98605 L 72.101841,275.98605 L 72.101841,263.53805 L 57.445841,263.53805 L 57.445841,275.98605 L 55.909841,275.98605 L 55.909841,251.85805 L 57.445841,251.85805 L 57.445841,262.09805 L 72.101841,262.09805 M 86.527341,254.96205 L 81.791341,266.61005 L 91.231341,266.61005 L 86.527341,254.96205 M 81.215341,268.05005 L 77.983341,275.98605 L 76.415341,275.98605 L 86.527341,251.05805 L 96.607341,275.98605 L 95.039341,275.98605 L 91.807341,268.05005 L 81.215341,268.05005 M 121.13934,276.78605 L 100.88334,255.25005 L 100.88334,275.98605 L 99.347341,275.98605 L 99.347341,251.53805 L 119.60334,272.91405 L 119.60334,251.85805 L 121.13934,251.85805 L 121.13934,276.78605 M 139.33934,251.85805 L 141.38734,251.85805 L 129.57934,263.47405 L 142.12334,275.98605 L 140.10734,275.98605 L 128.52334,264.46605 L 127.88334,265.10605 L 127.88334,275.98605 L 126.34734,275.98605 L 126.34734,251.85805 L 127.88334,251.85805 L 127.88334,263.12205 L 139.33934,251.85805 M 155.70284,255.82605 C 155.14816,254.95141 154.47616,254.25808 153.68684,253.74605 C 152.91883,253.23408 151.95883,252.97808 150.80684,252.97805 C 150.16683,252.97808 149.5695,253.10608 149.01484,253.36205 C 148.46017,253.59674 147.98017,253.92741 147.57484,254.35405 C 147.1695,254.75941 146.8495,255.23941 146.61484,255.79405 C 146.38017,256.34874 146.26284,256.94607 146.26284,257.58605 C 146.26284,258.22607 146.39084,258.78074 146.64684,259.25005 C 146.92417,259.69807 147.27617,260.1034 147.70284,260.46605 C 148.1295,260.8074 148.59883,261.10607 149.11084,261.36205 C 149.62283,261.61807 150.12417,261.8634 150.61484,262.09805 L 155.22284,264.49805 C 156.14016,265.07406 156.82283,265.74606 157.27084,266.51405 C 157.74016,267.28206 157.97482,268.21006 157.97484,269.29805 C 157.97482,270.30073 157.76149,271.22872 157.33484,272.08205 C 156.92949,272.93539 156.37483,273.68206 155.67084,274.32205 C 154.96683,274.94072 154.15616,275.43139 153.23884,275.79405 C 152.34283,276.13539 151.40416,276.30605 150.42284,276.30605 C 148.7375,276.30605 147.2655,275.83672 146.00684,274.89805 C 144.7695,273.93806 143.87351,272.67939 143.31884,271.12205 L 144.66284,270.51405 C 145.17484,271.79406 145.90017,272.83939 146.83884,273.65005 C 147.79883,274.46072 149.01483,274.86605 150.48684,274.86605 C 151.27616,274.86605 152.0335,274.72739 152.75884,274.45005 C 153.48416,274.15139 154.1135,273.74606 154.64684,273.23405 C 155.20149,272.72206 155.63883,272.12472 155.95884,271.44205 C 156.27883,270.73806 156.43883,269.98073 156.43884,269.17005 C 156.43883,268.48739 156.27883,267.90073 155.95884,267.41005 C 155.66016,266.89806 155.26549,266.46073 154.77484,266.09805 C 154.30549,265.71406 153.78283,265.3834 153.20684,265.10605 C 152.63083,264.8074 152.08683,264.53006 151.57484,264.27405 L 147.22284,261.97005 C 146.41217,261.4794 145.7935,260.88207 145.36684,260.17805 C 144.94017,259.45274 144.72684,258.61007 144.72684,257.65005 C 144.72684,256.75407 144.87617,255.93274 145.17484,255.18605 C 145.49484,254.43941 145.9215,253.79941 146.45484,253.26605 C 147.0095,252.71141 147.66017,252.28474 148.40684,251.98605 C 149.17483,251.68741 150.00683,251.53808 150.90284,251.53805 C 152.11883,251.53808 153.26016,251.84741 154.32684,252.46605 C 155.39349,253.06341 156.21483,253.88474 156.79084,254.93005 L 155.70284,255.82605 M 173.44584,253.29805 L 173.44584,262.06605 L 181.41384,262.06605 L 181.41384,263.50605 L 173.44584,263.50605 L 173.44584,275.98605 L 171.90984,275.98605 L 171.90984,251.85805 L 181.63784,251.85805 L 181.63784,253.29805 L 173.44584,253.29805 M 197.16934,252.97805 C 195.65466,252.97808 194.236,253.27674 192.91334,253.87405 C 191.59067,254.45008 190.428,255.23941 189.42534,256.24205 C 188.42267,257.22341 187.63334,258.3754 187.05734,259.69805 C 186.48134,261.02074 186.19334,262.42873 186.19334,263.92205 C 186.19334,265.4154 186.48134,266.8234 187.05734,268.14605 C 187.63334,269.46873 188.42267,270.63139 189.42534,271.63405 C 190.428,272.61539 191.59067,273.40472 192.91334,274.00205 C 194.236,274.57805 195.65466,274.86605 197.16934,274.86605 C 198.66266,274.86605 200.07066,274.57805 201.39334,274.00205 C 202.73732,273.40472 203.89999,272.61539 204.88134,271.63405 C 205.88398,270.63139 206.67332,269.46873 207.24934,268.14605 C 207.84665,266.80206 208.14532,265.39406 208.14534,263.92205 C 208.14532,262.42873 207.84665,261.02074 207.24934,259.69805 C 206.67332,258.3754 205.88398,257.22341 204.88134,256.24205 C 203.89999,255.23941 202.73732,254.45008 201.39334,253.87405 C 200.07066,253.27674 198.66266,252.97808 197.16934,252.97805 M 197.16934,251.53805 C 198.85466,251.53808 200.45466,251.86874 201.96934,252.53005 C 203.50532,253.17008 204.83865,254.05541 205.96934,255.18605 C 207.09998,256.31674 207.99598,257.63941 208.65734,259.15405 C 209.33998,260.6474 209.68131,262.23673 209.68134,263.92205 C 209.68131,265.62873 209.33998,267.22873 208.65734,268.72205 C 207.99598,270.21539 207.09998,271.52739 205.96934,272.65805 C 204.83865,273.78872 203.50532,274.68472 201.96934,275.34605 C 200.45466,275.98605 198.85466,276.30605 197.16934,276.30605 C 195.46266,276.30605 193.852,275.98605 192.33734,275.34605 C 190.82267,274.68472 189.5,273.78872 188.36934,272.65805 C 187.23867,271.52739 186.332,270.21539 185.64934,268.72205 C 184.98801,267.22873 184.65734,265.62873 184.65734,263.92205 C 184.65734,262.23673 184.98801,260.6474 185.64934,259.15405 C 186.31067,257.63941 187.20667,256.31674 188.33734,255.18605 C 189.48933,254.05541 190.82267,253.17008 192.33734,252.53005 C 193.852,251.86874 195.46266,251.53808 197.16934,251.53805 M 216.89784,263.12205 C 217.6445,263.12207 218.3805,263.06873 219.10584,262.96205 C 219.83116,262.8554 220.50316,262.5354 221.12184,262.00205 C 221.69783,261.53273 222.1245,260.9674 222.40184,260.30605 C 222.67916,259.6234 222.81783,258.9194 222.81784,258.19405 C 222.81783,257.29807 222.6045,256.44474 222.17784,255.63405 C 221.7725,254.82341 221.1325,254.22608 220.25784,253.84205 C 219.61783,253.54341 218.91383,253.38341 218.14584,253.36205 C 217.37783,253.31941 216.64183,253.29808 215.93784,253.29805 L 214.94584,253.29805 L 214.94584,263.12205 L 216.89784,263.12205 M 225.34584,275.98605 L 223.58584,275.98605 L 215.71384,264.56205 L 214.94584,264.56205 L 214.94584,275.98605 L 213.40984,275.98605 L 213.40984,251.85805 L 216.41784,251.85805 C 217.39917,251.85808 218.35917,251.91141 219.29784,252.01805 C 220.2365,252.12474 221.11116,252.47674 221.92184,253.07405 C 222.7965,253.69274 223.41516,254.46074 223.77784,255.37805 C 224.16183,256.27407 224.35383,257.23407 224.35384,258.25805 C 224.35383,259.3034 224.18316,260.2314 223.84184,261.04205 C 223.50049,261.8314 223.0205,262.49273 222.40184,263.02605 C 221.78316,263.53807 221.04716,263.93273 220.19384,264.21005 C 219.36183,264.46606 218.4445,264.5834 217.44184,264.56205 L 225.34584,275.98605 M 243.29234,263.09005 C 244.08167,263.09007 244.82833,263.0154 245.53234,262.86605 C 246.23633,262.6954 246.89766,262.33273 247.51634,261.77805 C 248.56166,260.81807 249.08433,259.61274 249.08434,258.16205 C 249.08433,257.41541 248.93499,256.69007 248.63634,255.98605 C 248.33766,255.28207 247.879,254.70607 247.26034,254.25805 C 246.64166,253.78874 245.96966,253.51141 245.24434,253.42605 C 244.519,253.34074 243.783,253.29808 243.03634,253.29805 L 240.50834,253.29805 L 240.50834,263.09005 L 243.29234,263.09005 M 240.50834,275.98605 L 238.97234,275.98605 L 238.97234,251.85805 L 243.22834,251.85805 C 244.18833,251.85808 245.10567,251.93274 245.98034,252.08205 C 246.87633,252.23141 247.69766,252.62608 248.44434,253.26605 C 249.19099,253.88474 249.73499,254.63141 250.07634,255.50605 C 250.43899,256.35941 250.62033,257.26607 250.62034,258.22605 C 250.62033,259.10074 250.44966,259.9754 250.10834,260.85005 C 249.78833,261.72473 249.28699,262.4394 248.60434,262.99405 C 247.85766,263.63407 247.015,264.05007 246.07634,264.24205 C 245.13767,264.43407 244.18833,264.53006 243.22834,264.53005 L 240.50834,264.53005 L 240.50834,275.98605 M 255.63334,274.54605 L 261.77734,274.54605 L 261.77734,275.98605 L 254.09734,275.98605 L 254.09734,251.85805 L 255.63334,251.85805 L 255.63334,274.54605 M 272.21484,254.96205 L 267.47884,266.61005 L 276.91884,266.61005 L 272.21484,254.96205 M 266.90284,268.05005 L 263.67084,275.98605 L 262.10284,275.98605 L 272.21484,251.05805 L 282.29484,275.98605 L 280.72684,275.98605 L 277.49484,268.05005 L 266.90284,268.05005 M 279.38334,251.85805 L 281.07934,251.85805 L 288.18334,264.08205 L 295.28734,251.85805 L 296.98334,251.85805 L 288.95134,265.68205 L 288.95134,275.98605 L 287.41534,275.98605 L 287.41534,265.68205 L 279.38334,251.85805 M 301.25834,275.98605 L 299.72234,275.98605 L 299.72234,251.85805 L 301.25834,251.85805 L 301.25834,275.98605 M 328.26434,276.78605 L 308.00834,255.25005 L 308.00834,275.98605 L 306.47234,275.98605 L 306.47234,251.53805 L 326.72834,272.91405 L 326.72834,251.85805 L 328.26434,251.85805 L 328.26434,276.78605 M 356.09634,264.37005 C 356.11765,265.13806 356.09632,265.87406 356.03234,266.57805 C 355.96832,267.28206 355.84032,267.97539 355.64834,268.65805 C 355.47765,269.31939 355.22165,269.97006 354.88034,270.61005 C 354.53898,271.22872 354.10165,271.82606 353.56834,272.40205 C 352.41632,273.66072 351.02965,274.63139 349.40834,275.31405 C 347.78699,275.97539 346.12299,276.30605 344.41634,276.30605 C 342.75233,276.30605 341.163,275.98605 339.64834,275.34605 C 338.155,274.68472 336.843,273.79939 335.71234,272.69005 C 334.58167,271.55939 333.68567,270.24739 333.02434,268.75405 C 332.36301,267.26073 332.03234,265.68206 332.03234,264.01805 C 332.03234,262.29007 332.36301,260.66874 333.02434,259.15405 C 333.68567,257.63941 334.58167,256.31674 335.71234,255.18605 C 336.86433,254.05541 338.19767,253.17008 339.71234,252.53005 C 341.24833,251.86874 342.88033,251.53808 344.60834,251.53805 C 346.80566,251.53808 348.77899,252.05008 350.52834,253.07405 C 352.27765,254.07674 353.79232,255.44207 355.07234,257.17005 L 353.82434,258.16205 C 352.73632,256.56207 351.40299,255.30341 349.82434,254.38605 C 348.24566,253.44741 346.47499,252.97808 344.51234,252.97805 C 343.04033,252.97808 341.643,253.27674 340.32034,253.87405 C 338.99767,254.47141 337.835,255.27141 336.83234,256.27405 C 335.82967,257.27674 335.02967,258.4394 334.43234,259.76205 C 333.85634,261.08474 333.56834,262.4714 333.56834,263.92205 C 333.56834,265.4154 333.85634,266.8234 334.43234,268.14605 C 335.00834,269.46873 335.787,270.63139 336.76834,271.63405 C 337.771,272.61539 338.93367,273.40472 340.25634,274.00205 C 341.579,274.57805 342.99766,274.86605 344.51234,274.86605 C 345.81366,274.86605 347.07232,274.63139 348.28834,274.16205 C 349.50432,273.67139 350.61365,273.02072 351.61634,272.21005 C 352.66165,271.31406 353.39765,270.35406 353.82434,269.33005 C 354.27232,268.30606 354.51765,267.13273 354.56034,265.81005 L 345.92034,265.81005 L 345.92034,264.37005 L 356.09634,264.37005 M 70.165091,296.01805 L 70.101091,296.01805 L 61.685091,316.78605 L 53.301091,296.01805 L 53.237091,296.01805 L 49.109091,315.98605 L 47.637091,315.98605 L 52.821091,291.05805 L 61.685091,313.01005 L 70.581091,291.05805 L 75.765091,315.98605 L 74.293091,315.98605 L 70.165091,296.01805 M 89.700591,292.97805 C 88.185912,292.97808 86.767247,293.27674 85.444591,293.87405 C 84.121916,294.45008 82.95925,295.23941 81.956591,296.24205 C 80.953919,297.22341 80.164586,298.3754 79.588591,299.69805 C 79.012588,301.02074 78.724588,302.42873 78.724591,303.92205 C 78.724588,305.4154 79.012588,306.8234 79.588591,308.14605 C 80.164586,309.46873 80.953919,310.63139 81.956591,311.63405 C 82.95925,312.61539 84.121916,313.40472 85.444591,314.00205 C 86.767247,314.57805 88.185912,314.86605 89.700591,314.86605 C 91.193909,314.86605 92.601907,314.57805 93.924591,314.00205 C 95.268571,313.40472 96.431237,312.61539 97.412591,311.63405 C 98.415235,310.63139 99.204567,309.46873 99.780591,308.14605 C 100.3779,306.80206 100.67657,305.39406 100.67659,303.92205 C 100.67657,302.42873 100.3779,301.02074 99.780591,299.69805 C 99.204567,298.3754 98.415235,297.22341 97.412591,296.24205 C 96.431237,295.23941 95.268571,294.45008 93.924591,293.87405 C 92.601907,293.27674 91.193909,292.97808 89.700591,292.97805 M 89.700591,291.53805 C 91.385909,291.53808 92.985907,291.86874 94.500591,292.53005 C 96.036571,293.17008 97.369903,294.05541 98.500591,295.18605 C 99.631234,296.31674 100.52723,297.63941 101.18859,299.15405 C 101.87123,300.6474 102.21256,302.23673 102.21259,303.92205 C 102.21256,305.62873 101.87123,307.22873 101.18859,308.72205 C 100.52723,310.21539 99.631234,311.52739 98.500591,312.65805 C 97.369903,313.78872 96.036571,314.68472 94.500591,315.34605 C 92.985907,315.98605 91.385909,316.30605 89.700591,316.30605 C 87.993912,316.30605 86.383247,315.98605 84.868591,315.34605 C 83.353917,314.68472 82.031251,313.78872 80.900591,312.65805 C 79.76992,311.52739 78.863254,310.21539 78.180591,308.72205 C 77.519256,307.22873 77.188589,305.62873 77.188591,303.92205 C 77.188589,302.23673 77.519256,300.6474 78.180591,299.15405 C 78.841921,297.63941 79.73792,296.31674 80.868591,295.18605 C 82.020585,294.05541 83.353917,293.17008 84.868591,292.53005 C 86.383247,291.86874 87.993912,291.53808 89.700591,291.53805 M 109.42909,303.12205 C 110.17575,303.12207 110.91175,303.06873 111.63709,302.96205 C 112.36241,302.8554 113.03441,302.5354 113.65309,302.00205 C 114.22908,301.53273 114.65575,300.9674 114.93309,300.30605 C 115.21041,299.6234 115.34908,298.9194 115.34909,298.19405 C 115.34908,297.29807 115.13575,296.44474 114.70909,295.63405 C 114.30375,294.82341 113.66375,294.22608 112.78909,293.84205 C 112.14908,293.54341 111.44508,293.38341 110.67709,293.36205 C 109.90908,293.31941 109.17308,293.29808 108.46909,293.29805 L 107.47709,293.29805 L 107.47709,303.12205 L 109.42909,303.12205 M 117.87709,315.98605 L 116.11709,315.98605 L 108.24509,304.56205 L 107.47709,304.56205 L 107.47709,315.98605 L 105.94109,315.98605 L 105.94109,291.85805 L 108.94909,291.85805 C 109.93042,291.85808 110.89042,291.91141 111.82909,292.01805 C 112.76775,292.12474 113.64241,292.47674 114.45309,293.07405 C 115.32775,293.69274 115.94641,294.46074 116.30909,295.37805 C 116.69308,296.27407 116.88508,297.23407 116.88509,298.25805 C 116.88508,299.3034 116.71441,300.2314 116.37309,301.04205 C 116.03174,301.8314 115.55175,302.49273 114.93309,303.02605 C 114.31441,303.53807 113.57841,303.93273 112.72509,304.21005 C 111.89308,304.46606 110.97575,304.5834 109.97309,304.56205 L 117.87709,315.98605 M 123.10209,293.29805 L 123.10209,302.06605 L 132.83009,302.06605 L 132.83009,303.50605 L 123.10209,303.50605 L 123.10209,314.54605 L 133.08609,314.54605 L 133.08609,315.98605 L 121.56609,315.98605 L 121.56609,291.85805 L 133.08609,291.85805 L 133.08609,293.29805 L 123.10209,293.29805 M 149.28959,315.98605 L 147.75359,315.98605 L 147.75359,291.85805 L 149.28959,291.85805 L 149.28959,315.98605 M 165.67159,295.82605 C 165.11691,294.95141 164.44491,294.25808 163.65559,293.74605 C 162.88758,293.23408 161.92758,292.97808 160.77559,292.97805 C 160.13558,292.97808 159.53825,293.10608 158.98359,293.36205 C 158.42892,293.59674 157.94892,293.92741 157.54359,294.35405 C 157.13825,294.75941 156.81825,295.23941 156.58359,295.79405 C 156.34892,296.34874 156.23159,296.94607 156.23159,297.58605 C 156.23159,298.22607 156.35959,298.78074 156.61559,299.25005 C 156.89292,299.69807 157.24492,300.1034 157.67159,300.46605 C 158.09825,300.8074 158.56758,301.10607 159.07959,301.36205 C 159.59158,301.61807 160.09292,301.8634 160.58359,302.09805 L 165.19159,304.49805 C 166.10891,305.07406 166.79158,305.74606 167.23959,306.51405 C 167.70891,307.28206 167.94357,308.21006 167.94359,309.29805 C 167.94357,310.30073 167.73024,311.22872 167.30359,312.08205 C 166.89824,312.93539 166.34358,313.68206 165.63959,314.32205 C 164.93558,314.94072 164.12491,315.43139 163.20759,315.79405 C 162.31158,316.13539 161.37291,316.30605 160.39159,316.30605 C 158.70625,316.30605 157.23425,315.83672 155.97559,314.89805 C 154.73825,313.93806 153.84226,312.67939 153.28759,311.12205 L 154.63159,310.51405 C 155.14359,311.79406 155.86892,312.83939 156.80759,313.65005 C 157.76758,314.46072 158.98358,314.86605 160.45559,314.86605 C 161.24491,314.86605 162.00225,314.72739 162.72759,314.45005 C 163.45291,314.15139 164.08225,313.74606 164.61559,313.23405 C 165.17024,312.72206 165.60758,312.12472 165.92759,311.44205 C 166.24758,310.73806 166.40758,309.98073 166.40759,309.17005 C 166.40758,308.48739 166.24758,307.90073 165.92759,307.41005 C 165.62891,306.89806 165.23424,306.46073 164.74359,306.09805 C 164.27424,305.71406 163.75158,305.3834 163.17559,305.10605 C 162.59958,304.8074 162.05558,304.53006 161.54359,304.27405 L 157.19159,301.97005 C 156.38092,301.4794 155.76225,300.88207 155.33559,300.17805 C 154.90892,299.45274 154.69559,298.61007 154.69559,297.65005 C 154.69559,296.75407 154.84492,295.93274 155.14359,295.18605 C 155.46359,294.43941 155.89025,293.79941 156.42359,293.26605 C 156.97825,292.71141 157.62892,292.28474 158.37559,291.98605 C 159.14358,291.68741 159.97558,291.53808 160.87159,291.53805 C 162.08758,291.53808 163.22891,291.84741 164.29559,292.46605 C 165.36224,293.06341 166.18358,293.88474 166.75959,294.93005 L 165.67159,295.82605 M 201.04659,296.78605 C 200.57724,296.21007 200.03324,295.69807 199.41459,295.25005 C 198.7959,294.78074 198.12391,294.37541 197.39859,294.03405 C 196.69457,293.69274 195.95857,293.43674 195.19059,293.26605 C 194.44391,293.07408 193.69724,292.97808 192.95059,292.97805 C 191.43591,292.97808 190.01725,293.27674 188.69459,293.87405 C 187.37192,294.47141 186.20925,295.28207 185.20659,296.30605 C 184.20392,297.33007 183.41459,298.51407 182.83859,299.85805 C 182.26259,301.20207 181.97459,302.61007 181.97459,304.08205 C 181.97459,305.49006 182.25192,306.83406 182.80659,308.11405 C 183.38259,309.39406 184.18259,310.53539 185.20659,311.53805 C 186.23058,312.49806 187.41458,313.29806 188.75859,313.93805 C 190.12391,314.55672 191.52125,314.86605 192.95059,314.86605 C 193.65458,314.86605 194.37991,314.78072 195.12659,314.61005 C 195.89457,314.41806 196.64124,314.16206 197.36659,313.84205 C 198.09191,313.52206 198.77457,313.13806 199.41459,312.69005 C 200.05457,312.24206 200.59857,311.74072 201.04659,311.18605 L 201.04659,313.29805 C 199.89457,314.25806 198.6359,315.00472 197.27059,315.53805 C 195.92657,316.05005 194.50791,316.30605 193.01459,316.30605 C 191.32925,316.30605 189.72925,315.98605 188.21459,315.34605 C 186.69992,314.68472 185.36658,313.79939 184.21459,312.69005 C 183.06259,311.55939 182.14525,310.24739 181.46259,308.75405 C 180.77992,307.2394 180.43859,305.6394 180.43859,303.95405 C 180.43859,302.2474 180.76926,300.63674 181.43059,299.12205 C 182.11325,297.60741 183.03059,296.29541 184.18259,295.18605 C 185.33458,294.05541 186.66792,293.17008 188.18259,292.53005 C 189.71858,291.86874 191.33991,291.53808 193.04659,291.53805 C 194.51858,291.53808 195.94791,291.81541 197.33459,292.37005 C 198.72124,292.90341 199.95857,293.67141 201.04659,294.67405 L 201.04659,296.78605 M 216.57559,292.97805 C 215.06091,292.97808 213.64225,293.27674 212.31959,293.87405 C 210.99692,294.45008 209.83425,295.23941 208.83159,296.24205 C 207.82892,297.22341 207.03959,298.3754 206.46359,299.69805 C 205.88759,301.02074 205.59959,302.42873 205.59959,303.92205 C 205.59959,305.4154 205.88759,306.8234 206.46359,308.14605 C 207.03959,309.46873 207.82892,310.63139 208.83159,311.63405 C 209.83425,312.61539 210.99692,313.40472 212.31959,314.00205 C 213.64225,314.57805 215.06091,314.86605 216.57559,314.86605 C 218.06891,314.86605 219.47691,314.57805 220.79959,314.00205 C 222.14357,313.40472 223.30624,312.61539 224.28759,311.63405 C 225.29023,310.63139 226.07957,309.46873 226.65559,308.14605 C 227.2529,306.80206 227.55157,305.39406 227.55159,303.92205 C 227.55157,302.42873 227.2529,301.02074 226.65559,299.69805 C 226.07957,298.3754 225.29023,297.22341 224.28759,296.24205 C 223.30624,295.23941 222.14357,294.45008 220.79959,293.87405 C 219.47691,293.27674 218.06891,292.97808 216.57559,292.97805 M 216.57559,291.53805 C 218.26091,291.53808 219.86091,291.86874 221.37559,292.53005 C 222.91157,293.17008 224.2449,294.05541 225.37559,295.18605 C 226.50623,296.31674 227.40223,297.63941 228.06359,299.15405 C 228.74623,300.6474 229.08756,302.23673 229.08759,303.92205 C 229.08756,305.62873 228.74623,307.22873 228.06359,308.72205 C 227.40223,310.21539 226.50623,311.52739 225.37559,312.65805 C 224.2449,313.78872 222.91157,314.68472 221.37559,315.34605 C 219.86091,315.98605 218.26091,316.30605 216.57559,316.30605 C 214.86891,316.30605 213.25825,315.98605 211.74359,315.34605 C 210.22892,314.68472 208.90625,313.78872 207.77559,312.65805 C 206.64492,311.52739 205.73825,310.21539 205.05559,308.72205 C 204.39426,307.22873 204.06359,305.62873 204.06359,303.92205 C 204.06359,302.23673 204.39426,300.6474 205.05559,299.15405 C 205.71692,297.63941 206.61292,296.31674 207.74359,295.18605 C 208.89558,294.05541 210.22892,293.17008 211.74359,292.53005 C 213.25825,291.86874 214.86891,291.53808 216.57559,291.53805 M 253.04009,296.01805 L 252.97609,296.01805 L 244.56009,316.78605 L 236.17609,296.01805 L 236.11209,296.01805 L 231.98409,315.98605 L 230.51209,315.98605 L 235.69609,291.05805 L 244.56009,313.01005 L 253.45609,291.05805 L 258.64009,315.98605 L 257.16809,315.98605 L 253.04009,296.01805 M 263.03959,315.98605 L 261.50359,315.98605 L 261.50359,291.85805 L 263.03959,291.85805 L 263.03959,315.98605 M 290.04559,316.78605 L 269.78959,295.25005 L 269.78959,315.98605 L 268.25359,315.98605 L 268.25359,291.53805 L 288.50959,312.91405 L 288.50959,291.85805 L 290.04559,291.85805 L 290.04559,316.78605 M 317.87759,304.37005 C 317.8989,305.13806 317.87757,305.87406 317.81359,306.57805 C 317.74957,307.28206 317.62157,307.97539 317.42959,308.65805 C 317.2589,309.31939 317.0029,309.97006 316.66159,310.61005 C 316.32023,311.22872 315.8829,311.82606 315.34959,312.40205 C 314.19757,313.66072 312.8109,314.63139 311.18959,315.31405 C 309.56824,315.97539 307.90424,316.30605 306.19759,316.30605 C 304.53358,316.30605 302.94425,315.98605 301.42959,315.34605 C 299.93625,314.68472 298.62425,313.79939 297.49359,312.69005 C 296.36292,311.55939 295.46692,310.24739 294.80559,308.75405 C 294.14426,307.26073 293.81359,305.68206 293.81359,304.01805 C 293.81359,302.29007 294.14426,300.66874 294.80559,299.15405 C 295.46692,297.63941 296.36292,296.31674 297.49359,295.18605 C 298.64558,294.05541 299.97892,293.17008 301.49359,292.53005 C 303.02958,291.86874 304.66158,291.53808 306.38959,291.53805 C 308.58691,291.53808 310.56024,292.05008 312.30959,293.07405 C 314.0589,294.07674 315.57357,295.44207 316.85359,297.17005 L 315.60559,298.16205 C 314.51757,296.56207 313.18424,295.30341 311.60559,294.38605 C 310.02691,293.44741 308.25624,292.97808 306.29359,292.97805 C 304.82158,292.97808 303.42425,293.27674 302.10159,293.87405 C 300.77892,294.47141 299.61625,295.27141 298.61359,296.27405 C 297.61092,297.27674 296.81092,298.4394 296.21359,299.76205 C 295.63759,301.08474 295.34959,302.4714 295.34959,303.92205 C 295.34959,305.4154 295.63759,306.8234 296.21359,308.14605 C 296.78959,309.46873 297.56825,310.63139 298.54959,311.63405 C 299.55225,312.61539 300.71492,313.40472 302.03759,314.00205 C 303.36025,314.57805 304.77891,314.86605 306.29359,314.86605 C 307.59491,314.86605 308.85357,314.63139 310.06959,314.16205 C 311.28557,313.67139 312.3949,313.02072 313.39759,312.21005 C 314.4429,311.31406 315.1789,310.35406 315.60559,309.33005 C 316.05357,308.30606 316.2989,307.13273 316.34159,305.81005 L 307.70159,305.81005 L 307.70159,304.37005 L 317.87759,304.37005 M 323.99659,313.68205 C 324.35925,313.68206 324.66858,313.81006 324.92459,314.06605 C 325.18058,314.32206 325.30858,314.63139 325.30859,314.99405 C 325.30858,315.35672 325.18058,315.66605 324.92459,315.92205 C 324.66858,316.17805 324.35925,316.30605 323.99659,316.30605 C 323.63392,316.30605 323.32459,316.17805 323.06859,315.92205 C 322.81259,315.66605 322.68459,315.35672 322.68459,314.99405 C 322.68459,314.63139 322.81259,314.32206 323.06859,314.06605 C 323.32459,313.81006 323.63392,313.68206 323.99659,313.68205 M 333.93409,313.68205 C 334.29675,313.68206 334.60608,313.81006 334.86209,314.06605 C 335.11808,314.32206 335.24608,314.63139 335.24609,314.99405 C 335.24608,315.35672 335.11808,315.66605 334.86209,315.92205 C 334.60608,316.17805 334.29675,316.30605 333.93409,316.30605 C 333.57142,316.30605 333.26209,316.17805 333.00609,315.92205 C 332.75009,315.66605 332.62209,315.35672 332.62209,314.99405 C 332.62209,314.63139 332.75009,314.32206 333.00609,314.06605 C 333.26209,313.81006 333.57142,313.68206 333.93409,313.68205 M 343.87159,313.68205 C 344.23425,313.68206 344.54358,313.81006 344.79959,314.06605 C 345.05558,314.32206 345.18358,314.63139 345.18359,314.99405 C 345.18358,315.35672 345.05558,315.66605 344.79959,315.92205 C 344.54358,316.17805 344.23425,316.30605 343.87159,316.30605 C 343.50892,316.30605 343.19959,316.17805 342.94359,315.92205 C 342.68759,315.66605 342.55959,315.35672 342.55959,314.99405 C 342.55959,314.63139 342.68759,314.32206 342.94359,314.06605 C 343.19959,313.81006 343.50892,313.68206 343.87159,313.68205 M 77.909341,329.58605 L 77.909341,343.50605 L 77.973341,343.50605 C 78.400003,342.6954 78.997336,342.0554 79.765341,341.58605 C 80.533334,341.11674 81.397333,340.88207 82.357341,340.88205 C 83.317331,340.88207 84.106664,341.0314 84.725341,341.33005 C 85.343996,341.6074 85.834662,342.01273 86.197341,342.54605 C 86.581328,343.0794 86.847994,343.73007 86.997341,344.49805 C 87.146661,345.24473 87.221327,346.09806 87.221341,347.05805 L 87.221341,355.98605 L 85.781341,355.98605 L 85.781341,347.05805 C 85.781329,346.39673 85.749329,345.77806 85.685341,345.20205 C 85.621329,344.60473 85.461329,344.09273 85.205341,343.66605 C 84.970663,343.21807 84.618663,342.86607 84.149341,342.61005 C 83.679998,342.35407 83.039998,342.22607 82.229341,342.22605 C 81.290667,342.22607 80.533334,342.42873 79.957341,342.83405 C 79.402669,343.21807 78.976002,343.7194 78.677341,344.33805 C 78.37867,344.95673 78.176003,345.65006 78.069341,346.41805 C 77.96267,347.18606 77.909337,347.94339 77.909341,348.69005 L 77.909341,355.98605 L 76.469341,355.98605 L 76.469341,329.58605 L 77.909341,329.58605 M 93.756841,355.98605 L 92.316841,355.98605 L 92.316841,342.54605 L 90.684841,342.54605 L 90.684841,341.20205 L 92.316841,341.20205 L 92.316841,335.92205 L 93.756841,335.92205 L 93.756841,341.20205 L 96.348841,341.20205 L 96.348841,342.54605 L 93.756841,342.54605 L 93.756841,355.98605 M 100.44434,355.98605 L 99.004341,355.98605 L 99.004341,342.54605 L 97.372341,342.54605 L 97.372341,341.20205 L 99.004341,341.20205 L 99.004341,335.92205 L 100.44434,335.92205 L 100.44434,341.20205 L 103.03634,341.20205 L 103.03634,342.54605 L 100.44434,342.54605 L 100.44434,355.98605 M 106.97184,343.85805 L 107.03584,343.85805 C 107.31317,343.38873 107.6545,342.97273 108.05984,342.61005 C 108.4865,342.22607 108.94517,341.90607 109.43584,341.65005 C 109.94783,341.39407 110.4705,341.20207 111.00384,341.07405 C 111.5585,340.94607 112.11316,340.88207 112.66784,340.88205 C 113.7985,340.88207 114.81183,341.0954 115.70784,341.52205 C 116.60383,341.9274 117.36116,342.48207 117.97984,343.18605 C 118.61983,343.89007 119.11049,344.72206 119.45184,345.68205 C 119.79316,346.62073 119.96382,347.63406 119.96384,348.72205 C 119.96382,349.81006 119.79316,350.81273 119.45184,351.73005 C 119.11049,352.64739 118.63049,353.44739 118.01184,354.13005 C 117.39316,354.81272 116.63583,355.34605 115.73984,355.73005 C 114.84383,356.11405 113.84116,356.30605 112.73184,356.30605 C 111.57983,356.30605 110.49183,356.07139 109.46784,355.60205 C 108.46517,355.11139 107.6545,354.38606 107.03584,353.42605 L 106.97184,353.42605 L 106.97184,364.62605 L 105.53184,364.62605 L 105.53184,341.20205 L 106.97184,341.20205 L 106.97184,343.85805 M 112.69984,342.22605 C 111.76117,342.22607 110.92917,342.4074 110.20384,342.77005 C 109.4785,343.13273 108.8705,343.6234 108.37984,344.24205 C 107.88917,344.86073 107.51584,345.5754 107.25984,346.38605 C 107.00384,347.1754 106.87584,348.01806 106.87584,348.91405 C 106.87584,349.78873 107.0145,350.59939 107.29184,351.34605 C 107.56917,352.07139 107.96384,352.70072 108.47584,353.23405 C 108.98783,353.76739 109.6065,354.19406 110.33184,354.51405 C 111.05717,354.81272 111.86783,354.96205 112.76384,354.96205 C 113.61716,354.96205 114.39583,354.79139 115.09984,354.45005 C 115.82516,354.10872 116.43316,353.66072 116.92384,353.10605 C 117.43583,352.53006 117.83049,351.86872 118.10784,351.12205 C 118.38516,350.37539 118.52383,349.58606 118.52384,348.75405 C 118.52383,347.90073 118.38516,347.09006 118.10784,346.32205 C 117.85183,345.53273 117.46783,344.8394 116.95584,344.24205 C 116.46516,343.6234 115.85716,343.13273 115.13184,342.77005 C 114.4065,342.4074 113.59583,342.22607 112.69984,342.22605 M 125.96534,340.88205 C 126.328,340.88207 126.63733,341.01007 126.89334,341.26605 C 127.14933,341.52207 127.27733,341.8314 127.27734,342.19405 C 127.27733,342.55673 127.14933,342.86607 126.89334,343.12205 C 126.63733,343.37807 126.328,343.50607 125.96534,343.50605 C 125.60267,343.50607 125.29334,343.37807 125.03734,343.12205 C 124.78134,342.86607 124.65334,342.55673 124.65334,342.19405 C 124.65334,341.8314 124.78134,341.52207 125.03734,341.26605 C 125.29334,341.01007 125.60267,340.88207 125.96534,340.88205 M 125.96534,353.68205 C 126.328,353.68206 126.63733,353.81006 126.89334,354.06605 C 127.14933,354.32206 127.27733,354.63139 127.27734,354.99405 C 127.27733,355.35672 127.14933,355.66605 126.89334,355.92205 C 126.63733,356.17805 126.328,356.30605 125.96534,356.30605 C 125.60267,356.30605 125.29334,356.17805 125.03734,355.92205 C 124.78134,355.66605 124.65334,355.35672 124.65334,354.99405 C 124.65334,354.63139 124.78134,354.32206 125.03734,354.06605 C 125.29334,353.81006 125.60267,353.68206 125.96534,353.68205 M 150.30284,330.16205 L 133.24684,360.53005 L 132.06284,359.92205 L 149.18284,329.58605 L 150.30284,330.16205 M 170.80284,330.16205 L 153.74684,360.53005 L 152.56284,359.92205 L 169.68284,329.58605 L 170.80284,330.16205 M 175.68684,334.96205 C 176.0495,334.96207 176.35884,335.09007 176.61484,335.34605 C 176.87084,335.60207 176.99884,335.91141 176.99884,336.27405 C 176.99884,336.63674 176.87084,336.94607 176.61484,337.20205 C 176.35884,337.45807 176.0495,337.58607 175.68684,337.58605 C 175.32417,337.58607 175.01484,337.45807 174.75884,337.20205 C 174.50284,336.94607 174.37484,336.63674 174.37484,336.27405 C 174.37484,335.91141 174.50284,335.60207 174.75884,335.34605 C 175.01484,335.09007 175.32417,334.96207 175.68684,334.96205 M 176.39084,364.62605 L 174.95084,364.62605 L 174.95084,341.20205 L 176.39084,341.20205 L 176.39084,364.62605 M 186.41884,353.39405 L 191.66684,341.20205 L 193.13884,341.20205 L 186.38684,356.78605 L 179.60284,341.20205 L 181.07484,341.20205 L 186.41884,353.39405 M 208.99784,355.28205 C 208.99782,356.43405 208.92316,357.52205 208.77384,358.54605 C 208.64583,359.57005 208.22983,360.57272 207.52584,361.55405 C 206.84316,362.51405 205.97916,363.22871 204.93384,363.69805 C 203.90983,364.16738 202.81116,364.40205 201.63784,364.40205 C 200.67783,364.40205 199.7605,364.26338 198.88584,363.98605 C 198.0325,363.70871 197.27517,363.29271 196.61384,362.73805 C 195.9525,362.20471 195.41917,361.54338 195.01384,360.75405 C 194.62984,359.98605 194.40584,359.09005 194.34184,358.06605 L 195.78184,358.06605 C 195.8245,358.83405 196.00584,359.52738 196.32584,360.14605 C 196.64584,360.76472 197.06184,361.28738 197.57384,361.71405 C 198.10717,362.14071 198.7045,362.47138 199.36584,362.70605 C 200.0485,362.94071 200.76317,363.05805 201.50984,363.05805 C 202.4485,363.05805 203.33383,362.88738 204.16584,362.54605 C 204.99783,362.20471 205.69116,361.63938 206.24584,360.85005 C 206.82183,359.99672 207.18449,359.10072 207.33384,358.16205 C 207.48316,357.22339 207.55783,356.25272 207.55784,355.25005 L 207.55784,353.42605 L 207.49384,353.42605 C 206.83249,354.32206 205.98983,355.02605 204.96584,355.53805 C 203.94183,356.05005 202.8645,356.30605 201.73384,356.30605 C 200.66717,356.30605 199.68583,356.10339 198.78984,355.69805 C 197.91517,355.27139 197.15784,354.70605 196.51784,354.00205 C 195.89917,353.27672 195.41917,352.44472 195.07784,351.50605 C 194.73651,350.56739 194.56584,349.58606 194.56584,348.56205 C 194.56584,347.4954 194.74717,346.5034 195.10984,345.58605 C 195.47251,344.6474 195.97384,343.83673 196.61384,343.15405 C 197.27517,342.45007 198.05384,341.8954 198.94984,341.49005 C 199.84583,341.08474 200.83783,340.88207 201.92584,340.88205 C 203.14183,340.88207 204.19783,341.1274 205.09384,341.61805 C 206.01116,342.10873 206.81116,342.8234 207.49384,343.76205 L 207.55784,343.76205 L 207.55784,341.20205 L 208.99784,341.20205 L 208.99784,355.28205 M 201.73384,342.22605 C 200.8805,342.22607 200.10183,342.4074 199.39784,342.77005 C 198.69384,343.1114 198.08584,343.58073 197.57384,344.17805 C 197.08317,344.75406 196.69917,345.42606 196.42184,346.19405 C 196.1445,346.94073 196.00584,347.70873 196.00584,348.49805 C 196.00584,349.35139 196.13384,350.17273 196.38984,350.96205 C 196.66717,351.73006 197.06184,352.41272 197.57384,353.01005 C 198.08584,353.60739 198.69384,354.08739 199.39784,354.45005 C 200.12317,354.79139 200.93383,354.96205 201.82984,354.96205 C 202.7685,354.96205 203.6005,354.79139 204.32584,354.45005 C 205.05116,354.08739 205.65916,353.60739 206.14984,353.01005 C 206.64049,352.39139 207.01383,351.68739 207.26984,350.89805 C 207.52583,350.08739 207.65383,349.23406 207.65384,348.33805 C 207.65383,347.48473 207.51516,346.68473 207.23784,345.93805 C 206.96049,345.1914 206.55516,344.5514 206.02184,344.01805 C 205.50983,343.4634 204.89116,343.02607 204.16584,342.70605 C 203.4405,342.38607 202.62983,342.22607 201.73384,342.22605 M 220.11484,343.89005 C 219.88017,343.37807 219.52817,342.97273 219.05884,342.67405 C 218.61083,342.3754 218.09883,342.22607 217.52284,342.22605 C 217.20283,342.22607 216.8935,342.29007 216.59484,342.41805 C 216.29617,342.52473 216.0295,342.68473 215.79484,342.89805 C 215.56017,343.1114 215.36817,343.35673 215.21884,343.63405 C 215.0695,343.9114 214.99484,344.21007 214.99484,344.53005 C 214.99484,345.1274 215.1655,345.59673 215.50684,345.93805 C 215.8695,346.25806 216.3175,346.5354 216.85084,346.77005 C 217.38417,347.00473 217.96017,347.22873 218.57884,347.44205 C 219.21883,347.6554 219.8055,347.93273 220.33884,348.27405 C 220.87216,348.59406 221.3095,349.02073 221.65084,349.55405 C 222.0135,350.08739 222.19483,350.80206 222.19484,351.69805 C 222.19483,352.38072 222.06683,353.01006 221.81084,353.58605 C 221.57616,354.14072 221.23483,354.62072 220.78684,355.02605 C 220.36016,355.43139 219.85883,355.75139 219.28284,355.98605 C 218.70683,356.19939 218.08817,356.30605 217.42684,356.30605 C 216.1895,356.30605 215.1015,355.96472 214.16284,355.28205 C 213.24551,354.57805 212.63751,353.61806 212.33884,352.40205 L 213.74684,351.95405 C 214.02417,352.85006 214.4615,353.57539 215.05884,354.13005 C 215.65617,354.68472 216.4455,354.96205 217.42684,354.96205 C 218.3655,354.96205 219.15483,354.64205 219.79484,354.00205 C 220.43483,353.36206 220.75483,352.57272 220.75484,351.63405 C 220.75483,351.18606 220.6695,350.80206 220.49884,350.48205 C 220.3495,350.16206 220.13617,349.89539 219.85884,349.68205 C 219.60283,349.46873 219.2935,349.28739 218.93084,349.13805 C 218.5895,348.98873 218.2375,348.85006 217.87484,348.72205 C 217.36283,348.53006 216.85084,348.32739 216.33884,348.11405 C 215.82684,347.90073 215.3575,347.64473 214.93084,347.34605 C 214.5255,347.02606 214.19484,346.65273 213.93884,346.22605 C 213.68284,345.77806 213.55484,345.24473 213.55484,344.62605 C 213.55484,344.0714 213.66151,343.57007 213.87484,343.12205 C 214.1095,342.65273 214.40817,342.25807 214.77084,341.93805 C 215.1335,341.59673 215.56017,341.34073 216.05084,341.17005 C 216.5415,340.97807 217.0535,340.88207 217.58684,340.88205 C 218.3335,340.88207 219.0695,341.10607 219.79484,341.55405 C 220.52016,342.00207 221.04283,342.5674 221.36284,343.25005 L 220.11484,343.89005 M 228.40284,353.68205 C 228.7655,353.68206 229.07483,353.81006 229.33084,354.06605 C 229.58683,354.32206 229.71483,354.63139 229.71484,354.99405 C 229.71483,355.35672 229.58683,355.66605 229.33084,355.92205 C 229.07483,356.17805 228.7655,356.30605 228.40284,356.30605 C 228.04017,356.30605 227.73084,356.17805 227.47484,355.92205 C 227.21884,355.66605 227.09084,355.35672 227.09084,354.99405 C 227.09084,354.63139 227.21884,354.32206 227.47484,354.06605 C 227.73084,353.81006 228.04017,353.68206 228.40284,353.68205 M 242.05234,343.89005 C 241.81767,343.37807 241.46567,342.97273 240.99634,342.67405 C 240.54833,342.3754 240.03633,342.22607 239.46034,342.22605 C 239.14033,342.22607 238.831,342.29007 238.53234,342.41805 C 238.23367,342.52473 237.967,342.68473 237.73234,342.89805 C 237.49767,343.1114 237.30567,343.35673 237.15634,343.63405 C 237.007,343.9114 236.93234,344.21007 236.93234,344.53005 C 236.93234,345.1274 237.103,345.59673 237.44434,345.93805 C 237.807,346.25806 238.255,346.5354 238.78834,346.77005 C 239.32167,347.00473 239.89767,347.22873 240.51634,347.44205 C 241.15633,347.6554 241.743,347.93273 242.27634,348.27405 C 242.80966,348.59406 243.247,349.02073 243.58834,349.55405 C 243.951,350.08739 244.13233,350.80206 244.13234,351.69805 C 244.13233,352.38072 244.00433,353.01006 243.74834,353.58605 C 243.51366,354.14072 243.17233,354.62072 242.72434,355.02605 C 242.29766,355.43139 241.79633,355.75139 241.22034,355.98605 C 240.64433,356.19939 240.02567,356.30605 239.36434,356.30605 C 238.127,356.30605 237.039,355.96472 236.10034,355.28205 C 235.18301,354.57805 234.57501,353.61806 234.27634,352.40205 L 235.68434,351.95405 C 235.96167,352.85006 236.399,353.57539 236.99634,354.13005 C 237.59367,354.68472 238.383,354.96205 239.36434,354.96205 C 240.303,354.96205 241.09233,354.64205 241.73234,354.00205 C 242.37233,353.36206 242.69233,352.57272 242.69234,351.63405 C 242.69233,351.18606 242.607,350.80206 242.43634,350.48205 C 242.287,350.16206 242.07367,349.89539 241.79634,349.68205 C 241.54033,349.46873 241.231,349.28739 240.86834,349.13805 C 240.527,348.98873 240.175,348.85006 239.81234,348.72205 C 239.30033,348.53006 238.78834,348.32739 238.27634,348.11405 C 237.76434,347.90073 237.295,347.64473 236.86834,347.34605 C 236.463,347.02606 236.13234,346.65273 235.87634,346.22605 C 235.62034,345.77806 235.49234,345.24473 235.49234,344.62605 C 235.49234,344.0714 235.59901,343.57007 235.81234,343.12205 C 236.047,342.65273 236.34567,342.25807 236.70834,341.93805 C 237.071,341.59673 237.49767,341.34073 237.98834,341.17005 C 238.479,340.97807 238.991,340.88207 239.52434,340.88205 C 240.271,340.88207 241.007,341.10607 241.73234,341.55405 C 242.45766,342.00207 242.98033,342.5674 243.30034,343.25005 L 242.05234,343.89005 M 249.28434,355.98605 L 247.84434,355.98605 L 247.84434,342.54605 L 246.21234,342.54605 L 246.21234,341.20205 L 247.84434,341.20205 L 247.84434,334.57805 C 247.84434,334.02341 247.86567,333.40474 247.90834,332.72205 C 247.97234,332.03941 248.143,331.45274 248.42034,330.96205 C 248.76167,330.36475 249.22034,329.91675 249.79634,329.61805 C 250.39367,329.31941 251.03367,329.17008 251.71634,329.17005 C 252.18567,329.17008 252.61233,329.24475 252.99634,329.39405 L 252.99634,330.70605 C 252.80433,330.66341 252.61233,330.62075 252.42034,330.57805 C 252.22833,330.53541 252.02567,330.51408 251.81234,330.51405 C 251.19367,330.51408 250.71367,330.65275 250.37234,330.93005 C 250.031,331.20741 249.775,331.55941 249.60434,331.98605 C 249.455,332.41274 249.359,332.88208 249.31634,333.39405 C 249.295,333.90608 249.28434,334.39674 249.28434,334.86605 L 249.28434,341.20205 L 252.99634,341.20205 L 252.99634,342.54605 L 249.28434,342.54605 L 249.28434,355.98605 M 258.02784,353.68205 C 258.3905,353.68206 258.69983,353.81006 258.95584,354.06605 C 259.21183,354.32206 259.33983,354.63139 259.33984,354.99405 C 259.33983,355.35672 259.21183,355.66605 258.95584,355.92205 C 258.69983,356.17805 258.3905,356.30605 258.02784,356.30605 C 257.66517,356.30605 257.35584,356.17805 257.09984,355.92205 C 256.84384,355.66605 256.71584,355.35672 256.71584,354.99405 C 256.71584,354.63139 256.84384,354.32206 257.09984,354.06605 C 257.35584,353.81006 257.66517,353.68206 258.02784,353.68205 M 266.90934,343.50605 L 266.97334,343.50605 C 267.4,342.6954 267.99734,342.0554 268.76534,341.58605 C 269.53333,341.11674 270.39733,340.88207 271.35734,340.88205 C 272.31733,340.88207 273.10666,341.0314 273.72534,341.33005 C 274.344,341.6074 274.83466,342.01273 275.19734,342.54605 C 275.58133,343.0794 275.84799,343.73007 275.99734,344.49805 C 276.14666,345.24473 276.22133,346.09806 276.22134,347.05805 L 276.22134,355.98605 L 274.78134,355.98605 L 274.78134,347.05805 C 274.78133,346.39673 274.74933,345.77806 274.68534,345.20205 C 274.62133,344.60473 274.46133,344.09273 274.20534,343.66605 C 273.97066,343.21807 273.61866,342.86607 273.14934,342.61005 C 272.68,342.35407 272.04,342.22607 271.22934,342.22605 C 270.29067,342.22607 269.53333,342.42873 268.95734,342.83405 C 268.40267,343.21807 267.976,343.7194 267.67734,344.33805 C 267.37867,344.95673 267.176,345.65006 267.06934,346.41805 C 266.96267,347.18606 266.90934,347.94339 266.90934,348.69005 L 266.90934,355.98605 L 265.46934,355.98605 L 265.46934,341.20205 L 266.90934,341.20205 L 266.90934,343.50605 M 292.54884,347.37805 C 292.46349,346.6954 292.26083,346.04473 291.94084,345.42605 C 291.64216,344.8074 291.23683,344.2634 290.72484,343.79405 C 290.23416,343.3034 289.66883,342.9194 289.02884,342.64205 C 288.38883,342.36473 287.68483,342.22607 286.91684,342.22605 C 286.17017,342.22607 285.4555,342.36473 284.77284,342.64205 C 284.1115,342.9194 283.52484,343.29273 283.01284,343.76205 C 282.50084,344.2314 282.07417,344.7754 281.73284,345.39405 C 281.41284,346.01273 281.22084,346.67406 281.15684,347.37805 L 292.54884,347.37805 M 281.15684,348.72205 C 281.1355,349.66073 281.2635,350.51406 281.54084,351.28205 C 281.8395,352.05006 282.2555,352.71139 282.78884,353.26605 C 283.32217,353.79939 283.9515,354.21539 284.67684,354.51405 C 285.4235,354.81272 286.2235,354.96205 287.07684,354.96205 C 288.22883,354.96205 289.25283,354.65272 290.14884,354.03405 C 291.04483,353.41539 291.75949,352.60472 292.29284,351.60205 L 293.50884,352.30605 C 292.82616,353.58606 291.91949,354.57805 290.78884,355.28205 C 289.65816,355.96472 288.35683,356.30605 286.88484,356.30605 C 285.79683,356.30605 284.80483,356.10339 283.90884,355.69805 C 283.03417,355.27139 282.27684,354.70605 281.63684,354.00205 C 281.01817,353.29806 280.53817,352.47672 280.19684,351.53805 C 279.87684,350.59939 279.71684,349.60739 279.71684,348.56205 C 279.71684,347.53806 279.88751,346.5674 280.22884,345.65005 C 280.57017,344.7114 281.05017,343.89007 281.66884,343.18605 C 282.30884,342.48207 283.06617,341.9274 283.94084,341.52205 C 284.8155,341.0954 285.79683,340.88207 286.88484,340.88205 C 287.99416,340.88207 288.98616,341.0954 289.86084,341.52205 C 290.75683,341.9274 291.50349,342.49273 292.10084,343.21805 C 292.71949,343.92207 293.18883,344.75406 293.50884,345.71405 C 293.82883,346.65273 293.98883,347.6554 293.98884,348.72205 L 281.15684,348.72205 M 299.06934,355.98605 L 297.62934,355.98605 L 297.62934,342.54605 L 295.99734,342.54605 L 295.99734,341.20205 L 297.62934,341.20205 L 297.62934,335.92205 L 299.06934,335.92205 L 299.06934,341.20205 L 301.66134,341.20205 L 301.66134,342.54605 L 299.06934,342.54605 L 299.06934,355.98605 M 321.05284,330.16205 L 303.99684,360.53005 L 302.81284,359.92205 L 319.93284,329.58605 L 321.05284,330.16205"
       id="text3351"
       style="font-size:32px;font-style:normal;font-variant:normal;font-weight:normal;font-stretch:normal;text-align:center;line-height:125%;writing-mode:lr-tb;text-anchor:middle;fill:#000000;fill-opacity:1;stroke:none;stroke-width:1px;stroke-linecap:butt;stroke-linejoin:miter;stroke-opacity:1;font-family:Futura LT Light;-inkscape-font-specification:'Futura LT Light,'" />
    <path
       d="M 335.37065,354.03807 L 333.35532,366.62754 L 342.58371,375.42488 L 329.98764,377.39855 L 324.4726,388.89379 L 318.70313,377.52412 L 306.06627,375.83123 L 315.0966,366.83071 L 312.80163,354.28921 L 324.15216,360.09626 L 335.37065,354.03807 z"
       transform="translate(16.667517,-0.5050763)"
       id="path3401"
       style="fill:none;fill-opacity:1;stroke:#000000;stroke-width:1;stroke-linejoin:round;stroke-miterlimit:4;stroke-opacity:1" />
  </g>
</svg>
