<?xml version="1.0" encoding="UTF-8" standalone="no"?>
<!-- Created with Inkscape (http://www.inkscape.org/) -->
<svg
   xmlns:dc="http://purl.org/dc/elements/1.1/"
   xmlns:cc="http://creativecommons.org/ns#"
   xmlns:rdf="http://www.w3.org/1999/02/22-rdf-syntax-ns#"
   xmlns:svg="http://www.w3.org/2000/svg"
   xmlns="http://www.w3.org/2000/svg"
   xmlns:sodipodi="http://sodipodi.sourceforge.net/DTD/sodipodi-0.dtd"
   xmlns:inkscape="http://www.inkscape.org/namespaces/inkscape"
   version="1.0"
   width="4000"
   height="500"
   id="svg2"
   sodipodi:version="0.32"
   inkscape:version="0.46"
   sodipodi:docname="level-01.svg"
   inkscape:output_extension="org.inkscape.output.svg.inkscape">
  <metadata
     id="metadata2396">
    <rdf:RDF>
      <cc:Work
         rdf:about="">
        <dc:format>image/svg+xml</dc:format>
        <dc:type
           rdf:resource="http://purl.org/dc/dcmitype/StillImage" />
      </cc:Work>
    </rdf:RDF>
  </metadata>
  <sodipodi:namedview
     inkscape:window-height="552"
     inkscape:window-width="903"
     inkscape:pageshadow="2"
     inkscape:pageopacity="0.0"
     guidetolerance="10.0"
     gridtolerance="10.0"
     objecttolerance="10.0"
     borderopacity="1.0"
     bordercolor="#666666"
     pagecolor="#ffffff"
     id="base"
     showgrid="false"
     inkscape:zoom="0.80044488"
     inkscape:cx="3409.6642"
     inkscape:cy="265.36442"
     inkscape:window-x="187"
     inkscape:window-y="131"
     inkscape:current-layer="svg2" />
  <defs
     id="defs4">
    <inkscape:perspective
       sodipodi:type="inkscape:persp3d"
       inkscape:vp_x="0 : 250 : 1"
       inkscape:vp_y="0 : 1000 : 0"
       inkscape:vp_z="4000 : 250 : 1"
       inkscape:persp3d-origin="2000 : 166.66667 : 1"
       id="perspective2398" />
  </defs>
  <path
     style="fill:none;fill-rule:evenodd;stroke:#000000;stroke-width:1;stroke-linecap:butt;stroke-linejoin:miter;stroke-miterlimit:4;stroke-dasharray:none;stroke-opacity:1"
     id="path2383"
     d="M 52.857143,445.71429 C 7.8074726,430.97193 55.161696,355.63947 84.285715,374.28572 C 106.55268,388.54183 522.85714,344.28571 590,317.14286 C 657.14286,290 688.42785,317.60333 694.14214,343.31762 C 840.44692,370.70047 853.5789,289.88827 925.29973,287.86797 C 997.02056,285.84766 1162.6856,321.203 1162.6856,321.203 C 1162.6856,321.203 1143.4927,262.61415 1145.513,236.35019 C 1147.5333,210.08622 1352.5943,213.11668 1352.5943,213.11668 C 1352.5943,213.11668 1361.4859,427.32689 1304.1069,431.30963 C 917.76005,458.12636 294.46027,524.77816 52.857143,445.71429 z" />
  <path
     style="fill:none;fill-rule:evenodd;stroke:#000000;stroke-width:1;stroke-linecap:butt;stroke-linejoin:miter;stroke-miterlimit:4;stroke-dasharray:none;stroke-opacity:1"
     id="path2392"
     d="M 160.61425,306.05071 L 158.59395,374.74108" />
  <path
     style="font-size:40px;font-style:normal;font-weight:normal;fill:none;fill-opacity:1;stroke:#000000;stroke-width:1;stroke-linecap:butt;stroke-linejoin:miter;stroke-miterlimit:4;stroke-dasharray:none;stroke-opacity:1;font-family:Bitstream Vera Sans"
     id="text2385"
     d="M 28.14163,280.15366 C 37.441515,280.76114 51.642274,272.07671 57.823307,278.13363 C 50.814837,280.8015 41.666469,284.02812 46.338414,293.16655 C 47.532353,298.62655 49.721484,313.8489 42.578594,311.58568 C 37.623853,302.89963 48.123591,287.81792 37.661162,282.61772 C 34.28384,282.64021 26.669203,287.37923 28.14163,280.15366 z M 64.261841,274.10303 C 77.285655,278.52453 63.436111,294.72049 71.918284,302.27303 C 83.238887,310.79665 94.585965,292.50371 87.541568,282.79422 C 85.431722,278.3842 90.833649,265.84685 92.858419,275.97674 C 94.259442,286.6341 95.026431,300.05683 85.470178,307.26887 C 75.441923,314.31842 61.48819,304.57101 64.428543,292.84196 C 64.190602,286.59725 64.766814,280.34062 64.261841,274.10303 z M 97.363655,268.55801 C 106.66354,269.1655 120.86429,260.48102 127.04533,266.53798 C 120.03687,269.20586 110.8885,272.43245 115.56045,281.57088 C 116.75438,287.0309 118.94352,302.25327 111.80061,299.99004 C 106.84586,291.30397 117.3456,276.2223 106.8832,271.02204 C 103.5059,271.0445 95.89129,275.78353 97.363655,268.55801 z M 149.36539,263.21414 C 135.81052,265.38698 132.53601,287.88768 145.66623,293.01694 C 160.5491,295.56237 168.2324,271.94699 155.97771,264.1681 C 154.08406,262.83981 151.55723,262.48007 149.36538,263.21413 M 149.29349,259.19543 C 161.66668,256.06708 170.61963,271.4347 166.76425,282.10156 C 163.99115,294.77304 145.4798,303.13507 135.96605,292.54736 C 126.95967,281.22862 134.43715,260.61314 149.29349,259.19543 z M 192.76582,272.06689 C 197.64191,272.45666 207.06161,286.6208 198.27211,285.3449 C 196.62901,275.81392 176.96989,269.53725 180.80758,283.95383 C 181.73162,289.80498 174.31691,294.44789 175.54554,285.49903 C 175.67131,275.08016 169.52521,256.67423 183.43158,253.17236 C 194.36577,249.30495 205.74705,264.49049 194.1732,271.38759 L 192.76582,272.06689 L 192.76582,272.06689 z M 179.76335,258.83481 C 170.90579,271.74539 199.49325,275.24727 192.48153,260.80608 C 189.62563,257.09019 183.59093,256.02269 179.76335,258.83481 z M 210.42796,249.61815 C 219.93058,253.67762 215.379,265.16078 215.41225,272.99448 C 217.64954,276.81155 216.3975,288.94133 210.74873,282.1546 C 211.03676,271.41676 210.5385,260.45677 210.42796,249.61815 z M 238.25937,249.84695 C 233.16216,255.147 231.0999,273.55251 242.95621,267.26317 C 247.8573,261.01843 238.30074,256.00276 238.25937,249.84695 z M 235.30463,245.45096 C 249.00535,245.82099 245.39283,263.87146 253.52586,270.89797 C 257.167,276.95434 250.18823,282.38684 247.96508,274.00612 C 239.73681,264.65051 228.33111,278.61891 224.40012,281.95961 C 222.23511,272.05347 231.64384,263.05188 232.6198,252.99615 C 233.49674,250.47473 234.38659,247.95773 235.30463,245.45096 z M 260.8353,241.17422 C 271.29568,245.20668 264.83135,257.34689 265.45048,265.43456 C 264.16397,278.73669 281.68741,265.55819 282.63773,273.32856 C 274.62769,277.14917 257.44504,281.36561 261.28607,266.37092 C 261.13581,257.97202 260.98557,249.5731 260.8353,241.17422 z M 27.142857,332.85714 L 295.71429,280 L 294.28571,225.71429 L 22.857143,264.28571 L 27.142857,332.85714 z M 171.72593,305.04056 L 170.71578,372.72078" />
  <path
     style="fill:none;fill-rule:evenodd;stroke:#000000;stroke-width:1;stroke-linecap:butt;stroke-linejoin:miter;stroke-miterlimit:4;stroke-dasharray:none;stroke-opacity:1"
     id="path2483"
     d="M 310.11683,402.0152 L 395.9798,394.94414 L 393.95949,373.73093 L 435.37575,404.03551 L 400.02041,435.35024 L 396.98995,413.12688 L 312.13714,419.1878 L 310.11683,402.0152 z" />
  <path
     style="fill:none;fill-rule:evenodd;stroke:#000000;stroke-width:1px;stroke-linecap:butt;stroke-linejoin:miter;stroke-opacity:1"
     id="path3256"
     d="M 1452.5994,177.76134 C 1451.5892,222.20805 1514.2187,217.15729 1547.5537,218.16744 C 1580.8887,219.17759 1593.0106,180.7918 1593.0106,180.7918 L 1452.5994,177.76134 z" />
  <path
     style="fill:none;fill-rule:evenodd;stroke:#000000;stroke-width:1px;stroke-linecap:butt;stroke-linejoin:miter;stroke-opacity:1"
     id="path3258"
     d="M 1679.8837,160.58874 C 1679.8837,208.06591 1752.6147,202.005 1798.0715,202.005 C 1843.5284,202.005 1866.7619,182.8121 1865.7518,152.50752 L 1679.8837,160.58874 z" />
  <path
     style="fill:none;fill-rule:evenodd;stroke:#000000;stroke-width:1px;stroke-linecap:butt;stroke-linejoin:miter;stroke-opacity:1"
     id="path3260"
     d="M 1969.7975,154.52783 C 1996.0614,237.36034 2151.6249,200.99484 2166.7772,149.47706 L 1969.7975,154.52783 z" />
  <path
     style="fill:none;fill-rule:evenodd;stroke:#000000;stroke-width:1px;stroke-linecap:butt;stroke-linejoin:miter;stroke-opacity:1"
     id="path3262"
     d="M 2264.762,206.0456 C 2334.4625,232.30957 2311.229,284.8375 2363.757,317.16238 C 2416.2849,349.48727 2469.823,313.12177 2507.1986,300.99994 C 2544.5743,288.87811 2622.356,273.72582 2653.6707,289.88827 C 2684.9855,306.05071 2740.5439,355.54818 2809.2342,290.89842 C 2877.9246,226.24866 2899.1378,220.18774 2930.4525,234.32988 C 2961.7673,248.47201 3038.5389,216.14713 3038.5389,216.14713 C 3038.5389,216.14713 2894.087,395.95428 2597.1022,405.04566 C 2300.1173,414.13703 2263.7519,207.05576 2264.762,206.0456 z" />
  <path
     style="fill:none;fill-rule:evenodd;stroke:#000000;stroke-width:1px;stroke-linecap:butt;stroke-linejoin:miter;stroke-opacity:1"
     d="M 3126.3251,213.78091 C 3166.9091,233.99938 3379.8587,185.51237 3477.0318,189.04594 C 3574.205,192.5795 3791.1276,201.9309 3791.1276,201.9309 C 3791.1276,201.9309 3814.4876,263.25088 3729.682,280.91873 C 3644.8763,298.58657 3176.6784,319.78799 3136.0424,284.4523 C 3095.4064,249.11661 3126.3251,213.78091 3126.3251,213.78091 z"
     id="path2500"
     sodipodi:nodetypes="cscssc" />
</svg>
