<?xml version="1.0" encoding="UTF-8" standalone="no"?>
<!-- Created with Inkscape (http://www.inkscape.org/) -->
<svg
   xmlns:svg="http://www.w3.org/2000/svg"
   xmlns="http://www.w3.org/2000/svg"
   version="1.0"
   width="103.31857"
   height="201.11462"
   id="svg3767">
  <defs
     id="defs3769" />
  <g
     transform="translate(-39.479454,-147.07449)"
     id="layer1">
    <path
       d="M 69.359666,148.59068 C 47.622716,156.55822 44.843076,169.80696 47.671916,187.72292 C 50.500756,205.63888 75.017336,213.18245 90.575934,202.81005 C 106.13453,192.43765 105.66306,162.73487 94.347716,154.71983 C 83.032371,146.70479 76.768706,145.87495 69.359666,148.59068 z"
       id="path3777"
       style="fill:none;fill-rule:evenodd;stroke:#000000;stroke-width:0.23336709px;stroke-linecap:butt;stroke-linejoin:miter;stroke-opacity:1" />
    <path
       d="M 75.893246,157.2169 C 86.29274,158.79447 92.089068,161.8995 98.978757,165.72709 C 94.741352,159.19091 83.846948,155.14295 75.893246,157.2169 z"
       id="path3781"
       style="fill:none;fill-rule:evenodd;stroke:#000000;stroke-width:0.31006658px;stroke-linecap:butt;stroke-linejoin:miter;stroke-opacity:1" />
    <path
       d="M 99.837014,190.81461 C 95.503053,188.64763 81.674656,188.92382 81.674656,189.10902 C 82.008036,193.12811 80.507826,202.46279 80.507826,202.46279 C 80.507826,202.46279 85.841927,196.29523 85.508545,189.29422 C 87.675527,192.46134 87.342146,200.12912 87.342146,200.12912 C 87.342146,200.12912 90.342579,198.29552 89.568008,189.1142"
       id="path3779"
       style="fill:none;fill-rule:evenodd;stroke:#000000;stroke-width:0.23336709px;stroke-linecap:butt;stroke-linejoin:miter;stroke-opacity:1" />
    <path
       d="M 90.111401,203.49356 C 103.54837,211.27286 102.86486,232.0818 102.86486,232.0818 C 110.38539,241.49974 112.25618,256.11766 110.92034,264.05411"
       id="path3791"
       style="fill:none;fill-rule:evenodd;stroke:#000000;stroke-width:0.23336709px;stroke-linecap:butt;stroke-linejoin:miter;stroke-opacity:1" />
    <path
       d="M 57.253496,211.92231 C 49.066576,220.17403 54.222516,237.48434 54.222516,237.48434 C 50.653486,252.38148 57.202276,262.51751 56.968376,262.4876 C 56.734476,262.45769 50.478446,274.20003 59.633036,278.83061 C 68.787616,283.46119 83.578567,282.34856 74.413026,263.63708 C 74.413026,263.63708 83.127858,249.39795 76.579066,239.26192 C 76.579066,239.26192 82.117156,225.69781 75.416096,214.89356"
       id="path3793"
       style="fill:none;fill-rule:evenodd;stroke:#000000;stroke-width:0.22264001px;stroke-linecap:butt;stroke-linejoin:miter;stroke-opacity:1" />
    <path
       d="M 76.333616,269.32597 C 126.00747,260.32467 143.00993,265.65877 142.67654,273.99331 C 142.34316,282.32785 132.34172,281.99447 77.333756,277.32713"
       id="path3800"
       style="fill:none;fill-rule:evenodd;stroke:#000000;stroke-width:0.23336709px;stroke-linecap:butt;stroke-linejoin:miter;stroke-opacity:1" />
    <path
       d="M 94.50291,165.31092 C 93.440345,162.44493 86.501753,160.14351 83.167936,160.81027 C 79.834126,161.47704 85.213565,163.73329 88.168662,164.97754 C 91.335787,166.31107 94.944321,166.50152 94.50291,165.31092 z"
       id="path3802"
       style="fill:none;fill-rule:evenodd;stroke:#000000;stroke-width:0.23336709px;stroke-linecap:butt;stroke-linejoin:miter;stroke-opacity:1" />
    <path
       d="M 95.836435,167.31121 C 83.334628,167.31121 79.167356,163.31064 79.167356,163.31064"
       id="path3804"
       style="fill:none;fill-rule:evenodd;stroke:#000000;stroke-width:0.23336709px;stroke-linecap:butt;stroke-linejoin:miter;stroke-opacity:1" />
    <path
       d="M 106.00457,279.99418 C 98.336797,288.32872 93.45488,289.25758 91.121209,292.59139 C 88.787538,295.92521 80.309716,315.11878 81.643236,321.45303 C 82.976763,327.78728 83.303656,336.8361 90.668299,336.8361 C 94.335495,336.8361 103.69322,335.5501 109.02732,337.88377 C 113.40041,339.797 115.69495,343.21788 110.36085,345.21817 C 104.60499,347.37661 103.35984,343.88464 101.02617,344.5514 C 98.692494,345.21817 73.559496,347.89725 66.687866,344.88479 C 63.417066,343.4509 56.778966,344.49874 56.948146,337.19288 C 57.161536,327.97819 55.854046,315.42767 52.520226,305.7596 C 49.186416,296.09154 42.328696,292.99606 39.995026,282.99461 C 37.661356,272.99317 46.329276,263.3251 46.329276,253.32366 C 46.329276,243.32221 38.661496,216.98507 53.330286,200.31599"
       id="path3806"
       style="fill:none;fill-rule:evenodd;stroke:#000000;stroke-width:0.23336709px;stroke-linecap:butt;stroke-linejoin:miter;stroke-opacity:1" />
    <path
       d="M 96.848919,210.29641 C 94.255821,227.03369 78.697216,245.8926 78.697216,245.8926"
       id="path3811"
       style="fill:none;fill-rule:evenodd;stroke:#000000;stroke-width:0.23336709px;stroke-linecap:butt;stroke-linejoin:miter;stroke-opacity:1" />
    <path
       d="M 55.359326,258.38663 C 51.351806,263.10136 44.279716,262.39415 44.279716,262.39415"
       id="path3813"
       style="fill:none;fill-rule:evenodd;stroke:#000000;stroke-width:0.23336709px;stroke-linecap:butt;stroke-linejoin:miter;stroke-opacity:1" />
    <path
       d="M 91.747641,291.84815 C 70.671536,305.87764 54.797266,310.95307 54.815976,310.19202"
       id="path3815"
       style="fill:none;fill-rule:evenodd;stroke:#000000;stroke-width:0.23336709px;stroke-linecap:butt;stroke-linejoin:miter;stroke-opacity:1" />
    <path
       d="M 137.15984,270.88066 C 128.67333,266.6374 84.119157,271.35213 84.119157,271.35213"
       id="path3817"
       style="fill:none;fill-rule:evenodd;stroke:#000000;stroke-width:0.23336709px;stroke-linecap:butt;stroke-linejoin:miter;stroke-opacity:1" />
    <path
       d="M 139.28146,277.0098 C 135.74542,279.13143 111.93605,278.42422 111.93605,278.42422"
       id="path3819"
       style="fill:none;fill-rule:evenodd;stroke:#000000;stroke-width:0.23336709px;stroke-linecap:butt;stroke-linejoin:miter;stroke-opacity:1" />
    <path
       d="M 102.67076,231.65385 C 96.336508,242.32207 86.335059,246.98941 86.335059,246.98941"
       id="path3821"
       style="fill:none;fill-rule:evenodd;stroke:#000000;stroke-width:0.23336709px;stroke-linecap:butt;stroke-linejoin:miter;stroke-opacity:1" />
    <path
       d="M 44.940879,293.54626 C 49.583736,309.26054 47.798022,335.68911 51.012308,340.68911 C 54.226593,345.68911 64.226593,344.97483 64.226593,344.97483"
       id="path3922"
       style="fill:none;fill-rule:evenodd;stroke:#000000;stroke-width:1px;stroke-linecap:butt;stroke-linejoin:miter;stroke-opacity:1" />
  </g>
</svg>
