<?xml version="1.0" encoding="UTF-8" standalone="no"?>
<!-- Created with Inkscape (http://www.inkscape.org/) -->
<svg
   xmlns:dc="http://purl.org/dc/elements/1.1/"
   xmlns:cc="http://creativecommons.org/ns#"
   xmlns:rdf="http://www.w3.org/1999/02/22-rdf-syntax-ns#"
   xmlns:svg="http://www.w3.org/2000/svg"
   xmlns="http://www.w3.org/2000/svg"
   xmlns:sodipodi="http://sodipodi.sourceforge.net/DTD/sodipodi-0.dtd"
   xmlns:inkscape="http://www.inkscape.org/namespaces/inkscape"
   version="1.0"
   width="60"
   height="60"
   id="svg2"
   sodipodi:version="0.32"
   inkscape:version="0.46"
   sodipodi:docname="enemy-walk01.svg"
   inkscape:output_extension="org.inkscape.output.svg.inkscape">
  <metadata
     id="metadata2554">
    <rdf:RDF>
      <cc:Work
         rdf:about="">
        <dc:format>image/svg+xml</dc:format>
        <dc:type
           rdf:resource="http://purl.org/dc/dcmitype/StillImage" />
      </cc:Work>
    </rdf:RDF>
  </metadata>
  <sodipodi:namedview
     inkscape:window-height="783"
     inkscape:window-width="1278"
     inkscape:pageshadow="2"
     inkscape:pageopacity="0.0"
     guidetolerance="10.0"
     gridtolerance="10.0"
     objecttolerance="10.0"
     borderopacity="1.0"
     bordercolor="#666666"
     pagecolor="#ffffff"
     id="base"
     showgrid="false"
     inkscape:zoom="5.7666667"
     inkscape:cx="30"
     inkscape:cy="23.150289"
     inkscape:window-x="0"
     inkscape:window-y="15"
     inkscape:current-layer="svg2" />
  <defs
     id="defs4">
    <inkscape:perspective
       sodipodi:type="inkscape:persp3d"
       inkscape:vp_x="0 : 30 : 1"
       inkscape:vp_y="0 : 1000 : 0"
       inkscape:vp_z="60 : 30 : 1"
       inkscape:persp3d-origin="30 : 20 : 1"
       id="perspective2556" />
  </defs>
  <path
     style="fill:none;fill-opacity:0.84659095;stroke:#000000;stroke-width:1.91178524;stroke-linejoin:round;stroke-miterlimit:4;stroke-dasharray:none;stroke-opacity:1"
     d="M 32.78125 9.5625 C 18.843074 9.5625 7.5292865 19.351146 7.53125 31.40625 C 7.530397 36.642445 9.6965773 41.426161 13.25 45.1875 C 10.993342 47.769255 9.3124691 51.75236 9.4375 51.84375 C 19.33013 57.165481 30.0625 57.625 30.0625 57.625 C 30.0625 57.625 29.807637 55.609228 28.21875 52.84375 C 29.698723 53.077529 31.223216 53.21875 32.78125 53.21875 C 46.719426 53.218752 58.001963 43.461353 58 31.40625 C 58.001963 19.351146 46.719425 9.5625 32.78125 9.5625 z "
     id="path2383" />
  <path
     style="fill:none;fill-rule:evenodd;stroke:#000000;stroke-width:1px;stroke-linecap:butt;stroke-linejoin:miter;stroke-opacity:1"
     id="path2385"
     d="M 55.058391,21.99301 C 61.245575,14.416866 54.932122,2.673843 54.932122,2.673843 L 48.744937,15.048212 L 42.557753,1.7899595 L 39.906102,10.502525 L 33.213842,1.2848832 L 30.940998,10.123718 L 22.480971,2.5475739 L 21.21828,11.638947 L 10.990486,4.8204171 L 15.409903,15.553288 L 3.2880723,16.310902 L 9.7277953,22.119279" />
  <path
     style="fill:none;fill-rule:evenodd;stroke:#000000;stroke-width:1px;stroke-linecap:butt;stroke-linejoin:miter;stroke-opacity:1"
     id="path2387"
     d="M 49.755089,31.084383 C 43.441636,31.46319 38.76968,22.624355 38.76968,22.624355 L 38.643411,22.119279 C 38.643411,22.119279 47.608515,21.614203 49.755089,31.084383 z" />
  <path
     style="fill:none;fill-rule:evenodd;stroke:#000000;stroke-width:1px;stroke-linecap:butt;stroke-linejoin:miter;stroke-opacity:1"
     d="M 39.710983,52.196532 C 35.895954,55.144509 38.323699,57.052023 38.323699,57.052023 C 38.323699,57.052023 55.144509,54.450867 58.265896,51.32948 C 61.387283,48.208092 51.50289,46.99422 51.50289,46.99422"
     id="path2564" />
</svg>
