<?xml version="1.0" encoding="UTF-8" standalone="no"?>
<!-- Created with Inkscape (http://www.inkscape.org/) -->
<svg
   xmlns:dc="http://purl.org/dc/elements/1.1/"
   xmlns:cc="http://creativecommons.org/ns#"
   xmlns:rdf="http://www.w3.org/1999/02/22-rdf-syntax-ns#"
   xmlns:svg="http://www.w3.org/2000/svg"
   xmlns="http://www.w3.org/2000/svg"
   xmlns:sodipodi="http://sodipodi.sourceforge.net/DTD/sodipodi-0.dtd"
   xmlns:inkscape="http://www.inkscape.org/namespaces/inkscape"
   width="60"
   height="60"
   id="svg2"
   sodipodi:version="0.32"
   inkscape:version="0.46"
   version="1.0"
   sodipodi:docname="enemy-walk02.svg"
   inkscape:output_extension="org.inkscape.output.svg.inkscape">
  <defs
     id="defs4">
    <inkscape:perspective
       sodipodi:type="inkscape:persp3d"
       inkscape:vp_x="0 : 526.18109 : 1"
       inkscape:vp_y="0 : 1000 : 0"
       inkscape:vp_z="744.09448 : 526.18109 : 1"
       inkscape:persp3d-origin="372.04724 : 350.78739 : 1"
       id="perspective10" />
  </defs>
  <sodipodi:namedview
     id="base"
     pagecolor="#ffffff"
     bordercolor="#666666"
     borderopacity="1.0"
     gridtolerance="10000"
     guidetolerance="10"
     objecttolerance="10"
     inkscape:pageopacity="0.0"
     inkscape:pageshadow="2"
     inkscape:zoom="7.9195959"
     inkscape:cx="58.800266"
     inkscape:cy="26.982178"
     inkscape:document-units="px"
     inkscape:current-layer="layer1"
     showgrid="false"
     inkscape:window-width="1278"
     inkscape:window-height="783"
     inkscape:window-x="0"
     inkscape:window-y="15" />
  <metadata
     id="metadata7">
    <rdf:RDF>
      <cc:Work
         rdf:about="">
        <dc:format>image/svg+xml</dc:format>
        <dc:type
           rdf:resource="http://purl.org/dc/dcmitype/StillImage" />
      </cc:Work>
    </rdf:RDF>
  </metadata>
  <g
     inkscape:label="Layer 1"
     inkscape:groupmode="layer"
     id="layer1">
    <path
       style="fill:none;fill-opacity:0.84659095;stroke:#000000;stroke-width:1.91178524;stroke-linejoin:round;stroke-miterlimit:4;stroke-opacity:1"
       d="M 32.78125 9.5625 C 18.851649 9.5624996 7.53125 19.358562 7.53125 31.40625 C 7.5312502 43.453938 18.851648 53.21875 32.78125 53.21875 C 33.174107 53.21875 33.549013 53.202886 33.9375 53.1875 C 33.722757 54.460505 33.652344 55.414366 33.71875 55.4375 C 44.733418 57.642506 55.15625 54.96875 55.15625 54.96875 C 55.156251 54.968751 53.53519 51.421052 48.65625 48.375 C 54.360642 44.372384 58 38.249685 58 31.40625 C 57.999999 19.358562 46.710852 9.5625 32.78125 9.5625 z "
       id="path2383" />
    <path
       style="fill:none;fill-rule:evenodd;stroke:#000000;stroke-width:1px;stroke-linecap:butt;stroke-linejoin:miter;stroke-opacity:1"
       d="M 55.058391,21.99301 C 61.245575,14.416866 54.932122,2.673843 54.932122,2.673843 L 48.744937,15.048212 L 42.557753,1.7899595 L 39.906102,10.502525 L 33.213842,1.2848832 L 30.940998,10.123718 L 22.480971,2.5475739 L 21.21828,11.638947 L 10.990486,4.8204171 L 15.409903,15.553288 L 3.2880723,16.310902 L 9.7277953,22.119279"
       id="path2385" />
    <path
       style="fill:none;fill-rule:evenodd;stroke:#000000;stroke-width:1px;stroke-linecap:butt;stroke-linejoin:miter;stroke-opacity:1"
       d="M 49.755089,31.084383 C 43.441636,31.46319 38.76968,22.624355 38.76968,22.624355 L 38.643411,22.119279 C 38.643411,22.119279 47.608515,21.614203 49.755089,31.084383 z"
       id="path2387" />
    <path
       style="fill:none;fill-rule:evenodd;stroke:#000000;stroke-width:1px;stroke-linecap:butt;stroke-linejoin:miter;stroke-opacity:1"
       d="M 14.142135,45.857864 C 11.743023,48.004438 10.85914,52.171318 10.85914,52.171318 C 10.85914,52.171318 21.339472,55.706851 27.652926,55.201775 C 33.966379,54.696699 27.526657,52.297587 27.526657,52.297587"
       id="path2460"
       sodipodi:nodetypes="ccsc" />
  </g>
</svg>
