<?xml version="1.0" encoding="UTF-8" standalone="no"?>
<!-- Created with Inkscape (http://www.inkscape.org/) -->
<svg
   xmlns:svg="http://www.w3.org/2000/svg"
   xmlns="http://www.w3.org/2000/svg"
   version="1.0"
   width="730"
   height="300"
   id="svg2">
  <defs
     id="defs4" />
  <g
     id="layer1">
    <path
       d="M 20,276.6479 L 37.142857,275.21933 L 37.142857,265.21933 L 47.142857,265.21933 L 45.714286,252.36218 L 60,252.36218 L 60,239.50504 L 75.714286,240.93361 L 74.285714,228.07647 L 92.428958,228.58278 L 91.923882,213.43049 L 109.09647,214.44065 L 109.60155,201.81374 L 119.70308,200.80359 L 119.70308,189.69191 L 136.87567,190.19698 L 137.38075,178.58023 L 152.53303,178.58023 L 153.03811,165.95332 L 166.67517,165.95332 L 167.18025,155.8518 L 178.797,157.36703 L 178.797,147.77058 L 190.41375,146.25535 L 189.90868,133.62844 L 204.55589,134.13352 L 206.5762,121.00154 L 223.24371,121.00154 L 222.23356,108.37463 L 235.87062,107.36448 L 262.13459,107.36448 L 262.13459,154.84165 L 299.51023,161.91271 L 323.75389,201.81374"
       id="path2383"
       style="fill:none;fill-rule:evenodd;stroke:#000000;stroke-width:1px;stroke-linecap:butt;stroke-linejoin:miter;stroke-opacity:1" />
    <path
       d="M 344.34717,214.06984 L 348.29248,214.06984 L 348.29248,241.19875 C 348.29247,244.71437 347.6219,247.26645 346.28076,248.855 C 344.95263,250.44353 342.81071,251.2378 339.85498,251.23781 L 338.35107,251.23781 L 338.35107,247.9175 L 339.58154,247.9175 C 341.32633,247.91749 342.5568,247.42921 343.27295,246.45265 C 343.98909,245.47609 344.34716,243.72479 344.34717,241.19875 L 344.34717,214.06984 M 355.69482,214.06984 L 359.65967,214.06984 L 359.65967,231.78468 C 359.65966,234.90969 360.22607,237.16229 361.35889,238.5425 C 362.49169,239.90969 364.32762,240.59328 366.8667,240.59328 C 369.39272,240.59328 371.22215,239.90969 372.35498,238.5425 C 373.48777,237.16229 374.05418,234.90969 374.0542,231.78468 L 374.0542,214.06984 L 378.01904,214.06984 L 378.01904,232.27296 C 378.01902,236.07505 377.07501,238.94615 375.18701,240.88625 C 373.31199,242.82635 370.53856,243.7964 366.8667,243.7964 C 363.18179,243.7964 360.39534,242.82635 358.50732,240.88625 C 356.63232,238.94615 355.69482,236.07505 355.69482,232.27296 L 355.69482,214.06984 M 385.44092,214.06984 L 391.31982,214.06984 L 398.76123,233.91359 L 406.2417,214.06984 L 412.12061,214.06984 L 412.12061,243.23 L 408.27295,243.23 L 408.27295,217.62453 L 400.75342,237.62453 L 396.78857,237.62453 L 389.26904,217.62453 L 389.26904,243.23 L 385.44092,243.23 L 385.44092,214.06984 M 423.91748,217.31203 L 423.91748,228.26906 L 428.87842,228.26906 C 430.71434,228.26907 432.13361,227.79381 433.13623,226.84328 C 434.13882,225.89277 434.64012,224.53861 434.64014,222.78078 C 434.64012,221.03601 434.13882,219.68835 433.13623,218.73781 C 432.13361,217.78731 430.71434,217.31205 428.87842,217.31203 L 423.91748,217.31203 M 419.97217,214.06984 L 428.87842,214.06984 C 432.14663,214.06987 434.61408,214.81206 436.28076,216.2964 C 437.96043,217.76778 438.80027,219.92924 438.80029,222.78078 C 438.80027,225.6584 437.96043,227.83288 436.28076,229.30421 C 434.61408,230.77558 432.14663,231.51126 428.87842,231.51125 L 423.91748,231.51125 L 423.91748,243.23 L 419.97217,243.23 L 419.97217,214.06984 M 481.41748,216.74562 C 478.55288,216.74565 476.27424,217.81335 474.58154,219.94875 C 472.90185,222.08418 472.06201,224.99434 472.06201,228.67921 C 472.06201,232.3511 472.90185,235.25474 474.58154,237.39015 C 476.27424,239.52557 478.55288,240.59328 481.41748,240.59328 C 484.28205,240.59328 486.54767,239.52557 488.21436,237.39015 C 489.89402,235.25474 490.73386,232.3511 490.73389,228.67921 C 490.73386,224.99434 489.89402,222.08418 488.21436,219.94875 C 486.54767,217.81335 484.28205,216.74565 481.41748,216.74562 M 481.41748,213.5425 C 485.506,213.54253 488.77423,214.91622 491.22217,217.66359 C 493.67006,220.39799 494.89401,224.06986 494.89404,228.67921 C 494.89401,233.27558 493.67006,236.94745 491.22217,239.69484 C 488.77423,242.42922 485.506,243.7964 481.41748,243.7964 C 477.31591,243.7964 474.03466,242.42922 471.57373,239.69484 C 469.12581,236.96047 467.90185,233.2886 467.90186,228.67921 C 467.90185,224.06986 469.12581,220.39799 471.57373,217.66359 C 474.03466,214.91622 477.31591,213.54253 481.41748,213.5425 M 501.06592,214.06984 L 506.37842,214.06984 L 519.30811,238.46437 L 519.30811,214.06984 L 523.13623,214.06984 L 523.13623,243.23 L 517.82373,243.23 L 504.89404,218.83546 L 504.89404,243.23 L 501.06592,243.23 L 501.06592,214.06984 M 552.41357,214.06984 L 577.08154,214.06984 L 577.08154,217.39015 L 566.72998,217.39015 L 566.72998,243.23 L 562.76514,243.23 L 562.76514,217.39015 L 552.41357,217.39015 L 552.41357,214.06984 M 580.90967,214.06984 L 584.85498,214.06984 L 584.85498,226.02296 L 599.19092,226.02296 L 599.19092,214.06984 L 603.13623,214.06984 L 603.13623,243.23 L 599.19092,243.23 L 599.19092,229.34328 L 584.85498,229.34328 L 584.85498,243.23 L 580.90967,243.23 L 580.90967,214.06984 M 610.98779,214.06984 L 629.42529,214.06984 L 629.42529,217.39015 L 614.93311,217.39015 L 614.93311,226.02296 L 628.81982,226.02296 L 628.81982,229.34328 L 614.93311,229.34328 L 614.93311,239.90968 L 629.77686,239.90968 L 629.77686,243.23 L 610.98779,243.23 L 610.98779,214.06984 M 653.78076,215.02687 L 653.78076,218.87453 C 652.28335,218.15841 650.87059,217.62455 649.54248,217.27296 C 648.21434,216.92143 646.93179,216.74565 645.69482,216.74562 C 643.54638,216.74565 641.88622,217.16231 640.71436,217.99562 C 639.55549,218.82898 638.97607,220.01387 638.97607,221.55031 C 638.97607,222.83939 639.36018,223.81595 640.12842,224.48 C 640.90966,225.13106 642.38101,225.6584 644.54248,226.06203 L 646.92529,226.55031 C 649.86798,227.11022 652.03595,228.0998 653.4292,229.51906 C 654.83543,230.92532 655.53855,232.81334 655.53857,235.18312 C 655.53855,238.00865 654.58803,240.15057 652.68701,241.6089 C 650.79897,243.06724 648.02554,243.7964 644.3667,243.7964 C 642.98648,243.7964 641.51513,243.64015 639.95264,243.32765 C 638.40315,243.01515 636.79508,242.55291 635.12842,241.94093 L 635.12842,237.87843 C 636.72998,238.77688 638.29898,239.45396 639.83545,239.90968 C 641.3719,240.36542 642.88231,240.59328 644.3667,240.59328 C 646.61929,240.59328 648.35757,240.15057 649.58154,239.26515 C 650.80548,238.37974 651.41746,237.11672 651.41748,235.47609 C 651.41746,234.04381 650.97475,232.92402 650.08936,232.11671 C 649.21694,231.30943 647.77814,230.70397 645.77295,230.30031 L 643.37061,229.83156 C 640.42789,229.24563 638.29898,228.32767 636.98389,227.07765 C 635.66878,225.82767 635.01123,224.08939 635.01123,221.86281 C 635.01123,219.28471 635.91617,217.25346 637.72607,215.76906 C 639.54898,214.28471 642.05549,213.54253 645.24561,213.5425 C 646.61278,213.54253 648.00601,213.66622 649.42529,213.91359 C 650.84455,214.16101 652.29637,214.53211 653.78076,215.02687 M 661.69092,214.06984 L 680.12842,214.06984 L 680.12842,217.39015 L 665.63623,217.39015 L 665.63623,226.02296 L 679.52295,226.02296 L 679.52295,229.34328 L 665.63623,229.34328 L 665.63623,239.90968 L 680.47998,239.90968 L 680.47998,243.23 L 661.69092,243.23 L 661.69092,214.06984"
       id="text2385"
       style="font-size:40px;font-style:normal;font-weight:normal;fill:#000000;fill-opacity:1;stroke:none;stroke-width:1px;stroke-linecap:butt;stroke-linejoin:miter;stroke-opacity:1;font-family:Bitstream Vera Sans" />
  </g>
</svg>
