<?xml version="1.0" encoding="UTF-8" standalone="no"?>
<!-- Created with Inkscape (http://www.inkscape.org/) -->
<svg
   xmlns:dc="http://purl.org/dc/elements/1.1/"
   xmlns:cc="http://creativecommons.org/ns#"
   xmlns:rdf="http://www.w3.org/1999/02/22-rdf-syntax-ns#"
   xmlns:svg="http://www.w3.org/2000/svg"
   xmlns="http://www.w3.org/2000/svg"
   xmlns:sodipodi="http://sodipodi.sourceforge.net/DTD/sodipodi-0.dtd"
   xmlns:inkscape="http://www.inkscape.org/namespaces/inkscape"
   version="1.0"
   width="406"
   height="300"
   id="svg2"
   sodipodi:version="0.32"
   inkscape:version="0.46"
   sodipodi:docname="world.svg"
   inkscape:output_extension="org.inkscape.output.svg.inkscape">
  <metadata
     id="metadata2389">
    <rdf:RDF>
      <cc:Work
         rdf:about="">
        <dc:format>image/svg+xml</dc:format>
        <dc:type
           rdf:resource="http://purl.org/dc/dcmitype/StillImage" />
      </cc:Work>
    </rdf:RDF>
  </metadata>
  <sodipodi:namedview
     inkscape:window-height="553"
     inkscape:window-width="903"
     inkscape:pageshadow="2"
     inkscape:pageopacity="0.0"
     guidetolerance="10.0"
     gridtolerance="10.0"
     objecttolerance="10.0"
     borderopacity="1.0"
     bordercolor="#666666"
     pagecolor="#ffffff"
     id="base"
     showgrid="false"
     inkscape:zoom="0.78219178"
     inkscape:cx="365"
     inkscape:cy="150"
     inkscape:window-x="187"
     inkscape:window-y="130"
     inkscape:current-layer="svg2" />
  <defs
     id="defs4">
    <inkscape:perspective
       sodipodi:type="inkscape:persp3d"
       inkscape:vp_x="0 : 150 : 1"
       inkscape:vp_y="0 : 1000 : 0"
       inkscape:vp_z="730 : 150 : 1"
       inkscape:persp3d-origin="365 : 100 : 1"
       id="perspective2391" />
  </defs>
  <g
     id="layer1">
    <path
       d="M 20,276.6479 L 37.142857,275.21933 L 37.142857,265.21933 L 47.142857,265.21933 L 45.714286,252.36218 L 60,252.36218 L 60,239.50504 L 75.714286,240.93361 L 74.285714,228.07647 L 92.428958,228.58278 L 91.923882,213.43049 L 109.09647,214.44065 L 109.60155,201.81374 L 119.70308,200.80359 L 119.70308,189.69191 L 136.87567,190.19698 L 137.38075,178.58023 L 152.53303,178.58023 L 153.03811,165.95332 L 166.67517,165.95332 L 167.18025,155.8518 L 178.797,157.36703 L 178.797,147.77058 L 190.41375,146.25535 L 189.90868,133.62844 L 204.55589,134.13352 L 206.5762,121.00154 L 223.24371,121.00154 L 222.23356,108.37463 L 235.87062,107.36448 L 262.13459,107.36448 L 262.13459,154.84165 L 299.51023,161.91271 L 323.75389,201.81374"
       id="path2383"
       style="fill:none;fill-rule:evenodd;stroke:#000000;stroke-width:1px;stroke-linecap:butt;stroke-linejoin:miter;stroke-opacity:1" />
  </g>
</svg>
