<?xml version="1.0" encoding="UTF-8" standalone="no"?>
<!-- Created with Inkscape (http://www.inkscape.org/) -->
<svg
   xmlns:svg="http://www.w3.org/2000/svg"
   xmlns="http://www.w3.org/2000/svg"
   version="1.0"
   width="200"
   height="200"
   id="svg2">
  <defs
     id="defs4" />
  <path
     d="M -45.086706,-69.364162 C -107.51445,169.9422 393.06358,122.54335 393.06358,122.54335"
     id="path2426"
     style="fill:none;fill-rule:evenodd;stroke:#000000;stroke-width:1px;stroke-linecap:butt;stroke-linejoin:miter;stroke-opacity:1" />
  <path
     d="M -67.052023,91.907514 C 56.069364,120.23121 292.48555,89.595376 295.37572,89.017341"
     id="path2391"
     style="fill:none;fill-rule:evenodd;stroke:#000000;stroke-width:1px;stroke-linecap:butt;stroke-linejoin:miter;stroke-opacity:1" />
  <path
     d="M 57.141068,104.35854 L 60.328568,104.35854 L 65.234818,124.07729 L 70.125443,104.35854 L 73.672318,104.35854 L 78.578568,124.07729 L 83.469193,104.35854 L 86.672318,104.35854 L 80.812943,127.68666 L 76.844193,127.68666 L 71.922318,107.43666 L 66.953568,127.68666 L 62.984818,127.68666 L 57.141068,104.35854 M 87.609818,104.35854 L 107.34419,104.35854 L 107.34419,107.01479 L 99.062943,107.01479 L 99.062943,127.68666 L 95.891068,127.68666 L 95.891068,107.01479 L 87.609818,107.01479 L 87.609818,104.35854 M 110.40669,104.35854 L 123.81294,104.35854 L 123.81294,107.01479 L 113.56294,107.01479 L 113.56294,113.88979 L 122.81294,113.88979 L 122.81294,116.54604 L 113.56294,116.54604 L 113.56294,127.68666 L 110.40669,127.68666 L 110.40669,104.35854 M 139.03169,104.35854 L 142.18794,104.35854 L 142.18794,127.68666 L 139.03169,127.68666 L 139.03169,104.35854 M 162.45357,105.12416 L 162.45357,108.20229 C 161.25563,107.62939 160.12543,107.20231 159.06294,106.92104 C 158.00043,106.63981 156.97439,106.49918 155.98482,106.49916 C 154.26606,106.49918 152.93793,106.83251 152.00044,107.49916 C 151.07335,108.16585 150.60981,109.11376 150.60982,110.34291 C 150.60981,111.37418 150.9171,112.15543 151.53169,112.68666 C 152.15669,113.20751 153.33377,113.62938 155.06294,113.95229 L 156.96919,114.34291 C 159.32335,114.79084 161.05772,115.58251 162.17232,116.71791 C 163.2973,117.84292 163.8598,119.35334 163.85982,121.24916 C 163.8598,123.50958 163.09938,125.22312 161.57857,126.38979 C 160.06814,127.55645 157.84939,128.13979 154.92232,128.13979 C 153.81814,128.13979 152.64106,128.01479 151.39107,127.76479 C 150.15148,127.51479 148.86502,127.14499 147.53169,126.65541 L 147.53169,123.40541 C 148.81294,124.12416 150.06815,124.66583 151.29732,125.03041 C 152.52648,125.395 153.73481,125.57729 154.92232,125.57729 C 156.72439,125.57729 158.11501,125.22312 159.09419,124.51479 C 160.07334,123.80646 160.56293,122.79604 160.56294,121.48354 C 160.56293,120.33771 160.20876,119.44188 159.50044,118.79604 C 158.80251,118.15021 157.65147,117.66584 156.04732,117.34291 L 154.12544,116.96791 C 151.77127,116.49917 150.06815,115.7648 149.01607,114.76479 C 147.96398,113.7648 147.43794,112.37418 147.43794,110.59291 C 147.43794,108.53043 148.1619,106.90543 149.60982,105.71791 C 151.06815,104.53043 153.07335,103.93668 155.62544,103.93666 C 156.71918,103.93668 157.83376,104.03564 158.96919,104.23354 C 160.10459,104.43148 161.26605,104.72835 162.45357,105.12416 M 32.297318,144.35854 L 52.031693,144.35854 L 52.031693,147.01479 L 43.750443,147.01479 L 43.750443,167.68666 L 40.578568,167.68666 L 40.578568,147.01479 L 32.297318,147.01479 L 32.297318,144.35854 M 55.094193,144.35854 L 58.250443,144.35854 L 58.250443,153.92104 L 69.719193,153.92104 L 69.719193,144.35854 L 72.875443,144.35854 L 72.875443,167.68666 L 69.719193,167.68666 L 69.719193,156.57729 L 58.250443,156.57729 L 58.250443,167.68666 L 55.094193,167.68666 L 55.094193,144.35854 M 79.156693,144.35854 L 82.312943,144.35854 L 82.312943,167.68666 L 79.156693,167.68666 L 79.156693,144.35854 M 102.57857,145.12416 L 102.57857,148.20229 C 101.38063,147.62939 100.25043,147.20231 99.187943,146.92104 C 98.12543,146.63981 97.099389,146.49918 96.109818,146.49916 C 94.391059,146.49918 93.062935,146.83251 92.125443,147.49916 C 91.198353,148.16585 90.734812,149.11376 90.734818,150.34291 C 90.734812,151.37418 91.042104,152.15543 91.656693,152.68666 C 92.281686,153.20751 93.458768,153.62938 95.187943,153.95229 L 97.094193,154.34291 C 99.448345,154.79084 101.18272,155.58251 102.29732,156.71791 C 103.4223,157.84292 103.9848,159.35334 103.98482,161.24916 C 103.9848,163.50958 103.22438,165.22312 101.70357,166.38979 C 100.19314,167.55645 97.974388,168.13979 95.047318,168.13979 C 93.943142,168.13979 92.76606,168.01479 91.516068,167.76479 C 90.276479,167.51479 88.990022,167.14499 87.656693,166.65541 L 87.656693,163.40541 C 88.937939,164.12416 90.193146,164.66583 91.422318,165.03041 C 92.651477,165.395 93.859809,165.57729 95.047318,165.57729 C 96.849389,165.57729 98.240013,165.22312 99.219193,164.51479 C 100.19834,163.80646 100.68793,162.79604 100.68794,161.48354 C 100.68793,160.33771 100.33376,159.44188 99.625443,158.79604 C 98.927512,158.15021 97.776472,157.66584 96.172318,157.34291 L 94.250443,156.96791 C 91.896269,156.49917 90.193146,155.7648 89.141068,154.76479 C 88.088982,153.7648 87.56294,152.37418 87.562943,150.59291 C 87.56294,148.53043 88.286898,146.90543 89.734818,145.71791 C 91.193145,144.53043 93.198351,143.93668 95.750443,143.93666 C 96.844181,143.93668 97.958763,144.03564 99.094193,144.23354 C 100.22959,144.43148 101.39105,144.72835 102.57857,145.12416 M 133.07857,145.12416 L 133.07857,148.20229 C 131.88063,147.62939 130.75043,147.20231 129.68794,146.92104 C 128.62543,146.63981 127.59939,146.49918 126.60982,146.49916 C 124.89106,146.49918 123.56293,146.83251 122.62544,147.49916 C 121.69835,148.16585 121.23481,149.11376 121.23482,150.34291 C 121.23481,151.37418 121.5421,152.15543 122.15669,152.68666 C 122.78169,153.20751 123.95877,153.62938 125.68794,153.95229 L 127.59419,154.34291 C 129.94835,154.79084 131.68272,155.58251 132.79732,156.71791 C 133.9223,157.84292 134.4848,159.35334 134.48482,161.24916 C 134.4848,163.50958 133.72438,165.22312 132.20357,166.38979 C 130.69314,167.55645 128.47439,168.13979 125.54732,168.13979 C 124.44314,168.13979 123.26606,168.01479 122.01607,167.76479 C 120.77648,167.51479 119.49002,167.14499 118.15669,166.65541 L 118.15669,163.40541 C 119.43794,164.12416 120.69315,164.66583 121.92232,165.03041 C 123.15148,165.395 124.35981,165.57729 125.54732,165.57729 C 127.34939,165.57729 128.74001,165.22312 129.71919,164.51479 C 130.69834,163.80646 131.18793,162.79604 131.18794,161.48354 C 131.18793,160.33771 130.83376,159.44188 130.12544,158.79604 C 129.42751,158.15021 128.27647,157.66584 126.67232,157.34291 L 124.75044,156.96791 C 122.39627,156.49917 120.69315,155.7648 119.64107,154.76479 C 118.58898,153.7648 118.06294,152.37418 118.06294,150.59291 C 118.06294,148.53043 118.7869,146.90543 120.23482,145.71791 C 121.69315,144.53043 123.69835,143.93668 126.25044,143.93666 C 127.34418,143.93668 128.45876,144.03564 129.59419,144.23354 C 130.72959,144.43148 131.89105,144.72835 133.07857,145.12416 M 139.40669,144.35854 L 142.56294,144.35854 L 142.56294,153.92104 L 154.03169,153.92104 L 154.03169,144.35854 L 157.18794,144.35854 L 157.18794,167.68666 L 154.03169,167.68666 L 154.03169,156.57729 L 142.56294,156.57729 L 142.56294,167.68666 L 139.40669,167.68666 L 139.40669,144.35854 M 163.46919,144.35854 L 166.62544,144.35854 L 166.62544,167.68666 L 163.46919,167.68666 L 163.46919,144.35854 M 169.67232,144.35854 L 189.40669,144.35854 L 189.40669,147.01479 L 181.12544,147.01479 L 181.12544,167.68666 L 177.95357,167.68666 L 177.95357,147.01479 L 169.67232,147.01479 L 169.67232,144.35854"
     transform="matrix(0.9896335,0.1436159,-0.1436159,0.9896335,0,0)"
     id="text2393"
     style="font-size:32px;font-style:normal;font-weight:normal;text-align:center;text-anchor:middle;fill:#000000;fill-opacity:1;stroke:none;stroke-width:1px;stroke-linecap:butt;stroke-linejoin:miter;stroke-opacity:1;font-family:Bitstream Vera Sans" />
</svg>
