<?xml version="1.0" encoding="UTF-8" standalone="no"?>
<!-- Created with Inkscape (http://www.inkscape.org/) -->
<svg
   xmlns:dc="http://purl.org/dc/elements/1.1/"
   xmlns:cc="http://creativecommons.org/ns#"
   xmlns:rdf="http://www.w3.org/1999/02/22-rdf-syntax-ns#"
   xmlns:svg="http://www.w3.org/2000/svg"
   xmlns="http://www.w3.org/2000/svg"
   xmlns:sodipodi="http://sodipodi.sourceforge.net/DTD/sodipodi-0.dtd"
   xmlns:inkscape="http://www.inkscape.org/namespaces/inkscape"
   version="1.0"
   width="4000"
   height="1000"
   id="svg2"
   sodipodi:version="0.32"
   inkscape:version="0.46"
   sodipodi:docname="level-02.svg"
   inkscape:output_extension="org.inkscape.output.svg.inkscape">
  <metadata
     id="metadata2398">
    <rdf:RDF>
      <cc:Work
         rdf:about="">
        <dc:format>image/svg+xml</dc:format>
        <dc:type
           rdf:resource="http://purl.org/dc/dcmitype/StillImage" />
      </cc:Work>
    </rdf:RDF>
  </metadata>
  <sodipodi:namedview
     inkscape:window-height="780"
     inkscape:window-width="1278"
     inkscape:pageshadow="2"
     inkscape:pageopacity="0.0"
     guidetolerance="10.0"
     gridtolerance="10.0"
     objecttolerance="10.0"
     borderopacity="1.0"
     bordercolor="#666666"
     pagecolor="#ffffff"
     id="base"
     showgrid="false"
     inkscape:zoom="0.40022244"
     inkscape:cx="1575.4303"
     inkscape:cy="524.71653"
     inkscape:window-x="0"
     inkscape:window-y="18"
     inkscape:current-layer="svg2" />
  <defs
     id="defs4">
    <inkscape:perspective
       sodipodi:type="inkscape:persp3d"
       inkscape:vp_x="0 : 1000 : 1"
       inkscape:vp_y="0 : 1000 : 0"
       inkscape:vp_z="4000 : 1000 : 1"
       inkscape:persp3d-origin="2000 : 666.66667 : 1"
       id="perspective2400" />
  </defs>
  <path
     style="fill:none;fill-opacity:0.84659095;stroke:#000000;stroke-width:2;stroke-linejoin:round;stroke-miterlimit:4;stroke-opacity:1"
     id="path2390"
     d="M 16.471523,39.401978 C 16.471523,45.825948 11.692333,51.039608 5.8037035,51.039608 C -0.08493651,51.039608 -4.8641165,45.825948 -4.8641165,39.401978 C -4.8641165,32.978018 -0.08493651,27.764358 5.8037035,27.764358 C 11.692333,27.764358 16.471523,32.978018 16.471523,39.401978 z M 17.441323,73.345048 L 10.975973,66.233168 L 5.1571635,57.181678 L -0.66164651,67.849498 L 0.30815349,76.900988 M 5.8037035,51.362868 L 5.1571635,77.547518 L 13.562113,91.448005 L 17.764583,106.3183 M 4.1873635,77.870788 L 2.2477635,93.064345 L -5.1873865,105.34849" />
  <path
     style="font-size:40px;font-style:normal;font-weight:normal;fill:#000000;fill-opacity:1;stroke:none;stroke-width:1px;stroke-linecap:butt;stroke-linejoin:miter;stroke-opacity:1;font-family:Bitstream Vera Sans"
     id="text2443"
     d="M 47.190289,127.80135 C 44.325692,127.80137 42.047049,128.86908 40.354351,131.00447 C 38.674656,133.13991 37.834813,136.05006 37.83482,139.73494 C 37.834813,143.40683 38.674656,146.31047 40.354351,148.44588 C 42.047049,150.5813 44.325692,151.649 47.190289,151.649 C 50.054853,151.649 52.320476,150.5813 53.987164,148.44588 C 55.666827,146.31047 56.50667,143.40683 56.506695,139.73494 C 56.50667,136.05006 55.666827,133.13991 53.987164,131.00447 C 52.320476,128.86908 50.054853,127.80137 47.190289,127.80135 M 47.190289,124.59822 C 51.27881,124.59825 54.547036,125.97195 56.994976,128.71931 C 59.442865,131.45371 60.666822,135.12558 60.666851,139.73494 C 60.666822,144.3313 59.442865,148.00318 56.994976,150.75056 C 54.547036,153.48494 51.27881,154.85213 47.190289,154.85213 C 43.088714,154.85213 39.807468,153.48494 37.346539,150.75056 C 34.898618,148.0162 33.674661,144.34432 33.674664,139.73494 C 33.674661,135.12558 34.898618,131.45371 37.346539,128.71931 C 39.807468,125.97195 43.088714,124.59825 47.190289,124.59822 M 66.389507,125.12556 L 70.354351,125.12556 L 70.354351,142.84041 C 70.354344,145.96542 70.920749,148.21802 72.05357,149.59822 C 73.186372,150.96541 75.022308,151.649 77.561382,151.649 C 80.087407,151.649 81.916832,150.96541 83.049664,149.59822 C 84.182455,148.21802 84.74886,145.96542 84.748882,142.84041 L 84.748882,125.12556 L 88.713726,125.12556 L 88.713726,143.32869 C 88.7137,147.13078 87.769691,150.00187 85.881695,151.94197 C 84.006674,153.88208 81.233239,154.85213 77.561382,154.85213 C 73.876475,154.85213 71.09002,153.88208 69.202007,151.94197 C 67.327003,150.00187 66.389504,147.13078 66.389507,143.32869 L 66.389507,125.12556 M 109.96373,140.61385 C 110.81006,140.90032 111.63037,141.5123 112.42466,142.44978 C 113.23193,143.38729 114.03923,144.67636 114.84654,146.31697 L 118.85044,154.28572 L 114.61216,154.28572 L 110.88169,146.80525 C 109.91814,144.85214 108.98064,143.55656 108.06919,142.91853 C 107.17074,142.28052 105.94027,141.96151 104.37779,141.9615 L 100.08091,141.9615 L 100.08091,154.28572 L 96.135601,154.28572 L 96.135601,125.12556 L 105.04185,125.12556 C 108.37517,125.12559 110.86214,125.82221 112.50279,127.21541 C 114.14339,128.60866 114.9637,130.71153 114.96373,133.524 C 114.9637,135.35996 114.53402,136.88339 113.67466,138.09431 C 112.82829,139.30527 111.59131,140.14511 109.96373,140.61385 M 100.08091,128.36775 L 100.08091,138.71931 L 105.04185,138.71931 C 106.94288,138.71933 108.37517,138.28313 109.33873,137.41072 C 110.31527,136.52532 110.80355,135.22975 110.80357,133.524 C 110.80355,131.8183 110.31527,130.53574 109.33873,129.67635 C 108.37517,128.80398 106.94288,128.36778 105.04185,128.36775 L 100.08091,128.36775 M 154.16294,126.0826 L 154.16294,129.93025 C 152.66553,129.21413 151.25277,128.68028 149.92466,128.32869 C 148.59652,127.97715 147.31397,127.80137 146.07701,127.80135 C 143.92856,127.80137 142.2684,128.21804 141.09654,129.05135 C 139.93768,129.8847 139.35825,131.0696 139.35826,132.60603 C 139.35825,133.89512 139.74236,134.87168 140.5106,135.53572 C 141.29184,136.18678 142.7632,136.71412 144.92466,137.11775 L 147.30748,137.60603 C 150.25017,138.16595 152.41813,139.15553 153.81138,140.57478 C 155.21761,141.98105 155.92073,143.86906 155.92076,146.23885 C 155.92073,149.06437 154.97021,151.2063 153.06919,152.66463 C 151.18116,154.12296 148.40772,154.85213 144.74888,154.85213 C 143.36866,154.85213 141.89731,154.69588 140.33482,154.38338 C 138.78533,154.07088 137.17726,153.60864 135.5106,152.99666 L 135.5106,148.93416 C 137.11216,149.8326 138.68117,150.50968 140.21763,150.96541 C 141.75408,151.42114 143.2645,151.649 144.74888,151.649 C 147.00147,151.649 148.73975,151.2063 149.96373,150.32088 C 151.18767,149.43547 151.79964,148.17245 151.79966,146.53181 C 151.79964,145.09953 151.35694,143.97974 150.47154,143.17244 C 149.59913,142.36516 148.16033,141.75969 146.15513,141.35603 L 143.75279,140.88728 C 140.81007,140.30136 138.68117,139.38339 137.36607,138.13338 C 136.05096,136.88339 135.39341,135.14511 135.39341,132.91853 C 135.39341,130.34043 136.29836,128.30918 138.10826,126.82478 C 139.93117,125.34044 142.43767,124.59825 145.62779,124.59822 C 146.99496,124.59825 148.38819,124.72195 149.80748,124.96931 C 151.22673,125.21674 152.67855,125.58783 154.16294,126.0826 M 158.03013,125.12556 L 182.6981,125.12556 L 182.6981,128.44588 L 172.34654,128.44588 L 172.34654,154.28572 L 168.38169,154.28572 L 168.38169,128.44588 L 158.03013,128.44588 L 158.03013,125.12556 M 198.36216,127.80135 C 195.49757,127.80137 193.21892,128.86908 191.52623,131.00447 C 189.84653,133.13991 189.00669,136.05006 189.00669,139.73494 C 189.00669,143.40683 189.84653,146.31047 191.52623,148.44588 C 193.21892,150.5813 195.49757,151.649 198.36216,151.649 C 201.22673,151.649 203.49235,150.5813 205.15904,148.44588 C 206.8387,146.31047 207.67854,143.40683 207.67857,139.73494 C 207.67854,136.05006 206.8387,133.13991 205.15904,131.00447 C 203.49235,128.86908 201.22673,127.80137 198.36216,127.80135 M 198.36216,124.59822 C 202.45069,124.59825 205.71891,125.97195 208.16685,128.71931 C 210.61474,131.45371 211.8387,135.12558 211.83873,139.73494 C 211.8387,144.3313 210.61474,148.00318 208.16685,150.75056 C 205.71891,153.48494 202.45069,154.85213 198.36216,154.85213 C 194.26059,154.85213 190.97934,153.48494 188.51841,150.75056 C 186.07049,148.0162 184.84654,144.34432 184.84654,139.73494 C 184.84654,135.12558 186.07049,131.45371 188.51841,128.71931 C 190.97934,125.97195 194.26059,124.59825 198.36216,124.59822 M 231.83873,140.61385 C 232.68506,140.90032 233.50537,141.5123 234.29966,142.44978 C 235.10693,143.38729 235.91423,144.67636 236.72154,146.31697 L 240.72544,154.28572 L 236.48716,154.28572 L 232.75669,146.80525 C 231.79314,144.85214 230.85564,143.55656 229.94419,142.91853 C 229.04574,142.28052 227.81527,141.96151 226.25279,141.9615 L 221.95591,141.9615 L 221.95591,154.28572 L 218.0106,154.28572 L 218.0106,125.12556 L 226.91685,125.12556 C 230.25017,125.12559 232.73714,125.82221 234.37779,127.21541 C 236.01839,128.60866 236.8387,130.71153 236.83873,133.524 C 236.8387,135.35996 236.40902,136.88339 235.54966,138.09431 C 234.70329,139.30527 233.46631,140.14511 231.83873,140.61385 M 221.95591,128.36775 L 221.95591,138.71931 L 226.91685,138.71931 C 228.81788,138.71933 230.25017,138.28313 231.21373,137.41072 C 232.19027,136.52532 232.67855,135.22975 232.67857,133.524 C 232.67855,131.8183 232.19027,130.53574 231.21373,129.67635 C 230.25017,128.80398 228.81788,128.36778 226.91685,128.36775 L 221.95591,128.36775 M 239.24107,125.12556 L 243.47935,125.12556 L 251.56529,137.11775 L 259.59263,125.12556 L 263.83091,125.12556 L 253.51841,140.399 L 253.51841,154.28572 L 249.55357,154.28572 L 249.55357,140.399 L 239.24107,125.12556 M 276.38951,125.12556 L 301.05748,125.12556 L 301.05748,128.44588 L 290.70591,128.44588 L 290.70591,154.28572 L 286.74107,154.28572 L 286.74107,128.44588 L 276.38951,128.44588 L 276.38951,125.12556 M 311.50669,129.01228 L 306.15513,143.524 L 316.87779,143.524 L 311.50669,129.01228 M 309.28013,125.12556 L 313.75279,125.12556 L 324.86607,154.28572 L 320.76451,154.28572 L 318.10826,146.80525 L 304.96373,146.80525 L 302.30748,154.28572 L 298.14732,154.28572 L 309.28013,125.12556 M 329.10435,125.12556 L 333.04966,125.12556 L 333.04966,137.44978 L 346.1356,125.12556 L 351.21373,125.12556 L 336.74107,138.71931 L 352.24888,154.28572 L 347.05357,154.28572 L 333.04966,140.24275 L 333.04966,154.28572 L 329.10435,154.28572 L 329.10435,125.12556 M 355.35435,125.12556 L 373.79185,125.12556 L 373.79185,128.44588 L 359.29966,128.44588 L 359.29966,137.07869 L 373.18638,137.07869 L 373.18638,140.399 L 359.29966,140.399 L 359.29966,150.96541 L 374.14341,150.96541 L 374.14341,154.28572 L 355.35435,154.28572 L 355.35435,125.12556 M 398.14732,126.0826 L 398.14732,129.93025 C 396.6499,129.21413 395.23715,128.68028 393.90904,128.32869 C 392.5809,127.97715 391.29835,127.80137 390.06138,127.80135 C 387.91293,127.80137 386.25278,128.21804 385.08091,129.05135 C 383.92205,129.8847 383.34263,131.0696 383.34263,132.60603 C 383.34263,133.89512 383.72674,134.87168 384.49498,135.53572 C 385.27622,136.18678 386.74757,136.71412 388.90904,137.11775 L 391.29185,137.60603 C 394.23454,138.16595 396.40251,139.15553 397.79576,140.57478 C 399.20198,141.98105 399.90511,143.86906 399.90513,146.23885 C 399.90511,149.06437 398.95459,151.2063 397.05357,152.66463 C 395.16553,154.12296 392.3921,154.85213 388.73326,154.85213 C 387.35304,154.85213 385.88169,154.69588 384.31919,154.38338 C 382.76971,154.07088 381.16164,153.60864 379.49498,152.99666 L 379.49498,148.93416 C 381.09653,149.8326 382.66554,150.50968 384.20201,150.96541 C 385.73846,151.42114 387.24887,151.649 388.73326,151.649 C 390.98585,151.649 392.72413,151.2063 393.9481,150.32088 C 395.17204,149.43547 395.78402,148.17245 395.78404,146.53181 C 395.78402,145.09953 395.34131,143.97974 394.45591,143.17244 C 393.5835,142.36516 392.1447,141.75969 390.13951,141.35603 L 387.73716,140.88728 C 384.79445,140.30136 382.66554,139.38339 381.35044,138.13338 C 380.03534,136.88339 379.37779,135.14511 379.37779,132.91853 C 379.37779,130.34043 380.28273,128.30918 382.09263,126.82478 C 383.91554,125.34044 386.42205,124.59825 389.61216,124.59822 C 390.97934,124.59825 392.37256,124.72195 393.79185,124.96931 C 395.2111,125.21674 396.66292,125.58783 398.14732,126.0826 M 422.73716,128.36775 L 422.73716,139.32478 L 427.6981,139.32478 C 429.53402,139.3248 430.95329,138.84954 431.95591,137.899 C 432.9585,136.9485 433.4598,135.59433 433.45982,133.8365 C 433.4598,132.09173 432.9585,130.74408 431.95591,129.79353 C 430.95329,128.84304 429.53402,128.36778 427.6981,128.36775 L 422.73716,128.36775 M 418.79185,125.12556 L 427.6981,125.12556 C 430.96631,125.12559 433.43376,125.86778 435.10044,127.35213 C 436.78011,128.82351 437.61995,130.98496 437.61998,133.8365 C 437.61995,136.71412 436.78011,138.8886 435.10044,140.35994 C 433.43376,141.83131 430.96631,142.56698 427.6981,142.56697 L 422.73716,142.56697 L 422.73716,154.28572 L 418.79185,154.28572 L 418.79185,125.12556 M 442.93248,125.12556 L 446.87779,125.12556 L 446.87779,150.96541 L 461.07701,150.96541 L 461.07701,154.28572 L 442.93248,154.28572 L 442.93248,125.12556 M 475.88169,129.01228 L 470.53013,143.524 L 481.25279,143.524 L 475.88169,129.01228 M 473.65513,125.12556 L 478.12779,125.12556 L 489.24107,154.28572 L 485.13951,154.28572 L 482.48326,146.80525 L 469.33873,146.80525 L 466.68248,154.28572 L 462.52232,154.28572 L 473.65513,125.12556 M 514.61216,127.37166 L 514.61216,131.53181 C 513.28401,130.29486 511.86474,129.37038 510.35435,128.75838 C 508.85694,128.14642 507.26188,127.84043 505.56919,127.84041 C 502.23585,127.84043 499.68377,128.86257 497.91294,130.90681 C 496.1421,132.93809 495.25669,135.88079 495.25669,139.73494 C 495.25669,143.5761 496.1421,146.5188 497.91294,148.56306 C 499.68377,150.59432 502.23585,151.60994 505.56919,151.60994 C 507.26188,151.60994 508.85694,151.30395 510.35435,150.69197 C 511.86474,150.08 513.28401,149.15552 514.61216,147.91853 L 514.61216,152.03963 C 513.23193,152.97713 511.76709,153.68025 510.21763,154.149 C 508.68115,154.61775 507.05355,154.85213 505.33482,154.85213 C 500.92075,154.85213 497.44419,153.50447 494.90513,150.80916 C 492.36607,148.10083 491.09654,144.40943 491.09654,139.73494 C 491.09654,135.04746 492.36607,131.35606 494.90513,128.66072 C 497.44419,125.95242 500.92075,124.59825 505.33482,124.59822 C 507.07959,124.59825 508.72022,124.83263 510.25669,125.30135 C 511.80615,125.7571 513.25797,126.44721 514.61216,127.37166 M 520.74498,125.12556 L 539.18248,125.12556 L 539.18248,128.44588 L 524.69029,128.44588 L 524.69029,137.07869 L 538.57701,137.07869 L 538.57701,140.399 L 524.69029,140.399 L 524.69029,150.96541 L 539.53404,150.96541 L 539.53404,154.28572 L 520.74498,154.28572 L 520.74498,125.12556" />
  <path
     style="font-size:40px;font-style:normal;font-weight:normal;fill:#000000;fill-opacity:1;stroke:none;stroke-width:1px;stroke-linecap:butt;stroke-linejoin:miter;stroke-opacity:1;font-family:Bitstream Vera Sans"
     id="text2447"
     d="M 367.21555,179.65512 L 370.8093,179.65512 L 375.30148,196.72543 L 379.77414,179.65512 L 384.01242,179.65512 L 388.50461,196.72543 L 392.97726,179.65512 L 396.57101,179.65512 L 390.84836,201.53012 L 386.61008,201.53012 L 381.90305,183.60043 L 377.17648,201.53012 L 372.9382,201.53012 L 367.21555,179.65512 M 420.22336,188.327 L 420.22336,201.53012 L 416.62961,201.53012 L 416.62961,188.44418 C 416.62959,186.37389 416.22594,184.82441 415.41867,183.79575 C 414.61136,182.76712 413.40043,182.2528 411.78586,182.25278 C 409.84574,182.2528 408.3158,182.87129 407.19601,184.10825 C 406.07621,185.34524 405.51632,187.03144 405.51633,189.16684 L 405.51633,201.53012 L 401.90305,201.53012 L 401.90305,171.1395 L 405.51633,171.1395 L 405.51633,183.05356 C 406.37569,181.73847 407.38481,180.7554 408.54367,180.10434 C 409.71553,179.45332 411.06319,179.1278 412.58664,179.12778 C 415.09964,179.1278 417.00068,179.90905 418.28976,181.47153 C 419.57881,183.02102 420.22334,185.30618 420.22336,188.327 M 446.14133,189.69418 L 446.14133,191.452 L 429.61789,191.452 C 429.77413,193.92596 430.51632,195.81398 431.84445,197.11606 C 433.18559,198.40512 435.04757,199.04965 437.43039,199.04965 C 438.81058,199.04965 440.14522,198.88038 441.4343,198.54184 C 442.73636,198.2033 444.02542,197.69549 445.30148,197.0184 L 445.30148,200.41684 C 444.0124,200.96372 442.69079,201.38038 441.33664,201.66684 C 439.98246,201.9533 438.60876,202.09653 437.21555,202.09653 C 433.72595,202.09653 430.95903,201.0809 428.91476,199.04965 C 426.88351,197.01841 425.86789,194.27101 425.86789,190.80746 C 425.86789,187.22675 426.83143,184.38821 428.75851,182.29184 C 430.69861,180.18249 433.30929,179.1278 436.59055,179.12778 C 439.53324,179.1278 441.85745,180.07832 443.5632,181.97934 C 445.28193,183.86738 446.1413,186.43899 446.14133,189.69418 M 442.54758,188.6395 C 442.52152,186.67336 441.96813,185.10436 440.88742,183.93246 C 439.8197,182.76061 438.40043,182.17467 436.62961,182.17465 C 434.62439,182.17467 433.01632,182.74108 431.80539,183.87387 C 430.60747,185.0067 429.91736,186.60175 429.73508,188.65903 L 442.54758,188.6395 M 470.22336,188.327 L 470.22336,201.53012 L 466.62961,201.53012 L 466.62961,188.44418 C 466.62959,186.37389 466.22594,184.82441 465.41867,183.79575 C 464.61136,182.76712 463.40043,182.2528 461.78586,182.25278 C 459.84574,182.2528 458.3158,182.87129 457.19601,184.10825 C 456.07621,185.34524 455.51632,187.03144 455.51633,189.16684 L 455.51633,201.53012 L 451.90305,201.53012 L 451.90305,179.65512 L 455.51633,179.65512 L 455.51633,183.05356 C 456.37569,181.73847 457.38481,180.7554 458.54367,180.10434 C 459.71553,179.45332 461.06319,179.1278 462.58664,179.12778 C 465.09964,179.1278 467.00068,179.90905 468.28976,181.47153 C 469.57881,183.02102 470.22334,185.30618 470.22336,188.327 M 500.06711,176.25668 L 494.71555,190.7684 L 505.4382,190.7684 L 500.06711,176.25668 M 497.84055,172.36996 L 502.3132,172.36996 L 513.42648,201.53012 L 509.32492,201.53012 L 506.66867,194.04965 L 493.52414,194.04965 L 490.86789,201.53012 L 486.70773,201.53012 L 497.84055,172.36996 M 517.66476,172.36996 L 521.61008,172.36996 L 521.61008,198.20981 L 535.8093,198.20981 L 535.8093,201.53012 L 517.66476,201.53012 L 517.66476,172.36996 M 539.93039,172.36996 L 543.8757,172.36996 L 543.8757,198.20981 L 558.07492,198.20981 L 558.07492,201.53012 L 539.93039,201.53012 L 539.93039,172.36996 M 572.33273,172.36996 L 576.31711,172.36996 L 582.44992,197.0184 L 588.5632,172.36996 L 592.9968,172.36996 L 599.12961,197.0184 L 605.24289,172.36996 L 609.2468,172.36996 L 601.92258,201.53012 L 596.96164,201.53012 L 590.8093,176.21762 L 584.59836,201.53012 L 579.63742,201.53012 L 572.33273,172.36996 M 614.46164,172.36996 L 632.89914,172.36996 L 632.89914,175.69028 L 618.40695,175.69028 L 618.40695,184.32309 L 632.29367,184.32309 L 632.29367,187.6434 L 618.40695,187.6434 L 618.40695,198.20981 L 633.2507,198.20981 L 633.2507,201.53012 L 614.46164,201.53012 L 614.46164,172.36996 M 652.50851,172.36996 L 656.45383,172.36996 L 656.45383,184.69418 L 669.53976,172.36996 L 674.61789,172.36996 L 660.14523,185.96371 L 675.65305,201.53012 L 670.45773,201.53012 L 656.45383,187.48715 L 656.45383,201.53012 L 652.50851,201.53012 L 652.50851,172.36996 M 678.75851,172.36996 L 684.07101,172.36996 L 697.0007,196.7645 L 697.0007,172.36996 L 700.82883,172.36996 L 700.82883,201.53012 L 695.51633,201.53012 L 682.58664,177.13559 L 682.58664,201.53012 L 678.75851,201.53012 L 678.75851,172.36996 M 720.51633,175.04575 C 717.65173,175.04577 715.37309,176.11348 713.68039,178.24887 C 712.00069,180.38431 711.16085,183.29446 711.16086,186.97934 C 711.16085,190.65123 712.00069,193.55487 713.68039,195.69028 C 715.37309,197.8257 717.65173,198.8934 720.51633,198.8934 C 723.38089,198.8934 725.64651,197.8257 727.3132,195.69028 C 728.99287,193.55487 729.83271,190.65123 729.83273,186.97934 C 729.83271,183.29446 728.99287,180.38431 727.3132,178.24887 C 725.64651,176.11348 723.38089,175.04577 720.51633,175.04575 M 720.51633,171.84262 C 724.60485,171.84265 727.87307,173.21635 730.32101,175.96371 C 732.7689,178.69811 733.99286,182.36998 733.99289,186.97934 C 733.99286,191.5757 732.7689,195.24758 730.32101,197.99496 C 727.87307,200.72934 724.60485,202.09653 720.51633,202.09653 C 716.41475,202.09653 713.13351,200.72934 710.67258,197.99496 C 708.22466,195.2606 707.0007,191.58872 707.0007,186.97934 C 707.0007,182.36998 708.22466,178.69811 710.67258,175.96371 C 713.13351,173.21635 716.41475,171.84265 720.51633,171.84262 M 737.56711,172.36996 L 741.55148,172.36996 L 747.6843,197.0184 L 753.79758,172.36996 L 758.23117,172.36996 L 764.36398,197.0184 L 770.47726,172.36996 L 774.48117,172.36996 L 767.15695,201.53012 L 762.19601,201.53012 L 756.04367,176.21762 L 749.83273,201.53012 L 744.8718,201.53012 L 737.56711,172.36996 M 792.27414,179.65512 L 795.86789,179.65512 L 795.86789,201.53012 L 792.27414,201.53012 L 792.27414,179.65512 M 792.27414,171.1395 L 795.86789,171.1395 L 795.86789,175.69028 L 792.27414,175.69028 L 792.27414,171.1395 M 817.3132,180.29965 L 817.3132,183.69809 C 816.29756,183.17727 815.24287,182.78665 814.14914,182.52621 C 813.05538,182.26582 811.92256,182.13561 810.7507,182.13559 C 808.96684,182.13561 807.62569,182.40905 806.72726,182.9559 C 805.84184,183.5028 805.39913,184.32311 805.39914,185.41684 C 805.39913,186.25019 805.71814,186.90774 806.35617,187.3895 C 806.99418,187.85826 808.27673,188.30748 810.20383,188.73715 L 811.4343,189.01059 C 813.98636,189.55748 815.79626,190.33222 816.86398,191.33481 C 817.94469,192.3244 818.48506,193.71112 818.48508,195.49496 C 818.48506,197.52622 817.67777,199.13429 816.0632,200.31918 C 814.46162,201.50408 812.2546,202.09653 809.44211,202.09653 C 808.27022,202.09653 807.04627,201.97934 805.77023,201.74496 C 804.50721,201.52361 803.17257,201.18507 801.76633,200.72934 L 801.76633,197.0184 C 803.09445,197.70851 804.40304,198.22934 805.69211,198.5809 C 806.98116,198.91945 808.2572,199.08872 809.52023,199.08871 C 811.21293,199.08872 812.51501,198.80226 813.42648,198.22934 C 814.33793,197.64341 814.79366,196.82309 814.79367,195.7684 C 814.79366,194.79185 814.46162,194.04315 813.79758,193.52231 C 813.14652,193.00148 811.70772,192.50018 809.48117,192.0184 L 808.23117,191.72543 C 806.0046,191.25669 804.39653,190.54055 803.40695,189.577 C 802.41737,188.60045 801.92257,187.26581 801.92258,185.57309 C 801.92257,183.51582 802.65174,181.92728 804.11008,180.80746 C 805.5684,179.68769 807.63871,179.1278 810.32101,179.12778 C 811.64913,179.1278 812.89913,179.22546 814.07101,179.42075 C 815.24287,179.61608 816.3236,179.90905 817.3132,180.29965 M 837.11789,172.36996 L 842.9968,172.36996 L 850.4382,192.21371 L 857.91867,172.36996 L 863.79758,172.36996 L 863.79758,201.53012 L 859.94992,201.53012 L 859.94992,175.92465 L 852.43039,195.92465 L 848.46555,195.92465 L 840.94601,175.92465 L 840.94601,201.53012 L 837.11789,201.53012 L 837.11789,172.36996 M 883.48508,175.04575 C 880.62048,175.04577 878.34184,176.11348 876.64914,178.24887 C 874.96944,180.38431 874.1296,183.29446 874.12961,186.97934 C 874.1296,190.65123 874.96944,193.55487 876.64914,195.69028 C 878.34184,197.8257 880.62048,198.8934 883.48508,198.8934 C 886.34964,198.8934 888.61526,197.8257 890.28195,195.69028 C 891.96162,193.55487 892.80146,190.65123 892.80148,186.97934 C 892.80146,183.29446 891.96162,180.38431 890.28195,178.24887 C 888.61526,176.11348 886.34964,175.04577 883.48508,175.04575 M 883.48508,171.84262 C 887.5736,171.84265 890.84182,173.21635 893.28976,175.96371 C 895.73765,178.69811 896.96161,182.36998 896.96164,186.97934 C 896.96161,191.5757 895.73765,195.24758 893.28976,197.99496 C 890.84182,200.72934 887.5736,202.09653 883.48508,202.09653 C 879.3835,202.09653 876.10226,200.72934 873.64133,197.99496 C 871.19341,195.2606 869.96945,191.58872 869.96945,186.97934 C 869.96945,182.36998 871.19341,178.69811 873.64133,175.96371 C 876.10226,173.21635 879.3835,171.84265 883.48508,171.84262 M 920.61398,173.327 L 920.61398,177.17465 C 919.11657,176.45853 917.70381,175.92468 916.3757,175.57309 C 915.04756,175.22155 913.76501,175.04577 912.52805,175.04575 C 910.3796,175.04577 908.71944,175.46244 907.54758,176.29575 C 906.38872,177.1291 905.80929,178.314 905.8093,179.85043 C 905.80929,181.13952 906.1934,182.11608 906.96164,182.78012 C 907.74288,183.43118 909.21423,183.95852 911.3757,184.36215 L 913.75851,184.85043 C 916.70121,185.41035 918.86917,186.39993 920.26242,187.81918 C 921.66865,189.22545 922.37177,191.11346 922.3718,193.48325 C 922.37177,196.30877 921.42125,198.4507 919.52023,199.90903 C 917.63219,201.36736 914.85876,202.09653 911.19992,202.09653 C 909.8197,202.09653 908.34835,201.94028 906.78586,201.62778 C 905.23637,201.31528 903.6283,200.85304 901.96164,200.24106 L 901.96164,196.17856 C 903.5632,197.077 905.13221,197.75408 906.66867,198.20981 C 908.20512,198.66554 909.71554,198.8934 911.19992,198.8934 C 913.45251,198.8934 915.19079,198.4507 916.41476,197.56528 C 917.6387,196.67987 918.25068,195.41685 918.2507,193.77621 C 918.25068,192.34393 917.80797,191.22414 916.92258,190.41684 C 916.05016,189.60956 914.61136,189.00409 912.60617,188.60043 L 910.20383,188.13168 C 907.26111,187.54576 905.13221,186.62779 903.81711,185.37778 C 902.502,184.12779 901.84445,182.38951 901.84445,180.16293 C 901.84445,177.58483 902.7494,175.55358 904.5593,174.06918 C 906.38221,172.58484 908.88871,171.84265 912.07883,171.84262 C 913.446,171.84265 914.83923,171.96635 916.25851,172.21371 C 917.67777,172.46114 919.12959,172.83223 920.61398,173.327 M 924.48117,172.36996 L 949.14914,172.36996 L 949.14914,175.69028 L 938.79758,175.69028 L 938.79758,201.53012 L 934.83273,201.53012 L 934.83273,175.69028 L 924.48117,175.69028 L 924.48117,172.36996 M 952.97726,172.36996 L 956.92258,172.36996 L 956.92258,198.20981 L 971.1218,198.20981 L 971.1218,201.53012 L 952.97726,201.53012 L 952.97726,172.36996 M 965.92648,172.36996 L 970.16476,172.36996 L 978.2507,184.36215 L 986.27805,172.36996 L 990.51633,172.36996 L 980.20383,187.6434 L 980.20383,201.53012 L 976.23898,201.53012 L 976.23898,187.6434 L 965.92648,172.36996 M 1027.0007,197.36996 L 1027.0007,189.53793 L 1020.5554,189.53793 L 1020.5554,186.29575 L 1030.907,186.29575 L 1030.907,198.81528 C 1029.3835,199.89601 1027.7038,200.71632 1025.8679,201.27621 C 1024.0319,201.82309 1022.0723,202.09653 1019.989,202.09653 C 1015.4317,202.09653 1011.864,200.7684 1009.2859,198.11215 C 1006.7208,195.44289 1005.4382,191.73195 1005.4382,186.97934 C 1005.4382,182.21373 1006.7208,178.5028 1009.2859,175.84653 C 1011.864,173.17728 1015.4317,171.84265 1019.989,171.84262 C 1021.89,171.84265 1023.6934,172.07703 1025.3991,172.54575 C 1027.1179,173.01452 1028.6999,173.70463 1030.1452,174.61606 L 1030.1452,178.81528 C 1028.6869,177.57832 1027.1374,176.64733 1025.4968,176.02231 C 1023.8561,175.39733 1022.1309,175.08483 1020.321,175.08481 C 1016.7533,175.08483 1014.071,176.08093 1012.2741,178.07309 C 1010.4903,180.0653 1009.5984,183.03405 1009.5984,186.97934 C 1009.5984,190.91164 1010.4903,193.87388 1012.2741,195.86606 C 1014.071,197.85825 1016.7533,198.85434 1020.321,198.85434 C 1021.7142,198.85434 1022.9577,198.73715 1024.0515,198.50278 C 1025.1452,198.25538 1026.1283,197.87778 1027.0007,197.36996 M 1049.9695,175.04575 C 1047.1049,175.04577 1044.8262,176.11348 1043.1335,178.24887 C 1041.4538,180.38431 1040.614,183.29446 1040.614,186.97934 C 1040.614,190.65123 1041.4538,193.55487 1043.1335,195.69028 C 1044.8262,197.8257 1047.1049,198.8934 1049.9695,198.8934 C 1052.834,198.8934 1055.0996,197.8257 1056.7663,195.69028 C 1058.446,193.55487 1059.2858,190.65123 1059.2859,186.97934 C 1059.2858,183.29446 1058.446,180.38431 1056.7663,178.24887 C 1055.0996,176.11348 1052.834,175.04577 1049.9695,175.04575 M 1049.9695,171.84262 C 1054.058,171.84265 1057.3262,173.21635 1059.7741,175.96371 C 1062.222,178.69811 1063.446,182.36998 1063.446,186.97934 C 1063.446,191.5757 1062.222,195.24758 1059.7741,197.99496 C 1057.3262,200.72934 1054.058,202.09653 1049.9695,202.09653 C 1045.8679,202.09653 1042.5866,200.72934 1040.1257,197.99496 C 1037.6778,195.2606 1036.4538,191.58872 1036.4538,186.97934 C 1036.4538,182.36998 1037.6778,178.69811 1040.1257,175.96371 C 1042.5866,173.21635 1045.8679,171.84265 1049.9695,171.84262 M 1069.6179,172.36996 L 1074.9304,172.36996 L 1087.8601,196.7645 L 1087.8601,172.36996 L 1091.6882,172.36996 L 1091.6882,201.53012 L 1086.3757,201.53012 L 1073.446,177.13559 L 1073.446,201.53012 L 1069.6179,201.53012 L 1069.6179,172.36996 M 1099.5398,172.36996 L 1117.9773,172.36996 L 1117.9773,175.69028 L 1103.4851,175.69028 L 1103.4851,184.32309 L 1117.3718,184.32309 L 1117.3718,187.6434 L 1103.4851,187.6434 L 1103.4851,198.20981 L 1118.3288,198.20981 L 1118.3288,201.53012 L 1099.5398,201.53012 L 1099.5398,172.36996" />
  <path
     style="font-size:40px;font-style:normal;font-weight:normal;fill:#000000;fill-opacity:1;stroke:none;stroke-width:1px;stroke-linecap:butt;stroke-linejoin:miter;stroke-opacity:1;font-family:Bitstream Vera Sans"
     id="text2451"
     d="M 740.89166,219.36195 C 737.98801,219.36196 735.97629,219.694 734.85651,220.35805 C 733.73671,221.02212 733.17681,222.15493 733.17682,223.75648 C 733.17681,225.03253 733.59348,226.04816 734.42682,226.80336 C 735.27316,227.54555 736.419,227.91664 737.86432,227.91664 C 739.85649,227.91664 741.45154,227.21352 742.64948,225.80727 C 743.8604,224.388 744.46586,222.50649 744.46588,220.16273 L 744.46588,219.36195 L 740.89166,219.36195 M 748.05963,217.87758 L 748.05963,230.35805 L 744.46588,230.35805 L 744.46588,227.03773 C 743.64555,228.36586 742.62342,229.34893 741.39948,229.98695 C 740.1755,230.61195 738.67811,230.92445 736.90729,230.92445 C 734.6677,230.92445 732.88384,230.29945 731.55573,229.04945 C 730.24062,227.78644 729.58307,226.10024 729.58307,223.99086 C 729.58307,221.52993 730.40338,219.67446 732.04401,218.42445 C 733.69765,217.17447 736.15858,216.54947 739.42682,216.54945 L 744.46588,216.54945 L 744.46588,216.19789 C 744.46586,214.54426 743.91899,213.26822 742.82526,212.36977 C 741.74451,211.45833 740.22108,211.0026 738.25494,211.00258 C 737.00493,211.0026 735.78749,211.15234 734.6026,211.4518 C 733.4177,211.7513 732.27838,212.20051 731.18463,212.79945 L 731.18463,209.47914 C 732.49973,208.97135 733.77577,208.59375 735.01276,208.34633 C 736.24973,208.08593 737.45415,207.95573 738.62604,207.9557 C 741.79009,207.95573 744.15336,208.77604 745.71588,210.41664 C 747.27836,212.05728 748.05961,214.54426 748.05963,217.87758 M 773.6651,217.15492 L 773.6651,230.35805 L 770.07135,230.35805 L 770.07135,217.27211 C 770.07133,215.20181 769.66769,213.65234 768.86041,212.62367 C 768.0531,211.59505 766.84217,211.08072 765.2276,211.0807 C 763.28748,211.08072 761.75754,211.69921 760.63776,212.93617 C 759.51796,214.17317 758.95806,215.85936 758.95807,217.99477 L 758.95807,230.35805 L 755.34479,230.35805 L 755.34479,208.48305 L 758.95807,208.48305 L 758.95807,211.88148 C 759.81744,210.5664 760.82655,209.58333 761.98541,208.93227 C 763.15728,208.28125 764.50493,207.95573 766.02838,207.9557 C 768.54139,207.95573 770.44243,208.73698 771.73151,210.29945 C 773.02055,211.84895 773.66508,214.13411 773.6651,217.15492" />
  <path
     style="font-size:144px;font-style:normal;font-weight:normal;fill:#000000;fill-opacity:1;stroke:none;stroke-width:1px;stroke-linecap:butt;stroke-linejoin:miter;stroke-opacity:1;font-family:Bitstream Vera Sans"
     id="text2455"
     d="M 784.97266,208.1792 L 851.34766,208.1792 L 851.34766,220.13232 L 799.17578,220.13232 L 799.17578,251.21045 L 849.16797,251.21045 L 849.16797,263.16357 L 799.17578,263.16357 L 799.17578,301.20264 L 852.61328,301.20264 L 852.61328,313.15576 L 784.97266,313.15576 L 784.97266,208.1792 M 876.09766,208.1792 L 897.26172,208.1792 L 924.05078,279.6167 L 950.98047,208.1792 L 972.14453,208.1792 L 972.14453,313.15576 L 958.29297,313.15576 L 958.29297,220.97607 L 931.22266,292.97607 L 916.94922,292.97607 L 889.87891,220.97607 L 889.87891,313.15576 L 876.09766,313.15576 L 876.09766,208.1792 M 1014.6133,219.85107 L 1014.6133,259.29639 L 1032.4727,259.29639 C 1039.082,259.29644 1044.1913,257.5855 1047.8008,254.16357 C 1051.4101,250.74176 1053.2148,245.86677 1053.2148,239.53857 C 1053.2148,233.2574 1051.4101,228.40585 1047.8008,224.98389 C 1044.1913,221.5621 1039.082,219.85117 1032.4727,219.85107 L 1014.6133,219.85107 M 1000.4102,208.1792 L 1032.4727,208.1792 C 1044.2382,208.1793 1053.121,210.85118 1059.1211,216.19482 C 1065.1679,221.49179 1068.1913,229.27303 1068.1914,239.53857 C 1068.1913,249.89801 1065.1679,257.72613 1059.1211,263.02295 C 1053.121,268.31987 1044.2382,270.9683 1032.4727,270.96826 L 1014.6133,270.96826 L 1014.6133,313.15576 L 1000.4102,313.15576 L 1000.4102,208.1792 M 1072.7617,208.1792 L 1161.5664,208.1792 L 1161.5664,220.13232 L 1124.3008,220.13232 L 1124.3008,313.15576 L 1110.0273,313.15576 L 1110.0273,220.13232 L 1072.7617,220.13232 L 1072.7617,208.1792 M 1175.3477,208.1792 L 1189.5508,208.1792 L 1189.5508,313.15576 L 1175.3477,313.15576 L 1175.3477,208.1792 M 1217.8164,208.1792 L 1236.9414,208.1792 L 1283.4883,295.99951 L 1283.4883,208.1792 L 1297.2695,208.1792 L 1297.2695,313.15576 L 1278.1445,313.15576 L 1231.5977,225.33545 L 1231.5977,313.15576 L 1217.8164,313.15576 L 1217.8164,208.1792 M 1325.5352,208.1792 L 1391.9102,208.1792 L 1391.9102,220.13232 L 1339.7383,220.13232 L 1339.7383,251.21045 L 1389.7305,251.21045 L 1389.7305,263.16357 L 1339.7383,263.16357 L 1339.7383,301.20264 L 1393.1758,301.20264 L 1393.1758,313.15576 L 1325.5352,313.15576 L 1325.5352,208.1792 M 1479.5898,211.62451 L 1479.5898,225.47607 C 1474.1991,222.89804 1469.1132,220.97617 1464.332,219.71045 C 1459.5507,218.44492 1454.9335,217.81211 1450.4805,217.81201 C 1442.7461,217.81211 1436.7695,219.31211 1432.5508,222.31201 C 1428.3789,225.3121 1426.2929,229.57772 1426.293,235.10889 C 1426.2929,239.74959 1427.6758,243.26521 1430.4414,245.65576 C 1433.2539,247.99958 1438.5507,249.89801 1446.332,251.35107 L 1454.9102,253.10889 C 1465.5038,255.12457 1473.3085,258.68707 1478.3242,263.79639 C 1483.3866,268.85893 1485.9179,275.6558 1485.918,284.18701 C 1485.9179,294.35891 1482.496,302.06984 1475.6523,307.31982 C 1468.8554,312.56982 1458.871,315.19482 1445.6992,315.19482 C 1440.7304,315.19482 1435.4336,314.63232 1429.8086,313.50732 C 1424.2304,312.38232 1418.4414,310.71826 1412.4414,308.51514 L 1412.4414,293.89014 C 1418.207,297.12453 1423.8554,299.56203 1429.3867,301.20264 C 1434.9179,302.84327 1440.3554,303.66358 1445.6992,303.66357 C 1453.8085,303.66358 1460.0663,302.06984 1464.4727,298.88232 C 1468.8788,295.69484 1471.082,291.14797 1471.082,285.2417 C 1471.082,280.08548 1469.4882,276.05424 1466.3008,273.14795 C 1463.1601,270.24174 1457.9804,268.06206 1450.7617,266.60889 L 1442.1133,264.92139 C 1431.5195,262.81206 1423.8554,259.50738 1419.1211,255.00732 C 1414.3867,250.50739 1412.0195,244.24958 1412.0195,236.23389 C 1412.0195,226.95272 1415.2773,219.64023 1421.793,214.29639 C 1428.3554,208.95274 1437.3789,206.28087 1448.8633,206.28076 C 1453.7851,206.28087 1458.8007,206.72618 1463.9102,207.6167 C 1469.0195,208.50743 1474.246,209.84337 1479.5898,211.62451 M 1570.9961,211.62451 L 1570.9961,225.47607 C 1565.6054,222.89804 1560.5195,220.97617 1555.7383,219.71045 C 1550.957,218.44492 1546.3398,217.81211 1541.8867,217.81201 C 1534.1523,217.81211 1528.1757,219.31211 1523.957,222.31201 C 1519.7851,225.3121 1517.6992,229.57772 1517.6992,235.10889 C 1517.6992,239.74959 1519.082,243.26521 1521.8477,245.65576 C 1524.6601,247.99958 1529.957,249.89801 1537.7383,251.35107 L 1546.3164,253.10889 C 1556.9101,255.12457 1564.7148,258.68707 1569.7305,263.79639 C 1574.7929,268.85893 1577.3241,275.6558 1577.3242,284.18701 C 1577.3241,294.35891 1573.9023,302.06984 1567.0586,307.31982 C 1560.2617,312.56982 1550.2773,315.19482 1537.1055,315.19482 C 1532.1367,315.19482 1526.8398,314.63232 1521.2148,313.50732 C 1515.6367,312.38232 1509.8476,310.71826 1503.8477,308.51514 L 1503.8477,293.89014 C 1509.6133,297.12453 1515.2617,299.56203 1520.793,301.20264 C 1526.3242,302.84327 1531.7617,303.66358 1537.1055,303.66357 C 1545.2148,303.66358 1551.4726,302.06984 1555.8789,298.88232 C 1560.2851,295.69484 1562.4882,291.14797 1562.4883,285.2417 C 1562.4882,280.08548 1560.8945,276.05424 1557.707,273.14795 C 1554.5663,270.24174 1549.3867,268.06206 1542.168,266.60889 L 1533.5195,264.92139 C 1522.9258,262.81206 1515.2617,259.50738 1510.5273,255.00732 C 1505.793,250.50739 1503.4258,244.24958 1503.4258,236.23389 C 1503.4258,226.95272 1506.6836,219.64023 1513.1992,214.29639 C 1519.7617,208.95274 1528.7851,206.28087 1540.2695,206.28076 C 1545.1914,206.28087 1550.207,206.72618 1555.3164,207.6167 C 1560.4257,208.50743 1565.6523,209.84337 1570.9961,211.62451" />
  <path
     style="font-size:40px;font-style:normal;font-weight:normal;fill:#000000;fill-opacity:1;stroke:none;stroke-width:1px;stroke-linecap:butt;stroke-linejoin:miter;stroke-opacity:1;font-family:Bitstream Vera Sans"
     id="text2459"
     d="M 1655.397,213.23137 L 1658.9907,213.23137 L 1663.4829,230.30168 L 1667.9556,213.23137 L 1672.1938,213.23137 L 1676.686,230.30168 L 1681.1587,213.23137 L 1684.7524,213.23137 L 1679.0298,235.10637 L 1674.7915,235.10637 L 1670.0845,217.17668 L 1665.3579,235.10637 L 1661.1196,235.10637 L 1655.397,213.23137 M 1690.2212,213.23137 L 1693.8149,213.23137 L 1693.8149,235.10637 L 1690.2212,235.10637 L 1690.2212,213.23137 M 1690.2212,204.71574 L 1693.8149,204.71574 L 1693.8149,209.26653 L 1690.2212,209.26653 L 1690.2212,204.71574 M 1704.8696,207.02043 L 1704.8696,213.23137 L 1712.272,213.23137 L 1712.272,216.02434 L 1704.8696,216.02434 L 1704.8696,227.89934 C 1704.8696,229.6832 1705.1105,230.82903 1705.5923,231.33684 C 1706.0871,231.84465 1707.0832,232.09856 1708.5806,232.09856 L 1712.272,232.09856 L 1712.272,235.10637 L 1708.5806,235.10637 C 1705.8071,235.10637 1703.8931,234.59205 1702.8384,233.5634 C 1701.7837,232.52174 1701.2563,230.63372 1701.2563,227.89934 L 1701.2563,216.02434 L 1698.6196,216.02434 L 1698.6196,213.23137 L 1701.2563,213.23137 L 1701.2563,207.02043 L 1704.8696,207.02043 M 1735.2017,221.90324 L 1735.2017,235.10637 L 1731.6079,235.10637 L 1731.6079,222.02043 C 1731.6079,219.95013 1731.2042,218.40066 1730.397,217.37199 C 1729.5897,216.34337 1728.3787,215.82904 1726.7642,215.82903 C 1724.824,215.82904 1723.2941,216.44753 1722.1743,217.68449 C 1721.0545,218.92149 1720.4946,220.60769 1720.4946,222.74309 L 1720.4946,235.10637 L 1716.8813,235.10637 L 1716.8813,204.71574 L 1720.4946,204.71574 L 1720.4946,216.62981 C 1721.354,215.31472 1722.3631,214.33165 1723.522,213.68059 C 1724.6938,213.02957 1726.0415,212.70405 1727.5649,212.70403 C 1730.0779,212.70405 1731.979,213.4853 1733.2681,215.04778 C 1734.5571,216.59727 1735.2016,218.88243 1735.2017,221.90324 M 1750.8853,215.7509 C 1748.9582,215.75092 1747.4347,216.50613 1746.3149,218.01653 C 1745.1951,219.51394 1744.6352,221.57123 1744.6353,224.1884 C 1744.6352,226.8056 1745.1886,228.8694 1746.2954,230.37981 C 1747.4152,231.87721 1748.9451,232.6259 1750.8853,232.6259 C 1752.7993,232.6259 1754.3162,231.8707 1755.436,230.36028 C 1756.5558,228.84986 1757.1157,226.79258 1757.1157,224.1884 C 1757.1157,221.59727 1756.5558,219.54649 1755.436,218.03606 C 1754.3162,216.51264 1752.7993,215.75092 1750.8853,215.7509 M 1750.8853,212.70403 C 1754.0102,212.70405 1756.4647,213.71967 1758.2485,215.7509 C 1760.0324,217.78217 1760.9243,220.59466 1760.9243,224.1884 C 1760.9243,227.76914 1760.0324,230.58163 1758.2485,232.6259 C 1756.4647,234.65715 1754.0102,235.67277 1750.8853,235.67278 C 1747.7472,235.67277 1745.2863,234.65715 1743.5024,232.6259 C 1741.7316,230.58163 1740.8462,227.76914 1740.8462,224.1884 C 1740.8462,220.59466 1741.7316,217.78217 1743.5024,215.7509 C 1745.2863,213.71967 1747.7472,212.70405 1750.8853,212.70403 M 1766.4907,226.47356 L 1766.4907,213.23137 L 1770.0845,213.23137 L 1770.0845,226.33684 C 1770.0845,228.40716 1770.4881,229.96314 1771.2954,231.00481 C 1772.1027,232.03346 1773.3136,232.54778 1774.9282,232.54778 C 1776.8683,232.54778 1778.3983,231.92929 1779.5181,230.69231 C 1780.6509,229.45533 1781.2173,227.76914 1781.2173,225.63371 L 1781.2173,213.23137 L 1784.811,213.23137 L 1784.811,235.10637 L 1781.2173,235.10637 L 1781.2173,231.74699 C 1780.3449,233.07512 1779.3292,234.0647 1778.1704,234.71574 C 1777.0246,235.35376 1775.6899,235.67277 1774.1665,235.67278 C 1771.6535,235.67277 1769.7459,234.89153 1768.4438,233.32903 C 1767.1418,231.76653 1766.4907,229.48137 1766.4907,226.47356 M 1775.5337,212.70403 L 1775.5337,212.70403 M 1795.8071,207.02043 L 1795.8071,213.23137 L 1803.2095,213.23137 L 1803.2095,216.02434 L 1795.8071,216.02434 L 1795.8071,227.89934 C 1795.8071,229.6832 1796.048,230.82903 1796.5298,231.33684 C 1797.0246,231.84465 1798.0207,232.09856 1799.5181,232.09856 L 1803.2095,232.09856 L 1803.2095,235.10637 L 1799.5181,235.10637 C 1796.7446,235.10637 1794.8306,234.59205 1793.7759,233.5634 C 1792.7212,232.52174 1792.1938,230.63372 1792.1938,227.89934 L 1792.1938,216.02434 L 1789.5571,216.02434 L 1789.5571,213.23137 L 1792.1938,213.23137 L 1792.1938,207.02043 L 1795.8071,207.02043 M 1830.6313,224.11028 C 1827.7277,224.11029 1825.716,224.44232 1824.5962,225.10637 C 1823.4764,225.77044 1822.9165,226.90325 1822.9165,228.50481 C 1822.9165,229.78085 1823.3332,230.79648 1824.1665,231.55168 C 1825.0128,232.29387 1826.1587,232.66497 1827.604,232.66496 C 1829.5962,232.66497 1831.1912,231.96184 1832.3892,230.55559 C 1833.6001,229.13632 1834.2055,227.25481 1834.2056,224.91106 L 1834.2056,224.11028 L 1830.6313,224.11028 M 1837.7993,222.6259 L 1837.7993,235.10637 L 1834.2056,235.10637 L 1834.2056,231.78606 C 1833.3852,233.11418 1832.3631,234.09726 1831.1392,234.73528 C 1829.9152,235.36028 1828.4178,235.67277 1826.647,235.67278 C 1824.4074,235.67277 1822.6235,235.04778 1821.2954,233.79778 C 1819.9803,232.53476 1819.3228,230.84856 1819.3228,228.73918 C 1819.3228,226.27825 1820.1431,224.42279 1821.7837,223.17278 C 1823.4373,221.92279 1825.8983,221.29779 1829.1665,221.29778 L 1834.2056,221.29778 L 1834.2056,220.94621 C 1834.2055,219.29258 1833.6587,218.01654 1832.5649,217.11809 C 1831.4842,216.20665 1829.9608,215.75092 1827.9946,215.7509 C 1826.7446,215.75092 1825.5272,215.90066 1824.3423,216.20012 C 1823.1574,216.49962 1822.0181,216.94884 1820.9243,217.54778 L 1820.9243,214.22746 C 1822.2394,213.71967 1823.5155,213.34207 1824.7524,213.09465 C 1825.9894,212.83426 1827.1938,212.70405 1828.3657,212.70403 C 1831.5298,212.70405 1833.893,213.52436 1835.4556,215.16496 C 1837.018,216.80561 1837.7993,219.29258 1837.7993,222.6259 M 1863.4048,221.90324 L 1863.4048,235.10637 L 1859.811,235.10637 L 1859.811,222.02043 C 1859.811,219.95013 1859.4074,218.40066 1858.6001,217.37199 C 1857.7928,216.34337 1856.5819,215.82904 1854.9673,215.82903 C 1853.0272,215.82904 1851.4972,216.44753 1850.3774,217.68449 C 1849.2576,218.92149 1848.6977,220.60769 1848.6978,222.74309 L 1848.6978,235.10637 L 1845.0845,235.10637 L 1845.0845,213.23137 L 1848.6978,213.23137 L 1848.6978,216.62981 C 1849.5571,215.31472 1850.5662,214.33165 1851.7251,213.68059 C 1852.897,213.02957 1854.2446,212.70405 1855.7681,212.70403 C 1858.2811,212.70405 1860.1821,213.4853 1861.4712,215.04778 C 1862.7602,216.59727 1863.4048,218.88243 1863.4048,221.90324 M 1879.7134,237.13762 C 1878.6977,239.74178 1877.7082,241.441 1876.7446,242.23528 C 1875.7811,243.02954 1874.492,243.42667 1872.8774,243.42668 L 1870.0063,243.42668 L 1870.0063,240.41887 L 1872.1157,240.41887 C 1873.1053,240.41886 1873.8735,240.18449 1874.4204,239.71574 C 1874.9673,239.24699 1875.5727,238.14022 1876.2368,236.39543 L 1876.8813,234.75481 L 1868.0337,213.23137 L 1871.8423,213.23137 L 1878.6782,230.34074 L 1885.5142,213.23137 L 1889.3228,213.23137 L 1879.7134,237.13762 M 1921.4126,223.91496 C 1921.4126,221.31081 1920.8722,219.29258 1919.7915,217.86028 C 1918.7238,216.428 1917.2199,215.71186 1915.2798,215.71184 C 1913.3527,215.71186 1911.8488,216.428 1910.7681,217.86028 C 1909.7004,219.29258 1909.1665,221.31081 1909.1665,223.91496 C 1909.1665,226.50612 1909.7004,228.51783 1910.7681,229.95012 C 1911.8488,231.38241 1913.3527,232.09856 1915.2798,232.09856 C 1917.2199,232.09856 1918.7238,231.38241 1919.7915,229.95012 C 1920.8722,228.51783 1921.4126,226.50612 1921.4126,223.91496 M 1925.0063,232.39153 C 1925.0063,236.11548 1924.1795,238.88241 1922.5259,240.69231 C 1920.8722,242.51522 1918.3397,243.42667 1914.9282,243.42668 C 1913.6652,243.42667 1912.4738,243.32902 1911.354,243.13371 C 1910.2342,242.95141 1909.147,242.66496 1908.0923,242.27434 L 1908.0923,238.77824 C 1909.147,239.35116 1910.1886,239.77433 1911.2173,240.04778 C 1912.2459,240.32121 1913.2941,240.45793 1914.3618,240.45793 C 1916.7186,240.45793 1918.4829,239.83944 1919.6548,238.60246 C 1920.8266,237.3785 1921.4126,235.52304 1921.4126,233.03606 L 1921.4126,231.25871 C 1920.6704,232.54778 1919.7199,233.51132 1918.561,234.14934 C 1917.4022,234.78736 1916.0154,235.10637 1914.4009,235.10637 C 1911.7186,235.10637 1909.5571,234.08423 1907.9165,232.03996 C 1906.2759,229.9957 1905.4556,227.28737 1905.4556,223.91496 C 1905.4556,220.52956 1906.2759,217.81472 1907.9165,215.77043 C 1909.5571,213.72618 1911.7186,212.70405 1914.4009,212.70403 C 1916.0154,212.70405 1917.4022,213.02306 1918.561,213.66106 C 1919.7199,214.2991 1920.6704,215.26264 1921.4126,216.55168 L 1921.4126,213.23137 L 1925.0063,213.23137 L 1925.0063,232.39153 M 1945.0845,216.59074 C 1944.6808,216.35639 1944.2381,216.18712 1943.7563,216.08293 C 1943.2876,215.96576 1942.7668,215.90717 1942.1938,215.90715 C 1940.1626,215.90717 1938.6001,216.57123 1937.5063,217.89934 C 1936.4256,219.21446 1935.8852,221.10899 1935.8853,223.58293 L 1935.8853,235.10637 L 1932.272,235.10637 L 1932.272,213.23137 L 1935.8853,213.23137 L 1935.8853,216.62981 C 1936.6405,215.3017 1937.6235,214.31863 1938.8345,213.68059 C 1940.0454,213.02957 1941.5168,212.70405 1943.2485,212.70403 C 1943.4959,212.70405 1943.7694,212.72358 1944.0688,212.76262 C 1944.3683,212.78868 1944.7003,212.83426 1945.0649,212.89934 L 1945.0845,216.59074 M 1958.8345,224.11028 C 1955.9308,224.11029 1953.9191,224.44232 1952.7993,225.10637 C 1951.6795,225.77044 1951.1196,226.90325 1951.1196,228.50481 C 1951.1196,229.78085 1951.5363,230.79648 1952.3696,231.55168 C 1953.216,232.29387 1954.3618,232.66497 1955.8071,232.66496 C 1957.7993,232.66497 1959.3944,231.96184 1960.5923,230.55559 C 1961.8032,229.13632 1962.4087,227.25481 1962.4087,224.91106 L 1962.4087,224.11028 L 1958.8345,224.11028 M 1966.0024,222.6259 L 1966.0024,235.10637 L 1962.4087,235.10637 L 1962.4087,231.78606 C 1961.5884,233.11418 1960.5662,234.09726 1959.3423,234.73528 C 1958.1183,235.36028 1956.6209,235.67277 1954.8501,235.67278 C 1952.6105,235.67277 1950.8267,235.04778 1949.4985,233.79778 C 1948.1834,232.53476 1947.5259,230.84856 1947.5259,228.73918 C 1947.5259,226.27825 1948.3462,224.42279 1949.9868,223.17278 C 1951.6405,221.92279 1954.1014,221.29779 1957.3696,221.29778 L 1962.4087,221.29778 L 1962.4087,220.94621 C 1962.4087,219.29258 1961.8618,218.01654 1960.7681,217.11809 C 1959.6873,216.20665 1958.1639,215.75092 1956.1978,215.7509 C 1954.9477,215.75092 1953.7303,215.90066 1952.5454,216.20012 C 1951.3605,216.49962 1950.2212,216.94884 1949.1274,217.54778 L 1949.1274,214.22746 C 1950.4425,213.71967 1951.7186,213.34207 1952.9556,213.09465 C 1954.1925,212.83426 1955.397,212.70405 1956.5688,212.70403 C 1959.7329,212.70405 1962.0962,213.52436 1963.6587,215.16496 C 1965.2212,216.80561 1966.0024,219.29258 1966.0024,222.6259 M 1989.1665,214.07121 L 1989.1665,217.43059 C 1988.1509,216.87071 1987.1287,216.45404 1986.1001,216.18059 C 1985.0845,215.89415 1984.0558,215.75092 1983.0142,215.7509 C 1980.6834,215.75092 1978.8735,216.49311 1977.5845,217.97746 C 1976.2954,219.44883 1975.6509,221.51914 1975.6509,224.1884 C 1975.6509,226.85768 1976.2954,228.9345 1977.5845,230.41887 C 1978.8735,231.89023 1980.6834,232.6259 1983.0142,232.6259 C 1984.0558,232.6259 1985.0845,232.48918 1986.1001,232.21574 C 1987.1287,231.92929 1988.1509,231.50611 1989.1665,230.94621 L 1989.1665,234.26653 C 1988.1639,234.73528 1987.1222,235.08684 1986.0415,235.32121 C 1984.9738,235.55559 1983.8345,235.67277 1982.6235,235.67278 C 1979.3293,235.67277 1976.7121,234.63762 1974.772,232.56731 C 1972.8319,230.497 1971.8618,227.70403 1971.8618,224.1884 C 1971.8618,220.62071 1972.8384,217.81472 1974.7915,215.77043 C 1976.7576,213.72618 1979.4464,212.70405 1982.8579,212.70403 C 1983.9647,212.70405 1985.0454,212.82124 1986.1001,213.05559 C 1987.1548,213.27696 1988.1769,213.61551 1989.1665,214.07121 M 2014.1665,223.27043 L 2014.1665,225.02824 L 1997.6431,225.02824 C 1997.7993,227.50221 1998.5415,229.39023 1999.8696,230.69231 C 2001.2108,231.98137 2003.0727,232.6259 2005.4556,232.6259 C 2006.8358,232.6259 2008.1704,232.45663 2009.4595,232.11809 C 2010.7615,231.77955 2012.0506,231.27174 2013.3267,230.59465 L 2013.3267,233.99309 C 2012.0376,234.53996 2010.716,234.95663 2009.3618,235.24309 C 2008.0076,235.52955 2006.6339,235.67277 2005.2407,235.67278 C 2001.7511,235.67277 1998.9842,234.65715 1996.9399,232.6259 C 1994.9087,230.59465 1993.8931,227.84726 1993.8931,224.38371 C 1993.8931,220.803 1994.8566,217.96446 1996.7837,215.86809 C 1998.7238,213.75873 2001.3345,212.70405 2004.6157,212.70403 C 2007.5584,212.70405 2009.8826,213.65457 2011.5884,215.55559 C 2013.3071,217.44363 2014.1665,220.01524 2014.1665,223.27043 M 2010.5728,222.21574 C 2010.5467,220.24961 2009.9933,218.6806 2008.9126,217.50871 C 2007.8449,216.33686 2006.4256,215.75092 2004.6548,215.7509 C 2002.6496,215.75092 2001.0415,216.31733 1999.8306,217.45012 C 1998.6326,218.58295 1997.9425,220.178 1997.7603,222.23528 L 2010.5728,222.21574" />
  <path
     style="font-size:40px;font-style:normal;font-weight:normal;fill:#000000;fill-opacity:1;stroke:none;stroke-width:1px;stroke-linecap:butt;stroke-linejoin:miter;stroke-opacity:1;font-family:Bitstream Vera Sans"
     id="text2463"
     d="M 1470.9012,451.93915 C 1470.9012,449.29593 1470.3544,447.22562 1469.2606,445.72821 C 1468.1799,444.21781 1466.689,443.4626 1464.788,443.46259 C 1462.8869,443.4626 1461.3895,444.21781 1460.2958,445.72821 C 1459.215,447.22562 1458.6747,449.29593 1458.6747,451.93915 C 1458.6747,454.58239 1459.215,456.65921 1460.2958,458.16962 C 1461.3895,459.66702 1462.8869,460.41571 1464.788,460.41571 C 1466.689,460.41571 1468.1799,459.66702 1469.2606,458.16962 C 1470.3544,456.65921 1470.9012,454.58239 1470.9012,451.93915 M 1458.6747,444.30243 C 1459.4299,443.00037 1460.3804,442.03683 1461.5262,441.4118 C 1462.6851,440.77381 1464.0653,440.4548 1465.6669,440.45477 C 1468.3231,440.4548 1470.478,441.50948 1472.1317,443.61884 C 1473.7984,445.72823 1474.6317,448.50166 1474.6317,451.93915 C 1474.6317,455.37666 1473.7984,458.15009 1472.1317,460.25946 C 1470.478,462.36884 1468.3231,463.42352 1465.6669,463.42352 C 1464.0653,463.42352 1462.6851,463.11102 1461.5262,462.48602 C 1460.3804,461.848 1459.4299,460.87795 1458.6747,459.57587 L 1458.6747,462.85712 L 1455.0614,462.85712 L 1455.0614,432.46649 L 1458.6747,432.46649 L 1458.6747,444.30243 M 1480.2177,454.2243 L 1480.2177,440.98212 L 1483.8114,440.98212 L 1483.8114,454.08759 C 1483.8114,456.1579 1484.215,457.71389 1485.0223,458.75555 C 1485.8296,459.7842 1487.0406,460.29853 1488.6552,460.29852 C 1490.5952,460.29853 1492.1252,459.68004 1493.245,458.44305 C 1494.3778,457.20608 1494.9442,455.51988 1494.9442,453.38446 L 1494.9442,440.98212 L 1498.538,440.98212 L 1498.538,462.85712 L 1494.9442,462.85712 L 1494.9442,459.49774 C 1494.0718,460.82587 1493.0562,461.81545 1491.8973,462.46649 C 1490.7515,463.10451 1489.4169,463.42352 1487.8934,463.42352 C 1485.3804,463.42352 1483.4729,462.64227 1482.1708,461.07977 C 1480.8687,459.51728 1480.2176,457.23212 1480.2177,454.2243 M 1489.2606,440.45477 L 1489.2606,440.45477 M 1509.5341,434.77118 L 1509.5341,440.98212 L 1516.9364,440.98212 L 1516.9364,443.77509 L 1509.5341,443.77509 L 1509.5341,455.65009 C 1509.5341,457.43395 1509.7749,458.57978 1510.2567,459.08759 C 1510.7515,459.5954 1511.7476,459.84931 1513.245,459.8493 L 1516.9364,459.8493 L 1516.9364,462.85712 L 1513.245,462.85712 C 1510.4715,462.85712 1508.5575,462.34279 1507.5028,461.31415 C 1506.4481,460.27248 1505.9208,458.38446 1505.9208,455.65009 L 1505.9208,443.77509 L 1503.2841,443.77509 L 1503.2841,440.98212 L 1505.9208,440.98212 L 1505.9208,434.77118 L 1509.5341,434.77118 M 1548.3622,441.62665 L 1548.3622,445.02509 C 1547.3465,444.50427 1546.2919,444.11365 1545.1981,443.85321 C 1544.1044,443.59281 1542.9715,443.4626 1541.7997,443.46259 C 1540.0158,443.4626 1538.6747,443.73604 1537.7762,444.2829 C 1536.8908,444.82979 1536.4481,445.6501 1536.4481,446.74384 C 1536.4481,447.57718 1536.7671,448.23474 1537.4052,448.71649 C 1538.0432,449.18526 1539.3257,449.63447 1541.2528,450.06415 L 1542.4833,450.33759 C 1545.0353,450.88447 1546.8452,451.65921 1547.913,452.6618 C 1548.9937,453.6514 1549.534,455.03811 1549.5341,456.82196 C 1549.534,458.85321 1548.7267,460.46129 1547.1122,461.64618 C 1545.5106,462.83108 1543.3036,463.42352 1540.4911,463.42352 C 1539.3192,463.42352 1538.0952,463.30633 1536.8192,463.07196 C 1535.5562,462.85061 1534.2216,462.51206 1532.8153,462.05634 L 1532.8153,458.3454 C 1534.1434,459.03551 1535.452,459.55634 1536.7411,459.9079 C 1538.0301,460.24644 1539.3062,460.41571 1540.5692,460.41571 C 1542.2619,460.41571 1543.564,460.12925 1544.4755,459.55634 C 1545.3869,458.9704 1545.8426,458.15009 1545.8427,457.0954 C 1545.8426,456.11884 1545.5106,455.37015 1544.8466,454.8493 C 1544.1955,454.32848 1542.7567,453.82718 1540.5302,453.3454 L 1539.2802,453.05243 C 1537.0536,452.58369 1535.4455,451.86754 1534.4559,450.90399 C 1533.4663,449.92744 1532.9716,448.59281 1532.9716,446.90009 C 1532.9716,444.84281 1533.7007,443.25427 1535.1591,442.13446 C 1536.6174,441.01469 1538.6877,440.4548 1541.37,440.45477 C 1542.6981,440.4548 1543.9481,440.55245 1545.12,440.74774 C 1546.2919,440.94308 1547.3726,441.23604 1548.3622,441.62665 M 1558.8309,434.77118 L 1558.8309,440.98212 L 1566.2333,440.98212 L 1566.2333,443.77509 L 1558.8309,443.77509 L 1558.8309,455.65009 C 1558.8309,457.43395 1559.0718,458.57978 1559.5536,459.08759 C 1560.0484,459.5954 1561.0445,459.84931 1562.5419,459.8493 L 1566.2333,459.8493 L 1566.2333,462.85712 L 1562.5419,462.85712 C 1559.7684,462.85712 1557.8544,462.34279 1556.7997,461.31415 C 1555.745,460.27248 1555.2176,458.38446 1555.2177,455.65009 L 1555.2177,443.77509 L 1552.5809,443.77509 L 1552.5809,440.98212 L 1555.2177,440.98212 L 1555.2177,434.77118 L 1558.8309,434.77118 M 1570.9794,440.98212 L 1574.5731,440.98212 L 1574.5731,462.85712 L 1570.9794,462.85712 L 1570.9794,440.98212 M 1570.9794,432.46649 L 1574.5731,432.46649 L 1574.5731,437.01727 L 1570.9794,437.01727 L 1570.9794,432.46649 M 1582.0731,432.46649 L 1585.6669,432.46649 L 1585.6669,462.85712 L 1582.0731,462.85712 L 1582.0731,432.46649 M 1593.1669,432.46649 L 1596.7606,432.46649 L 1596.7606,462.85712 L 1593.1669,462.85712 L 1593.1669,432.46649 M 1605.1786,457.89618 L 1609.2997,457.89618 L 1609.2997,461.25555 L 1606.0966,467.50555 L 1603.577,467.50555 L 1605.1786,461.25555 L 1605.1786,457.89618 M 1639.6708,451.86102 C 1636.7671,451.86103 1634.7554,452.19306 1633.6356,452.85712 C 1632.5158,453.52119 1631.9559,454.654 1631.9559,456.25555 C 1631.9559,457.5316 1632.3726,458.54723 1633.2059,459.30243 C 1634.0523,460.04462 1635.1981,460.41571 1636.6434,460.41571 C 1638.6356,460.41571 1640.2307,459.71259 1641.4286,458.30634 C 1642.6395,456.88707 1643.245,455.00556 1643.245,452.6618 L 1643.245,451.86102 L 1639.6708,451.86102 M 1646.8387,450.37665 L 1646.8387,462.85712 L 1643.245,462.85712 L 1643.245,459.5368 C 1642.4247,460.86493 1641.4025,461.848 1640.1786,462.48602 C 1638.9546,463.11102 1637.4572,463.42352 1635.6864,463.42352 C 1633.4468,463.42352 1631.663,462.79852 1630.3348,461.54852 C 1629.0197,460.2855 1628.3622,458.59931 1628.3622,456.48993 C 1628.3622,454.029 1629.1825,452.17353 1630.8231,450.92352 C 1632.4768,449.67354 1634.9377,449.04854 1638.2059,449.04852 L 1643.245,449.04852 L 1643.245,448.69696 C 1643.245,447.04333 1642.6981,445.76729 1641.6044,444.86884 C 1640.5236,443.9574 1639.0002,443.50167 1637.0341,443.50165 C 1635.784,443.50167 1634.5666,443.65141 1633.3817,443.95087 C 1632.1968,444.25036 1631.0575,444.69958 1629.9637,445.29852 L 1629.9637,441.97821 C 1631.2788,441.47042 1632.5549,441.09282 1633.7919,440.8454 C 1635.0288,440.585 1636.2333,440.4548 1637.4052,440.45477 C 1640.5692,440.4548 1642.9325,441.27511 1644.495,442.91571 C 1646.0575,444.55635 1646.8387,447.04333 1646.8387,450.37665 M 1670.4716,459.57587 L 1670.4716,471.17743 L 1666.8583,471.17743 L 1666.8583,440.98212 L 1670.4716,440.98212 L 1670.4716,444.30243 C 1671.2268,443.00037 1672.1773,442.03683 1673.3231,441.4118 C 1674.482,440.77381 1675.8622,440.4548 1677.4637,440.45477 C 1680.12,440.4548 1682.2749,441.50948 1683.9286,443.61884 C 1685.5952,445.72823 1686.4286,448.50166 1686.4286,451.93915 C 1686.4286,455.37666 1685.5952,458.15009 1683.9286,460.25946 C 1682.2749,462.36884 1680.12,463.42352 1677.4637,463.42352 C 1675.8622,463.42352 1674.482,463.11102 1673.3231,462.48602 C 1672.1773,461.848 1671.2268,460.87795 1670.4716,459.57587 M 1682.6981,451.93915 C 1682.6981,449.29593 1682.1512,447.22562 1681.0575,445.72821 C 1679.9767,444.21781 1678.4859,443.4626 1676.5848,443.46259 C 1674.6838,443.4626 1673.1864,444.21781 1672.0927,445.72821 C 1671.0119,447.22562 1670.4716,449.29593 1670.4716,451.93915 C 1670.4716,454.58239 1671.0119,456.65921 1672.0927,458.16962 C 1673.1864,459.66702 1674.6838,460.41571 1676.5848,460.41571 C 1678.4859,460.41571 1679.9767,459.66702 1681.0575,458.16962 C 1682.1512,456.65921 1682.6981,454.58239 1682.6981,451.93915 M 1700.8622,443.50165 C 1698.9351,443.50167 1697.4117,444.25687 1696.2919,445.76727 C 1695.1721,447.26468 1694.6122,449.32197 1694.6122,451.93915 C 1694.6122,454.55634 1695.1656,456.62014 1696.2723,458.13055 C 1697.3921,459.62795 1698.9221,460.37665 1700.8622,460.37665 C 1702.7762,460.37665 1704.2932,459.62144 1705.413,458.11102 C 1706.5327,456.60061 1707.0926,454.54332 1707.0927,451.93915 C 1707.0926,449.34802 1706.5327,447.29724 1705.413,445.7868 C 1704.2932,444.26339 1702.7762,443.50167 1700.8622,443.50165 M 1700.8622,440.45477 C 1703.9872,440.4548 1706.4416,441.47042 1708.2255,443.50165 C 1710.0093,445.53292 1710.9012,448.34541 1710.9012,451.93915 C 1710.9012,455.51988 1710.0093,458.33238 1708.2255,460.37665 C 1706.4416,462.4079 1703.9872,463.42352 1700.8622,463.42352 C 1697.7242,463.42352 1695.2632,462.4079 1693.4794,460.37665 C 1691.7085,458.33238 1690.8231,455.51988 1690.8231,451.93915 C 1690.8231,448.34541 1691.7085,445.53292 1693.4794,443.50165 C 1695.2632,441.47042 1697.7242,440.4548 1700.8622,440.45477 M 1735.5497,451.02118 L 1735.5497,452.77899 L 1719.0262,452.77899 C 1719.1825,455.25296 1719.9247,457.14098 1721.2528,458.44305 C 1722.5939,459.73212 1724.4559,460.37665 1726.8387,460.37665 C 1728.2189,460.37665 1729.5536,460.20738 1730.8427,459.86884 C 1732.1447,459.5303 1733.4338,459.02249 1734.7098,458.3454 L 1734.7098,461.74384 C 1733.4208,462.29071 1732.0991,462.70738 1730.745,462.99384 C 1729.3908,463.28029 1728.0171,463.42352 1726.6239,463.42352 C 1723.1343,463.42352 1720.3674,462.4079 1718.3231,460.37665 C 1716.2919,458.3454 1715.2762,455.59801 1715.2762,452.13446 C 1715.2762,448.55375 1716.2398,445.71521 1718.1669,443.61884 C 1720.107,441.50948 1722.7176,440.4548 1725.9989,440.45477 C 1728.9416,440.4548 1731.2658,441.40532 1732.9716,443.30634 C 1734.6903,445.19437 1735.5497,447.76599 1735.5497,451.02118 M 1731.9559,449.96649 C 1731.9299,448.00036 1731.3765,446.43135 1730.2958,445.25946 C 1729.2281,444.0876 1727.8088,443.50167 1726.038,443.50165 C 1724.0327,443.50167 1722.4247,444.06807 1721.2137,445.20087 C 1720.0158,446.3337 1719.3257,447.92875 1719.1434,449.98602 L 1731.9559,449.96649 M 1745.0028,434.77118 L 1745.0028,440.98212 L 1752.4052,440.98212 L 1752.4052,443.77509 L 1745.0028,443.77509 L 1745.0028,455.65009 C 1745.0028,457.43395 1745.2437,458.57978 1745.7255,459.08759 C 1746.2202,459.5954 1747.2163,459.84931 1748.7137,459.8493 L 1752.4052,459.8493 L 1752.4052,462.85712 L 1748.7137,462.85712 C 1745.9403,462.85712 1744.0262,462.34279 1742.9716,461.31415 C 1741.9169,460.27248 1741.3895,458.38446 1741.3895,455.65009 L 1741.3895,443.77509 L 1738.7528,443.77509 L 1738.7528,440.98212 L 1741.3895,440.98212 L 1741.3895,434.77118 L 1745.0028,434.77118 M 1769.8856,432.46649 L 1773.4794,432.46649 L 1773.4794,462.85712 L 1769.8856,462.85712 L 1769.8856,432.46649 M 1780.9794,440.98212 L 1784.5731,440.98212 L 1784.5731,462.85712 L 1780.9794,462.85712 L 1780.9794,440.98212 M 1780.9794,432.46649 L 1784.5731,432.46649 L 1784.5731,437.01727 L 1780.9794,437.01727 L 1780.9794,432.46649 M 1810.2567,449.65399 L 1810.2567,462.85712 L 1806.663,462.85712 L 1806.663,449.77118 C 1806.6629,447.70088 1806.2593,446.1514 1805.452,445.12274 C 1804.6447,444.09411 1803.4338,443.57979 1801.8192,443.57977 C 1799.8791,443.57979 1798.3492,444.19828 1797.2294,445.43524 C 1796.1096,446.67224 1795.5497,448.35843 1795.5497,450.49384 L 1795.5497,462.85712 L 1791.9364,462.85712 L 1791.9364,440.98212 L 1795.5497,440.98212 L 1795.5497,444.38055 C 1796.409,443.06547 1797.4182,442.0824 1798.577,441.43134 C 1799.7489,440.78032 1801.0965,440.4548 1802.62,440.45477 C 1805.133,440.4548 1807.034,441.23604 1808.3231,442.79852 C 1809.6122,444.34802 1810.2567,446.63317 1810.2567,449.65399 M 1831.8583,451.66571 C 1831.8583,449.06156 1831.3179,447.04333 1830.2372,445.61102 C 1829.1695,444.17875 1827.6656,443.4626 1825.7255,443.46259 C 1823.7984,443.4626 1822.2945,444.17875 1821.2137,445.61102 C 1820.146,447.04333 1819.6122,449.06156 1819.6122,451.66571 C 1819.6122,454.25686 1820.146,456.26858 1821.2137,457.70087 C 1822.2945,459.13316 1823.7984,459.84931 1825.7255,459.8493 C 1827.6656,459.84931 1829.1695,459.13316 1830.2372,457.70087 C 1831.3179,456.26858 1831.8583,454.25686 1831.8583,451.66571 M 1835.452,460.14227 C 1835.452,463.86623 1834.6252,466.63315 1832.9716,468.44305 C 1831.3179,470.26596 1828.7853,471.17742 1825.3739,471.17743 C 1824.1109,471.17742 1822.9195,471.07976 1821.7997,470.88446 C 1820.6799,470.70216 1819.5926,470.4157 1818.538,470.02509 L 1818.538,466.52899 C 1819.5926,467.1019 1820.6343,467.52508 1821.663,467.79852 C 1822.6916,468.07196 1823.7398,468.20867 1824.8075,468.20868 C 1827.1643,468.20867 1828.9286,467.59018 1830.1005,466.35321 C 1831.2723,465.12925 1831.8583,463.27378 1831.8583,460.7868 L 1831.8583,459.00946 C 1831.1161,460.29853 1830.1656,461.26207 1829.0067,461.90009 C 1827.8478,462.53811 1826.4611,462.85712 1824.8466,462.85712 C 1822.1643,462.85712 1820.0028,461.83498 1818.3622,459.79071 C 1816.7216,457.74644 1815.9012,455.03811 1815.9012,451.66571 C 1815.9012,448.28031 1816.7216,445.56547 1818.3622,443.52118 C 1820.0028,441.47693 1822.1643,440.4548 1824.8466,440.45477 C 1826.4611,440.4548 1827.8478,440.77381 1829.0067,441.4118 C 1830.1656,442.04985 1831.1161,443.01339 1831.8583,444.30243 L 1831.8583,440.98212 L 1835.452,440.98212 L 1835.452,460.14227 M 1861.5653,451.02118 L 1861.5653,452.77899 L 1845.0419,452.77899 C 1845.1981,455.25296 1845.9403,457.14098 1847.2684,458.44305 C 1848.6096,459.73212 1850.4715,460.37665 1852.8544,460.37665 C 1854.2346,460.37665 1855.5692,460.20738 1856.8583,459.86884 C 1858.1603,459.5303 1859.4494,459.02249 1860.7255,458.3454 L 1860.7255,461.74384 C 1859.4364,462.29071 1858.1148,462.70738 1856.7606,462.99384 C 1855.4064,463.28029 1854.0327,463.42352 1852.6395,463.42352 C 1849.1499,463.42352 1846.383,462.4079 1844.3387,460.37665 C 1842.3075,458.3454 1841.2919,455.59801 1841.2919,452.13446 C 1841.2919,448.55375 1842.2554,445.71521 1844.1825,443.61884 C 1846.1226,441.50948 1848.7333,440.4548 1852.0145,440.45477 C 1854.9572,440.4548 1857.2814,441.40532 1858.9872,443.30634 C 1860.7059,445.19437 1861.5653,447.76599 1861.5653,451.02118 M 1857.9716,449.96649 C 1857.9455,448.00036 1857.3921,446.43135 1856.3114,445.25946 C 1855.2437,444.0876 1853.8244,443.50167 1852.0536,443.50165 C 1850.0484,443.50167 1848.4403,444.06807 1847.2294,445.20087 C 1846.0314,446.3337 1845.3413,447.92875 1845.1591,449.98602 L 1857.9716,449.96649 M 1880.1395,444.34149 C 1879.7359,444.10714 1879.2932,443.93786 1878.8114,443.83368 C 1878.3426,443.71651 1877.8218,443.65792 1877.2489,443.6579 C 1875.2176,443.65792 1873.6551,444.32198 1872.5614,445.65009 C 1871.4807,446.96521 1870.9403,448.85973 1870.9403,451.33368 L 1870.9403,462.85712 L 1867.327,462.85712 L 1867.327,440.98212 L 1870.9403,440.98212 L 1870.9403,444.38055 C 1871.6955,443.05245 1872.6786,442.06938 1873.8895,441.43134 C 1875.1005,440.78032 1876.5718,440.4548 1878.3036,440.45477 C 1878.551,440.4548 1878.8244,440.47433 1879.1239,440.51337 C 1879.4234,440.53943 1879.7554,440.585 1880.12,440.65009 L 1880.1395,444.34149 M 1897.8934,441.62665 L 1897.8934,445.02509 C 1896.8778,444.50427 1895.8231,444.11365 1894.7294,443.85321 C 1893.6356,443.59281 1892.5028,443.4626 1891.3309,443.46259 C 1889.5471,443.4626 1888.2059,443.73604 1887.3075,444.2829 C 1886.4221,444.82979 1885.9794,445.6501 1885.9794,446.74384 C 1885.9794,447.57718 1886.2984,448.23474 1886.9364,448.71649 C 1887.5744,449.18526 1888.857,449.63447 1890.7841,450.06415 L 1892.0145,450.33759 C 1894.5666,450.88447 1896.3765,451.65921 1897.4442,452.6618 C 1898.5249,453.6514 1899.0653,455.03811 1899.0653,456.82196 C 1899.0653,458.85321 1898.258,460.46129 1896.6434,461.64618 C 1895.0419,462.83108 1892.8348,463.42352 1890.0223,463.42352 C 1888.8505,463.42352 1887.6265,463.30633 1886.3505,463.07196 C 1885.0874,462.85061 1883.7528,462.51206 1882.3466,462.05634 L 1882.3466,458.3454 C 1883.6747,459.03551 1884.9833,459.55634 1886.2723,459.9079 C 1887.5614,460.24644 1888.8374,460.41571 1890.1005,460.41571 C 1891.7932,460.41571 1893.0952,460.12925 1894.0067,459.55634 C 1894.9182,458.9704 1895.3739,458.15009 1895.3739,457.0954 C 1895.3739,456.11884 1895.0419,455.37015 1894.3778,454.8493 C 1893.7268,454.32848 1892.288,453.82718 1890.0614,453.3454 L 1888.8114,453.05243 C 1886.5848,452.58369 1884.9768,451.86754 1883.9872,450.90399 C 1882.9976,449.92744 1882.5028,448.59281 1882.5028,446.90009 C 1882.5028,444.84281 1883.232,443.25427 1884.6903,442.13446 C 1886.1486,441.01469 1888.2189,440.4548 1890.9012,440.45477 C 1892.2294,440.4548 1893.4794,440.55245 1894.6512,440.74774 C 1895.8231,440.94308 1896.9038,441.23604 1897.8934,441.62665 M 1926.0184,443.50165 C 1924.0913,443.50167 1922.5679,444.25687 1921.4481,445.76727 C 1920.3283,447.26468 1919.7684,449.32197 1919.7684,451.93915 C 1919.7684,454.55634 1920.3218,456.62014 1921.4286,458.13055 C 1922.5484,459.62795 1924.0783,460.37665 1926.0184,460.37665 C 1927.9325,460.37665 1929.4494,459.62144 1930.5692,458.11102 C 1931.689,456.60061 1932.2489,454.54332 1932.2489,451.93915 C 1932.2489,449.34802 1931.689,447.29724 1930.5692,445.7868 C 1929.4494,444.26339 1927.9325,443.50167 1926.0184,443.50165 M 1926.0184,440.45477 C 1929.1434,440.4548 1931.5978,441.47042 1933.3817,443.50165 C 1935.1655,445.53292 1936.0575,448.34541 1936.0575,451.93915 C 1936.0575,455.51988 1935.1655,458.33238 1933.3817,460.37665 C 1931.5978,462.4079 1929.1434,463.42352 1926.0184,463.42352 C 1922.8804,463.42352 1920.4195,462.4079 1918.6356,460.37665 C 1916.8648,458.33238 1915.9794,455.51988 1915.9794,451.93915 C 1915.9794,448.34541 1916.8648,445.53292 1918.6356,443.50165 C 1920.4195,441.47042 1922.8804,440.4548 1926.0184,440.45477 M 1960.1786,449.65399 L 1960.1786,462.85712 L 1956.5848,462.85712 L 1956.5848,449.77118 C 1956.5848,447.70088 1956.1812,446.1514 1955.3739,445.12274 C 1954.5666,444.09411 1953.3557,443.57979 1951.7411,443.57977 C 1949.801,443.57979 1948.271,444.19828 1947.1512,445.43524 C 1946.0314,446.67224 1945.4716,448.35843 1945.4716,450.49384 L 1945.4716,462.85712 L 1941.8583,462.85712 L 1941.8583,440.98212 L 1945.4716,440.98212 L 1945.4716,444.38055 C 1946.3309,443.06547 1947.34,442.0824 1948.4989,441.43134 C 1949.6708,440.78032 1951.0184,440.4548 1952.5419,440.45477 C 1955.0549,440.4548 1956.9559,441.23604 1958.245,442.79852 C 1959.534,444.34802 1960.1786,446.63317 1960.1786,449.65399" />
  <path
     style="fill:none;fill-rule:evenodd;stroke:#000000;stroke-width:1px;stroke-linecap:butt;stroke-linejoin:miter;stroke-opacity:1"
     id="path2467"
     d="M 56.568543,164.55283 L 124.24876,172.63405 L 125.25892,159.50206 L 151.52288,185.76603 L 122.22846,202.93862 L 124.24876,188.79649 L 55.55839,178.69496 L 56.568543,164.55283 z" />
  <path
     style="fill:none;fill-rule:evenodd;stroke:#000000;stroke-width:1px;stroke-linecap:butt;stroke-linejoin:miter;stroke-opacity:1"
     id="path2469"
     d="M 1597.0512,37.273604 L 1597.0512,70.608638 L 1580.8887,69.598486 L 1602.1019,96.872605 L 1623.3151,70.608638 L 1609.173,69.598486 L 1609.173,36.263452 L 1597.0512,37.273604 z" />
  <path
     style="fill:none;fill-rule:evenodd;stroke:#000000;stroke-width:1px;stroke-linecap:butt;stroke-linejoin:miter;stroke-opacity:1"
     id="path2471"
     d="M 1734.4319,484.77118 L 1768.7771,485.78133 L 1769.7872,474.66966 L 1787.97,494.87271 L 1767.7669,515.07576 L 1768.7771,499.92347 L 1732.4116,500.93362 L 1734.4319,484.77118 z" />
  <path
     style="fill:none;fill-rule:evenodd;stroke:#000000;stroke-width:1px;stroke-linecap:butt;stroke-linejoin:miter;stroke-opacity:1"
     id="path2507"
     d="M 2023.5714,445 C 2023.5714,445 2235.7143,460 2297.8571,456.42857 C 2360,452.85714 2428.5714,413.57143 2458.5714,415 C 2488.5714,416.42857 2500.7143,454.28571 2468.5714,471.42857 C 2436.4286,488.57143 2233.5714,500 2166.4286,497.85714 C 2099.2857,495.71428 2020.7143,507.14286 2010,475.71428 C 1999.2857,444.28571 2025,445 2023.5714,445 z" />
  <path
     id="path2413"
     style="fill:none;fill-rule:evenodd;stroke:#000000;stroke-width:1px;stroke-linecap:butt;stroke-linejoin:miter;stroke-opacity:1"
     d="M 2523.4121,370.87763 L 2503.0941,301.97303 M 2634.0621,264.98269 C 2636.0619,272.27164 2608.2975,286.25014 2572.0879,296.18472 C 2535.8783,306.1193 2504.8678,308.26648 2502.868,300.97754 C 2500.8681,293.6886 2528.6326,279.71008 2564.8422,269.77551 C 2601.0518,259.84093 2632.0623,257.69375 2634.0621,264.98269 z M 2655.2635,333.88728 C 2657.2633,341.17623 2629.4989,355.15473 2593.2893,365.08931 C 2557.0797,375.02389 2526.0692,377.17107 2524.0694,369.88213 M 2655.0375,333.77516 L 2634.7195,264.87056 M 2647.9656,309.23602 C 2686.2722,302.9921 2721.5011,307.71636 2723.5418,315.15427 C 2727.6232,330.0301 2670.9594,358.55849 2597.0601,378.83373 C 2523.1608,399.10896 2459.8722,403.49111 2455.7908,388.61527 C 2453.7501,381.17736 2481.6793,357.36047 2514.6656,345.80863" />
  <path
     style="fill:none;fill-rule:evenodd;stroke:#000000;stroke-width:1px;stroke-linecap:butt;stroke-linejoin:miter;stroke-opacity:1"
     d="M 2758.466,344.67052 L 2758.466,580.78922 L 3113.2687,580.78922 L 3113.2687,558.30172 L 3094.5291,558.30172 L 3094.5291,538.31284 L 3068.2937,538.31284 L 3068.2937,517.07465 L 3037.0611,517.07465 L 3037.0611,493.33785 L 3007.0778,493.33785 L 3007.0778,475.84757 L 2979.593,475.84757 L 2979.593,455.85869 L 2956.5093,449.67343 L 2956.5093,429.62328 L 2929.6208,429.62328 L 2923.1845,405.60259 L 2894.6403,405.60259 L 2884.6458,390.89482 L 2859.6597,390.89482 L 2848.416,364.65941 L 2828.4271,349.66774 L 2804.6903,355.91427 L 2788.4493,343.42122 L 2758.466,344.67052 z"
     id="path2443" />
</svg>
