<?xml version="1.0" encoding="UTF-8" standalone="no"?>
<!-- Created with Inkscape (http://www.inkscape.org/) -->
<svg
   xmlns:svg="http://www.w3.org/2000/svg"
   xmlns="http://www.w3.org/2000/svg"
   version="1.0"
   width="5000"
   height="5000"
   id="svg2">
  <defs
     id="defs4" />
  <path
     d="M 181.75768,278.69892 L 181.75768,295.56691 L 202.07353,295.56691 L 202.07353,307.50181 L 181.75768,307.50181 L 181.75768,335.61514 C 181.75764,338.26735 182.39417,340.17693 183.66726,341.34389 C 184.97564,342.47551 187.13276,343.04131 190.13863,343.0413 L 202.07353,343.0413 L 202.07353,354.9762 L 189.02471,354.9762 C 180.11328,354.9762 174.08395,353.56169 170.9367,350.73268 C 167.7894,347.86831 166.21577,342.58159 166.21579,334.87252 L 166.21579,307.50181 L 151.0452,307.50181 L 151.0452,295.56691 L 166.21579,295.56691 L 166.21579,278.69892 L 181.75768,278.69892 M 267.31766,316.41321 L 267.31766,354.9762 L 251.88185,354.9762 L 251.88185,318.80019 C 251.88181,314.52134 251.26296,311.46248 250.02531,309.62357 C 248.82294,307.78476 246.84264,306.86533 244.08438,306.86529 C 241.25534,306.86533 239.04518,308.12071 237.45388,310.63141 C 235.86254,313.10684 235.06688,316.5547 235.0669,320.97499 L 235.0669,354.9762 L 219.6311,354.9762 L 219.6311,272.43973 L 235.0669,272.43973 L 235.0669,304.47831 C 236.16312,301.18963 238.03734,298.64352 240.68957,296.83997 C 243.34173,295.03653 246.54205,294.13479 250.29053,294.13473 C 255.91315,294.13479 260.15667,296.00901 263.02109,299.75739 C 265.88541,303.47052 267.3176,309.02245 267.31766,316.41321 M 334.31223,352.05878 C 330.70519,353.54401 327.02747,354.65793 323.27908,355.40055 C 319.53059,356.14316 315.56998,356.51447 311.39722,356.51447 C 301.46029,356.51447 293.85732,353.86227 288.5883,348.55787 C 283.35462,343.21812 280.73779,335.54443 280.73779,325.53677 C 280.73779,315.84744 283.26621,308.19143 288.32308,302.56872 C 293.37993,296.94612 300.27564,294.13479 309.01024,294.13473 C 317.81551,294.13479 324.64049,296.75162 329.48523,301.98524 C 334.36522,307.1836 336.80524,314.52134 336.8053,323.9985 L 336.8053,330.31074 L 296.5449,330.31074 C 296.58025,334.97863 297.95939,338.46185 300.68234,340.7604 C 303.40523,343.05899 307.47194,344.20827 312.88246,344.20826 C 316.45404,344.20827 319.97263,343.69552 323.43821,342.66999 C 326.9037,341.64448 330.52837,340.0178 334.31223,337.78994 L 334.31223,352.05878 M 321.15732,318.64105 C 321.08655,314.53903 320.02567,311.4448 317.97468,309.35835 C 315.95897,307.23664 312.97083,306.17576 309.01024,306.17571 C 305.43858,306.17576 302.59189,307.272 300.47016,309.46444 C 298.34838,311.62161 297.093,314.69816 296.70404,318.6941 L 321.15732,318.64105 M 445.75768,290.3686 L 445.75768,295.56691 L 464.00482,295.56691 L 464.00482,307.50181 L 445.75768,307.50181 L 445.75768,354.9762 L 430.21579,354.9762 L 430.21579,307.50181 L 415.78782,307.50181 L 415.78782,295.56691 L 430.21579,295.56691 L 430.21579,291.42948 C 430.21577,284.28629 431.701,279.33552 434.67149,276.57716 C 437.64192,273.81895 443.15849,272.43981 451.22122,272.43973 L 464.00482,272.43973 L 464.00482,284.37463 L 451.85774,284.37463 C 449.52377,284.3747 447.93245,284.79905 447.08378,285.64769 C 446.2704,286.49646 445.82837,288.07009 445.75768,290.3686 M 480.39543,334.23599 L 480.39543,295.56691 L 495.93732,295.56691 L 495.93732,331.84901 C 495.9373,336.12791 496.53846,339.18678 497.74082,341.02562 C 498.94312,342.86449 500.94111,343.78392 503.73479,343.78391 C 506.5284,343.78392 508.70321,342.54623 510.2592,340.07083 C 511.85048,337.59546 512.64614,334.12992 512.64618,329.67421 L 512.64618,295.56691 L 528.18807,295.56691 L 528.18807,354.9762 L 512.64618,354.9762 L 512.64618,346.17089 C 511.5499,349.45963 509.67568,352.00574 507.02352,353.80923 C 504.40665,355.61272 501.24169,356.51447 497.52864,356.51447 C 491.87059,356.51447 487.59171,354.64025 484.69199,350.89181 C 481.8276,347.14337 480.39542,341.59144 480.39543,334.23599 M 598.31222,311.95751 C 596.61475,310.4016 594.61677,309.23463 592.31825,308.45661 C 590.05499,307.67867 587.56192,307.28969 584.83905,307.28964 C 581.55027,307.28969 578.66822,307.87317 576.19287,309.04009 C 573.75281,310.17174 571.86091,311.83378 570.51717,314.02623 C 569.66843,315.37005 569.06726,316.99673 568.71367,318.90627 C 568.39537,320.81589 568.23624,323.71563 568.23627,327.60549 L 568.23627,354.9762 L 552.69438,354.9762 L 552.69438,295.56691 L 568.23627,295.56691 L 568.23627,304.79657 C 569.75684,301.40181 572.09077,298.78497 575.23808,296.94606 C 578.38532,295.0719 582.06303,294.13479 586.27123,294.13473 C 588.39294,294.13479 590.46166,294.40001 592.47738,294.93039 C 594.52836,295.42552 596.4733,296.16814 598.31222,297.15823 L 598.31222,311.95751 M 639.20916,278.69892 L 639.20916,295.56691 L 659.52501,295.56691 L 659.52501,307.50181 L 639.20916,307.50181 L 639.20916,335.61514 C 639.20912,338.26735 639.84565,340.17693 641.11874,341.34389 C 642.42712,342.47551 644.58424,343.04131 647.59011,343.0413 L 659.52501,343.0413 L 659.52501,354.9762 L 646.47619,354.9762 C 637.56476,354.9762 631.53543,353.56169 628.38818,350.73268 C 625.24088,347.86831 623.66724,342.58159 623.66726,334.87252 L 623.66726,307.50181 L 608.49668,307.50181 L 608.49668,295.56691 L 623.66726,295.56691 L 623.66726,278.69892 L 639.20916,278.69892 M 724.76914,316.41321 L 724.76914,354.9762 L 709.33334,354.9762 L 709.33334,318.80019 C 709.3333,314.52134 708.71445,311.46248 707.4768,309.62357 C 706.27443,307.78476 704.29412,306.86533 701.53587,306.86529 C 698.70682,306.86533 696.49666,308.12071 694.90537,310.63141 C 693.31402,313.10684 692.51836,316.5547 692.51839,320.97499 L 692.51839,354.9762 L 677.08258,354.9762 L 677.08258,272.43973 L 692.51839,272.43973 L 692.51839,304.47831 C 693.61461,301.18963 695.48882,298.64352 698.14105,296.83997 C 700.79322,295.03653 703.99354,294.13479 707.74202,294.13473 C 713.36464,294.13479 717.60815,296.00901 720.47258,299.75739 C 723.3369,303.47052 724.76908,309.02245 724.76914,316.41321 M 791.76373,352.05878 C 788.15668,353.54401 784.47896,354.65793 780.73057,355.40055 C 776.98209,356.14316 773.02147,356.51447 768.84872,356.51447 C 758.91178,356.51447 751.30881,353.86227 746.0398,348.55787 C 740.80611,343.21812 738.18928,335.54443 738.18928,325.53677 C 738.18928,315.84744 740.71771,308.19143 745.77458,302.56872 C 750.83142,296.94612 757.72713,294.13479 766.46174,294.13473 C 775.267,294.13479 782.09199,296.75162 786.93672,301.98524 C 791.81671,307.1836 794.25673,314.52134 794.25679,323.9985 L 794.25679,330.31074 L 753.9964,330.31074 C 754.03174,334.97863 755.41088,338.46185 758.13383,340.7604 C 760.85673,343.05899 764.92343,344.20827 770.33395,344.20826 C 773.90554,344.20827 777.42412,343.69552 780.8897,342.66999 C 784.3552,341.64448 787.97987,340.0178 791.76373,337.78994 L 791.76373,352.05878 M 778.60881,318.64105 C 778.53804,314.53903 777.47716,311.4448 775.42617,309.35835 C 773.41046,307.23664 770.42232,306.17576 766.46174,306.17571 C 762.89008,306.17576 760.04339,307.272 757.92165,309.46444 C 755.79987,311.62161 754.5445,314.69816 754.15553,318.6941 L 778.60881,318.64105 M 859.7131,311.95751 C 858.01563,310.4016 856.01765,309.23463 853.71913,308.45661 C 851.45587,307.67867 848.9628,307.28969 846.23992,307.28964 C 842.95115,307.28969 840.0691,307.87317 837.59375,309.04009 C 835.15369,310.17174 833.26179,311.83378 831.91804,314.02623 C 831.06931,315.37005 830.46814,316.99673 830.11455,318.90627 C 829.79625,320.81589 829.63712,323.71563 829.63715,327.60549 L 829.63715,354.9762 L 814.09526,354.9762 L 814.09526,295.56691 L 829.63715,295.56691 L 829.63715,304.79657 C 831.15771,301.40181 833.49165,298.78497 836.63896,296.94606 C 839.7862,295.0719 843.46391,294.13479 847.67211,294.13473 C 849.79382,294.13479 851.86254,294.40001 853.87826,294.93039 C 855.92924,295.42552 857.87418,296.16814 859.7131,297.15823 L 859.7131,311.95751 M 938.4834,289.57294 L 938.4834,275.7815 L 985.63952,275.7815 L 985.63952,289.57294 L 969.88545,289.57294 L 969.88545,341.18476 L 985.63952,341.18476 L 985.63952,354.9762 L 938.4834,354.9762 L 938.4834,341.18476 L 954.23747,341.18476 L 954.23747,289.57294 L 938.4834,289.57294 M 1102.6546,324.31676 C 1102.6546,319.0124 1101.6467,314.76888 1099.6311,311.5862 C 1097.6154,308.36825 1094.9632,306.75925 1091.6745,306.7592 C 1088.4211,306.75925 1085.7866,308.35056 1083.7709,311.53316 C 1081.7906,314.71584 1080.8005,318.97704 1080.8005,324.31676 C 1080.8005,329.69191 1081.7906,333.97079 1083.7709,337.15341 C 1085.7866,340.33607 1088.4211,341.92738 1091.6745,341.92737 C 1094.9632,341.92738 1097.6154,340.33607 1099.6311,337.15341 C 1101.6467,333.93543 1102.6546,329.65655 1102.6546,324.31676 M 1118.1965,350.5205 C 1118.1964,360.03305 1116.0393,366.8934 1111.7251,371.10157 C 1107.4462,375.34507 1100.4798,377.46683 1090.8258,377.46685 C 1087.5724,377.46683 1084.3544,377.21929 1081.1718,376.72424 C 1077.9891,376.2645 1074.7534,375.53957 1071.4647,374.54943 L 1071.4647,360.2806 C 1074.3998,361.90727 1077.388,363.1096 1080.4292,363.88759 C 1083.4703,364.66556 1086.5999,365.05455 1089.818,365.05456 C 1094.2029,365.05455 1097.4386,364.01135 1099.525,361.92496 C 1101.6114,359.87392 1102.6546,356.65592 1102.6546,352.27095 L 1102.6546,345.85263 C 1101.134,348.68165 1099.1183,350.78572 1096.6076,352.16486 C 1094.0968,353.54401 1091.0379,354.23358 1087.431,354.23358 C 1080.6413,354.23358 1075.2485,351.58138 1071.2526,346.27698 C 1067.2566,340.97259 1065.2586,333.7763 1065.2586,324.68807 C 1065.2586,315.28164 1067.2566,307.82013 1071.2526,302.3035 C 1075.2485,296.78698 1080.606,294.0287 1087.3249,294.02864 C 1090.7197,294.0287 1093.7432,294.82436 1096.3954,296.41562 C 1099.0476,298.00699 1101.134,300.25252 1102.6546,303.15221 L 1102.6546,295.56691 L 1118.1965,295.56691 L 1118.1965,350.5205 M 1158.0856,306.7592 C 1154.3725,306.75925 1151.4551,308.40361 1149.3333,311.69229 C 1147.2116,314.9457 1146.1507,319.48979 1146.1507,325.3246 C 1146.1507,331.15946 1147.2116,335.72124 1149.3333,339.00995 C 1151.4551,342.26333 1154.3725,343.89001 1158.0856,343.89 C 1161.834,343.89001 1164.7691,342.26333 1166.8909,339.00995 C 1169.0126,335.72124 1170.0735,331.15946 1170.0735,325.3246 C 1170.0735,319.48979 1169.0126,314.9457 1166.8909,311.69229 C 1164.7691,308.40361 1161.834,306.75925 1158.0856,306.7592 M 1130.6088,325.3246 C 1130.6088,315.74136 1133.0842,308.15607 1138.035,302.56872 C 1143.0211,296.94612 1149.7046,294.13479 1158.0856,294.13473 C 1166.5019,294.13479 1173.1854,296.94612 1178.1362,302.56872 C 1183.1223,308.15607 1185.6154,315.74136 1185.6154,325.3246 C 1185.6154,334.9079 1183.1223,342.51087 1178.1362,348.13352 C 1173.1854,353.72082 1166.5019,356.51447 1158.0856,356.51447 C 1149.7046,356.51447 1143.0211,353.72082 1138.035,348.13352 C 1133.0842,342.51087 1130.6088,334.9079 1130.6088,325.3246"
     id="text2383"
     style="font-size:108.63411713px;font-style:normal;font-variant:normal;font-weight:bold;font-stretch:normal;text-align:start;line-height:125%;writing-mode:lr-tb;text-anchor:start;fill:none;fill-opacity:1;stroke:#000000;stroke-width:1;stroke-linecap:butt;stroke-linejoin:miter;stroke-miterlimit:4;stroke-dasharray:none;stroke-opacity:1;font-family:DejaVu Sans Mono;-inkscape-font-specification:DejaVu Sans Mono Bold" />
  <path
     d="M 979.13622,397.44038 L 975.4882,414.30837 L 995.80405,414.30837 L 993.22291,426.24327 L 972.90706,426.24327 L 966.82702,454.35659 C 966.25339,457.00881 966.47694,458.91839 967.49765,460.08534 C 968.5613,461.21696 970.59605,461.78276 973.60193,461.78275 L 985.53683,461.78275 L 982.95568,473.71765 L 969.90686,473.71765 C 960.99543,473.71765 955.27201,472.30315 952.73659,469.47413 C 950.20876,466.60976 949.77847,461.32305 951.44574,453.61397 L 957.36517,426.24327 L 942.19458,426.24327 L 944.77572,414.30837 L 959.94631,414.30837 L 963.59433,397.44038 L 979.13622,397.44038 M 1056.5398,435.15466 L 1048.1998,473.71765 L 1032.764,473.71765 L 1040.5878,437.54164 C 1041.513,433.2628 1041.5558,430.20393 1040.7159,428.36503 C 1039.9111,426.52622 1038.1297,425.60679 1035.3714,425.60674 C 1032.5424,425.60679 1030.0607,426.86216 1027.9264,429.37287 C 1025.7997,431.84829 1024.2584,435.29615 1023.3024,439.71645 L 1015.949,473.71765 L 1000.5132,473.71765 L 1018.3633,391.18118 L 1033.7991,391.18118 L 1026.8701,423.21976 C 1028.6777,419.93109 1031.1025,417.38498 1034.1448,415.58142 C 1037.187,413.77799 1040.5823,412.87624 1044.3308,412.87618 C 1049.9534,412.87624 1053.7916,414.75046 1055.8453,418.49884 C 1057.9067,422.21198 1058.1381,427.76391 1056.5398,435.15466 M 1115.8254,470.80023 C 1111.897,472.28546 1107.9784,473.39939 1104.0694,474.142 C 1100.1603,474.88462 1096.1194,475.25593 1091.9467,475.25593 C 1082.0097,475.25593 1074.9804,472.60373 1070.8585,467.29933 C 1066.7797,461.95958 1065.8224,454.28588 1067.9867,444.27823 C 1070.0822,434.5889 1074.2665,426.93289 1080.5393,421.31018 C 1086.8122,415.68757 1094.3159,412.87624 1103.0505,412.87618 C 1111.8557,412.87624 1118.1148,415.49308 1121.8277,420.72669 C 1125.5835,425.92505 1126.4365,433.2628 1124.3869,442.73995 L 1123.0218,449.05219 L 1082.7614,449.05219 C 1081.7873,453.72008 1082.413,457.2033 1084.6389,459.50186 C 1086.8647,461.80044 1090.6829,462.94973 1096.0934,462.94972 C 1099.665,462.94973 1103.2945,462.43697 1106.9819,461.41144 C 1110.669,460.38594 1114.6455,458.75926 1118.9113,456.53139 L 1115.8254,470.80023 M 1109.8977,437.38251 C 1110.714,433.28048 1110.3223,430.18625 1108.7225,428.09981 C 1107.1657,425.9781 1104.407,424.91722 1100.4464,424.91717 C 1096.8747,424.91722 1093.7909,426.01346 1091.1951,428.2059 C 1088.6068,430.36306 1086.686,433.43961 1085.4329,437.43555 L 1109.8977,437.38251 M 1213.3256,448.9461 L 1223.2372,403.11608 L 1207.4832,403.11608 L 1210.0644,391.18118 L 1241.3603,391.18118 L 1228.8675,448.9461 C 1227.858,453.61399 1227.8678,456.9204 1228.8971,458.86533 C 1229.9264,460.81029 1232.1738,461.78276 1235.6393,461.78275 L 1248.0516,461.78275 L 1245.4704,473.71765 L 1228.7085,473.71765 C 1221.3177,473.71765 1216.4263,471.80807 1214.0343,467.9889 C 1211.6422,464.16974 1211.406,457.82215 1213.3256,448.9461 M 1311.876,470.80023 C 1307.9477,472.28546 1304.0291,473.39939 1300.1201,474.142 C 1296.211,474.88462 1292.1701,475.25593 1287.9973,475.25593 C 1278.0604,475.25593 1271.031,472.60373 1266.9092,467.29933 C 1262.8303,461.95958 1261.8731,454.28588 1264.0374,444.27823 C 1266.1329,434.5889 1270.3171,426.93289 1276.59,421.31018 C 1282.8628,415.68757 1290.3665,412.87624 1299.1011,412.87618 C 1307.9064,412.87624 1314.1655,415.49308 1317.8783,420.72669 C 1321.6341,425.92505 1322.4871,433.2628 1320.4376,442.73995 L 1319.0725,449.05219 L 1278.8121,449.05219 C 1277.8379,453.72008 1278.4637,457.2033 1280.6895,459.50186 C 1282.9153,461.80044 1286.7335,462.94973 1292.144,462.94972 C 1295.7156,462.94973 1299.3451,462.43697 1303.0325,461.41144 C 1306.7197,460.38594 1310.6962,458.75926 1314.9619,456.53139 L 1311.876,470.80023 M 1305.9483,437.38251 C 1306.7646,433.28048 1306.373,430.18625 1304.7732,428.09981 C 1303.2164,425.9781 1300.4576,424.91722 1296.497,424.91717 C 1292.9254,424.91722 1289.8416,426.01346 1287.2457,428.2059 C 1284.6575,430.36306 1282.7367,433.43961 1281.4835,437.43555 L 1305.9483,437.38251 M 1383.1542,416.16491 L 1380.2174,429.74417 C 1377.7507,427.90536 1375.0608,426.52622 1372.1478,425.60674 C 1369.2777,424.652 1366.2867,424.1746 1363.1748,424.17455 C 1359.7092,424.1746 1356.9815,424.68736 1354.9917,425.71283 C 1353.0093,426.70303 1351.804,428.18826 1351.3758,430.16853 C 1350.7639,432.99758 1354.0506,435.29615 1361.2359,437.06425 L 1361.785,437.22338 L 1366.0112,438.28426 C 1371.3785,439.62807 1375.0457,441.80288 1377.0125,444.80867 C 1379.0222,447.77916 1379.4764,451.8105 1378.3753,456.9027 C 1377.0521,463.02045 1374.0422,467.6176 1369.3455,470.69414 C 1364.6918,473.73533 1358.3336,475.25593 1350.2709,475.25593 C 1346.6993,475.25593 1343.1082,474.93766 1339.4973,474.30114 C 1335.8789,473.69997 1332.2763,472.78054 1328.6895,471.54285 L 1331.6262,457.96358 C 1334.6357,459.90854 1337.7978,461.39377 1341.1122,462.41928 C 1344.462,463.44481 1347.799,463.95756 1351.1231,463.95755 C 1354.7654,463.95756 1357.6384,463.42713 1359.7422,462.36623 C 1361.8458,461.30537 1363.1156,459.76709 1363.5515,457.75141 C 1363.9798,455.77112 1363.6367,454.25052 1362.5224,453.18962 C 1361.4434,452.12876 1358.5408,450.99716 1353.8148,449.79481 L 1349.7248,448.84001 C 1344.0744,447.49626 1340.1975,445.39218 1338.0941,442.52778 C 1335.9906,439.66344 1335.459,435.82659 1336.4991,431.01723 C 1337.738,425.28853 1340.7703,420.83283 1345.5961,417.65014 C 1350.4218,414.46756 1356.5831,412.87624 1364.08,412.87618 C 1367.4394,412.87624 1370.72,413.15914 1373.9218,413.72488 C 1377.1664,414.25538 1380.2439,415.06872 1383.1542,416.16491 M 1448.5044,416.16491 L 1445.5676,429.74417 C 1443.1009,427.90536 1440.411,426.52622 1437.498,425.60674 C 1434.6279,424.652 1431.6369,424.1746 1428.525,424.17455 C 1425.0594,424.1746 1422.3317,424.68736 1420.3419,425.71283 C 1418.3595,426.70303 1417.1543,428.18826 1416.726,430.16853 C 1416.1142,432.99758 1419.4009,435.29615 1426.5861,437.06425 L 1427.1352,437.22338 L 1431.3614,438.28426 C 1436.7288,439.62807 1440.3959,441.80288 1442.3627,444.80867 C 1444.3724,447.77916 1444.8266,451.8105 1443.7255,456.9027 C 1442.4023,463.02045 1439.3925,467.6176 1434.6958,470.69414 C 1430.042,473.73533 1423.6838,475.25593 1415.6212,475.25593 C 1412.0495,475.25593 1408.4584,474.93766 1404.8476,474.30114 C 1401.2291,473.69997 1397.6265,472.78054 1394.0397,471.54285 L 1396.9764,457.96358 C 1399.986,459.90854 1403.148,461.39377 1406.4625,462.41928 C 1409.8123,463.44481 1413.1492,463.95756 1416.4733,463.95755 C 1420.1157,463.95756 1422.9886,463.42713 1425.0924,462.36623 C 1427.196,461.30537 1428.4658,459.76709 1428.9017,457.75141 C 1429.33,455.77112 1428.9869,454.25052 1427.8727,453.18962 C 1426.7936,452.12876 1423.891,450.99716 1419.165,449.79481 L 1415.075,448.84001 C 1409.4246,447.49626 1405.5477,445.39218 1403.4443,442.52778 C 1401.3409,439.66344 1400.8092,435.82659 1401.8493,431.01723 C 1403.0882,425.28853 1406.1205,420.83283 1410.9464,417.65014 C 1415.7721,414.46756 1421.9333,412.87624 1429.4302,412.87618 C 1432.7896,412.87624 1436.0702,413.15914 1439.272,413.72488 C 1442.5167,414.25538 1445.5941,415.06872 1448.5044,416.16491 M 1537.4596,408.3144 L 1540.4423,394.52296 L 1587.5985,394.52296 L 1584.6158,408.3144 L 1568.8617,408.3144 L 1557.6997,459.92621 L 1573.4538,459.92621 L 1570.4711,473.71765 L 1523.3149,473.71765 L 1526.2976,459.92621 L 1542.0517,459.92621 L 1553.2137,408.3144 L 1537.4596,408.3144 M 1671.9716,391.18118 L 1687.5135,391.18118 L 1678.141,434.51813 L 1701.1833,414.30837 L 1720.0139,414.30837 L 1692.728,436.48076 L 1708.4385,473.71765 L 1691.2523,473.71765 L 1680.979,445.92259 L 1674.5733,451.01482 L 1669.6634,473.71765 L 1654.1215,473.71765 L 1671.9716,391.18118 M 1775.3921,435.15466 L 1767.0521,473.71765 L 1751.6163,473.71765 L 1759.4401,437.54164 C 1760.3731,433.22744 1760.4195,430.15089 1759.5796,428.31199 C 1758.7826,426.43781 1757.0049,425.5007 1754.2466,425.50065 C 1751.4529,425.5007 1748.9713,426.75607 1746.8016,429.26678 C 1744.6673,431.77757 1743.1183,435.26079 1742.1547,439.71645 L 1734.8013,473.71765 L 1719.3655,473.71765 L 1732.2139,414.30837 L 1747.6497,414.30837 L 1745.7224,423.21976 C 1747.53,419.93109 1749.9548,417.38498 1752.9971,415.58142 C 1756.0393,413.77799 1759.4346,412.87624 1763.1831,412.87618 C 1768.8057,412.87624 1772.6439,414.75046 1774.6976,418.49884 C 1776.759,422.21198 1776.9904,427.76391 1775.3921,435.15466 M 1818.6951,425.50065 C 1814.982,425.5007 1811.709,427.14506 1808.876,430.43375 C 1806.0507,433.68715 1804.007,438.23125 1802.7451,444.06605 C 1801.4832,449.90092 1801.5576,454.4627 1802.968,457.75141 C 1804.3862,461.00478 1806.9518,462.63147 1810.6649,462.63145 C 1814.4133,462.63147 1817.7002,461.00478 1820.5256,457.75141 C 1823.3586,454.4627 1825.406,449.90092 1826.6679,444.06605 C 1827.9298,438.23125 1827.8517,433.68715 1826.4336,430.43375 C 1825.023,427.14506 1822.4435,425.5007 1818.6951,425.50065 M 1787.2032,444.06605 C 1789.2758,434.48281 1793.3916,426.89753 1799.5508,421.31018 C 1805.7529,415.68757 1813.0444,412.87624 1821.4254,412.87618 C 1829.8417,412.87624 1835.9172,415.68757 1839.652,421.31018 C 1843.4297,426.89753 1844.2824,434.48281 1842.2098,444.06605 C 1840.1373,453.64936 1835.9999,461.25232 1829.7978,466.87498 C 1823.6386,472.46228 1816.3509,475.25593 1807.9346,475.25593 C 1799.5536,475.25593 1793.4743,472.46228 1789.6966,466.87498 C 1785.9618,461.25232 1785.1307,453.64936 1787.2032,444.06605 M 1853.7908,414.30837 L 1866.7335,414.30837 L 1863.9456,459.82012 L 1876.8455,429.85026 L 1889.417,429.85026 L 1889.2476,459.82012 L 1906.2513,414.30837 L 1919.1941,414.30837 L 1895.5777,473.71765 L 1880.8315,473.71765 L 1880.2941,442.84604 L 1866.4566,473.71765 L 1851.7103,473.71765 L 1853.7908,414.30837"
     id="text2471"
     style="font-size:108.63411713px;font-style:normal;font-variant:normal;font-weight:bold;font-stretch:normal;text-align:start;line-height:125%;writing-mode:lr-tb;text-anchor:start;fill:none;fill-opacity:1;stroke:#000000;stroke-width:1;stroke-linecap:butt;stroke-linejoin:miter;stroke-miterlimit:4;stroke-dasharray:none;stroke-opacity:1;font-family:DejaVu Sans Mono;-inkscape-font-specification:DejaVu Sans Mono Bold" />
  <path
     d="M 1820.2949,230.05968 C 1990.0005,209.85663 2147.2232,318.80953 2258.34,484.47455 C 2369.4568,650.13957 2251.5639,737.478 2011.8628,1167.3376 C 1772.0419,1597.4122 1111.1023,1299.2099 934.28571,1548.5715 C 757.46916,1797.933 822.85714,2028.5715 822.85714,2028.5715 M 1854.6401,527.04453 C 2115.2594,436.1308 2077.6029,662.02543 1897.0665,890.69945 C 1716.5301,1119.3735 1059.0979,1034.0577 788.57143,1205.7143 C 518.04492,1377.3709 368.57143,1562.8571 377.14286,2060"
     id="path2497"
     style="fill:none;fill-opacity:1;fill-rule:evenodd;stroke:#000000;stroke-width:1;stroke-linecap:butt;stroke-linejoin:miter;stroke-miterlimit:4;stroke-dasharray:none;stroke-opacity:1" />
  <path
     d="M 175.96036,2491.4155 C 175.96036,2497.8394 171.18117,2503.0531 165.29254,2503.0531 C 159.4039,2503.0531 154.62472,2497.8394 154.62472,2491.4155 C 154.62472,2484.9915 159.4039,2479.7779 165.29254,2479.7779 C 171.18117,2479.7779 175.96036,2484.9915 175.96036,2491.4155 z M 176.93016,2525.3585 L 170.46481,2518.2467 L 164.646,2509.1952 L 158.82719,2519.863 L 159.79699,2528.9145 M 165.29254,2503.3764 L 164.646,2529.561 L 173.05095,2543.4615 L 177.25343,2558.3318 M 163.6762,2529.8843 L 161.7366,2545.0778 L 154.30145,2557.362"
     id="path2390"
     style="opacity:1;fill:none;fill-opacity:1;stroke:#000000;stroke-width:1;stroke-linejoin:round;stroke-miterlimit:4;stroke-dasharray:none;stroke-opacity:1" />
  <path
     d="M 14.147525,2499.9302 L 14.147525,2514.4145 L 33.010892,2514.4145 L 33.010892,2526.541 L 50.19003,2507.1723 L 33.010892,2487.8037 L 33.010892,2499.9302 L 14.147525,2499.9302 z"
     id="path2461"
     style="fill:none;fill-opacity:1;fill-rule:evenodd;stroke:#000000;stroke-width:1;stroke-linecap:butt;stroke-linejoin:miter;stroke-miterlimit:4;stroke-dasharray:none;stroke-opacity:1" />
  <path
     d="M 359.07766,2612.4367 L 359.07766,2547.7623 M 598.65861,2552.7138 L 595.08582,2556.763 L 590.08392,2551.9993 L 589.36936,2557.4776 L 585.3202,2550.8084 L 582.93834,2555.3339 L 580.79466,2552.2375 L 577.93643,2556.5248 L 575.0782,2551.5229 L 572.45816,2556.2866 L 569.36174,2551.7611 L 568.17081,2555.3339 L 562.93072,2551.5229 L 561.02523,2557.2394 L 557.45244,2552.2375 L 554.11784,2556.2866 L 551.2596,2551.2847 L 548.40137,2556.0485 L 542.68491,2550.8084 L 541.73216,2555.8103 L 537.20663,2551.2847 L 535.06296,2556.0485 L 531.72835,2550.5702 L 529.34649,2555.3339 L 525.05915,2549.3792 L 523.15366,2555.5721 L 519.81905,2548.6647 L 518.15245,2552.7138 L 514.57966,2556.763 L 509.57776,2551.9993 L 508.8632,2557.4776 L 504.81404,2550.8084 L 502.43218,2555.3339 L 500.2885,2552.2375 L 497.43027,2556.5248 L 494.57204,2551.5229 L 491.952,2556.2866 L 488.85558,2551.7611 L 487.66465,2555.3339 L 482.42456,2551.5229 L 480.51907,2557.2394 L 476.94628,2552.2375 L 473.61168,2556.2866 L 470.75344,2551.2847 L 467.89521,2556.0485 L 462.17875,2550.8084 L 461.226,2555.8103 L 456.70047,2551.2847 L 454.5568,2556.0485 L 451.22219,2550.5702 L 448.84033,2555.3339 L 444.55299,2549.3792 L 442.6475,2555.5721 L 439.31289,2548.6647 L 437.30945,2552.7138 L 433.73666,2556.763 L 428.73476,2551.9993 L 428.0202,2557.4776 L 423.97104,2550.8084 L 421.58918,2555.3339 L 419.4455,2552.2375 L 416.58727,2556.5248 L 413.72904,2551.5229 L 411.109,2556.2866 L 408.01258,2551.7611 L 406.82165,2555.3339 L 401.58156,2551.5229 L 399.67607,2557.2394 L 396.10328,2552.2375 L 392.76868,2556.2866 L 389.91044,2551.2847 L 387.05221,2556.0485 L 381.33575,2550.8084 L 380.383,2555.8103 L 375.85747,2551.2847 L 373.7138,2556.0485 L 370.37919,2550.5702 L 367.99733,2555.3339 L 363.70999,2549.3792 L 361.8045,2555.5721 L 358.46989,2545.9699 L 599.24875,2545.9699 L 599.24875,2611.763"
     id="path2468"
     style="fill:none;fill-opacity:1;fill-rule:evenodd;stroke:#000000;stroke-width:1;stroke-linecap:butt;stroke-linejoin:miter;stroke-miterlimit:4;stroke-dasharray:none;stroke-opacity:1" />
  <path
     d="M 1041.3491,2801.0671 L 1041.3491,2612.4238 L 47.637195,2612.4238 L 47.637195,2801.0671 M 1039.5063,2618.8029 L 1038.4957,2622.1714 L 1034.4536,2618.8029 L 1034.1167,2623.1819 L 1031.422,2619.1398 L 1029.7377,2623.5188 L 1028.7272,2618.8029 L 1026.0324,2622.5082 L 1024.0113,2618.8029 L 1022.3271,2622.8451 L 1020.306,2617.7924 L 1017.9481,2623.8556 L 1015.927,2619.1398 L 1013.2323,2624.8661 L 1010.2007,2620.1503 L 1007.1691,2623.8556 L 1004.4743,2619.1398 L 1001.1058,2623.5188 L 999.08476,2619.8134 L 997.40053,2623.1819 L 994.03207,2619.1398 L 991.67415,2624.1924 L 987.632,2619.4766 L 983.92669,2623.5187 L 980.55824,2618.8029 L 978.20032,2623.5188 L 974.83186,2617.7924 L 973.48447,2622.5082 L 969.77917,2619.8134 L 969.10548,2623.8556 L 964.05279,2619.1398 L 961.35802,2624.1924 L 957.98956,2618.8029 L 954.62111,2623.1819 L 952.93688,2618.8029 L 949.56842,2622.8451 L 947.88419,2618.8029 L 946.19996,2623.1819 L 942.8315,2618.8029 L 942.15781,2623.5188 L 938.11566,2619.1398 L 936.76828,2623.5188 L 934.07351,2618.8029 L 932.05243,2623.5188 L 929.69451,2618.1292 L 926.99975,2622.5082 L 925.98921,2617.7924 L 922.62075,2621.8345 L 920.59968,2617.1187 L 918.5786,2621.8345 L 916.55753,2616.7818 L 915.54699,2618.8029 L 914.53645,2622.1714 L 910.4943,2618.8029 L 910.15745,2623.1819 L 907.46269,2619.1398 L 905.77846,2623.5188 L 904.76792,2618.8029 L 902.07315,2622.5082 L 900.05208,2618.8029 L 898.36785,2622.8451 L 896.34678,2617.7924 L 893.98885,2623.8556 L 891.96778,2619.1398 L 889.27301,2624.8661 L 886.2414,2620.1503 L 883.20979,2623.8556 L 880.51502,2619.1398 L 877.14656,2623.5188 L 875.12549,2619.8134 L 873.44126,2623.1819 L 870.0728,2619.1398 L 867.71488,2624.1924 L 863.67273,2619.4766 L 859.96742,2623.5187 L 856.59897,2618.8029 L 854.24105,2623.5188 L 850.87259,2617.7924 L 849.5252,2622.5082 L 845.8199,2619.8134 L 845.14621,2623.8556 L 840.09352,2619.1398 L 837.39876,2624.1924 L 834.0303,2618.8029 L 830.66184,2623.1819 L 828.97761,2618.8029 L 825.60915,2622.8451 L 823.92492,2618.8029 L 822.24069,2623.1819 L 818.87224,2618.8029 L 818.19854,2623.5188 L 814.15639,2619.1398 L 812.80901,2623.5188 L 810.11424,2618.8029 L 808.09317,2623.5188 L 805.73525,2618.1292 L 803.04048,2622.5082 L 802.02994,2617.7924 L 798.66148,2621.8345 L 796.64041,2617.1187 L 794.61933,2621.8345 L 792.59826,2616.7818 L 791.25088,2618.8029 L 790.24034,2622.1714 L 786.19819,2618.8029 L 785.86134,2623.1819 L 783.16658,2619.1398 L 781.48235,2623.5188 L 780.47181,2618.8029 L 777.77704,2622.5082 L 775.75597,2618.8029 L 774.07174,2622.8451 L 772.05067,2617.7924 L 769.69274,2623.8556 L 767.67167,2619.1398 L 764.9769,2624.8661 L 761.94529,2620.1503 L 758.91368,2623.8556 L 756.21891,2619.1398 L 752.85045,2623.5188 L 750.82938,2619.8134 L 749.14515,2623.1819 L 745.77669,2619.1398 L 743.41877,2624.1924 L 739.37662,2619.4766 L 735.67131,2623.5187 L 732.30286,2618.8029 L 729.94494,2623.5188 L 726.57648,2617.7924 L 725.22909,2622.5082 L 721.52379,2619.8134 L 720.8501,2623.8556 L 715.79741,2619.1398 L 713.10264,2624.1924 L 709.73418,2618.8029 L 706.36573,2623.1819 L 704.6815,2618.8029 L 701.31304,2622.8451 L 699.62881,2618.8029 L 697.94458,2623.1819 L 694.57612,2618.8029 L 693.90243,2623.5188 L 689.86028,2619.1398 L 688.5129,2623.5188 L 685.81813,2618.8029 L 683.79705,2623.5188 L 681.43913,2618.1292 L 678.74437,2622.5082 L 677.73383,2617.7924 L 674.36537,2621.8345 L 672.3443,2617.1187 L 670.32322,2621.8345 L 668.30215,2616.7818 L 667.29161,2618.8029 L 666.28107,2622.1714 L 662.23892,2618.8029 L 661.90207,2623.1819 L 659.20731,2619.1398 L 657.52308,2623.5188 L 656.51254,2618.8029 L 653.81777,2622.5082 L 651.7967,2618.8029 L 650.11247,2622.8451 L 648.0914,2617.7924 L 645.73347,2623.8556 L 643.7124,2619.1398 L 641.01763,2624.8661 L 637.98602,2620.1503 L 634.95441,2623.8556 L 632.25964,2619.1398 L 628.89118,2623.5188 L 626.87011,2619.8134 L 625.18588,2623.1819 L 621.81742,2619.1398 L 619.4595,2624.1924 L 615.41735,2619.4766 L 611.71204,2623.5187 L 608.34359,2618.8029 L 605.98567,2623.5188 L 602.61721,2617.7924 L 601.26982,2622.5082 L 597.56452,2619.8134 L 596.89082,2623.8556 L 591.83814,2619.1398 L 589.14337,2624.1924 L 585.77491,2618.8029 L 582.40645,2623.1819 L 580.72222,2618.8029 L 577.35377,2622.8451 L 575.66954,2618.8029 L 573.98531,2623.1819 L 570.61685,2618.8029 L 569.94316,2623.5188 L 565.90101,2619.1398 L 564.55362,2623.5188 L 561.85886,2618.8029 L 559.83778,2623.5188 L 557.47986,2618.1292 L 554.78509,2622.5082 L 553.77456,2617.7924 L 550.4061,2621.8345 L 548.38502,2617.1187 L 546.36395,2621.8345 L 544.34287,2616.7818 L 542.3218,2618.8029 L 541.31126,2622.1714 L 537.26911,2618.8029 L 536.93226,2623.1819 L 534.2375,2619.1398 L 532.55327,2623.5188 L 531.54273,2618.8029 L 528.84796,2622.5082 L 526.82689,2618.8029 L 525.14266,2622.8451 L 523.12159,2617.7924 L 520.76366,2623.8556 L 518.74259,2619.1398 L 516.04782,2624.8661 L 513.01621,2620.1503 L 509.9846,2623.8556 L 507.28983,2619.1398 L 503.92137,2623.5188 L 501.9003,2619.8134 L 500.21607,2623.1819 L 496.84761,2619.1398 L 494.48969,2624.1924 L 490.44754,2619.4766 L 486.74223,2623.5187 L 483.37378,2618.8029 L 481.01586,2623.5188 L 477.6474,2617.7924 L 476.30001,2622.5082 L 472.59471,2619.8134 L 471.92102,2623.8556 L 466.86833,2619.1398 L 464.17356,2624.1924 L 460.8051,2618.8029 L 457.43665,2623.1819 L 455.75242,2618.8029 L 452.38396,2622.8451 L 450.69973,2618.8029 L 449.0155,2623.1819 L 445.64704,2618.8029 L 444.97335,2623.5188 L 440.9312,2619.1398 L 439.58382,2623.5188 L 436.88905,2618.8029 L 434.86797,2623.5188 L 432.51005,2618.1292 L 429.81529,2622.5082 L 428.80475,2617.7924 L 425.43629,2621.8345 L 423.41522,2617.1187 L 421.39414,2621.8345 L 419.37307,2616.7818 L 418.36253,2618.8029 L 417.35199,2622.1714 L 413.30984,2618.8029 L 412.97299,2623.1819 L 410.27823,2619.1398 L 408.594,2623.5188 L 407.58346,2618.8029 L 404.88869,2622.5082 L 402.86762,2618.8029 L 401.18339,2622.8451 L 399.16232,2617.7924 L 396.80439,2623.8556 L 394.78332,2619.1398 L 392.08855,2624.8661 L 389.05694,2620.1503 L 386.02533,2623.8556 L 383.33056,2619.1398 L 379.9621,2623.5188 L 377.94103,2619.8134 L 376.2568,2623.1819 L 372.88834,2619.1398 L 370.53042,2624.1924 L 366.48827,2619.4766 L 362.78296,2623.5187 L 359.41451,2618.8029 L 357.05659,2623.5188 L 353.68813,2617.7924 L 352.34074,2622.5082 L 348.63544,2619.8134 L 347.96175,2623.8556 L 342.90906,2619.1398 L 340.2143,2624.1924 L 336.84584,2618.8029 L 333.47738,2623.1819 L 331.79315,2618.8029 L 328.42469,2622.8451 L 326.74046,2618.8029 L 325.05623,2623.1819 L 321.68778,2618.8029 L 321.01408,2623.5188 L 316.97193,2619.1398 L 315.62455,2623.5188 L 312.92978,2618.8029 L 310.90871,2623.5188 L 308.55079,2618.1292 L 305.85602,2622.5082 L 304.84548,2617.7924 L 301.47702,2621.8345 L 299.45595,2617.1187 L 297.43487,2621.8345 L 295.4138,2616.7818 L 294.06642,2618.8029 L 293.05588,2622.1714 L 289.01373,2618.8029 L 288.67688,2623.1819 L 285.98212,2619.1398 L 284.29789,2623.5188 L 283.28735,2618.8029 L 280.59258,2622.5082 L 278.57151,2618.8029 L 276.88728,2622.8451 L 274.86621,2617.7924 L 272.50828,2623.8556 L 270.48721,2619.1398 L 267.79244,2624.8661 L 264.76083,2620.1503 L 261.72922,2623.8556 L 259.03445,2619.1398 L 255.66599,2623.5188 L 253.64492,2619.8134 L 251.96069,2623.1819 L 248.59223,2619.1398 L 246.23431,2624.1924 L 242.19216,2619.4766 L 238.48685,2623.5187 L 235.1184,2618.8029 L 232.76048,2623.5188 L 229.39202,2617.7924 L 228.04463,2622.5082 L 224.33933,2619.8134 L 223.66564,2623.8556 L 218.61295,2619.1398 L 215.91818,2624.1924 L 212.54972,2618.8029 L 209.18127,2623.1819 L 207.49704,2618.8029 L 204.12858,2622.8451 L 202.44435,2618.8029 L 200.76012,2623.1819 L 197.39166,2618.8029 L 196.71797,2623.5188 L 192.67582,2619.1398 L 191.32844,2623.5188 L 188.63367,2618.8029 L 186.61259,2623.5188 L 184.25467,2618.1292 L 181.55991,2622.5082 L 180.54937,2617.7924 L 177.18091,2621.8345 L 175.15984,2617.1187 L 173.13876,2621.8345 L 171.11769,2616.7818 L 170.10715,2618.8029 L 169.09661,2622.1714 L 165.05446,2618.8029 L 164.71761,2623.1819 L 162.02285,2619.1398 L 160.33862,2623.5188 L 159.32808,2618.8029 L 156.63331,2622.5082 L 154.61224,2618.8029 L 152.92801,2622.8451 L 150.90694,2617.7924 L 148.54901,2623.8556 L 146.52794,2619.1398 L 143.83317,2624.8661 L 140.80156,2620.1503 L 137.76995,2623.8556 L 135.07518,2619.1398 L 131.70672,2623.5188 L 129.68565,2619.8134 L 128.00142,2623.1819 L 124.63296,2619.1398 L 122.27504,2624.1924 L 118.23289,2619.4766 L 114.52758,2623.5187 L 111.15913,2618.8029 L 108.80121,2623.5188 L 105.43275,2617.7924 L 104.08536,2622.5082 L 100.38006,2619.8134 L 99.706368,2623.8556 L 94.65368,2619.1398 L 91.958914,2624.1924 L 88.590455,2618.8029 L 85.221997,2623.1819 L 83.537768,2618.8029 L 80.169309,2622.8451 L 78.48508,2618.8029 L 76.800851,2623.1819 L 73.432393,2618.8029 L 72.758701,2623.5188 L 68.716551,2619.1398 L 67.369168,2623.5188 L 64.674401,2618.8029 L 62.653326,2623.5188 L 60.295405,2618.1292 L 57.600638,2622.5082 L 56.590101,2617.7924 L 53.221642,2621.8345 L 51.200567,2617.1187 L 49.179492,2621.8345 L 47.158417,2616.7818"
     id="path2459"
     style="fill:none;fill-opacity:1;fill-rule:evenodd;stroke:#000000;stroke-width:1;stroke-linecap:butt;stroke-linejoin:miter;stroke-miterlimit:4;stroke-dasharray:none;stroke-opacity:1" />
  <path
     d="M 777.44019,2612.4367 L 777.44019,2547.7623 M 1017.0211,2552.7138 L 1013.4484,2556.763 L 1008.4465,2551.9993 L 1007.7319,2557.4776 L 1003.6827,2550.8084 L 1001.3009,2555.3339 L 999.15719,2552.2375 L 996.29896,2556.5248 L 993.44073,2551.5229 L 990.82069,2556.2866 L 987.72427,2551.7611 L 986.53334,2555.3339 L 981.29325,2551.5229 L 979.38776,2557.2394 L 975.81497,2552.2375 L 972.48037,2556.2866 L 969.62213,2551.2847 L 966.7639,2556.0485 L 961.04744,2550.8084 L 960.09469,2555.8103 L 955.56916,2551.2847 L 953.42549,2556.0485 L 950.09088,2550.5702 L 947.70902,2555.3339 L 943.42168,2549.3792 L 941.51619,2555.5721 L 938.18158,2548.6647 L 936.51498,2552.7138 L 932.94219,2556.763 L 927.94029,2551.9993 L 927.22573,2557.4776 L 923.17657,2550.8084 L 920.79471,2555.3339 L 918.65103,2552.2375 L 915.7928,2556.5248 L 912.93457,2551.5229 L 910.31453,2556.2866 L 907.21811,2551.7611 L 906.02718,2555.3339 L 900.78709,2551.5229 L 898.8816,2557.2394 L 895.30881,2552.2375 L 891.97421,2556.2866 L 889.11597,2551.2847 L 886.25774,2556.0485 L 880.54128,2550.8084 L 879.58853,2555.8103 L 875.063,2551.2847 L 872.91933,2556.0485 L 869.58472,2550.5702 L 867.20286,2555.3339 L 862.91552,2549.3792 L 861.01003,2555.5721 L 857.67542,2548.6647 L 855.67198,2552.7138 L 852.09919,2556.763 L 847.09729,2551.9993 L 846.38273,2557.4776 L 842.33357,2550.8084 L 839.95171,2555.3339 L 837.80803,2552.2375 L 834.9498,2556.5248 L 832.09157,2551.5229 L 829.47153,2556.2866 L 826.37511,2551.7611 L 825.18418,2555.3339 L 819.94409,2551.5229 L 818.0386,2557.2394 L 814.46581,2552.2375 L 811.13121,2556.2866 L 808.27297,2551.2847 L 805.41474,2556.0485 L 799.69828,2550.8084 L 798.74553,2555.8103 L 794.22,2551.2847 L 792.07633,2556.0485 L 788.74172,2550.5702 L 786.35986,2555.3339 L 782.07252,2549.3792 L 780.16703,2555.5721 L 776.83242,2545.9699 L 1017.6113,2545.9699 L 1017.6113,2611.763"
     id="path2511"
     style="fill:none;fill-opacity:1;fill-rule:evenodd;stroke:#000000;stroke-width:1;stroke-linecap:butt;stroke-linejoin:miter;stroke-miterlimit:4;stroke-dasharray:none;stroke-opacity:1" />
  <path
     d="M 570.11043,2545.7446 L 570.11043,2481.0702 M 809.69138,2486.0217 L 806.11859,2490.0709 L 801.11669,2485.3072 L 800.40213,2490.7855 L 796.35297,2484.1163 L 793.97111,2488.6418 L 791.82743,2485.5454 L 788.9692,2489.8327 L 786.11097,2484.8308 L 783.49093,2489.5945 L 780.39451,2485.069 L 779.20358,2488.6418 L 773.96349,2484.8308 L 772.058,2490.5473 L 768.48521,2485.5454 L 765.15061,2489.5945 L 762.29237,2484.5926 L 759.43414,2489.3564 L 753.71768,2484.1163 L 752.76493,2489.1182 L 748.2394,2484.5926 L 746.09573,2489.3564 L 742.76112,2483.8781 L 740.37926,2488.6418 L 736.09192,2482.6871 L 734.18643,2488.88 L 730.85182,2481.9726 L 729.18522,2486.0217 L 725.61243,2490.0709 L 720.61053,2485.3072 L 719.89597,2490.7855 L 715.84681,2484.1163 L 713.46495,2488.6418 L 711.32127,2485.5454 L 708.46304,2489.8327 L 705.60481,2484.8308 L 702.98477,2489.5945 L 699.88835,2485.069 L 698.69742,2488.6418 L 693.45733,2484.8308 L 691.55184,2490.5473 L 687.97905,2485.5454 L 684.64445,2489.5945 L 681.78621,2484.5926 L 678.92798,2489.3564 L 673.21152,2484.1163 L 672.25877,2489.1182 L 667.73324,2484.5926 L 665.58957,2489.3564 L 662.25496,2483.8781 L 659.8731,2488.6418 L 655.58576,2482.6871 L 653.68027,2488.88 L 650.34566,2481.9726 L 648.34222,2486.0217 L 644.76943,2490.0709 L 639.76753,2485.3072 L 639.05297,2490.7855 L 635.00381,2484.1163 L 632.62195,2488.6418 L 630.47827,2485.5454 L 627.62004,2489.8327 L 624.76181,2484.8308 L 622.14177,2489.5945 L 619.04535,2485.069 L 617.85442,2488.6418 L 612.61433,2484.8308 L 610.70884,2490.5473 L 607.13605,2485.5454 L 603.80145,2489.5945 L 600.94321,2484.5926 L 598.08498,2489.3564 L 592.36852,2484.1163 L 591.41577,2489.1182 L 586.89024,2484.5926 L 584.74657,2489.3564 L 581.41196,2483.8781 L 579.0301,2488.6418 L 574.74276,2482.6871 L 572.83727,2488.88 L 569.50266,2479.2778 L 810.28152,2479.2778 L 810.28152,2545.0709"
     id="path2513"
     style="fill:none;fill-opacity:1;fill-rule:evenodd;stroke:#000000;stroke-width:1;stroke-linecap:butt;stroke-linejoin:miter;stroke-miterlimit:4;stroke-dasharray:none;stroke-opacity:1" />
  <path
     d="M 1124.6074,2791.3001 L 1124.6074,2581.1083 M 1364.1883,2586.0598 L 1360.6155,2590.109 L 1355.6136,2585.3453 L 1354.8991,2590.8236 L 1350.8499,2584.1544 L 1348.4681,2588.6799 L 1346.3244,2585.5835 L 1343.4662,2589.8708 L 1340.6079,2584.8689 L 1337.9879,2589.6326 L 1334.8915,2585.1071 L 1333.7005,2588.6799 L 1328.4604,2584.8689 L 1326.555,2590.5854 L 1322.9822,2585.5835 L 1319.6476,2589.6326 L 1316.7893,2584.6307 L 1313.9311,2589.3945 L 1308.2146,2584.1544 L 1307.2619,2589.1563 L 1302.7364,2584.6307 L 1300.5927,2589.3945 L 1297.2581,2583.9162 L 1294.8762,2588.6799 L 1290.5889,2582.7252 L 1288.6834,2588.9181 L 1285.3488,2582.0107 L 1283.6822,2586.0598 L 1280.1094,2590.109 L 1275.1075,2585.3453 L 1274.3929,2590.8236 L 1270.3438,2584.1544 L 1267.9619,2588.6799 L 1265.8182,2585.5835 L 1262.96,2589.8708 L 1260.1018,2584.8689 L 1257.4817,2589.6326 L 1254.3853,2585.1071 L 1253.1944,2588.6799 L 1247.9543,2584.8689 L 1246.0488,2590.5854 L 1242.476,2585.5835 L 1239.1414,2589.6326 L 1236.2832,2584.6307 L 1233.4249,2589.3945 L 1227.7085,2584.1544 L 1226.7557,2589.1563 L 1222.2302,2584.6307 L 1220.0865,2589.3945 L 1216.7519,2583.9162 L 1214.3701,2588.6799 L 1210.0827,2582.7252 L 1208.1772,2588.9181 L 1204.8426,2582.0107 L 1202.8392,2586.0598 L 1199.2664,2590.109 L 1194.2645,2585.3453 L 1193.5499,2590.8236 L 1189.5008,2584.1544 L 1187.1189,2588.6799 L 1184.9752,2585.5835 L 1182.117,2589.8708 L 1179.2588,2584.8689 L 1176.6387,2589.6326 L 1173.5423,2585.1071 L 1172.3514,2588.6799 L 1167.1113,2584.8689 L 1165.2058,2590.5854 L 1161.633,2585.5835 L 1158.2984,2589.6326 L 1155.4402,2584.6307 L 1152.5819,2589.3945 L 1146.8655,2584.1544 L 1145.9127,2589.1563 L 1141.3872,2584.6307 L 1139.2435,2589.3945 L 1135.9089,2583.9162 L 1133.5271,2588.6799 L 1129.2397,2582.7252 L 1127.3342,2588.9181 L 1123.9996,2579.3159 L 1364.7785,2579.3159 L 1364.7785,2790.6264"
     id="path2538"
     style="fill:none;fill-opacity:1;fill-rule:evenodd;stroke:#000000;stroke-width:1;stroke-linecap:butt;stroke-linejoin:miter;stroke-miterlimit:4;stroke-dasharray:none;stroke-opacity:1" />
  <path
     d="M 690.87081,2479.0457 L 690.87081,2439.9716 L 708.04995,2439.9716 L 708.04995,2479.0457 M 741.06084,2479.0457 L 741.06084,2439.2979 L 757.90314,2439.2979 L 757.90314,2479.0457 M 740.724,2453.4455 L 708.04995,2453.4455 M 757.56629,2448.0559 L 765.65059,2448.0559 L 765.65059,2453.4455 L 758.23998,2453.4455 M 690.87081,2453.4455 L 684.1339,2453.4455 L 684.1339,2447.7191 L 690.53397,2447.7191 M 707.71311,2448.0559 L 740.724,2448.0559 M 740.724,2464.8983 L 708.04995,2464.8983 M 757.56629,2459.5087 L 765.65059,2459.5087 L 765.65059,2464.8983 L 758.23998,2464.8983 M 690.87081,2464.8983 L 684.1339,2464.8983 L 684.1339,2459.1719 L 690.53397,2459.1719 M 707.71311,2459.5087 L 740.724,2459.5087 M 693.90243,2445.0243 L 693.90243,2474.6668 M 745.10299,2477.0247 L 745.10299,2454.1192 M 746.78722,2444.0138 L 746.78722,2468.2667 M 695.9235,2456.8139 L 695.9235,2476.0141 M 710.74472,2451.0875 L 730.95547,2451.0875 M 757.90314,2462.2035 L 761.60844,2462.2035"
     id="path2540"
     style="fill:none;fill-opacity:1;fill-rule:evenodd;stroke:#000000;stroke-width:1;stroke-linecap:butt;stroke-linejoin:miter;stroke-miterlimit:4;stroke-dasharray:none;stroke-opacity:1" />
  <path
     d="M 1753.9426,2258.714 L 1758.1331,2258.714 L 1758.1331,2284.2214 L 1753.9426,2284.2214 L 1753.9426,2258.714 M 1753.9426,2248.7843 L 1758.1331,2248.7843 L 1758.1331,2254.0907 L 1753.9426,2254.0907 L 1753.9426,2248.7843 M 1798.5124,2262.5856 L 1798.5124,2248.7843 L 1802.7029,2248.7843 L 1802.7029,2284.2214 L 1798.5124,2284.2214 L 1798.5124,2280.3953 C 1797.6317,2281.9136 1796.5158,2283.0448 1795.1645,2283.7887 C 1793.8284,2284.5175 1792.219,2284.8819 1790.3363,2284.8819 C 1787.2541,2284.8819 1784.7414,2283.6521 1782.7979,2281.1924 C 1780.8697,2278.7328 1779.9056,2275.4988 1779.9056,2271.4905 C 1779.9056,2267.4822 1780.8697,2264.2482 1782.7979,2261.7885 C 1784.7414,2259.3289 1787.2541,2258.0991 1790.3363,2258.099 C 1792.219,2258.0991 1793.8284,2258.4711 1795.1645,2259.215 C 1796.5158,2259.9438 1797.6317,2261.0673 1798.5124,2262.5856 M 1784.2327,2271.4905 C 1784.2327,2274.5726 1784.8628,2276.9943 1786.123,2278.7555 C 1787.3984,2280.5016 1789.1444,2281.3746 1791.3612,2281.3746 C 1793.5779,2281.3746 1795.3239,2280.5016 1796.5993,2278.7555 C 1797.8747,2276.9943 1798.5123,2274.5726 1798.5124,2271.4905 C 1798.5123,2268.4083 1797.8747,2265.9942 1796.5993,2264.2482 C 1795.3239,2262.487 1793.5779,2261.6063 1791.3612,2261.6063 C 1789.1444,2261.6063 1787.3984,2262.487 1786.123,2264.2482 C 1784.8628,2265.9942 1784.2327,2268.4083 1784.2327,2271.4905 M 1821.2186,2261.6519 C 1818.9715,2261.6519 1817.1951,2262.5325 1815.8893,2264.2937 C 1814.5836,2266.0398 1813.9307,2268.4387 1813.9307,2271.4905 C 1813.9307,2274.5423 1814.576,2276.9488 1815.8666,2278.71 C 1817.1723,2280.456 1818.9563,2281.3291 1821.2186,2281.3291 C 1823.4505,2281.3291 1825.2193,2280.4485 1826.525,2278.6872 C 1827.8308,2276.926 1828.4836,2274.5271 1828.4837,2271.4905 C 1828.4836,2268.4691 1827.8308,2266.0777 1826.525,2264.3165 C 1825.2193,2262.5401 1823.4505,2261.6519 1821.2186,2261.6519 M 1821.2186,2258.099 C 1824.8625,2258.0991 1827.7245,2259.2833 1829.8046,2261.6519 C 1831.8846,2264.0204 1832.9247,2267.3 1832.9247,2271.4905 C 1832.9247,2275.6658 1831.8846,2278.9453 1829.8046,2281.3291 C 1827.7245,2283.6976 1824.8625,2284.8819 1821.2186,2284.8819 C 1817.5595,2284.8819 1814.6899,2283.6976 1812.6098,2281.3291 C 1810.5449,2278.9453 1809.5125,2275.6658 1809.5125,2271.4905 C 1809.5125,2267.3 1810.5449,2264.0204 1812.6098,2261.6519 C 1814.6899,2259.2833 1817.5595,2258.0991 1821.2186,2258.099 M 1861.0512,2268.8259 L 1861.0512,2284.2214 L 1856.8607,2284.2214 L 1856.8607,2268.9625 C 1856.8607,2266.5484 1856.39,2264.7416 1855.4487,2263.5422 C 1854.5073,2262.3427 1853.0953,2261.743 1851.2126,2261.743 C 1848.9504,2261.743 1847.1664,2262.4642 1845.8606,2263.9066 C 1844.5549,2265.349 1843.902,2267.3152 1843.902,2269.8052 L 1843.902,2284.2214 L 1839.6887,2284.2214 L 1839.6887,2258.714 L 1843.902,2258.714 L 1843.902,2262.6767 C 1844.9041,2261.1433 1846.0808,2259.9969 1847.4321,2259.2378 C 1848.7985,2258.4786 1850.37,2258.0991 1852.1464,2258.099 C 1855.0767,2258.0991 1857.2934,2259.0101 1858.7966,2260.832 C 1860.2997,2262.6388 1861.0512,2265.3034 1861.0512,2268.8259 M 1873.4178,2250.2191 L 1873.4178,2262.8589 L 1869.5461,2262.8589 L 1869.5461,2250.2191 L 1873.4178,2250.2191 M 1886.4448,2251.4717 L 1886.4448,2258.714 L 1895.0764,2258.714 L 1895.0764,2261.9707 L 1886.4448,2261.9707 L 1886.4448,2275.8176 C 1886.4448,2277.8977 1886.7257,2279.2338 1887.2875,2279.826 C 1887.8644,2280.4181 1889.0259,2280.7142 1890.772,2280.7142 L 1895.0764,2280.7142 L 1895.0764,2284.2214 L 1890.772,2284.2214 C 1887.538,2284.2214 1885.3061,2283.6217 1884.0763,2282.4222 C 1882.8465,2281.2076 1882.2315,2279.0061 1882.2315,2275.8176 L 1882.2315,2261.9707 L 1879.157,2261.9707 L 1879.157,2258.714 L 1882.2315,2258.714 L 1882.2315,2251.4717 L 1886.4448,2251.4717 M 1919.6046,2251.4717 L 1919.6046,2258.714 L 1928.2361,2258.714 L 1928.2361,2261.9707 L 1919.6046,2261.9707 L 1919.6046,2275.8176 C 1919.6046,2277.8977 1919.8854,2279.2338 1920.4472,2279.826 C 1921.0242,2280.4181 1922.1857,2280.7142 1923.9317,2280.7142 L 1928.2361,2280.7142 L 1928.2361,2284.2214 L 1923.9317,2284.2214 C 1920.6977,2284.2214 1918.4658,2283.6217 1917.236,2282.4222 C 1916.0062,2281.2076 1915.3913,2279.0061 1915.3913,2275.8176 L 1915.3913,2261.9707 L 1912.3167,2261.9707 L 1912.3167,2258.714 L 1915.3913,2258.714 L 1915.3913,2251.4717 L 1919.6046,2251.4717 M 1954.9734,2268.8259 L 1954.9734,2284.2214 L 1950.7829,2284.2214 L 1950.7829,2268.9625 C 1950.7829,2266.5484 1950.3122,2264.7416 1949.3709,2263.5422 C 1948.4295,2262.3427 1947.0175,2261.743 1945.1348,2261.743 C 1942.8725,2261.743 1941.0885,2262.4642 1939.7828,2263.9066 C 1938.4771,2265.349 1937.8242,2267.3152 1937.8242,2269.8052 L 1937.8242,2284.2214 L 1933.6109,2284.2214 L 1933.6109,2248.7843 L 1937.8242,2248.7843 L 1937.8242,2262.6767 C 1938.8263,2261.1433 1940.003,2259.9969 1941.3543,2259.2378 C 1942.7207,2258.4786 1944.2922,2258.0991 1946.0686,2258.099 C 1948.9989,2258.0991 1951.2156,2259.0101 1952.7187,2260.832 C 1954.2218,2262.6388 1954.9734,2265.3034 1954.9734,2268.8259 M 1963.3772,2258.714 L 1967.5677,2258.714 L 1967.5677,2284.2214 L 1963.3772,2284.2214 L 1963.3772,2258.714 M 1963.3772,2248.7843 L 1967.5677,2248.7843 L 1967.5677,2254.0907 L 1963.3772,2254.0907 L 1963.3772,2248.7843 M 1997.5163,2268.8259 L 1997.5163,2284.2214 L 1993.3257,2284.2214 L 1993.3257,2268.9625 C 1993.3257,2266.5484 1992.855,2264.7416 1991.9137,2263.5422 C 1990.9724,2262.3427 1989.5603,2261.743 1987.6777,2261.743 C 1985.4154,2261.743 1983.6314,2262.4642 1982.3256,2263.9066 C 1981.0199,2265.349 1980.367,2267.3152 1980.367,2269.8052 L 1980.367,2284.2214 L 1976.1537,2284.2214 L 1976.1537,2258.714 L 1980.367,2258.714 L 1980.367,2262.6767 C 1981.3691,2261.1433 1982.5458,2259.9969 1983.8971,2259.2378 C 1985.2635,2258.4786 1986.835,2258.0991 1988.6114,2258.099 C 1991.5417,2258.0991 1993.7584,2259.0101 1995.2616,2260.832 C 1996.7647,2262.6388 1997.5162,2265.3034 1997.5163,2268.8259 M 2005.7606,2248.7843 L 2009.9739,2248.7843 L 2009.9739,2269.7141 L 2022.4771,2258.714 L 2027.8292,2258.714 L 2014.3011,2270.6478 L 2028.3985,2284.2214 L 2022.9326,2284.2214 L 2009.9739,2271.7638 L 2009.9739,2284.2214 L 2005.7606,2284.2214 L 2005.7606,2248.7843 M 2047.8252,2258.714 L 2052.0157,2258.714 L 2052.0157,2284.2214 L 2047.8252,2284.2214 L 2047.8252,2258.714 M 2047.8252,2248.7843 L 2052.0157,2248.7843 L 2052.0157,2254.0907 L 2047.8252,2254.0907 L 2047.8252,2248.7843 M 2093.9664,2259.6933 L 2093.9664,2263.6105 C 2092.7821,2262.9576 2091.5902,2262.4718 2090.3908,2262.1529 C 2089.2065,2261.8189 2088.007,2261.6519 2086.7924,2261.6519 C 2084.0746,2261.6519 2081.9642,2262.5173 2080.4611,2264.2482 C 2078.958,2265.9639 2078.2064,2268.378 2078.2064,2271.4905 C 2078.2064,2274.603 2078.958,2277.0247 2080.4611,2278.7555 C 2081.9642,2280.4712 2084.0746,2281.3291 2086.7924,2281.3291 C 2088.007,2281.3291 2089.2065,2281.1697 2090.3908,2280.8508 C 2091.5902,2280.5168 2092.7821,2280.0233 2093.9664,2279.3705 L 2093.9664,2283.2421 C 2092.7973,2283.7887 2091.5826,2284.1987 2090.3225,2284.472 C 2089.0774,2284.7452 2087.7489,2284.8819 2086.3369,2284.8819 C 2082.4956,2284.8819 2079.4438,2283.6748 2077.1816,2281.2607 C 2074.9193,2278.8467 2073.7881,2275.5899 2073.7882,2271.4905 C 2073.7881,2267.3303 2074.9269,2264.0584 2077.2043,2261.6746 C 2079.497,2259.2909 2082.6323,2258.0991 2086.6102,2258.099 C 2087.9008,2258.0991 2089.1609,2258.2357 2090.3908,2258.509 C 2091.6206,2258.7671 2092.8125,2259.1619 2093.9664,2259.6933 M 2112.8921,2271.3994 C 2109.5062,2271.3994 2107.1604,2271.7866 2105.8547,2272.5609 C 2104.549,2273.3352 2103.8961,2274.6561 2103.8961,2276.5236 C 2103.8961,2278.0116 2104.382,2279.1959 2105.3537,2280.0765 C 2106.3406,2280.9419 2107.6767,2281.3746 2109.362,2281.3746 C 2111.685,2281.3746 2113.5449,2280.5547 2114.9418,2278.915 C 2116.3538,2277.26 2117.0598,2275.0661 2117.0598,2272.3331 L 2117.0598,2271.3994 L 2112.8921,2271.3994 M 2121.2503,2269.6685 L 2121.2503,2284.2214 L 2117.0598,2284.2214 L 2117.0598,2280.3498 C 2116.1032,2281.8984 2114.9114,2283.0448 2113.4842,2283.7887 C 2112.057,2284.5175 2110.3109,2284.8819 2108.246,2284.8819 C 2105.6346,2284.8819 2103.5545,2284.1531 2102.0058,2282.6955 C 2100.4723,2281.2228 2099.7056,2279.2566 2099.7056,2276.7969 C 2099.7056,2273.9274 2100.6621,2271.7638 2102.5752,2270.3062 C 2104.5034,2268.8486 2107.373,2268.1199 2111.184,2268.1198 L 2117.0598,2268.1198 L 2117.0598,2267.7099 C 2117.0598,2265.7817 2116.4221,2264.2937 2115.1467,2263.2461 C 2113.8865,2262.1833 2112.1101,2261.6519 2109.8175,2261.6519 C 2108.3599,2261.6519 2106.9403,2261.8265 2105.5587,2262.1757 C 2104.177,2262.5249 2102.8485,2263.0487 2101.5731,2263.7471 L 2101.5731,2259.8755 C 2103.1066,2259.2833 2104.5945,2258.843 2106.0369,2258.5545 C 2107.4793,2258.2509 2108.8837,2258.0991 2110.2502,2258.099 C 2113.9397,2258.0991 2116.6954,2259.0556 2118.5174,2260.9686 C 2120.3393,2262.8817 2121.2503,2265.7817 2121.2503,2269.6685 M 2151.1077,2268.8259 L 2151.1077,2284.2214 L 2146.9172,2284.2214 L 2146.9172,2268.9625 C 2146.9172,2266.5484 2146.4465,2264.7416 2145.5052,2263.5422 C 2144.5638,2262.3427 2143.1518,2261.743 2141.2691,2261.743 C 2139.0068,2261.743 2137.2228,2262.4642 2135.9171,2263.9066 C 2134.6113,2265.349 2133.9585,2267.3152 2133.9585,2269.8052 L 2133.9585,2284.2214 L 2129.7452,2284.2214 L 2129.7452,2258.714 L 2133.9585,2258.714 L 2133.9585,2262.6767 C 2134.9605,2261.1433 2136.1372,2259.9969 2137.4885,2259.2378 C 2138.855,2258.4786 2140.4264,2258.0991 2142.2029,2258.099 C 2145.1332,2258.0991 2147.3499,2259.0101 2148.853,2260.832 C 2150.3561,2262.6388 2151.1077,2265.3034 2151.1077,2268.8259"
     transform="matrix(0.8710751,0,-6.4536649e-2,1.1480066,0,0)"
     id="text2571"
     style="font-size:46.64224625px;font-style:normal;font-weight:normal;fill:none;fill-opacity:1;stroke:#000000;stroke-width:1;stroke-linecap:butt;stroke-linejoin:miter;stroke-miterlimit:4;stroke-dasharray:none;stroke-opacity:1;font-family:Bitstream Vera Sans" />
  <path
     d="M 2075.0924,2208.4271 C 2074.6217,2208.1538 2074.1055,2207.9564 2073.5437,2207.8349 C 2072.9971,2207.6983 2072.3898,2207.63 2071.7218,2207.63 C 2069.3532,2207.63 2067.5313,2208.4043 2066.2559,2209.953 C 2064.9957,2211.4865 2064.3656,2213.6956 2064.3656,2216.5804 L 2064.3656,2230.0173 L 2060.1523,2230.0173 L 2060.1523,2204.5099 L 2064.3656,2204.5099 L 2064.3656,2208.4726 C 2065.2462,2206.924 2066.3925,2205.7777 2067.8046,2205.0337 C 2069.2166,2204.2745 2070.9323,2203.895 2072.9516,2203.8949 C 2073.2401,2203.895 2073.5589,2203.9177 2073.9081,2203.9633 C 2074.2573,2203.9937 2074.6445,2204.0468 2075.0696,2204.1227 L 2075.0924,2208.4271 M 2100.3494,2216.216 L 2100.3494,2218.2657 L 2081.0821,2218.2657 C 2081.2643,2221.1505 2082.1297,2223.352 2083.6784,2224.8703 C 2085.2423,2226.3734 2087.4134,2227.125 2090.1919,2227.125 C 2091.8013,2227.125 2093.3576,2226.9276 2094.8607,2226.5328 C 2096.379,2226.1381 2097.8821,2225.5459 2099.3701,2224.7564 L 2099.3701,2228.7192 C 2097.8669,2229.3569 2096.3259,2229.8427 2094.7468,2230.1768 C 2093.1678,2230.5108 2091.566,2230.6778 2089.9414,2230.6778 C 2085.8724,2230.6778 2082.646,2229.4935 2080.2622,2227.125 C 2077.8937,2224.7564 2076.7094,2221.5528 2076.7094,2217.5141 C 2076.7094,2213.3388 2077.8329,2210.0289 2080.08,2207.5844 C 2082.3423,2205.1248 2085.3865,2203.895 2089.2126,2203.8949 C 2092.644,2203.895 2095.3541,2205.0033 2097.3431,2207.22 C 2099.3473,2209.4216 2100.3493,2212.4202 2100.3494,2216.216 M 2096.1589,2214.9861 C 2096.1285,2212.6935 2095.4832,2210.864 2094.223,2209.4975 C 2092.978,2208.131 2091.3231,2207.4478 2089.2582,2207.4478 C 2086.92,2207.4478 2085.0449,2208.1083 2083.6329,2209.4292 C 2082.236,2210.7501 2081.4313,2212.61 2081.2188,2215.0089 L 2096.1589,2214.9861 M 2127.0867,2209.4064 C 2128.1343,2207.5237 2129.3869,2206.1345 2130.8445,2205.2386 C 2132.302,2204.3429 2134.0177,2203.895 2135.9915,2203.8949 C 2138.6485,2203.895 2140.6982,2204.8287 2142.1406,2206.6962 C 2143.583,2208.5486 2144.3042,2211.1904 2144.3042,2214.6217 L 2144.3042,2230.0173 L 2140.0909,2230.0173 L 2140.0909,2214.7584 C 2140.0909,2212.3139 2139.6582,2210.4996 2138.7928,2209.3153 C 2137.9273,2208.131 2136.6064,2207.5389 2134.83,2207.5389 C 2132.6588,2207.5389 2130.9431,2208.2601 2129.683,2209.7024 C 2128.4228,2211.1449 2127.7927,2213.1111 2127.7927,2215.6011 L 2127.7927,2230.0173 L 2123.5794,2230.0173 L 2123.5794,2214.7584 C 2123.5794,2212.2988 2123.1467,2210.4844 2122.2813,2209.3153 C 2121.4158,2208.131 2120.0797,2207.5389 2118.2729,2207.5389 C 2116.1321,2207.5389 2114.4316,2208.2677 2113.1714,2209.7252 C 2111.9112,2211.1676 2111.2811,2213.1262 2111.2812,2215.6011 L 2111.2812,2230.0173 L 2107.0679,2230.0173 L 2107.0679,2204.5099 L 2111.2812,2204.5099 L 2111.2812,2208.4726 C 2112.2377,2206.9088 2113.384,2205.7549 2114.7201,2205.0109 C 2116.0562,2204.267 2117.6428,2203.895 2119.48,2203.8949 C 2121.3323,2203.895 2122.9037,2204.3656 2124.1943,2205.307 C 2125.5,2206.2483 2126.4642,2207.6148 2127.0867,2209.4064 M 2174.5033,2216.216 L 2174.5033,2218.2657 L 2155.236,2218.2657 C 2155.4182,2221.1505 2156.2836,2223.352 2157.8323,2224.8703 C 2159.3961,2226.3734 2161.5673,2227.125 2164.3458,2227.125 C 2165.9552,2227.125 2167.5115,2226.9276 2169.0146,2226.5328 C 2170.5329,2226.1381 2172.036,2225.5459 2173.524,2224.7564 L 2173.524,2228.7192 C 2172.0208,2229.3569 2170.4797,2229.8427 2168.9007,2230.1768 C 2167.3217,2230.5108 2165.7199,2230.6778 2164.0953,2230.6778 C 2160.0262,2230.6778 2156.7998,2229.4935 2154.4161,2227.125 C 2152.0476,2224.7564 2150.8633,2221.5528 2150.8633,2217.5141 C 2150.8633,2213.3388 2151.9868,2210.0289 2154.2339,2207.5844 C 2156.4962,2205.1248 2159.5404,2203.895 2163.3665,2203.8949 C 2166.7979,2203.895 2169.508,2205.0033 2171.497,2207.22 C 2173.5012,2209.4216 2174.5032,2212.4202 2174.5033,2216.216 M 2170.3127,2214.9861 C 2170.2824,2212.6935 2169.6371,2210.864 2168.3769,2209.4975 C 2167.1319,2208.131 2165.4769,2207.4478 2163.4121,2207.4478 C 2161.0739,2207.4478 2159.1988,2208.1083 2157.7868,2209.4292 C 2156.3899,2210.7501 2155.5852,2212.61 2155.3727,2215.0089 L 2170.3127,2214.9861 M 2201.2406,2209.4064 C 2202.2882,2207.5237 2203.5408,2206.1345 2204.9984,2205.2386 C 2206.4559,2204.3429 2208.1716,2203.895 2210.1454,2203.8949 C 2212.8024,2203.895 2214.8521,2204.8287 2216.2945,2206.6962 C 2217.7369,2208.5486 2218.4581,2211.1904 2218.4581,2214.6217 L 2218.4581,2230.0173 L 2214.2448,2230.0173 L 2214.2448,2214.7584 C 2214.2448,2212.3139 2213.8121,2210.4996 2212.9467,2209.3153 C 2212.0812,2208.131 2210.7603,2207.5389 2208.9839,2207.5389 C 2206.8127,2207.5389 2205.097,2208.2601 2203.8369,2209.7024 C 2202.5766,2211.1449 2201.9466,2213.1111 2201.9466,2215.6011 L 2201.9466,2230.0173 L 2197.7333,2230.0173 L 2197.7333,2214.7584 C 2197.7333,2212.2988 2197.3006,2210.4844 2196.4351,2209.3153 C 2195.5697,2208.131 2194.2336,2207.5389 2192.4268,2207.5389 C 2190.286,2207.5389 2188.5855,2208.2677 2187.3253,2209.7252 C 2186.0651,2211.1676 2185.435,2213.1262 2185.435,2215.6011 L 2185.435,2230.0173 L 2181.2218,2230.0173 L 2181.2218,2204.5099 L 2185.435,2204.5099 L 2185.435,2208.4726 C 2186.3916,2206.9088 2187.5379,2205.7549 2188.874,2205.0109 C 2190.2101,2204.267 2191.7967,2203.895 2193.6339,2203.8949 C 2195.4862,2203.895 2197.0576,2204.3656 2198.3482,2205.307 C 2199.6539,2206.2483 2200.618,2207.6148 2201.2406,2209.4064 M 2245.1499,2217.2864 C 2245.1498,2214.2042 2244.5122,2211.7901 2243.2368,2210.0441 C 2241.9766,2208.2829 2240.2381,2207.4022 2238.0214,2207.4022 C 2235.8047,2207.4022 2234.0587,2208.2829 2232.7833,2210.0441 C 2231.5231,2211.7901 2230.893,2214.2042 2230.893,2217.2864 C 2230.893,2220.3685 2231.5231,2222.7902 2232.7833,2224.5514 C 2234.0587,2226.2975 2235.8047,2227.1705 2238.0214,2227.1705 C 2240.2381,2227.1705 2241.9766,2226.2975 2243.2368,2224.5514 C 2244.5122,2222.7902 2245.1498,2220.3685 2245.1499,2217.2864 M 2230.893,2208.3815 C 2231.7736,2206.8632 2232.882,2205.7397 2234.2181,2205.0109 C 2235.5694,2204.267 2237.1788,2203.895 2239.0463,2203.8949 C 2242.1436,2203.895 2244.6564,2205.1248 2246.5847,2207.5844 C 2248.5281,2210.0441 2249.4998,2213.2781 2249.4998,2217.2864 C 2249.4998,2221.2947 2248.5281,2224.5287 2246.5847,2226.9883 C 2244.6564,2229.448 2242.1436,2230.6778 2239.0463,2230.6778 C 2237.1788,2230.6778 2235.5694,2230.3134 2234.2181,2229.5846 C 2232.882,2228.8407 2231.7736,2227.7095 2230.893,2226.1912 L 2230.893,2230.0173 L 2226.6797,2230.0173 L 2226.6797,2194.5802 L 2230.893,2194.5802 L 2230.893,2208.3815 M 2278.264,2216.216 L 2278.264,2218.2657 L 2258.9968,2218.2657 C 2259.179,2221.1505 2260.0444,2223.352 2261.5931,2224.8703 C 2263.1569,2226.3734 2265.3281,2227.125 2268.1066,2227.125 C 2269.716,2227.125 2271.2722,2226.9276 2272.7754,2226.5328 C 2274.2937,2226.1381 2275.7968,2225.5459 2277.2847,2224.7564 L 2277.2847,2228.7192 C 2275.7816,2229.3569 2274.2405,2229.8427 2272.6615,2230.1768 C 2271.0825,2230.5108 2269.4806,2230.6778 2267.8561,2230.6778 C 2263.787,2230.6778 2260.5606,2229.4935 2258.1769,2227.125 C 2255.8083,2224.7564 2254.6241,2221.5528 2254.6241,2217.5141 C 2254.6241,2213.3388 2255.7476,2210.0289 2257.9947,2207.5844 C 2260.257,2205.1248 2263.3012,2203.895 2267.1273,2203.8949 C 2270.5586,2203.895 2273.2688,2205.0033 2275.2578,2207.22 C 2277.2619,2209.4216 2278.264,2212.4202 2278.264,2216.216 M 2274.0735,2214.9861 C 2274.0431,2212.6935 2273.3979,2210.864 2272.1377,2209.4975 C 2270.8927,2208.131 2269.2377,2207.4478 2267.1728,2207.4478 C 2264.8346,2207.4478 2262.9595,2208.1083 2261.5475,2209.4292 C 2260.1507,2210.7501 2259.346,2212.61 2259.1334,2215.0089 L 2274.0735,2214.9861 M 2299.9226,2208.4271 C 2299.4519,2208.1538 2298.9357,2207.9564 2298.3739,2207.8349 C 2297.8273,2207.6983 2297.22,2207.63 2296.552,2207.63 C 2294.1834,2207.63 2292.3615,2208.4043 2291.0861,2209.953 C 2289.8259,2211.4865 2289.1958,2213.6956 2289.1958,2216.5804 L 2289.1958,2230.0173 L 2284.9825,2230.0173 L 2284.9825,2204.5099 L 2289.1958,2204.5099 L 2289.1958,2208.4726 C 2290.0764,2206.924 2291.2227,2205.7777 2292.6348,2205.0337 C 2294.0468,2204.2745 2295.7625,2203.895 2297.7818,2203.8949 C 2298.0703,2203.895 2298.3891,2203.9177 2298.7383,2203.9633 C 2299.0875,2203.9937 2299.4747,2204.0468 2299.8998,2204.1227 L 2299.9226,2208.4271 M 2340.4157,2214.6217 L 2340.4157,2230.0173 L 2336.2252,2230.0173 L 2336.2252,2214.7584 C 2336.2252,2212.3443 2335.7545,2210.5375 2334.8132,2209.3381 C 2333.8718,2208.1386 2332.4598,2207.5389 2330.5771,2207.5389 C 2328.3149,2207.5389 2326.5309,2208.2601 2325.2251,2209.7024 C 2323.9194,2211.1449 2323.2665,2213.1111 2323.2665,2215.6011 L 2323.2665,2230.0173 L 2319.0532,2230.0173 L 2319.0532,2194.5802 L 2323.2665,2194.5802 L 2323.2665,2208.4726 C 2324.2686,2206.9392 2325.4453,2205.7928 2326.7966,2205.0337 C 2328.163,2204.2745 2329.7345,2203.895 2331.5109,2203.8949 C 2334.4412,2203.895 2336.6579,2204.8059 2338.1611,2206.6279 C 2339.6642,2208.4347 2340.4157,2211.0993 2340.4157,2214.6217 M 2358.7037,2207.4478 C 2356.4566,2207.4478 2354.6802,2208.3284 2353.3745,2210.0896 C 2352.0687,2211.8357 2351.4158,2214.2346 2351.4159,2217.2864 C 2351.4158,2220.3382 2352.0611,2222.7447 2353.3517,2224.5059 C 2354.6574,2226.2519 2356.4414,2227.125 2358.7037,2227.125 C 2360.9356,2227.125 2362.7044,2226.2444 2364.0102,2224.4831 C 2365.3159,2222.7219 2365.9688,2220.323 2365.9688,2217.2864 C 2365.9688,2214.265 2365.3159,2211.8736 2364.0102,2210.1124 C 2362.7044,2208.336 2360.9356,2207.4478 2358.7037,2207.4478 M 2358.7037,2203.8949 C 2362.3476,2203.895 2365.2096,2205.0792 2367.2897,2207.4478 C 2369.3698,2209.8163 2370.4098,2213.0959 2370.4098,2217.2864 C 2370.4098,2221.4617 2369.3698,2224.7412 2367.2897,2227.125 C 2365.2096,2229.4935 2362.3476,2230.6778 2358.7037,2230.6778 C 2355.0446,2230.6778 2352.175,2229.4935 2350.0949,2227.125 C 2348.03,2224.7412 2346.9976,2221.4617 2346.9976,2217.2864 C 2346.9976,2213.0959 2348.03,2209.8163 2350.0949,2207.4478 C 2352.175,2205.0792 2355.0446,2203.895 2358.7037,2203.8949 M 2374.8964,2204.5099 L 2379.0869,2204.5099 L 2384.325,2224.4148 L 2389.5404,2204.5099 L 2394.4825,2204.5099 L 2399.7206,2224.4148 L 2404.936,2204.5099 L 2409.1265,2204.5099 L 2402.4536,2230.0173 L 2397.5115,2230.0173 L 2392.0228,2209.1103 L 2386.5114,2230.0173 L 2381.5693,2230.0173 L 2374.8964,2204.5099 M 2430.3524,2204.5099 L 2434.5429,2204.5099 L 2434.5429,2230.0173 L 2430.3524,2230.0173 L 2430.3524,2204.5099 M 2430.3524,2194.5802 L 2434.5429,2194.5802 L 2434.5429,2199.8866 L 2430.3524,2199.8866 L 2430.3524,2194.5802 M 2447.4333,2197.2676 L 2447.4333,2204.5099 L 2456.0648,2204.5099 L 2456.0648,2207.7666 L 2447.4333,2207.7666 L 2447.4333,2221.6135 C 2447.4333,2223.6936 2447.7141,2225.0297 2448.2759,2225.6218 C 2448.8529,2226.214 2450.0144,2226.5101 2451.7604,2226.5101 L 2456.0648,2226.5101 L 2456.0648,2230.0173 L 2451.7604,2230.0173 C 2448.5264,2230.0173 2446.2945,2229.4176 2445.0647,2228.2181 C 2443.8349,2227.0035 2443.22,2224.802 2443.22,2221.6135 L 2443.22,2207.7666 L 2440.1454,2207.7666 L 2440.1454,2204.5099 L 2443.22,2204.5099 L 2443.22,2197.2676 L 2447.4333,2197.2676 M 2494.7588,2217.2864 C 2494.7587,2214.2042 2494.1211,2211.7901 2492.8457,2210.0441 C 2491.5855,2208.2829 2489.847,2207.4022 2487.6303,2207.4022 C 2485.4136,2207.4022 2483.6676,2208.2829 2482.3922,2210.0441 C 2481.132,2211.7901 2480.5019,2214.2042 2480.5019,2217.2864 C 2480.5019,2220.3685 2481.132,2222.7902 2482.3922,2224.5514 C 2483.6676,2226.2975 2485.4136,2227.1705 2487.6303,2227.1705 C 2489.847,2227.1705 2491.5855,2226.2975 2492.8457,2224.5514 C 2494.1211,2222.7902 2494.7587,2220.3685 2494.7588,2217.2864 M 2480.5019,2208.3815 C 2481.3825,2206.8632 2482.4909,2205.7397 2483.827,2205.0109 C 2485.1783,2204.267 2486.7877,2203.895 2488.6552,2203.8949 C 2491.7525,2203.895 2494.2653,2205.1248 2496.1936,2207.5844 C 2498.137,2210.0441 2499.1087,2213.2781 2499.1087,2217.2864 C 2499.1087,2221.2947 2498.137,2224.5287 2496.1936,2226.9883 C 2494.2653,2229.448 2491.7525,2230.6778 2488.6552,2230.6778 C 2486.7877,2230.6778 2485.1783,2230.3134 2483.827,2229.5846 C 2482.4909,2228.8407 2481.3825,2227.7095 2480.5019,2226.1912 L 2480.5019,2230.0173 L 2476.2886,2230.0173 L 2476.2886,2194.5802 L 2480.5019,2194.5802 L 2480.5019,2208.3815 M 2527.8729,2216.216 L 2527.8729,2218.2657 L 2508.6057,2218.2657 C 2508.7879,2221.1505 2509.6533,2223.352 2511.202,2224.8703 C 2512.7658,2226.3734 2514.937,2227.125 2517.7155,2227.125 C 2519.3249,2227.125 2520.8811,2226.9276 2522.3843,2226.5328 C 2523.9026,2226.1381 2525.4057,2225.5459 2526.8936,2224.7564 L 2526.8936,2228.7192 C 2525.3905,2229.3569 2523.8494,2229.8427 2522.2704,2230.1768 C 2520.6914,2230.5108 2519.0895,2230.6778 2517.465,2230.6778 C 2513.3959,2230.6778 2510.1695,2229.4935 2507.7858,2227.125 C 2505.4172,2224.7564 2504.233,2221.5528 2504.233,2217.5141 C 2504.233,2213.3388 2505.3565,2210.0289 2507.6036,2207.5844 C 2509.8659,2205.1248 2512.9101,2203.895 2516.7362,2203.8949 C 2520.1675,2203.895 2522.8777,2205.0033 2524.8667,2207.22 C 2526.8708,2209.4216 2527.8729,2212.4202 2527.8729,2216.216 M 2523.6824,2214.9861 C 2523.652,2212.6935 2523.0068,2210.864 2521.7466,2209.4975 C 2520.5016,2208.131 2518.8466,2207.4478 2516.7817,2207.4478 C 2514.4435,2207.4478 2512.5684,2208.1083 2511.1564,2209.4292 C 2509.7596,2210.7501 2508.9549,2212.61 2508.7423,2215.0089 L 2523.6824,2214.9861 M 2551.5357,2216.9675 C 2551.5356,2213.9309 2550.9055,2211.5776 2549.6454,2209.9074 C 2548.4004,2208.2373 2546.6467,2207.4022 2544.3845,2207.4022 C 2542.1374,2207.4022 2540.3837,2208.2373 2539.1235,2209.9074 C 2537.8785,2211.5776 2537.256,2213.9309 2537.256,2216.9675 C 2537.256,2219.989 2537.8785,2222.3347 2539.1235,2224.0049 C 2540.3837,2225.675 2542.1374,2226.5101 2544.3845,2226.5101 C 2546.6467,2226.5101 2548.4004,2225.675 2549.6454,2224.0049 C 2550.9055,2222.3347 2551.5356,2219.989 2551.5357,2216.9675 M 2555.7262,2226.8517 C 2555.7262,2231.194 2554.762,2234.4204 2552.8338,2236.5309 C 2550.9055,2238.6565 2547.9525,2239.7193 2543.9745,2239.7193 C 2542.5018,2239.7193 2541.1125,2239.6054 2539.8068,2239.3777 C 2538.501,2239.1651 2537.2332,2238.8311 2536.0034,2238.3756 L 2536.0034,2234.2989 C 2537.2332,2234.967 2538.4479,2235.4604 2539.6474,2235.7793 C 2540.8468,2236.0981 2542.069,2236.2576 2543.3141,2236.2576 C 2546.0622,2236.2576 2548.1195,2235.5364 2549.486,2234.094 C 2550.8524,2232.6668 2551.5356,2230.5032 2551.5357,2227.6032 L 2551.5357,2225.5308 C 2550.6702,2227.0339 2549.5619,2228.1574 2548.2106,2228.9014 C 2546.8593,2229.6454 2545.2423,2230.0173 2543.3596,2230.0173 C 2540.2319,2230.0173 2537.7115,2228.8255 2535.7985,2226.4417 C 2533.8854,2224.058 2532.9289,2220.8999 2532.9289,2216.9675 C 2532.9289,2213.02 2533.8854,2209.8543 2535.7985,2207.4705 C 2537.7115,2205.0868 2540.2319,2203.895 2543.3596,2203.8949 C 2545.2423,2203.895 2546.8593,2204.267 2548.2106,2205.0109 C 2549.5619,2205.7549 2550.6702,2206.8784 2551.5357,2208.3815 L 2551.5357,2204.5099 L 2555.7262,2204.5099 L 2555.7262,2226.8517 M 2575.95,2217.1953 C 2572.5641,2217.1953 2570.2184,2217.5825 2568.9126,2218.3568 C 2567.6069,2219.1311 2566.954,2220.452 2566.954,2222.3195 C 2566.954,2223.8075 2567.4399,2224.9918 2568.4116,2225.8724 C 2569.3985,2226.7378 2570.7346,2227.1705 2572.4199,2227.1705 C 2574.7429,2227.1705 2576.6028,2226.3506 2577.9997,2224.7109 C 2579.4117,2223.0559 2580.1177,2220.862 2580.1177,2218.129 L 2580.1177,2217.1953 L 2575.95,2217.1953 M 2584.3082,2215.4644 L 2584.3082,2230.0173 L 2580.1177,2230.0173 L 2580.1177,2226.1457 C 2579.1612,2227.6943 2577.9693,2228.8407 2576.5421,2229.5846 C 2575.1149,2230.3134 2573.3688,2230.6778 2571.304,2230.6778 C 2568.6925,2230.6778 2566.6124,2229.949 2565.0637,2228.4914 C 2563.5303,2227.0187 2562.7635,2225.0525 2562.7635,2222.5928 C 2562.7635,2219.7233 2563.72,2217.5597 2565.6331,2216.1021 C 2567.5613,2214.6445 2570.4309,2213.9158 2574.2419,2213.9157 L 2580.1177,2213.9157 L 2580.1177,2213.5058 C 2580.1177,2211.5776 2579.48,2210.0896 2578.2047,2209.042 C 2576.9444,2207.9792 2575.168,2207.4478 2572.8754,2207.4478 C 2571.4178,2207.4478 2569.9982,2207.6224 2568.6166,2207.9716 C 2567.2349,2208.3208 2565.9064,2208.8446 2564.631,2209.543 L 2564.631,2205.6714 C 2566.1645,2205.0792 2567.6524,2204.6389 2569.0948,2204.3504 C 2570.5372,2204.0468 2571.9416,2203.895 2573.3081,2203.8949 C 2576.9976,2203.895 2579.7533,2204.8515 2581.5753,2206.7645 C 2583.3972,2208.6776 2584.3082,2211.5776 2584.3082,2215.4644 M 2614.1657,2214.6217 L 2614.1657,2230.0173 L 2609.9751,2230.0173 L 2609.9751,2214.7584 C 2609.9751,2212.3443 2609.5044,2210.5375 2608.5631,2209.3381 C 2607.6218,2208.1386 2606.2097,2207.5389 2604.3271,2207.5389 C 2602.0648,2207.5389 2600.2808,2208.2601 2598.975,2209.7024 C 2597.6693,2211.1449 2597.0164,2213.1111 2597.0164,2215.6011 L 2597.0164,2230.0173 L 2592.8031,2230.0173 L 2592.8031,2204.5099 L 2597.0164,2204.5099 L 2597.0164,2208.4726 C 2598.0185,2206.9392 2599.1952,2205.7928 2600.5465,2205.0337 C 2601.9129,2204.2745 2603.4844,2203.895 2605.2608,2203.8949 C 2608.1911,2203.895 2610.4078,2204.8059 2611.911,2206.6279 C 2613.4141,2208.4347 2614.1656,2211.0993 2614.1657,2214.6217"
     transform="matrix(0.8710751,0,-6.4536649e-2,1.1480066,0,0)"
     id="text2575"
     style="font-size:46.64224625px;font-style:normal;font-weight:normal;fill:none;fill-opacity:1;stroke:#000000;stroke-width:1;stroke-linecap:butt;stroke-linejoin:miter;stroke-miterlimit:4;stroke-dasharray:none;stroke-opacity:1;font-family:Bitstream Vera Sans" />
  <path
     d="M 2544.027,2297.323 C 2540.6412,2297.323 2538.2954,2297.7101 2536.9897,2298.4845 C 2535.684,2299.2588 2535.0311,2300.5797 2535.0311,2302.4472 C 2535.0311,2303.9352 2535.5169,2305.1194 2536.4887,2306.0001 C 2537.4755,2306.8655 2538.8117,2307.2982 2540.497,2307.2982 C 2542.82,2307.2982 2544.6799,2306.4783 2546.0767,2304.8386 C 2547.4887,2303.1836 2548.1947,2300.9897 2548.1948,2298.2567 L 2548.1948,2297.323 L 2544.027,2297.323 M 2552.3853,2295.5921 L 2552.3853,2310.145 L 2548.1948,2310.145 L 2548.1948,2306.2733 C 2547.2382,2307.822 2546.0464,2308.9683 2544.6192,2309.7123 C 2543.1919,2310.4411 2541.4459,2310.8055 2539.381,2310.8055 C 2536.7695,2310.8055 2534.6895,2310.0767 2533.1408,2308.6191 C 2531.6073,2307.1464 2530.8406,2305.1802 2530.8406,2302.7205 C 2530.8406,2299.8509 2531.7971,2297.6874 2533.7102,2296.2298 C 2535.6384,2294.7722 2538.508,2294.0434 2542.3189,2294.0434 L 2548.1948,2294.0434 L 2548.1948,2293.6335 C 2548.1947,2291.7053 2547.5571,2290.2173 2546.2817,2289.1697 C 2545.0215,2288.1069 2543.2451,2287.5755 2540.9525,2287.5755 C 2539.4949,2287.5755 2538.0753,2287.7501 2536.6936,2288.0993 C 2535.312,2288.4485 2533.9835,2288.9723 2532.7081,2289.6707 L 2532.7081,2285.799 C 2534.2416,2285.2069 2535.7295,2284.7666 2537.1719,2284.4781 C 2538.6143,2284.1745 2540.0187,2284.0227 2541.3852,2284.0226 C 2545.0746,2284.0227 2547.8304,2284.9792 2549.6523,2286.8922 C 2551.4743,2288.8053 2552.3853,2291.7053 2552.3853,2295.5921 M 2597.0917,2294.7494 L 2597.0917,2310.145 L 2592.9012,2310.145 L 2592.9012,2294.8861 C 2592.9012,2292.472 2592.4305,2290.6652 2591.4892,2289.4657 C 2590.5478,2288.2663 2589.1358,2287.6666 2587.2531,2287.6666 C 2584.9908,2287.6666 2583.2068,2288.3878 2581.9011,2289.8301 C 2580.5953,2291.2725 2579.9425,2293.2387 2579.9425,2295.7287 L 2579.9425,2310.145 L 2575.7292,2310.145 L 2575.7292,2274.7078 L 2579.9425,2274.7078 L 2579.9425,2288.6003 C 2580.9445,2287.0668 2582.1212,2285.9205 2583.4725,2285.1614 C 2584.839,2284.4022 2586.4104,2284.0227 2588.1869,2284.0226 C 2591.1172,2284.0227 2593.3339,2284.9336 2594.837,2286.7556 C 2596.3401,2288.5624 2597.0917,2291.227 2597.0917,2294.7494 M 2617.0877,2297.323 C 2613.7019,2297.323 2611.3561,2297.7101 2610.0504,2298.4845 C 2608.7447,2299.2588 2608.0918,2300.5797 2608.0918,2302.4472 C 2608.0918,2303.9352 2608.5776,2305.1194 2609.5494,2306.0001 C 2610.5363,2306.8655 2611.8724,2307.2982 2613.5577,2307.2982 C 2615.8807,2307.2982 2617.7406,2306.4783 2619.1374,2304.8386 C 2620.5494,2303.1836 2621.2555,2300.9897 2621.2555,2298.2567 L 2621.2555,2297.323 L 2617.0877,2297.323 M 2625.446,2295.5921 L 2625.446,2310.145 L 2621.2555,2310.145 L 2621.2555,2306.2733 C 2620.2989,2307.822 2619.1071,2308.9683 2617.6799,2309.7123 C 2616.2527,2310.4411 2614.5066,2310.8055 2612.4417,2310.8055 C 2609.8302,2310.8055 2607.7502,2310.0767 2606.2015,2308.6191 C 2604.668,2307.1464 2603.9013,2305.1802 2603.9013,2302.7205 C 2603.9013,2299.8509 2604.8578,2297.6874 2606.7709,2296.2298 C 2608.6991,2294.7722 2611.5687,2294.0434 2615.3796,2294.0434 L 2621.2555,2294.0434 L 2621.2555,2293.6335 C 2621.2555,2291.7053 2620.6178,2290.2173 2619.3424,2289.1697 C 2618.0822,2288.1069 2616.3058,2287.5755 2614.0132,2287.5755 C 2612.5556,2287.5755 2611.136,2287.7501 2609.7543,2288.0993 C 2608.3727,2288.4485 2607.0442,2288.9723 2605.7688,2289.6707 L 2605.7688,2285.799 C 2607.3023,2285.2069 2608.7902,2284.7666 2610.2326,2284.4781 C 2611.675,2284.1745 2613.0794,2284.0227 2614.4459,2284.0226 C 2618.1353,2284.0227 2620.8911,2284.9792 2622.713,2286.8922 C 2624.535,2288.8053 2625.446,2291.7053 2625.446,2295.5921 M 2632.2783,2284.6375 L 2652.1833,2284.6375 L 2652.1833,2288.4637 L 2636.4233,2306.7972 L 2652.1833,2306.7972 L 2652.1833,2310.145 L 2631.709,2310.145 L 2631.709,2306.3189 L 2647.469,2287.9854 L 2632.2783,2287.9854 L 2632.2783,2284.6375 M 2669.2186,2312.5136 C 2668.0344,2315.5502 2666.8804,2317.5316 2665.7569,2318.4577 C 2664.6334,2319.3839 2663.1302,2319.847 2661.2476,2319.847 L 2657.8997,2319.847 L 2657.8997,2316.3397 L 2660.3594,2316.3397 C 2661.5133,2316.3397 2662.4091,2316.0664 2663.0467,2315.5198 C 2663.6844,2314.9732 2664.3904,2313.6827 2665.1648,2311.6481 L 2665.9163,2309.7351 L 2655.5995,2284.6375 L 2660.0405,2284.6375 L 2668.0116,2304.588 L 2675.9827,2284.6375 L 2680.4237,2284.6375 L 2669.2186,2312.5136 M 2698.6206,2284.6375 L 2702.8111,2284.6375 L 2708.0492,2304.5425 L 2713.2646,2284.6375 L 2718.2067,2284.6375 L 2723.4448,2304.5425 L 2728.6602,2284.6375 L 2732.8507,2284.6375 L 2726.1778,2310.145 L 2721.2357,2310.145 L 2715.747,2289.238 L 2710.2356,2310.145 L 2705.2935,2310.145 L 2698.6206,2284.6375 M 2739.2276,2284.6375 L 2743.4181,2284.6375 L 2743.4181,2310.145 L 2739.2276,2310.145 L 2739.2276,2284.6375 M 2739.2276,2274.7078 L 2743.4181,2274.7078 L 2743.4181,2280.0143 L 2739.2276,2280.0143 L 2739.2276,2274.7078 M 2773.3666,2294.7494 L 2773.3666,2310.145 L 2769.1761,2310.145 L 2769.1761,2294.8861 C 2769.1761,2292.472 2768.7054,2290.6652 2767.7641,2289.4657 C 2766.8227,2288.2663 2765.4107,2287.6666 2763.528,2287.6666 C 2761.2657,2287.6666 2759.4817,2288.3878 2758.176,2289.8301 C 2756.8702,2291.2725 2756.2174,2293.2387 2756.2174,2295.7287 L 2756.2174,2310.145 L 2752.0041,2310.145 L 2752.0041,2284.6375 L 2756.2174,2284.6375 L 2756.2174,2288.6003 C 2757.2194,2287.0668 2758.3961,2285.9205 2759.7474,2285.1614 C 2761.1139,2284.4022 2762.6853,2284.0227 2764.4618,2284.0226 C 2767.3921,2284.0227 2769.6088,2284.9336 2771.1119,2286.7556 C 2772.615,2288.5624 2773.3666,2291.227 2773.3666,2294.7494 M 2798.5552,2288.5092 L 2798.5552,2274.7078 L 2802.7457,2274.7078 L 2802.7457,2310.145 L 2798.5552,2310.145 L 2798.5552,2306.3189 C 2797.6746,2307.8372 2796.5586,2308.9683 2795.2074,2309.7123 C 2793.8712,2310.4411 2792.2618,2310.8055 2790.3792,2310.8055 C 2787.297,2310.8055 2784.7842,2309.5757 2782.8408,2307.116 C 2780.9125,2304.6564 2779.9484,2301.4224 2779.9484,2297.4141 C 2779.9484,2293.4058 2780.9125,2290.1718 2782.8408,2287.7121 C 2784.7842,2285.2525 2787.297,2284.0227 2790.3792,2284.0226 C 2792.2618,2284.0227 2793.8712,2284.3946 2795.2074,2285.1386 C 2796.5586,2285.8674 2797.6746,2286.9909 2798.5552,2288.5092 M 2784.2756,2297.4141 C 2784.2756,2300.4962 2784.9057,2302.9179 2786.1659,2304.6791 C 2787.4412,2306.4252 2789.1873,2307.2982 2791.404,2307.2982 C 2793.6207,2307.2982 2795.3668,2306.4252 2796.6422,2304.6791 C 2797.9175,2302.9179 2798.5552,2300.4962 2798.5552,2297.4141 C 2798.5552,2294.3319 2797.9175,2291.9178 2796.6422,2290.1718 C 2795.3668,2288.4105 2793.6207,2287.5299 2791.404,2287.5299 C 2789.1873,2287.5299 2787.4412,2288.4105 2786.1659,2290.1718 C 2784.9057,2291.9178 2784.2756,2294.3319 2784.2756,2297.4141 M 2844.537,2297.4141 C 2844.537,2294.3319 2843.8993,2291.9178 2842.624,2290.1718 C 2841.3637,2288.4105 2839.6253,2287.5299 2837.4086,2287.5299 C 2835.1919,2287.5299 2833.4458,2288.4105 2832.1704,2290.1718 C 2830.9102,2291.9178 2830.2802,2294.3319 2830.2802,2297.4141 C 2830.2802,2300.4962 2830.9102,2302.9179 2832.1704,2304.6791 C 2833.4458,2306.4252 2835.1919,2307.2982 2837.4086,2307.2982 C 2839.6253,2307.2982 2841.3637,2306.4252 2842.624,2304.6791 C 2843.8993,2302.9179 2844.537,2300.4962 2844.537,2297.4141 M 2830.2802,2288.5092 C 2831.1608,2286.9909 2832.2691,2285.8674 2833.6052,2285.1386 C 2834.9565,2284.3946 2836.5659,2284.0227 2838.4334,2284.0226 C 2841.5308,2284.0227 2844.0436,2285.2525 2845.9718,2287.7121 C 2847.9152,2290.1718 2848.8869,2293.4058 2848.887,2297.4141 C 2848.8869,2301.4224 2847.9152,2304.6564 2845.9718,2307.116 C 2844.0436,2309.5757 2841.5308,2310.8055 2838.4334,2310.8055 C 2836.5659,2310.8055 2834.9565,2310.4411 2833.6052,2309.7123 C 2832.2691,2308.9683 2831.1608,2307.8372 2830.2802,2306.3189 L 2830.2802,2310.145 L 2826.0669,2310.145 L 2826.0669,2274.7078 L 2830.2802,2274.7078 L 2830.2802,2288.5092 M 2855.8332,2274.7078 L 2860.0237,2274.7078 L 2860.0237,2310.145 L 2855.8332,2310.145 L 2855.8332,2274.7078 M 2878.6533,2287.5755 C 2876.4062,2287.5755 2874.6297,2288.4561 2873.324,2290.2173 C 2872.0183,2291.9634 2871.3654,2294.3623 2871.3654,2297.4141 C 2871.3654,2300.4659 2872.0107,2302.8724 2873.3012,2304.6336 C 2874.607,2306.3796 2876.391,2307.2527 2878.6533,2307.2527 C 2880.8851,2307.2527 2882.654,2306.372 2883.9597,2304.6108 C 2885.2654,2302.8496 2885.9183,2300.4507 2885.9183,2297.4141 C 2885.9183,2294.3926 2885.2654,2292.0013 2883.9597,2290.2401 C 2882.654,2288.4637 2880.8851,2287.5755 2878.6533,2287.5755 M 2878.6533,2284.0226 C 2882.2972,2284.0227 2885.1592,2285.2069 2887.2393,2287.5755 C 2889.3193,2289.944 2890.3593,2293.2236 2890.3594,2297.4141 C 2890.3593,2301.5894 2889.3193,2304.8689 2887.2393,2307.2527 C 2885.1592,2309.6212 2882.2972,2310.8055 2878.6533,2310.8055 C 2874.9941,2310.8055 2872.1246,2309.6212 2870.0445,2307.2527 C 2867.9796,2304.8689 2866.9471,2301.5894 2866.9471,2297.4141 C 2866.9471,2293.2236 2867.9796,2289.944 2870.0445,2287.5755 C 2872.1246,2285.2069 2874.9941,2284.0227 2878.6533,2284.0226 M 2894.846,2284.6375 L 2899.0365,2284.6375 L 2904.2746,2304.5425 L 2909.49,2284.6375 L 2914.4321,2284.6375 L 2919.6702,2304.5425 L 2924.8856,2284.6375 L 2929.0761,2284.6375 L 2922.4032,2310.145 L 2917.4611,2310.145 L 2911.9724,2289.238 L 2906.461,2310.145 L 2901.5189,2310.145 L 2894.846,2284.6375 M 2951.714,2285.3891 L 2951.714,2289.3519 C 2950.5297,2288.7446 2949.2998,2288.2891 2948.0245,2287.9854 C 2946.7491,2287.6818 2945.4282,2287.5299 2944.0617,2287.5299 C 2941.9816,2287.5299 2940.4178,2287.8488 2939.3702,2288.4864 C 2938.3377,2289.1241 2937.8215,2290.0807 2937.8215,2291.356 C 2937.8215,2292.3278 2938.1935,2293.0945 2938.9375,2293.6563 C 2939.6814,2294.2029 2941.1769,2294.7267 2943.424,2295.2277 L 2944.8588,2295.5465 C 2947.8347,2296.1842 2949.9451,2297.0876 2951.1902,2298.2567 C 2952.4503,2299.4106 2953.0804,2301.0276 2953.0804,2303.1077 C 2953.0804,2305.4762 2952.1391,2307.3513 2950.2564,2308.733 C 2948.3889,2310.1147 2945.8153,2310.8055 2942.5358,2310.8055 C 2941.1693,2310.8055 2939.7421,2310.6688 2938.2542,2310.3955 C 2936.7815,2310.1374 2935.2252,2309.7427 2933.5854,2309.2113 L 2933.5854,2304.8841 C 2935.1341,2305.6888 2936.66,2306.2961 2938.1631,2306.7061 C 2939.6662,2307.1008 2941.1542,2307.2982 2942.6269,2307.2982 C 2944.6007,2307.2982 2946.119,2306.9642 2947.1818,2306.2961 C 2948.2446,2305.6129 2948.776,2304.6564 2948.7761,2303.4265 C 2948.776,2302.2878 2948.3889,2301.4148 2947.6146,2300.8075 C 2946.8554,2300.2001 2945.1777,2299.6156 2942.5814,2299.0538 L 2941.1238,2298.7122 C 2938.5275,2298.1656 2936.6524,2297.3306 2935.4985,2296.207 C 2934.3446,2295.0683 2933.7676,2293.512 2933.7676,2291.5382 C 2933.7676,2289.1393 2934.6179,2287.287 2936.3184,2285.9812 C 2938.0189,2284.6755 2940.433,2284.0227 2943.5607,2284.0226 C 2945.1093,2284.0227 2946.5669,2284.1365 2947.9334,2284.3642 C 2949.2998,2284.592 2950.56,2284.9336 2951.714,2285.3891"
     transform="matrix(0.8710751,0,-6.4536649e-2,1.1480066,0,0)"
     id="text2579"
     style="font-size:46.64224625px;font-style:normal;font-weight:normal;fill:none;fill-opacity:1;stroke:#000000;stroke-width:1;stroke-linecap:butt;stroke-linejoin:miter;stroke-miterlimit:4;stroke-dasharray:none;stroke-opacity:1;font-family:Bitstream Vera Sans" />
</svg>
