<?xml version="1.0" encoding="UTF-8" standalone="no"?>
<!-- Created with Inkscape (http://www.inkscape.org/) -->
<svg
   xmlns:svg="http://www.w3.org/2000/svg"
   xmlns="http://www.w3.org/2000/svg"
   version="1.0"
   width="50.905994"
   height="82.047058"
   id="svg2">
  <defs
     id="defs4" />
  <path
     d="M 36.852467,13.191133 C 36.852467,19.615099 32.073284,24.828754 26.184648,24.828754 C 20.296012,24.828754 15.516829,19.615099 15.516829,13.191133 C 15.516829,6.7671651 20.296012,1.5535109 26.184648,1.5535109 C 32.073284,1.5535109 36.852467,6.7671651 36.852467,13.191133 z M 10.66782,47.457462 L 15.840097,36.143107 L 24.245044,30.324297 L 34.912864,40.022315 L 47.843554,39.699048 M 26.184648,25.152021 L 24.245044,50.690134 L 25.214846,65.560428 L 8.7282156,67.823299 M 23.275243,51.013401 L 40.408407,51.659937 L 33.943062,69.439635"
     id="path2390"
     style="opacity:1;fill:none;fill-opacity:0.84659095;stroke:#000000;stroke-width:2;stroke-linejoin:round;stroke-miterlimit:4;stroke-opacity:1" />
  <path
     d="M 9.4302142,4.0057482 L 42.726741,1.7428774 M 18.481697,3.0359464 L 18.804965,-1.8130624 L 31.412387,-2.7828642 L 32.382189,2.0661446 M 19.128232,-0.19672619 L 31.08912,-1.166528 M 19.128232,1.4196101 L 31.735655,0.77307556"
     id="path2435"
     style="fill:none;fill-rule:evenodd;stroke:#000000;stroke-width:1px;stroke-linecap:butt;stroke-linejoin:miter;stroke-opacity:1" />
</svg>
