<?xml version="1.0" encoding="UTF-8" standalone="no"?>
<!-- Created with Inkscape (http://www.inkscape.org/) -->
<svg
   xmlns:svg="http://www.w3.org/2000/svg"
   xmlns="http://www.w3.org/2000/svg"
   version="1.0"
   width="50.905994"
   height="82.047058"
   id="svg2">
  <defs
     id="defs4" />
  <path
     d="M 35.559398,12.544598 C 35.559398,18.968564 30.780215,24.182219 24.891579,24.182219 C 19.002943,24.182219 14.22376,18.968564 14.22376,12.544598 C 14.22376,6.1206306 19.002943,0.9069764 24.891579,0.9069764 C 30.780215,0.9069764 35.559398,6.1206306 35.559398,12.544598 z M 36.5292,46.48766 L 30.063856,39.37578 L 24.245044,30.324297 L 18.426234,40.992117 L 19.396035,50.0436 M 24.891579,24.505486 L 24.245044,50.690134 L 32.649993,64.590626 L 36.852467,79.46092 M 23.275243,51.013401 L 21.335639,66.206964 L 13.900492,78.491118"
     id="path2390"
     style="opacity:1;fill:none;fill-opacity:0.84659095;stroke:#000000;stroke-width:2;stroke-linejoin:round;stroke-miterlimit:4;stroke-opacity:1" />
  <path
     d="M 7.9200482,3.9780161 L 41.216575,1.7151451 M 16.971531,3.0082141 L 17.294799,-1.8407939 L 29.902221,-2.8105959 L 30.872023,2.0384131 M 17.618066,-0.22445794 L 29.578954,-1.1942599 M 17.618066,1.3918781 L 30.225489,0.74534306"
     id="path2435"
     style="fill:none;fill-rule:evenodd;stroke:#000000;stroke-width:1px;stroke-linecap:butt;stroke-linejoin:miter;stroke-opacity:1" />
</svg>
