<?xml version="1.0" encoding="UTF-8" standalone="no"?>
<!-- Created with Inkscape (http://www.inkscape.org/) -->
<svg
   xmlns:svg="http://www.w3.org/2000/svg"
   xmlns="http://www.w3.org/2000/svg"
   version="1.0"
   width="600"
   height="400"
   id="svg3279">
  <defs
     id="defs3281" />
  <g
     id="layer1">
    <path
       d="M 67.250854,261.01648 L 70.012573,261.01648 L 70.012573,281.42859 L 67.250854,281.42859 L 67.250854,261.01648 M 84.422729,261.01648 L 87.184448,261.01648 L 87.184448,269.38367 L 97.219604,269.38367 L 97.219604,261.01648 L 99.981323,261.01648 L 99.981323,281.42859 L 97.219604,281.42859 L 97.219604,271.70789 L 87.184448,271.70789 L 87.184448,281.42859 L 84.422729,281.42859 L 84.422729,261.01648 M 113.76257,262.88953 C 111.75736,262.88954 110.16231,263.63694 108.97742,265.13171 C 107.80163,266.62652 107.21374,268.66363 107.21375,271.24304 C 107.21374,273.81336 107.80163,275.84591 108.97742,277.3407 C 110.16231,278.83549 111.75736,279.58289 113.76257,279.58289 C 115.76777,279.58289 117.3537,278.83549 118.52039,277.3407 C 119.69615,275.84591 120.28404,273.81336 120.28406,271.24304 C 120.28404,268.66363 119.69615,266.62652 118.52039,265.13171 C 117.3537,263.63694 115.76777,262.88954 113.76257,262.88953 M 113.76257,260.64734 C 116.62454,260.64736 118.9123,261.60895 120.62585,263.5321 C 122.33938,265.44618 123.19615,268.01649 123.19617,271.24304 C 123.19615,274.4605 122.33938,277.03081 120.62585,278.95398 C 118.9123,280.86804 116.62454,281.82507 113.76257,281.82507 C 110.89147,281.82507 108.5946,280.86804 106.87195,278.95398 C 105.1584,277.03992 104.30163,274.46961 104.30164,271.24304 C 104.30163,268.01649 105.1584,265.44618 106.87195,263.5321 C 108.5946,261.60895 110.89147,260.64736 113.76257,260.64734 M 130.2782,263.28601 L 130.2782,270.95593 L 133.75085,270.95593 C 135.036,270.95594 136.02949,270.62326 136.73132,269.95789 C 137.43313,269.29253 137.78404,268.34462 137.78406,267.11414 C 137.78404,265.8928 137.43313,264.94944 136.73132,264.28406 C 136.02949,263.61871 135.036,263.28603 133.75085,263.28601 L 130.2782,263.28601 M 127.51648,261.01648 L 133.75085,261.01648 C 136.0386,261.0165 137.76582,261.53603 138.9325,262.57507 C 140.10826,263.60504 140.69615,265.11806 140.69617,267.11414 C 140.69615,269.12847 140.10826,270.6506 138.9325,271.68054 C 137.76582,272.7105 136.0386,273.22547 133.75085,273.22546 L 130.2782,273.22546 L 130.2782,281.42859 L 127.51648,281.42859 L 127.51648,261.01648 M 144.41492,261.01648 L 157.32117,261.01648 L 157.32117,263.3407 L 147.17664,263.3407 L 147.17664,269.38367 L 156.89734,269.38367 L 156.89734,271.70789 L 147.17664,271.70789 L 147.17664,279.10437 L 157.56726,279.10437 L 157.56726,281.42859 L 144.41492,281.42859 L 144.41492,261.01648 M 168.245,261.01648 L 171.21179,261.01648 L 176.87195,269.41101 L 182.49109,261.01648 L 185.45789,261.01648 L 178.23914,271.70789 L 178.23914,281.42859 L 175.46375,281.42859 L 175.46375,271.70789 L 168.245,261.01648 M 194.91882,262.88953 C 192.91361,262.88954 191.31856,263.63694 190.13367,265.13171 C 188.95788,266.62652 188.36999,268.66363 188.37,271.24304 C 188.36999,273.81336 188.95788,275.84591 190.13367,277.3407 C 191.31856,278.83549 192.91361,279.58289 194.91882,279.58289 C 196.92402,279.58289 198.50995,278.83549 199.67664,277.3407 C 200.8524,275.84591 201.44029,273.81336 201.44031,271.24304 C 201.44029,268.66363 200.8524,266.62652 199.67664,265.13171 C 198.50995,263.63694 196.92402,262.88954 194.91882,262.88953 M 194.91882,260.64734 C 197.78079,260.64736 200.06855,261.60895 201.7821,263.5321 C 203.49563,265.44618 204.3524,268.01649 204.35242,271.24304 C 204.3524,274.4605 203.49563,277.03081 201.7821,278.95398 C 200.06855,280.86804 197.78079,281.82507 194.91882,281.82507 C 192.04772,281.82507 189.75085,280.86804 188.0282,278.95398 C 186.31465,277.03992 185.45788,274.46961 185.45789,271.24304 C 185.45788,268.01649 186.31465,265.44618 188.0282,263.5321 C 189.75085,261.60895 192.04772,260.64736 194.91882,260.64734 M 208.35828,261.01648 L 211.13367,261.01648 L 211.13367,273.41687 C 211.13366,275.60438 211.53015,277.1812 212.32312,278.14734 C 213.11608,279.10437 214.40124,279.58289 216.17859,279.58289 C 217.94681,279.58289 219.2274,279.10437 220.02039,278.14734 C 220.81334,277.1812 221.20982,275.60438 221.20984,273.41687 L 221.20984,261.01648 L 223.98523,261.01648 L 223.98523,273.75867 C 223.98521,276.42013 223.3244,278.42989 222.00281,279.78796 C 220.69029,281.14604 218.74889,281.82507 216.17859,281.82507 C 213.59915,281.82507 211.64864,281.14604 210.32703,279.78796 C 209.01452,278.42989 208.35827,276.42013 208.35828,273.75867 L 208.35828,261.01648 M 238.0946,261.01648 L 251.00085,261.01648 L 251.00085,263.3407 L 240.85632,263.3407 L 240.85632,269.38367 L 250.57703,269.38367 L 250.57703,271.70789 L 240.85632,271.70789 L 240.85632,279.10437 L 251.24695,279.10437 L 251.24695,281.42859 L 238.0946,281.42859 L 238.0946,261.01648 M 255.81335,261.01648 L 259.5321,261.01648 L 268.58289,278.09265 L 268.58289,261.01648 L 271.26257,261.01648 L 271.26257,281.42859 L 267.54382,281.42859 L 258.49304,264.35242 L 258.49304,281.42859 L 255.81335,281.42859 L 255.81335,261.01648 M 276.75867,261.01648 L 279.52039,261.01648 L 279.52039,280.00671 C 279.52038,282.46765 279.05098,284.25411 278.11218,285.36609 C 277.18249,286.47806 275.68314,287.03405 273.61414,287.03406 L 272.5614,287.03406 L 272.5614,284.70984 L 273.42273,284.70984 C 274.64408,284.70984 275.50541,284.36804 276.00671,283.68445 C 276.50801,283.00085 276.75866,281.77494 276.75867,280.00671 L 276.75867,261.01648 M 293.30164,262.88953 C 291.29642,262.88954 289.70137,263.63694 288.51648,265.13171 C 287.34069,266.62652 286.7528,268.66363 286.75281,271.24304 C 286.7528,273.81336 287.34069,275.84591 288.51648,277.3407 C 289.70137,278.83549 291.29642,279.58289 293.30164,279.58289 C 295.30683,279.58289 296.89277,278.83549 298.05945,277.3407 C 299.23521,275.84591 299.8231,273.81336 299.82312,271.24304 C 299.8231,268.66363 299.23521,266.62652 298.05945,265.13171 C 296.89277,263.63694 295.30683,262.88954 293.30164,262.88953 M 293.30164,260.64734 C 296.1636,260.64736 298.45136,261.60895 300.16492,263.5321 C 301.87844,265.44618 302.73521,268.01649 302.73523,271.24304 C 302.73521,274.4605 301.87844,277.03081 300.16492,278.95398 C 298.45136,280.86804 296.1636,281.82507 293.30164,281.82507 C 290.43053,281.82507 288.13366,280.86804 286.41101,278.95398 C 284.69747,277.03992 283.8407,274.46961 283.8407,271.24304 C 283.8407,268.01649 284.69747,265.44618 286.41101,263.5321 C 288.13366,261.60895 290.43053,260.64736 293.30164,260.64734 M 302.72156,261.01648 L 305.68835,261.01648 L 311.34851,269.41101 L 316.96765,261.01648 L 319.93445,261.01648 L 312.7157,271.70789 L 312.7157,281.42859 L 309.94031,281.42859 L 309.94031,271.70789 L 302.72156,261.01648 M 322.64148,261.01648 L 335.54773,261.01648 L 335.54773,263.3407 L 325.4032,263.3407 L 325.4032,269.38367 L 335.1239,269.38367 L 335.1239,271.70789 L 325.4032,271.70789 L 325.4032,279.10437 L 335.79382,279.10437 L 335.79382,281.42859 L 322.64148,281.42859 L 322.64148,261.01648 M 343.12195,263.28601 L 343.12195,279.15906 L 346.45789,279.15906 C 349.27428,279.15906 351.33417,278.52104 352.63757,277.245 C 353.95006,275.96896 354.60631,273.95464 354.60632,271.20203 C 354.60631,268.46766 353.95006,266.46702 352.63757,265.20007 C 351.33417,263.92405 349.27428,263.28603 346.45789,263.28601 L 343.12195,263.28601 M 340.36023,261.01648 L 346.03406,261.01648 C 349.98977,261.0165 352.89277,261.84137 354.74304,263.49109 C 356.59328,265.13173 357.51841,267.70204 357.51843,271.20203 C 357.51841,274.72026 356.58873,277.30424 354.72937,278.95398 C 352.86998,280.60372 349.97155,281.42859 346.03406,281.42859 L 340.36023,281.42859 L 340.36023,261.01648 M 367.99109,261.01648 L 385.25867,261.01648 L 385.25867,263.3407 L 378.01257,263.3407 L 378.01257,281.42859 L 375.23718,281.42859 L 375.23718,263.3407 L 367.99109,263.3407 L 367.99109,261.01648 M 387.93835,261.01648 L 390.70007,261.01648 L 390.70007,269.38367 L 400.73523,269.38367 L 400.73523,261.01648 L 403.49695,261.01648 L 403.49695,281.42859 L 400.73523,281.42859 L 400.73523,271.70789 L 390.70007,271.70789 L 390.70007,281.42859 L 387.93835,281.42859 L 387.93835,261.01648 M 408.99304,261.01648 L 421.89929,261.01648 L 421.89929,263.3407 L 411.75476,263.3407 L 411.75476,269.38367 L 421.47546,269.38367 L 421.47546,271.70789 L 411.75476,271.70789 L 411.75476,279.10437 L 422.14539,279.10437 L 422.14539,281.42859 L 408.99304,281.42859 L 408.99304,261.01648 M 438.38757,263.28601 L 438.38757,279.15906 L 441.72351,279.15906 C 444.53991,279.15906 446.5998,278.52104 447.9032,277.245 C 449.21568,275.96896 449.87193,273.95464 449.87195,271.20203 C 449.87193,268.46766 449.21568,266.46702 447.9032,265.20007 C 446.5998,263.92405 444.53991,263.28603 441.72351,263.28601 L 438.38757,263.28601 M 435.62585,261.01648 L 441.29968,261.01648 C 445.2554,261.0165 448.15839,261.84137 450.00867,263.49109 C 451.85891,265.13173 452.78404,267.70204 452.78406,271.20203 C 452.78404,274.72026 451.85435,277.30424 449.995,278.95398 C 448.1356,280.60372 445.23717,281.42859 441.29968,281.42859 L 435.62585,281.42859 L 435.62585,261.01648 M 457.17273,261.01648 L 470.07898,261.01648 L 470.07898,263.3407 L 459.93445,263.3407 L 459.93445,269.38367 L 469.65515,269.38367 L 469.65515,271.70789 L 459.93445,271.70789 L 459.93445,279.10437 L 470.32507,279.10437 L 470.32507,281.42859 L 457.17273,281.42859 L 457.17273,261.01648 M 474.89148,261.01648 L 479.00671,261.01648 L 484.2157,274.9071 L 489.45203,261.01648 L 493.56726,261.01648 L 493.56726,281.42859 L 490.8739,281.42859 L 490.8739,263.50476 L 485.61023,277.50476 L 482.83484,277.50476 L 477.57117,263.50476 L 477.57117,281.42859 L 474.89148,281.42859 L 474.89148,261.01648 M 507.34851,262.88953 C 505.34329,262.88954 503.74824,263.63694 502.56335,265.13171 C 501.38757,266.62652 500.79968,268.66363 500.79968,271.24304 C 500.79968,273.81336 501.38757,275.84591 502.56335,277.3407 C 503.74824,278.83549 505.34329,279.58289 507.34851,279.58289 C 509.35371,279.58289 510.93964,278.83549 512.10632,277.3407 C 513.28209,275.84591 513.86998,273.81336 513.87,271.24304 C 513.86998,268.66363 513.28209,266.62652 512.10632,265.13171 C 510.93964,263.63694 509.35371,262.88954 507.34851,262.88953 M 507.34851,260.64734 C 510.21048,260.64736 512.49823,261.60895 514.21179,263.5321 C 515.92531,265.44618 516.78208,268.01649 516.7821,271.24304 C 516.78208,274.4605 515.92531,277.03081 514.21179,278.95398 C 512.49823,280.86804 510.21048,281.82507 507.34851,281.82507 C 504.47741,281.82507 502.18054,280.86804 500.45789,278.95398 C 498.74434,277.03992 497.88757,274.46961 497.88757,271.24304 C 497.88757,268.01649 498.74434,265.44618 500.45789,263.5321 C 502.18054,261.60895 504.47741,260.64736 507.34851,260.64734 M 112.7782,297.58875 L 112.7782,300.50085 C 111.84849,299.63499 110.85501,298.98785 109.79773,298.55945 C 108.74954,298.13108 107.633,297.91689 106.44812,297.91687 C 104.11478,297.91689 102.32832,298.63238 101.08875,300.06335 C 99.849157,301.48524 99.229366,303.54514 99.22937,306.24304 C 99.229366,308.93185 99.849157,310.99175 101.08875,312.42273 C 102.32832,313.84461 104.11478,314.55554 106.44812,314.55554 C 107.633,314.55554 108.74954,314.34135 109.79773,313.91296 C 110.85501,313.48458 111.84849,312.83745 112.7782,311.97156 L 112.7782,314.85632 C 111.81204,315.51257 110.78665,316.00476 109.70203,316.33289 C 108.62649,316.66101 107.48717,316.82507 106.28406,316.82507 C 103.19421,316.82507 100.76061,315.88171 98.983276,313.995 C 97.20593,312.09917 96.317259,309.51518 96.317261,306.24304 C 96.317259,302.96181 97.20593,300.37782 98.983276,298.49109 C 100.76061,296.59528 103.19421,295.64736 106.28406,295.64734 C 107.5054,295.64736 108.65384,295.81142 109.72937,296.13953 C 110.81399,296.45856 111.83026,296.94163 112.7782,297.58875 M 125.35632,297.88953 C 123.35111,297.88954 121.75606,298.63694 120.57117,300.13171 C 119.39538,301.62652 118.80749,303.66363 118.8075,306.24304 C 118.80749,308.81336 119.39538,310.84591 120.57117,312.3407 C 121.75606,313.83549 123.35111,314.58289 125.35632,314.58289 C 127.36152,314.58289 128.94745,313.83549 130.11414,312.3407 C 131.2899,310.84591 131.87779,308.81336 131.87781,306.24304 C 131.87779,303.66363 131.2899,301.62652 130.11414,300.13171 C 128.94745,298.63694 127.36152,297.88954 125.35632,297.88953 M 125.35632,295.64734 C 128.21829,295.64736 130.50605,296.60895 132.2196,298.5321 C 133.93313,300.44618 134.7899,303.01649 134.78992,306.24304 C 134.7899,309.4605 133.93313,312.03081 132.2196,313.95398 C 130.50605,315.86804 128.21829,316.82507 125.35632,316.82507 C 122.48522,316.82507 120.18835,315.86804 118.4657,313.95398 C 116.75215,312.03992 115.89538,309.46961 115.89539,306.24304 C 115.89538,303.01649 116.75215,300.44618 118.4657,298.5321 C 120.18835,296.60895 122.48522,295.64736 125.35632,295.64734 M 139.11023,296.01648 L 143.22546,296.01648 L 148.43445,309.9071 L 153.67078,296.01648 L 157.78601,296.01648 L 157.78601,316.42859 L 155.09265,316.42859 L 155.09265,298.50476 L 149.82898,312.50476 L 147.05359,312.50476 L 141.78992,298.50476 L 141.78992,316.42859 L 139.11023,316.42859 L 139.11023,296.01648 M 163.2821,296.01648 L 167.39734,296.01648 L 172.60632,309.9071 L 177.84265,296.01648 L 181.95789,296.01648 L 181.95789,316.42859 L 179.26453,316.42859 L 179.26453,298.50476 L 174.00085,312.50476 L 171.22546,312.50476 L 165.96179,298.50476 L 165.96179,316.42859 L 163.2821,316.42859 L 163.2821,296.01648 M 187.45398,296.01648 L 200.36023,296.01648 L 200.36023,298.3407 L 190.2157,298.3407 L 190.2157,304.38367 L 199.9364,304.38367 L 199.9364,306.70789 L 190.2157,306.70789 L 190.2157,314.10437 L 200.60632,314.10437 L 200.60632,316.42859 L 187.45398,316.42859 L 187.45398,296.01648 M 205.17273,296.01648 L 208.89148,296.01648 L 217.94226,313.09265 L 217.94226,296.01648 L 220.62195,296.01648 L 220.62195,316.42859 L 216.9032,316.42859 L 207.85242,299.35242 L 207.85242,316.42859 L 205.17273,316.42859 L 205.17273,296.01648 M 223.28796,296.01648 L 240.55554,296.01648 L 240.55554,298.3407 L 233.30945,298.3407 L 233.30945,316.42859 L 230.53406,316.42859 L 230.53406,298.3407 L 223.28796,298.3407 L 223.28796,296.01648 M 255.47156,296.6864 L 255.47156,299.37976 C 254.42337,298.87848 253.43444,298.50478 252.50476,298.25867 C 251.57506,298.01259 250.67728,297.88954 249.8114,297.88953 C 248.30749,297.88954 247.14538,298.18121 246.32507,298.76453 C 245.51387,299.34788 245.10827,300.1773 245.10828,301.25281 C 245.10827,302.15517 245.37715,302.83876 245.91492,303.30359 C 246.46179,303.75933 247.49173,304.12847 249.00476,304.41101 L 250.67273,304.75281 C 252.73261,305.14475 254.25019,305.83745 255.22546,306.83093 C 256.20982,307.81532 256.70201,309.13693 256.70203,310.79578 C 256.70201,312.77364 256.03665,314.27299 254.70593,315.29382 C 253.38431,316.31466 251.4429,316.82507 248.88171,316.82507 C 247.91556,316.82507 246.88561,316.7157 245.79187,316.49695 C 244.70723,316.2782 243.58158,315.95463 242.41492,315.52625 L 242.41492,312.6825 C 243.53601,313.3114 244.63431,313.78536 245.70984,314.10437 C 246.78535,314.42338 247.84264,314.58289 248.88171,314.58289 C 250.45853,314.58289 251.67532,314.27299 252.5321,313.6532 C 253.38886,313.03341 253.81725,312.1493 253.81726,311.00085 C 253.81725,309.99826 253.50735,309.2144 252.88757,308.64929 C 252.27688,308.0842 251.26972,307.66037 249.86609,307.37781 L 248.18445,307.04968 C 246.12455,306.63954 244.63431,305.99696 243.71375,305.12195 C 242.79317,304.24696 242.33288,303.03016 242.33289,301.47156 C 242.33288,299.66689 242.96635,298.24501 244.23328,297.20593 C 245.50931,296.16689 247.26387,295.64736 249.49695,295.64734 C 250.45397,295.64736 251.42923,295.73395 252.42273,295.9071 C 253.41621,296.0803 254.43248,296.34007 255.47156,296.6864 M 276.745,298.73718 L 272.9989,308.89539 L 280.50476,308.89539 L 276.745,298.73718 M 275.1864,296.01648 L 278.31726,296.01648 L 286.09656,316.42859 L 283.22546,316.42859 L 281.36609,311.19226 L 272.16492,311.19226 L 270.30554,316.42859 L 267.39343,316.42859 L 275.1864,296.01648 M 298.74304,306.85828 C 299.33548,307.05881 299.9097,307.48719 300.4657,308.14343 C 301.03079,308.79969 301.59589,309.70203 302.16101,310.85046 L 304.96375,316.42859 L 301.99695,316.42859 L 299.38562,311.19226 C 298.71113,309.82508 298.05488,308.91818 297.41687,308.47156 C 296.78795,308.02495 295.92663,307.80164 294.83289,307.80164 L 291.82507,307.80164 L 291.82507,316.42859 L 289.06335,316.42859 L 289.06335,296.01648 L 295.29773,296.01648 C 297.63105,296.0165 299.37194,296.50413 300.52039,297.47937 C 301.66881,298.45465 302.24303,299.92665 302.24304,301.89539 C 302.24303,303.18056 301.94225,304.24696 301.3407,305.0946 C 300.74824,305.94227 299.88235,306.53016 298.74304,306.85828 M 291.82507,298.28601 L 291.82507,305.5321 L 295.29773,305.5321 C 296.62845,305.53212 297.63105,305.22678 298.30554,304.61609 C 298.98912,303.99631 299.33092,303.08941 299.33093,301.89539 C 299.33092,300.70139 298.98912,299.80361 298.30554,299.20203 C 297.63105,298.59137 296.62845,298.28603 295.29773,298.28601 L 291.82507,298.28601 M 308.5321,296.01648 L 321.43835,296.01648 L 321.43835,298.3407 L 311.29382,298.3407 L 311.29382,304.38367 L 321.01453,304.38367 L 321.01453,306.70789 L 311.29382,306.70789 L 311.29382,314.10437 L 321.68445,314.10437 L 321.68445,316.42859 L 308.5321,316.42859 L 308.5321,296.01648 M 333.34656,296.01648 L 336.13562,296.01648 L 340.42859,313.27039 L 344.70789,296.01648 L 347.8114,296.01648 L 352.10437,313.27039 L 356.38367,296.01648 L 359.1864,296.01648 L 354.05945,316.42859 L 350.58679,316.42859 L 346.28015,298.70984 L 341.9325,316.42859 L 338.45984,316.42859 L 333.34656,296.01648 M 362.83679,296.01648 L 375.74304,296.01648 L 375.74304,298.3407 L 365.59851,298.3407 L 365.59851,304.38367 L 375.31921,304.38367 L 375.31921,306.70789 L 365.59851,306.70789 L 365.59851,314.10437 L 375.98914,314.10437 L 375.98914,316.42859 L 362.83679,316.42859 L 362.83679,296.01648 M 380.55554,296.01648 L 383.31726,296.01648 L 383.31726,314.10437 L 393.25671,314.10437 L 393.25671,316.42859 L 380.55554,316.42859 L 380.55554,296.01648 M 411.42664,297.58875 L 411.42664,300.50085 C 410.49693,299.63499 409.50344,298.98785 408.44617,298.55945 C 407.39798,298.13108 406.28144,297.91689 405.09656,297.91687 C 402.76321,297.91689 400.97676,298.63238 399.73718,300.06335 C 398.49759,301.48524 397.8778,303.54514 397.87781,306.24304 C 397.8778,308.93185 398.49759,310.99175 399.73718,312.42273 C 400.97676,313.84461 402.76321,314.55554 405.09656,314.55554 C 406.28144,314.55554 407.39798,314.34135 408.44617,313.91296 C 409.50344,313.48458 410.49693,312.83745 411.42664,311.97156 L 411.42664,314.85632 C 410.46047,315.51257 409.43508,316.00476 408.35046,316.33289 C 407.27493,316.66101 406.13561,316.82507 404.9325,316.82507 C 401.84264,316.82507 399.40905,315.88171 397.63171,313.995 C 395.85437,312.09917 394.9657,309.51518 394.9657,306.24304 C 394.9657,302.96181 395.85437,300.37782 397.63171,298.49109 C 399.40905,296.59528 401.84264,295.64736 404.9325,295.64734 C 406.15384,295.64736 407.30227,295.81142 408.37781,296.13953 C 409.46243,296.45856 410.4787,296.94163 411.42664,297.58875 M 424.00476,297.88953 C 421.99954,297.88954 420.40449,298.63694 419.2196,300.13171 C 418.04382,301.62652 417.45593,303.66363 417.45593,306.24304 C 417.45593,308.81336 418.04382,310.84591 419.2196,312.3407 C 420.40449,313.83549 421.99954,314.58289 424.00476,314.58289 C 426.00996,314.58289 427.59589,313.83549 428.76257,312.3407 C 429.93834,310.84591 430.52623,308.81336 430.52625,306.24304 C 430.52623,303.66363 429.93834,301.62652 428.76257,300.13171 C 427.59589,298.63694 426.00996,297.88954 424.00476,297.88953 M 424.00476,295.64734 C 426.86673,295.64736 429.15448,296.60895 430.86804,298.5321 C 432.58156,300.44618 433.43833,303.01649 433.43835,306.24304 C 433.43833,309.4605 432.58156,312.03081 430.86804,313.95398 C 429.15448,315.86804 426.86673,316.82507 424.00476,316.82507 C 421.13366,316.82507 418.83679,315.86804 417.11414,313.95398 C 415.40059,312.03992 414.54382,309.46961 414.54382,306.24304 C 414.54382,303.01649 415.40059,300.44618 417.11414,298.5321 C 418.83679,296.60895 421.13366,295.64736 424.00476,295.64734 M 437.75867,296.01648 L 441.8739,296.01648 L 447.08289,309.9071 L 452.31921,296.01648 L 456.43445,296.01648 L 456.43445,316.42859 L 453.74109,316.42859 L 453.74109,298.50476 L 448.47742,312.50476 L 445.70203,312.50476 L 440.43835,298.50476 L 440.43835,316.42859 L 437.75867,316.42859 L 437.75867,296.01648 M 461.93054,296.01648 L 474.83679,296.01648 L 474.83679,298.3407 L 464.69226,298.3407 L 464.69226,304.38367 L 474.41296,304.38367 L 474.41296,306.70789 L 464.69226,306.70789 L 464.69226,314.10437 L 475.08289,314.10437 L 475.08289,316.42859 L 461.93054,316.42859 L 461.93054,296.01648 M 481.12585,312.95593 L 483.90125,312.95593 L 483.90125,316.42859 L 481.12585,316.42859 L 481.12585,312.95593 M 481.12585,296.01648 L 483.90125,296.01648 L 483.90125,304.97156 L 483.62781,309.85242 L 481.41296,309.85242 L 481.12585,304.97156 L 481.12585,296.01648 M 187.63171,342.1864 L 187.63171,351.42859 L 185.11609,351.42859 L 185.11609,342.26843 C 185.11608,340.81922 184.83352,339.73459 184.26843,339.01453 C 183.70332,338.29449 182.85566,337.93446 181.72546,337.93445 C 180.36738,337.93446 179.29642,338.3674 178.51257,339.23328 C 177.72871,340.09917 177.33679,341.27951 177.33679,342.77429 L 177.33679,351.42859 L 174.8075,351.42859 L 174.8075,330.15515 L 177.33679,330.15515 L 177.33679,338.495 C 177.93835,337.57444 178.64473,336.88629 179.45593,336.43054 C 180.27624,335.97483 181.2196,335.74696 182.28601,335.74695 C 184.04511,335.74696 185.37584,336.29384 186.2782,337.38757 C 187.18053,338.47222 187.6317,340.07183 187.63171,342.1864 M 195.16492,331.76843 L 195.16492,336.11609 L 200.34656,336.11609 L 200.34656,338.07117 L 195.16492,338.07117 L 195.16492,346.38367 C 195.16491,347.63237 195.33353,348.43445 195.67078,348.78992 C 196.01712,349.14539 196.71439,349.32312 197.76257,349.32312 L 200.34656,349.32312 L 200.34656,351.42859 L 197.76257,351.42859 C 195.82116,351.42859 194.48132,351.06856 193.74304,350.34851 C 193.00476,349.61935 192.63562,348.29773 192.63562,346.38367 L 192.63562,338.07117 L 190.78992,338.07117 L 190.78992,336.11609 L 192.63562,336.11609 L 192.63562,331.76843 L 195.16492,331.76843 M 206.1571,331.76843 L 206.1571,336.11609 L 211.33875,336.11609 L 211.33875,338.07117 L 206.1571,338.07117 L 206.1571,346.38367 C 206.1571,347.63237 206.32572,348.43445 206.66296,348.78992 C 207.00931,349.14539 207.70658,349.32312 208.75476,349.32312 L 211.33875,349.32312 L 211.33875,351.42859 L 208.75476,351.42859 C 206.81335,351.42859 205.47351,351.06856 204.73523,350.34851 C 203.99695,349.61935 203.62781,348.29773 203.62781,346.38367 L 203.62781,338.07117 L 201.7821,338.07117 L 201.7821,336.11609 L 203.62781,336.11609 L 203.62781,331.76843 L 206.1571,331.76843 M 217.0946,349.13171 L 217.0946,357.25281 L 214.56531,357.25281 L 214.56531,336.11609 L 217.0946,336.11609 L 217.0946,338.44031 C 217.62324,337.52886 218.28861,336.85438 219.0907,336.41687 C 219.90189,335.97027 220.86803,335.74696 221.98914,335.74695 C 223.8485,335.74696 225.35696,336.48524 226.51453,337.96179 C 227.68118,339.43837 228.26451,341.37977 228.26453,343.78601 C 228.26451,346.19227 227.68118,348.13367 226.51453,349.61023 C 225.35696,351.08679 223.8485,351.82507 221.98914,351.82507 C 220.86803,351.82507 219.90189,351.60632 219.0907,351.16882 C 218.28861,350.72221 217.62324,350.04317 217.0946,349.13171 M 225.6532,343.78601 C 225.65318,341.93576 225.27037,340.48654 224.50476,339.43835 C 223.74824,338.38108 222.70462,337.85243 221.3739,337.85242 C 220.04316,337.85243 218.99499,338.38108 218.22937,339.43835 C 217.47285,340.48654 217.0946,341.93576 217.0946,343.78601 C 217.0946,345.63628 217.47285,347.09005 218.22937,348.14734 C 218.99499,349.19552 220.04316,349.71961 221.3739,349.7196 C 222.70462,349.71961 223.74824,349.19552 224.50476,348.14734 C 225.27037,347.09005 225.65318,345.63628 225.6532,343.78601 M 233.07703,347.95593 L 235.96179,347.95593 L 235.96179,351.42859 L 233.07703,351.42859 L 233.07703,347.95593 M 233.07703,336.95007 L 235.96179,336.95007 L 235.96179,340.42273 L 233.07703,340.42273 L 233.07703,336.95007 M 246.36609,331.01648 L 248.69031,331.01648 L 241.58093,354.02625 L 239.25671,354.02625 L 246.36609,331.01648 M 255.82703,331.01648 L 258.15125,331.01648 L 251.04187,354.02625 L 248.71765,354.02625 L 255.82703,331.01648 M 260.81726,336.11609 L 263.33289,336.11609 L 263.33289,351.70203 C 263.33288,353.65254 262.95918,355.0653 262.21179,355.94031 C 261.47351,356.8153 260.2795,357.2528 258.62976,357.25281 L 257.67273,357.25281 L 257.67273,355.12 L 258.34265,355.12 C 259.29968,355.11999 259.95137,354.89668 260.29773,354.45007 C 260.64408,354.01257 260.81726,353.09656 260.81726,351.70203 L 260.81726,336.11609 M 260.81726,330.15515 L 263.33289,330.15515 L 263.33289,333.3407 L 260.81726,333.3407 L 260.81726,330.15515 M 266.7782,336.11609 L 269.44421,336.11609 L 274.22937,348.96765 L 279.01453,336.11609 L 281.68054,336.11609 L 275.93835,351.42859 L 272.52039,351.42859 L 266.7782,336.11609 M 295.22937,343.5946 C 295.22936,341.7717 294.8511,340.35894 294.0946,339.35632 C 293.3472,338.35373 292.29446,337.85243 290.9364,337.85242 C 289.58744,337.85243 288.5347,338.35373 287.7782,339.35632 C 287.0308,340.35894 286.6571,341.7717 286.6571,343.5946 C 286.6571,345.40841 287.0308,346.81661 287.7782,347.81921 C 288.5347,348.82182 289.58744,349.32312 290.9364,349.32312 C 292.29446,349.32312 293.3472,348.82182 294.0946,347.81921 C 294.8511,346.81661 295.22936,345.40841 295.22937,343.5946 M 297.745,349.5282 C 297.74498,352.13497 297.1662,354.07182 296.00867,355.33875 C 294.8511,356.61478 293.07832,357.2528 290.69031,357.25281 C 289.80619,357.2528 288.9722,357.18444 288.18835,357.04773 C 287.4045,356.92012 286.64343,356.7196 285.90515,356.44617 L 285.90515,353.9989 C 286.64343,354.39994 287.37259,354.69616 288.09265,354.88757 C 288.8127,355.07898 289.54642,355.17468 290.29382,355.17468 C 291.94355,355.17468 293.17858,354.74174 293.9989,353.87585 C 294.8192,353.01908 295.22936,351.72026 295.22937,349.97937 L 295.22937,348.73523 C 294.70983,349.63758 294.04446,350.31205 293.23328,350.75867 C 292.42207,351.20528 291.45137,351.42859 290.32117,351.42859 C 288.44356,351.42859 286.93054,350.71309 285.7821,349.2821 C 284.63366,347.85112 284.05945,345.95529 284.05945,343.5946 C 284.05945,341.22482 284.63366,339.32443 285.7821,337.89343 C 286.93054,336.46246 288.44356,335.74696 290.32117,335.74695 C 291.45137,335.74696 292.42207,335.97027 293.23328,336.41687 C 294.04446,336.8635 294.70983,337.53798 295.22937,338.44031 L 295.22937,336.11609 L 297.745,336.11609 L 297.745,349.5282 M 312.68835,336.56726 L 312.68835,338.94617 C 311.97741,338.5816 311.23912,338.30816 310.47351,338.12585 C 309.70788,337.94358 308.91491,337.85243 308.0946,337.85242 C 306.8459,337.85243 305.9071,338.04384 305.2782,338.42664 C 304.6584,338.80946 304.34851,339.38368 304.34851,340.14929 C 304.34851,340.73264 304.57181,341.19292 305.01843,341.53015 C 305.46504,341.85829 306.36283,342.17274 307.71179,342.47351 L 308.57312,342.66492 C 310.35957,343.04774 311.62649,343.59006 312.3739,344.29187 C 313.1304,344.98458 313.50865,345.95529 313.50867,347.20398 C 313.50865,348.62586 312.94355,349.75151 311.81335,350.58093 C 310.69225,351.41036 309.14733,351.82507 307.17859,351.82507 C 306.35827,351.82507 305.5015,351.74304 304.60828,351.57898 C 303.72416,351.42403 302.78991,351.18705 301.80554,350.86804 L 301.80554,348.27039 C 302.73523,348.75346 303.65124,349.11804 304.55359,349.36414 C 305.45593,349.60112 306.34916,349.71961 307.23328,349.7196 C 308.41816,349.71961 309.32962,349.51909 309.96765,349.11804 C 310.60566,348.70789 310.92467,348.13367 310.92468,347.39539 C 310.92467,346.7118 310.69225,346.18771 310.22742,345.82312 C 309.77168,345.45854 308.76452,345.10763 307.20593,344.77039 L 306.33093,344.56531 C 304.77233,344.23719 303.64668,343.73589 302.95398,343.0614 C 302.26127,342.37782 301.91492,341.44357 301.91492,340.25867 C 301.91492,338.81858 302.42533,337.7066 303.44617,336.92273 C 304.467,336.13889 305.91621,335.74696 307.79382,335.74695 C 308.7235,335.74696 309.5985,335.81532 310.41882,335.95203 C 311.23912,336.08876 311.99563,336.29384 312.68835,336.56726 M 317.88367,347.95593 L 320.76843,347.95593 L 320.76843,351.42859 L 317.88367,351.42859 L 317.88367,347.95593 M 336.20398,336.56726 L 336.20398,338.94617 C 335.49303,338.5816 334.75475,338.30816 333.98914,338.12585 C 333.2235,337.94358 332.43053,337.85243 331.61023,337.85242 C 330.36153,337.85243 329.42272,338.04384 328.79382,338.42664 C 328.17403,338.80946 327.86413,339.38368 327.86414,340.14929 C 327.86413,340.73264 328.08744,341.19292 328.53406,341.53015 C 328.98067,341.85829 329.87845,342.17274 331.22742,342.47351 L 332.08875,342.66492 C 333.87519,343.04774 335.14212,343.59006 335.88953,344.29187 C 336.64602,344.98458 337.02428,345.95529 337.02429,347.20398 C 337.02428,348.62586 336.45918,349.75151 335.32898,350.58093 C 334.20788,351.41036 332.66296,351.82507 330.69421,351.82507 C 329.8739,351.82507 329.01713,351.74304 328.1239,351.57898 C 327.23978,351.42403 326.30554,351.18705 325.32117,350.86804 L 325.32117,348.27039 C 326.25085,348.75346 327.16687,349.11804 328.06921,349.36414 C 328.97155,349.60112 329.86478,349.71961 330.7489,349.7196 C 331.93379,349.71961 332.84525,349.51909 333.48328,349.11804 C 334.12129,348.70789 334.4403,348.13367 334.44031,347.39539 C 334.4403,346.7118 334.20788,346.18771 333.74304,345.82312 C 333.2873,345.45854 332.28014,345.10763 330.72156,344.77039 L 329.84656,344.56531 C 328.28796,344.23719 327.16231,343.73589 326.4696,343.0614 C 325.77689,342.37782 325.43054,341.44357 325.43054,340.25867 C 325.43054,338.81858 325.94096,337.7066 326.96179,336.92273 C 327.98262,336.13889 329.43184,335.74696 331.30945,335.74695 C 332.23913,335.74696 333.11413,335.81532 333.93445,335.95203 C 334.75475,336.08876 335.51126,336.29384 336.20398,336.56726 M 348.79578,330.15515 L 348.79578,332.24695 L 346.38953,332.24695 C 345.48718,332.24697 344.85827,332.42926 344.50281,332.79382 C 344.15645,333.15842 343.98327,333.81467 343.98328,334.76257 L 343.98328,336.11609 L 348.12585,336.11609 L 348.12585,338.07117 L 343.98328,338.07117 L 343.98328,351.42859 L 341.45398,351.42859 L 341.45398,338.07117 L 339.04773,338.07117 L 339.04773,336.11609 L 341.45398,336.11609 L 341.45398,335.04968 C 341.45398,333.34527 341.85046,332.10569 342.64343,331.33093 C 343.4364,330.5471 344.69421,330.15517 346.41687,330.15515 L 348.79578,330.15515 M 349.2196,347.95593 L 352.10437,347.95593 L 352.10437,351.42859 L 349.2196,351.42859 L 349.2196,347.95593 M 370.50671,342.1864 L 370.50671,351.42859 L 367.99109,351.42859 L 367.99109,342.26843 C 367.99108,340.81922 367.70852,339.73459 367.14343,339.01453 C 366.57832,338.29449 365.73066,337.93446 364.60046,337.93445 C 363.24238,337.93446 362.17142,338.3674 361.38757,339.23328 C 360.60371,340.09917 360.21179,341.27951 360.21179,342.77429 L 360.21179,351.42859 L 357.6825,351.42859 L 357.6825,336.11609 L 360.21179,336.11609 L 360.21179,338.495 C 360.81335,337.57444 361.51973,336.88629 362.33093,336.43054 C 363.15124,335.97483 364.0946,335.74696 365.16101,335.74695 C 366.92011,335.74696 368.25084,336.29384 369.1532,337.38757 C 370.05553,338.47222 370.5067,340.07183 370.50671,342.1864 M 388.64929,343.14343 L 388.64929,344.3739 L 377.08289,344.3739 C 377.19226,346.10568 377.71179,347.42729 378.64148,348.33875 C 379.58027,349.24109 380.88366,349.69226 382.55164,349.69226 C 383.51777,349.69226 384.45201,349.57377 385.35437,349.33679 C 386.26582,349.09982 387.16816,348.74435 388.0614,348.27039 L 388.0614,350.64929 C 387.15904,351.0321 386.23391,351.32377 385.28601,351.52429 C 384.33808,351.72481 383.3765,351.82507 382.40125,351.82507 C 379.95853,351.82507 378.02168,351.11414 376.5907,349.69226 C 375.16882,348.27039 374.45788,346.34721 374.45789,343.92273 C 374.45788,341.41623 375.13236,339.42925 376.48132,337.96179 C 377.83939,336.48524 379.66686,335.74696 381.96375,335.74695 C 384.02363,335.74696 385.65058,336.41233 386.8446,337.74304 C 388.04771,339.06467 388.64928,340.8648 388.64929,343.14343 M 386.13367,342.40515 C 386.11542,341.02886 385.72806,339.93055 384.97156,339.11023 C 384.22415,338.28993 383.23066,337.87977 381.99109,337.87976 C 380.58744,337.87977 379.46179,338.27626 378.61414,339.06921 C 377.77559,339.86219 377.29252,340.97873 377.16492,342.41882 L 386.13367,342.40515 M 395.26648,331.76843 L 395.26648,336.11609 L 400.44812,336.11609 L 400.44812,338.07117 L 395.26648,338.07117 L 395.26648,346.38367 C 395.26647,347.63237 395.43509,348.43445 395.77234,348.78992 C 396.11869,349.14539 396.81595,349.32312 397.86414,349.32312 L 400.44812,349.32312 L 400.44812,351.42859 L 397.86414,351.42859 C 395.92272,351.42859 394.58288,351.06856 393.8446,350.34851 C 393.10632,349.61935 392.73718,348.29773 392.73718,346.38367 L 392.73718,338.07117 L 390.89148,338.07117 L 390.89148,336.11609 L 392.73718,336.11609 L 392.73718,331.76843 L 395.26648,331.76843 M 408.24109,331.01648 L 410.56531,331.01648 L 403.45593,354.02625 L 401.13171,354.02625 L 408.24109,331.01648"
       id="text3289"
       style="font-size:28px;font-style:normal;font-weight:normal;text-align:center;text-anchor:middle;fill:#000000;fill-opacity:1;stroke:none;stroke-width:1px;stroke-linecap:butt;stroke-linejoin:miter;stroke-opacity:1;font-family:Bitstream Vera Sans" />
    <text
       x="165.71429"
       y="254.28571"
       id="text3293"
       xml:space="preserve"
       style="font-size:40px;font-style:normal;font-weight:normal;fill:#000000;fill-opacity:1;stroke:none;stroke-width:1px;stroke-linecap:butt;stroke-linejoin:miter;stroke-opacity:1;font-family:Bitstream Vera Sans"><tspan
         x="165.71429"
         y="254.28571"
         id="tspan3295" /></text>
  </g>
</svg>
