<?xml version="1.0" encoding="UTF-8" standalone="no"?>
<!-- Created with Inkscape (http://www.inkscape.org/) -->
<svg
   xmlns:svg="http://www.w3.org/2000/svg"
   xmlns="http://www.w3.org/2000/svg"
   version="1.0"
   width="404"
   height="350"
   id="svg2">
  <defs
     id="defs4" />
  <g
     id="layer1">
    <path
       d="M 12.857143,263.79075 C 22.042627,250.6702 375.71429,239.50504 382.85714,259.50504 C 390,279.50504 380,308.07647 368.57143,319.50504 C 357.14286,330.93361 352.85714,285.21933 350,285.21933 C 347.14286,285.21933 345.71429,316.6479 334.28571,320.93361 C 322.85714,325.21933 314.28571,283.79075 314.28571,283.79075 C 314.28571,283.79075 317.14286,316.6479 305.71429,316.6479 C 294.28571,316.6479 281.42857,282.36218 281.42857,282.36218 C 281.42857,282.36218 281.67368,328.85384 261.67368,325.99669 C 241.67368,323.13955 247.14286,300.93361 247.14286,300.93361 C 247.14286,300.93361 253.10225,333.13955 233.10225,331.71098 C 213.10225,330.28241 220,289.50504 220,289.50504 C 220,289.50504 207.38796,334.56812 190.2451,334.56812 C 173.10225,334.56812 174.28571,289.50504 174.28571,289.50504 C 174.28571,289.50504 165.71429,329.50504 150,330.93361 C 134.28571,332.36218 128.57143,292.36218 128.57143,292.36218 C 128.57143,292.36218 122.85714,332.36218 110,330.93361 C 97.142857,329.50504 97.142857,292.36218 97.142857,292.36218 C 97.142857,292.36218 102.85714,329.50504 85.714286,330.93361 C 68.571429,332.36218 67.142857,286.6479 67.142857,286.6479 C 67.142857,286.6479 72.857143,325.21933 60,326.6479 C 47.142857,328.07647 40,279.50504 40,279.50504 C 40,279.50504 51.428571,325.21933 31.428571,320.93361 C 11.428571,316.6479 5.350956,274.51259 12.857143,263.79075 z"
       id="path2443"
       style="fill:none;fill-rule:evenodd;stroke:#000000;stroke-width:1px;stroke-linecap:butt;stroke-linejoin:miter;stroke-opacity:1" />
    <path
       d="M 36.987033,-0.96823002 L 49.730657,-0.96823002 L 65.861292,42.046794 L 82.076601,-0.96823002 L 94.820225,-0.96823002 L 94.820225,62.24184 L 86.479714,62.24184 L 86.479714,6.7372173 L 70.179729,50.090943 L 61.585192,50.090943 L 45.285207,6.7372173 L 45.285207,62.24184 L 36.987033,62.24184 L 36.987033,-0.96823002 M 111.83995,-0.96823002 L 151.80666,-0.96823002 L 151.80666,6.2291658 L 120.39215,6.2291658 L 120.39215,24.942395 L 150.4942,24.942395 L 150.4942,32.139791 L 120.39215,32.139791 L 120.39215,55.044445 L 152.56874,55.044445 L 152.56874,62.24184 L 111.83995,62.24184 L 111.83995,-0.96823002 M 166.70951,-0.96823002 L 178.22534,-0.96823002 L 206.25285,51.91146 L 206.25285,-0.96823002 L 214.55102,-0.96823002 L 214.55102,62.24184 L 203.03519,62.24184 L 175.00768,9.3621499 L 175.00768,62.24184 L 166.70951,62.24184 L 166.70951,-0.96823002 M 230.59698,-0.96823002 L 239.19151,-0.96823002 L 239.19151,37.431994 C 239.1915,44.206031 240.41929,49.088965 242.87489,52.080811 C 245.33045,55.044452 249.31018,56.526267 254.8141,56.526261 C 260.28973,56.526267 264.25535,55.044452 266.71097,52.080811 C 269.16651,49.088965 270.3943,44.206031 270.39434,37.431994 L 270.39434,-0.96823002 L 278.98888,-0.96823002 L 278.98888,38.490434 C 278.98882,46.732173 276.94251,52.955798 272.84992,57.161326 C 268.78547,61.366864 262.77353,63.46963 254.8141,63.469631 C 246.82638,63.46963 240.78621,61.366864 236.6936,57.161326 C 232.62917,52.955798 230.59697,46.732173 230.59698,38.490434 L 230.59698,-0.96823002"
       transform="matrix(1.0742503,0.2821475,-0.3627239,0.8356137,0,0)"
       id="text2445"
       style="font-size:86.70745087px;font-style:normal;font-weight:normal;fill:#000000;fill-opacity:1;stroke:none;stroke-width:1px;stroke-linecap:butt;stroke-linejoin:miter;stroke-opacity:1;font-family:Bitstream Vera Sans" />
    <path
       d="M 69.398682,68.062332 C 69.398676,70.70557 69.93904,72.78239 71.019775,74.292801 C 72.113517,75.7902 73.610911,76.538897 75.511963,76.538895 C 77.412991,76.538897 78.910385,75.7902 80.00415,74.292801 C 81.097883,72.78239 81.644757,70.70557 81.644775,68.062332 C 81.644757,65.419117 81.097883,63.348806 80.00415,61.851395 C 78.910385,60.340997 77.412991,59.585789 75.511963,59.58577 C 73.610911,59.585789 72.113517,60.340997 71.019775,61.851395 C 69.93904,63.348806 69.398676,65.419117 69.398682,68.062332 M 81.644775,75.699051 C 80.88955,77.001136 79.932519,77.971187 78.773682,78.609207 C 77.627834,79.234207 76.247627,79.546707 74.633057,79.546707 C 71.989819,79.546707 69.834873,78.49202 68.168213,76.382645 C 66.514564,74.273274 65.687742,71.49984 65.687744,68.062332 C 65.687742,64.624847 66.514564,61.851412 68.168213,59.74202 C 69.834873,57.632666 71.989819,56.57798 74.633057,56.577957 C 76.247627,56.57798 77.627834,56.89699 78.773682,57.534988 C 79.932519,58.160009 80.88955,59.12355 81.644775,60.425613 L 81.644775,57.105301 L 85.238525,57.105301 L 85.238525,87.300613 L 81.644775,87.300613 L 81.644775,75.699051 M 92.3479,49.820145 L 96.312744,49.820145 L 96.312744,67.534988 C 96.312737,70.659997 96.879142,72.912599 98.011963,74.292801 C 99.144765,75.659992 100.9807,76.343585 103.51978,76.343582 C 106.0458,76.343585 107.87523,75.659992 109.00806,74.292801 C 110.14085,72.912599 110.70725,70.659997 110.70728,67.534988 L 110.70728,49.820145 L 114.67212,49.820145 L 114.67212,68.02327 C 114.67209,71.82536 113.72808,74.696451 111.84009,76.636551 C 109.96507,78.576655 107.19163,79.546707 103.51978,79.546707 C 99.834869,79.546707 97.048413,78.576655 95.1604,76.636551 C 93.285396,74.696451 92.347897,71.82536 92.3479,68.02327 L 92.3479,49.820145 M 122.09399,49.820145 L 126.03931,49.820145 L 126.03931,78.980301 L 122.09399,78.980301 L 122.09399,49.820145 M 129.8479,49.820145 L 154.51587,49.820145 L 154.51587,53.140457 L 144.16431,53.140457 L 144.16431,78.980301 L 140.19946,78.980301 L 140.19946,53.140457 L 129.8479,53.140457 L 129.8479,49.820145"
       transform="matrix(0.8466013,0.5322276,-0.5322276,0.8466013,0,0)"
       id="text2449"
       style="font-size:40px;font-style:normal;font-weight:normal;fill:#000000;fill-opacity:1;stroke:none;stroke-width:1px;stroke-linecap:butt;stroke-linejoin:miter;stroke-opacity:1;font-family:Bitstream Vera Sans" />
    <path
       d="M 179.93546,248.29509 L 179.93546,261.12291 L 185.74342,261.12291 C 187.89281,261.12292 189.5544,260.56652 190.7282,259.45369 C 191.90197,258.3409 192.48886,256.75553 192.48888,254.69757 C 192.48886,252.6549 191.90197,251.07715 190.7282,249.96431 C 189.5544,248.85153 187.89281,248.29512 185.74342,248.29509 L 179.93546,248.29509 M 175.31654,244.49934 L 185.74342,244.49934 C 189.56964,244.49937 192.45837,245.36828 194.40963,247.10606 C 196.37607,248.82866 197.35931,251.35916 197.35934,254.69757 C 197.35931,258.06651 196.37607,260.61225 194.40963,262.3348 C 192.45837,264.05739 189.56964,264.91867 185.74342,264.91866 L 179.93546,264.91866 L 179.93546,278.63824 L 175.31654,278.63824 L 175.31654,244.49934 M 203.57888,244.49934 L 208.19781,244.49934 L 208.19781,274.75103 L 224.82138,274.75103 L 224.82138,278.63824 L 203.57888,278.63824 L 203.57888,244.49934 M 241.10195,265.7647 C 237.70253,265.76471 235.34733,266.15343 234.03636,266.93086 C 232.72537,267.70832 232.06988,269.03454 232.06989,270.90954 C 232.06988,272.40346 232.55769,273.59249 233.53331,274.47664 C 234.52416,275.34555 235.86563,275.78 237.55772,275.78 C 239.89004,275.78 241.75742,274.95683 243.15989,273.31047 C 244.57756,271.64888 245.2864,269.44613 245.28642,266.7022 L 245.28642,265.7647 L 241.10195,265.7647 M 249.49376,264.02689 L 249.49376,278.63824 L 245.28642,278.63824 L 245.28642,274.75103 C 244.32603,276.30592 243.12938,277.45684 241.69646,278.20379 C 240.26352,278.9355 238.51046,279.30136 236.43729,279.30136 C 233.81532,279.30136 231.72689,278.56965 230.17201,277.10622 C 228.63237,275.62756 227.86255,273.65347 227.86255,271.18394 C 227.86255,268.30283 228.82292,266.13057 230.74366,264.66713 C 232.67964,263.20373 235.56075,262.47201 239.387,262.472 L 245.28642,262.472 L 245.28642,262.06041 C 245.2864,260.12444 244.64616,258.63053 243.36568,257.57868 C 242.10041,256.51162 240.31687,255.97808 238.01504,255.97806 C 236.55161,255.97808 235.1263,256.15339 233.7391,256.50398 C 232.35189,256.85461 231.01805,257.38053 229.73756,258.08173 L 229.73756,254.19452 C 231.2772,253.60002 232.7711,253.15795 234.21929,252.86829 C 235.66746,252.56343 237.07753,252.411 238.4495,252.41097 C 242.15377,252.411 244.92055,253.37137 246.74985,255.29208 C 248.5791,257.21285 249.49374,260.12444 249.49376,264.02689 M 268.83838,281.01631 C 267.64933,284.0651 266.49079,286.05444 265.36275,286.98433 C 264.23468,287.9142 262.72553,288.37914 260.83529,288.37915 L 257.47399,288.37915 L 257.47399,284.85779 L 259.94351,284.85779 C 261.10205,284.85778 262.00144,284.58339 262.6417,284.03462 C 263.28194,283.48583 263.99078,282.19009 264.76823,280.1474 L 265.52281,278.22666 L 255.16452,253.02835 L 259.62339,253.02835 L 267.62648,273.05895 L 275.62957,253.02835 L 280.08844,253.02835 L 268.83838,281.01631"
       transform="matrix(0.8377826,-0.5376587,0.5262969,0.8558687,0,0)"
       id="text2453"
       style="font-size:46.82952118px;font-style:normal;font-weight:normal;fill:#000000;fill-opacity:1;stroke:none;stroke-width:1px;stroke-linecap:butt;stroke-linejoin:miter;stroke-opacity:1;font-family:Bitstream Vera Sans" />
    <rect
       width="68.690376"
       height="94.954338"
       x="290.92392"
       y="149.98981"
       id="rect2500"
       style="opacity:1;fill:none;fill-opacity:0.84659095;stroke:#000000;stroke-width:2;stroke-linejoin:round;stroke-miterlimit:4;stroke-dasharray:none;stroke-opacity:1" />
    <path
       d="M 237.32703,48.386567 L 234.57101,48.386567 C 232.1586,48.386561 230.18801,47.720348 228.65924,46.387926 C 227.11642,45.055495 226.34502,43.316329 226.34503,41.17042 C 226.34502,40.427068 226.43618,39.52242 226.61852,38.456476 L 227.06033,35.910838 C 227.17252,35.251644 227.22862,34.620495 227.22864,34.017388 C 227.22862,31.310467 225.63673,29.957003 222.45293,29.956991 L 220.09664,29.956991 L 220.09664,27.369276 L 222.45293,27.369276 C 225.63673,27.369291 227.22862,25.987775 227.22864,23.224725 C 227.22862,22.677748 227.17252,22.07465 227.06033,21.415429 L 226.61852,18.869791 C 226.43618,17.803874 226.34502,16.864162 226.34503,16.050655 C 226.34502,13.960876 227.12343,12.24976 228.68028,10.917303 C 230.22308,9.5989333 232.18665,8.939733 234.57101,8.9396998 L 237.32703,8.9396998 L 237.32703,11.527414 L 236.08577,11.527414 C 232.18665,11.527445 230.2371,12.979088 230.23712,15.882348 C 230.2371,16.443396 230.2932,17.046494 230.40542,17.691645 L 230.86827,20.321436 C 230.98046,20.966633 231.03656,21.555705 231.03657,22.088656 C 231.03656,23.89797 230.48956,25.419741 229.39558,26.653973 C 228.7504,27.369291 227.82471,28.035504 226.61852,28.652614 C 227.93691,29.325854 228.92571,30.069207 229.58493,30.882677 C 230.53865,32.074859 231.01552,33.547541 231.01553,35.300726 C 231.01552,35.87578 230.96643,36.443815 230.86827,37.004831 L 230.40542,39.634622 C 230.2932,40.279799 230.2371,40.917961 230.23712,41.54911 C 230.2371,44.38227 232.18665,45.798849 236.08577,45.798853 L 237.32703,45.798853 L 237.32703,48.386567 M 242.62869,42.159222 L 242.62869,39.571507 L 244.18553,39.571507 L 244.18553,21.920349 L 242.62869,21.920349 L 242.62869,19.311596 L 247.95139,19.311596 L 247.95139,23.66653 C 248.89109,21.843229 249.6625,20.608981 250.26561,19.963784 C 250.99493,19.192402 251.89256,18.8067 252.95851,18.806676 C 254.36105,18.8067 255.38492,19.458887 256.03011,20.763241 C 256.36671,21.436488 256.61215,22.40425 256.76645,23.66653 C 257.35551,22.207893 257.97964,21.113901 258.63886,20.384551 C 259.56453,19.332657 260.65852,18.8067 261.92084,18.806676 C 264.5436,18.8067 265.85498,20.721186 265.85501,24.55014 L 265.85501,39.571507 L 267.41184,39.571507 L 267.41184,42.159222 L 262.08915,42.159222 L 262.08915,26.338398 C 262.08913,23.477204 261.6333,22.046599 260.72166,22.046579 C 260.04841,22.046599 259.29804,22.649697 258.47055,23.855875 C 258.03575,24.487043 257.69913,25.097154 257.46071,25.68621 C 257.09603,26.597886 256.9137,27.243061 256.91372,27.621736 L 256.91372,39.571507 L 258.47055,39.571507 L 258.47055,42.159222 L 253.14786,42.159222 L 253.14786,25.370635 C 253.14785,23.154617 252.685,22.046599 251.75933,22.046579 C 250.5391,22.046599 249.26978,23.904983 247.95139,27.621736 L 247.95139,39.571507 L 249.50823,39.571507 L 249.50823,42.159222 L 242.62869,42.159222 M 285.46273,39.65566 C 283.03629,41.675341 280.57481,42.685179 278.07828,42.68518 C 275.93236,42.685179 274.22124,42.082081 272.94492,40.875884 C 271.66859,39.683714 271.03043,38.056752 271.03044,35.994991 C 271.03043,33.330145 272.02625,31.394621 274.01788,30.188412 C 276.0095,28.996253 279.22836,28.400168 283.67447,28.400154 L 285.46273,28.400154 L 285.46273,24.865715 C 285.46271,22.551518 284.03211,21.394411 281.17091,21.394391 C 279.72627,21.394411 277.92399,21.801152 275.76406,22.614614 L 275.2381,25.286482 L 272.65039,25.286482 L 272.65039,20.742202 C 275.86223,19.437849 279.13719,18.785661 282.47529,18.785638 C 285.1261,18.785661 286.97747,19.241491 288.02941,20.153129 C 289.0813,21.078837 289.60726,22.670735 289.60728,24.92883 L 289.60728,39.571507 L 292.46849,39.571507 L 292.46849,42.159222 L 285.8835,42.159222 L 285.46273,39.65566 M 285.46273,36.310566 L 285.46273,30.987869 L 284.3477,30.987869 C 281.12181,30.98788 278.82863,31.352544 277.46816,32.081862 C 276.1217,32.8112 275.44848,34.059473 275.44849,35.826685 C 275.44848,38.323237 276.75285,39.57151 279.36161,39.571507 C 281.42336,39.57151 283.45706,38.48453 285.46273,36.310566 M 296.8655,42.159222 L 296.8655,39.571507 L 305.07045,39.571507 L 305.07045,21.920349 L 296.8655,21.920349 L 296.8655,19.311596 L 309.215,19.311596 L 309.215,39.571507 L 316.99918,39.571507 L 316.99918,42.159222 L 296.8655,42.159222 M 304.86007,14.136167 L 304.86007,8.9396998 L 309.53058,8.9396998 L 309.53058,14.136167 L 304.86007,14.136167 M 321.03854,42.159222 L 321.03854,39.571507 L 323.62626,39.571507 L 323.62626,21.920349 L 321.03854,21.920349 L 321.03854,19.311596 L 327.79185,19.311596 L 327.79185,23.729645 C 328.7596,22.256982 329.72035,21.148965 330.6741,20.405589 C 332.02054,19.33967 333.52828,18.8067 335.19734,18.806676 C 339.41901,18.8067 341.52985,21.527654 341.52988,26.969548 L 341.52988,39.571507 L 344.13863,39.571507 L 344.13863,42.159222 L 335.30253,42.159222 L 335.30253,39.571507 L 337.38533,39.571507 L 337.38533,27.411353 C 337.38531,23.834855 336.24223,22.046599 333.95608,22.046579 C 331.85223,22.046599 329.79749,23.813817 327.79185,27.348238 L 327.79185,39.571507 L 330.1271,39.571507 L 330.1271,42.159222 L 321.03854,42.159222 M 350.19767,8.9396998 L 352.95369,8.9396998 C 355.36607,8.939733 357.33666,9.6059461 358.86546,10.938341 C 360.40825,12.284824 361.17966,14.016978 361.17968,16.134808 C 361.17966,16.906239 361.08849,17.817899 360.90618,18.869791 L 360.46437,21.415429 C 360.35215,22.060625 360.29605,22.691774 360.29607,23.308879 C 360.29605,26.015826 361.88795,27.369291 365.07177,27.369276 L 367.42806,27.369276 L 367.42806,29.956991 L 365.07177,29.956991 C 361.88795,29.957003 360.29605,31.338518 360.29607,34.101542 C 360.29605,34.676597 360.35215,35.279695 360.46437,35.910838 L 360.90618,38.435437 C 361.08849,39.473331 361.17966,40.420055 361.17968,41.275612 C 361.17966,43.351392 360.40124,45.055495 358.84442,46.387926 C 357.3016,47.720348 355.33802,48.386561 352.95369,48.386567 L 350.19767,48.386567 L 350.19767,45.798853 L 351.43893,45.798853 C 355.33802,45.798849 357.28757,44.354218 357.28758,41.464957 C 357.28757,40.875885 357.23147,40.265774 357.11928,39.634622 L 356.65643,37.004831 C 356.55824,36.443815 356.50915,35.847729 356.50917,35.216573 C 356.50915,33.421311 357.04914,31.906553 358.12912,30.672294 C 358.76025,29.957003 359.68594,29.283777 360.90618,28.652614 C 359.60179,27.979402 358.62,27.236048 357.96081,26.422551 C 356.99304,25.230396 356.50915,23.764728 356.50917,22.025541 C 356.50915,21.450514 356.55824,20.882479 356.65643,20.321436 L 357.11928,17.691645 C 357.23147,17.06052 357.28757,16.422358 357.28758,15.777157 C 357.28757,12.944024 355.33802,11.527445 351.43893,11.527414 L 350.19767,11.527414 L 350.19767,8.9396998"
       id="text2502"
       style="font-size:43.08649826px;font-style:normal;font-variant:normal;font-weight:normal;font-stretch:normal;text-align:start;line-height:125%;writing-mode:lr-tb;text-anchor:start;fill:#000000;fill-opacity:1;stroke:none;stroke-width:1px;stroke-linecap:butt;stroke-linejoin:miter;stroke-opacity:1;font-family:Luxi Mono;-inkscape-font-specification:Luxi Mono" />
  </g>
</svg>
