<?xml version="1.0" encoding="UTF-8" standalone="no"?>
<!-- Created with Inkscape (http://www.inkscape.org/) -->
<svg
   xmlns:svg="http://www.w3.org/2000/svg"
   xmlns="http://www.w3.org/2000/svg"
   version="1.0"
   width="50"
   height="54"
   id="svg2404">
  <defs
     id="defs2406" />
  <path
     d="M 28.137544,40.447698 C 31.173258,44.911983 27.423258,49.197698 27.958972,49.55484 C 28.494687,49.911983 32.60183,51.876269 31.35183,52.947698 C 30.10183,54.019126 25.280401,51.340555 24.744687,50.269126 C 24.208972,49.197698 25.816115,40.447698 25.816115,40.447698"
     id="path2424"
     style="fill:none;fill-rule:evenodd;stroke:#000000;stroke-width:1px;stroke-linecap:butt;stroke-linejoin:miter;stroke-opacity:1" />
  <path
     d="M 23.851829,42.05484 C 23.137544,49.55484 21.887544,49.911983 23.316115,50.983412 C 24.744687,52.05484 27.780401,52.590555 27.780401,52.590555"
     id="path2426"
     style="fill:none;fill-rule:evenodd;stroke:#000000;stroke-width:1px;stroke-linecap:butt;stroke-linejoin:miter;stroke-opacity:1" />
  <path
     d="M 35.816115,23.483412 C 32.780401,18.661983 30.637544,16.519126 27.958972,18.840555 C 25.280401,21.161983 29.744686,25.269126 35.816115,23.483412 z"
     id="path2428"
     style="fill:none;fill-rule:evenodd;stroke:#000000;stroke-width:1px;stroke-linecap:butt;stroke-linejoin:miter;stroke-opacity:1" />
  <path
     d="M 30.994687,23.661983 C 36.530401,20.80484 27.244687,16.519126 28.137544,22.233412"
     id="path2430"
     style="fill:none;fill-rule:evenodd;stroke:#000000;stroke-width:1px;stroke-linecap:butt;stroke-linejoin:miter;stroke-opacity:1" />
  <path
     d="M 12.329594,30.411528 C 9.1383205,39.538996 4.8321755,41.803019 4.8321755,41.803019 C 4.8321755,41.803019 3.8822465,39.144152 2.9351315,41.293466 C 1.9880165,43.442782 2.2146205,45.352658 2.2146205,45.352658 C 2.2146205,45.352658 4.3382425,46.263189 5.6714605,45.217996 C 7.4281295,43.840833 5.7614475,43.162031 5.7614475,43.162031 C 5.7614475,43.162031 11.055867,38.251269 12.967391,32.339402"
     id="path2432"
     style="fill:none;fill-rule:evenodd;stroke:#000000;stroke-width:1px;stroke-linecap:butt;stroke-linejoin:miter;stroke-opacity:1" />
  <path
     d="M 29.31779,42.640778 C 31.830345,41.990666 33.923676,41.576324 35.338729,39.143218 C 32.673432,36.931013 28.826712,32.08946 28.826712,32.08946 C 28.826712,32.08946 28.952981,32.847074 39.105588,35.194521 C 45.816115,26.697697 30.994686,17.947697 30.101829,6.5191258 M 25.27203,42.51801 C 20.403169,41.541447 17.378615,38.394126 14.923258,35.626269 C 5.1018285,24.55484 24.208972,16.340554 24.566115,5.8048398"
     id="path2422"
     style="fill:none;fill-rule:evenodd;stroke:#000000;stroke-width:1px;stroke-linecap:butt;stroke-linejoin:miter;stroke-opacity:1" />
  <path
     d="M 38.583972,35.001269 L 37.155401,38.840555 L 36.887544,35.090555 L 35.72683,37.144126 L 35.548258,34.465555 L 34.298258,36.340555 L 33.851829,34.197698 L 32.691115,35.715555 L 32.512544,33.483412"
     id="path2437"
     style="fill:none;fill-rule:evenodd;stroke:#000000;stroke-width:1px;stroke-linecap:butt;stroke-linejoin:miter;stroke-opacity:1" />
  <path
     d="M 27.011032,5.7146078 C 56.186546,0.3502272 57.581897,11.281418 27.011032,5.7146078 z"
     id="path2459"
     style="fill:none;fill-rule:evenodd;stroke:#000000;stroke-width:0.8973673px;stroke-linecap:butt;stroke-linejoin:miter;stroke-opacity:1" />
  <path
     d="M 27.321892,5.5883388 C -1.8536235,0.2239581 -3.2489745,11.155149 27.321892,5.5883388 z"
     id="path2461"
     style="fill:none;fill-rule:evenodd;stroke:#000000;stroke-width:0.8973673px;stroke-linecap:butt;stroke-linejoin:miter;stroke-opacity:1" />
  <path
     d="M 27.17154,5.8077638 C 14.324704,12.437539 40.50316,12.754615 27.17154,5.8077638 z"
     id="path2463"
     style="fill:none;fill-rule:evenodd;stroke:#000000;stroke-width:0.6619857px;stroke-linecap:butt;stroke-linejoin:miter;stroke-opacity:1" />
  <path
     d="M 27.044785,5.3590288 C 14.146364,-0.652644 40.429935,-0.9401584 27.044785,5.3590288 z"
     id="path2465"
     style="fill:none;fill-rule:evenodd;stroke:#000000;stroke-width:0.63163626px;stroke-linecap:butt;stroke-linejoin:miter;stroke-opacity:1" />
</svg>
