<?xml version="1.0" encoding="UTF-8" standalone="no"?>
<!-- Created with Inkscape (http://www.inkscape.org/) -->
<svg
   xmlns:svg="http://www.w3.org/2000/svg"
   xmlns="http://www.w3.org/2000/svg"
   version="1.0"
   width="50"
   height="54"
   id="svg2404">
  <defs
     id="defs2406" />
  <path
     d="M 26.01622,5.6895138 C 48.821119,14.505923 63.904674,9.5099578 26.01622,5.6895138 z"
     id="path2414"
     style="fill:none;fill-rule:evenodd;stroke:#000000;stroke-width:0.74271953px;stroke-linecap:butt;stroke-linejoin:miter;stroke-opacity:1" />
  <path
     d="M 26.13303,5.5915538 C 3.3281314,14.407963 -11.755424,9.4119978 26.13303,5.5915538 z"
     id="path2416"
     style="fill:none;fill-rule:evenodd;stroke:#000000;stroke-width:0.74271953px;stroke-linecap:butt;stroke-linejoin:miter;stroke-opacity:1" />
  <path
     d="M 25.773898,5.6051418 C 2.9689994,-3.211267 -12.114557,1.7846978 25.773898,5.6051418 z"
     id="path2418"
     style="fill:none;fill-rule:evenodd;stroke:#000000;stroke-width:0.74271953px;stroke-linecap:butt;stroke-linejoin:miter;stroke-opacity:1" />
  <path
     d="M 25.836653,5.4092208 C 48.641553,-3.407187 63.725108,1.5887778 25.836653,5.4092208 z"
     id="path2420"
     style="fill:none;fill-rule:evenodd;stroke:#000000;stroke-width:0.74271953px;stroke-linecap:butt;stroke-linejoin:miter;stroke-opacity:1" />
  <path
     d="M 26.194121,40.447698 C 29.229835,44.911983 25.479835,49.197698 26.015549,49.55484 C 26.551264,49.911983 30.658407,51.876269 29.408407,52.947698 C 28.158407,54.019126 23.336978,51.340555 22.801264,50.269126 C 22.265549,49.197698 23.872692,40.447698 23.872692,40.447698"
     id="path2424"
     style="fill:none;fill-rule:evenodd;stroke:#000000;stroke-width:1px;stroke-linecap:butt;stroke-linejoin:miter;stroke-opacity:1" />
  <path
     d="M 21.908406,42.05484 C 21.194121,49.55484 19.944121,49.911983 21.372692,50.983412 C 22.801264,52.05484 25.836978,52.590555 25.836978,52.590555"
     id="path2426"
     style="fill:none;fill-rule:evenodd;stroke:#000000;stroke-width:1px;stroke-linecap:butt;stroke-linejoin:miter;stroke-opacity:1" />
  <path
     d="M 33.872692,23.483412 C 30.836978,18.661983 28.694121,16.519126 26.015549,18.840555 C 23.336978,21.161983 27.801263,25.269126 33.872692,23.483412 z"
     id="path2428"
     style="fill:none;fill-rule:evenodd;stroke:#000000;stroke-width:1px;stroke-linecap:butt;stroke-linejoin:miter;stroke-opacity:1" />
  <path
     d="M 29.051264,23.661983 C 34.586978,20.80484 25.301264,16.519126 26.194121,22.233412"
     id="path2430"
     style="fill:none;fill-rule:evenodd;stroke:#000000;stroke-width:1px;stroke-linecap:butt;stroke-linejoin:miter;stroke-opacity:1" />
  <path
     d="M 10.764978,30.916604 C 7.5737054,40.044072 3.2675604,42.308095 3.2675604,42.308095 C 3.2675604,42.308095 2.3176314,39.649228 1.3705164,41.798542 C 0.42340143,43.947858 0.65000543,45.857734 0.65000543,45.857734 C 0.65000543,45.857734 2.7736274,46.768265 4.1068454,45.723072 C 5.8635144,44.345909 4.1968324,43.667107 4.1968324,43.667107 C 4.1968324,43.667107 9.4912514,38.756345 11.402775,32.844478"
     id="path2432"
     style="fill:none;fill-rule:evenodd;stroke:#000000;stroke-width:1px;stroke-linecap:butt;stroke-linejoin:miter;stroke-opacity:1" />
  <path
     d="M 27.374367,42.640778 C 29.886922,41.990666 31.980253,41.576324 33.395306,39.143218 C 30.730009,36.931013 26.883289,32.08946 26.883289,32.08946 C 26.883289,32.08946 27.009558,32.847074 37.162165,35.194521 C 43.872692,26.697697 29.051263,17.947697 28.158406,6.5191258 M 23.328607,42.51801 C 18.459746,41.541447 15.435192,38.394126 12.979835,35.626269 C 3.1584064,24.55484 22.265549,16.340554 22.622692,5.8048398"
     id="path2422"
     style="fill:none;fill-rule:evenodd;stroke:#000000;stroke-width:1px;stroke-linecap:butt;stroke-linejoin:miter;stroke-opacity:1" />
  <path
     d="M 36.640549,35.001269 L 35.211978,38.840555 L 34.944121,35.090555 L 33.783407,37.144126 L 33.604835,34.465555 L 32.354835,36.340555 L 31.908406,34.197698 L 30.747692,35.715555 L 30.569121,33.483412"
     id="path2437"
     style="fill:none;fill-rule:evenodd;stroke:#000000;stroke-width:1px;stroke-linecap:butt;stroke-linejoin:miter;stroke-opacity:1" />
</svg>
