<?xml version="1.0" encoding="UTF-8" standalone="no"?>
<!-- Created with Inkscape (http://www.inkscape.org/) -->

<svg
   xmlns:svg="http://www.w3.org/2000/svg"
   xmlns="http://www.w3.org/2000/svg"
   version="1.0"
   width="16000"
   height="6000"
   id="svg2484">
  <defs
     id="defs2486" />
  <g
     transform="translate(4000,0)"
     id="layer1"
     style="fill:none;stroke:#000000;stroke-width:1;stroke-miterlimit:4;stroke-opacity:1;stroke-dasharray:none">
    <path
       d="M 91.428571,674.28571 C 314.28571,542.85714 657.14286,805.71429 874.28571,785.71429 1091.4286,765.71429 1265.7143,620 1465.7143,620 c 200,0 631.3406,-19.81231 631.3406,-19.81231"
       id="path2494"
       style="fill:none;stroke:#000000;stroke-width:1;stroke-linecap:butt;stroke-linejoin:miter;stroke-miterlimit:4;stroke-opacity:1;stroke-dasharray:none" />
  </g>
  <path
     d="m 6149.0208,620.8422 33.0015,0 41.7726,71.4375 41.9917,-71.4375 33.0014,0 0,104.97656 -21.5988,0 0,-92.17968 -42.2111,71.99999 -22.2568,0 -42.2112,-71.99999 0,92.17968 -21.4893,0 0,-104.97656 m 171.3662,0 23.7917,0 45.3906,43.17188 45.0618,-43.17188 23.7918,0 -57.8896,54.98438 0,49.99218 -22.2568,0 0,-49.99218 -57.8895,-54.98438 m 216.6473,0 22.3664,0 34.4267,88.73438 34.3171,-88.73438 24.8881,0 34.4267,88.73438 34.3171,-88.73438 22.476,0 -41.1148,104.97656 -27.8483,0 -34.5363,-91.125 -34.8653,91.125 -27.8484,0 -41.005,-104.97656 m 302.9332,9.63281 c -16.0805,10e-5 -28.8717,3.84384 -38.3738,11.53125 -9.429,7.68758 -14.1434,18.16413 -14.1434,31.42969 0,13.21879 4.7144,23.6719 14.1434,31.35938 9.5021,7.68751 22.2933,11.53125 38.3738,11.53125 16.0803,0 28.7984,-3.84374 38.1545,-11.53125 9.4288,-7.68748 14.1433,-18.14059 14.1434,-31.35938 -1e-4,-13.26556 -4.7146,-23.74211 -14.1434,-31.42969 -9.3561,-7.68741 -22.0742,-11.53115 -38.1545,-11.53125 m 0,-11.53125 c 22.951,1.1e-4 41.2973,4.94542 55.0388,14.83594 13.7414,9.84383 20.6121,23.06257 20.6122,39.65625 -10e-5,16.54691 -6.8708,29.76565 -20.6122,39.65626 -13.7415,9.84375 -32.0878,14.76562 -55.0388,14.76562 -23.0243,0 -41.4438,-4.92187 -55.2582,-14.76562 -13.7414,-9.84373 -20.6122,-23.06247 -20.6122,-39.65626 0,-16.59368 6.8708,-29.81242 20.6122,-39.65625 13.8144,-9.89052 32.2339,-14.83583 55.2582,-14.83594 m 187.9217,57.65625 c 4.751,1.0313 9.3558,3.23442 13.8146,6.60938 4.5316,3.37504 9.0634,8.01566 13.5952,13.92187 l 22.4761,28.6875 -23.7917,0 -20.9411,-26.92968 c -5.409,-7.03122 -10.6718,-11.69528 -15.7882,-13.99219 -5.0434,-2.29684 -11.9506,-3.44527 -20.7217,-3.44531 l -24.1207,0 0,44.36718 -22.147,0 0,-104.97656 49.9954,0 c 18.7117,10e-5 32.6724,2.50792 41.8823,7.52343 9.2094,5.01573 13.8143,12.58603 13.8145,22.71095 -2e-4,6.60943 -2.4122,12.09381 -7.2363,16.45312 -4.7511,4.35943 -11.6949,7.38286 -20.8314,9.07031 m -55.4775,-44.08594 0,37.26563 27.8484,0 c 10.6715,6e-5 18.7117,-1.57025 24.1206,-4.71094 5.4819,-3.18743 8.2229,-7.85149 8.223,-13.99218 -10e-5,-6.14055 -2.7411,-10.75773 -8.223,-13.85157 -5.4089,-3.14053 -13.4491,-4.71084 -24.1206,-4.71094 l -27.8484,0 m 133.9792,-11.67187 22.1471,0 0,93.02344 79.7077,0 0,11.95312 -101.8548,0 0,-104.97656 m 147.1359,11.67187 0,81.63282 26.7519,0 c 22.5857,10e-6 39.1046,-3.28124 49.557,-9.84375 10.5253,-6.56247 15.7879,-16.92184 15.788,-31.07813 -1e-4,-14.06243 -5.2627,-24.35148 -15.788,-30.86718 -10.4524,-6.56242 -26.9713,-9.84366 -49.557,-9.84376 l -26.7519,0 m -22.1472,-11.67187 45.5003,0 c 31.7222,10e-5 55.0022,4.24229 69.8402,12.72656 14.8377,8.43759 22.2566,21.65632 22.2568,39.65625 -2e-4,18.09378 -7.4557,31.38284 -22.3664,39.8672 -14.9111,8.48437 -38.1546,12.72655 -69.7306,12.72655 l -45.5003,0 0,-104.97656 m 244.2762,0 22.1471,0 0,104.97656 -22.1471,0 0,-104.97656 m 164.3494,3.44531 0,13.85157 c -8.4058,-2.57804 -16.3364,-4.49992 -23.7917,-5.76563 -7.4556,-1.26553 -14.6553,-1.89834 -21.5989,-1.89844 -12.0604,10e-5 -21.3798,1.5001 -27.9581,4.50001 -6.5052,3.00008 -9.7579,7.2657 -9.7579,12.79687 0,4.6407 2.1563,8.15632 6.4688,10.54687 4.3855,2.34382 12.6449,4.24225 24.7784,5.69532 l 13.376,1.75781 c 16.5189,2.01568 28.6888,5.57818 36.51,10.6875 7.8938,5.06254 11.8409,11.85941 11.841,20.39062 -1e-4,10.1719 -5.3359,17.88283 -16.0074,23.13282 -10.5986,5.25 -26.1673,7.875 -46.7063,7.875 -7.748,0 -16.0074,-0.5625 -24.7785,-1.6875 -8.6981,-1.125 -17.725,-2.78906 -27.0809,-4.99219 l 0,-14.625 c 8.9904,3.23439 17.798,5.67188 26.4231,7.3125 8.6248,1.64064 17.1037,2.46094 25.4363,2.46094 12.6449,0 22.4028,-1.59374 29.2737,-4.78126 6.8706,-3.18747 10.306,-7.73435 10.3061,-13.64062 -1e-4,-5.15621 -2.4853,-9.18746 -7.4555,-12.09375 -4.8974,-2.9062 -12.9741,-5.08589 -24.2303,-6.53906 l -13.4856,-1.68751 c -16.5191,-2.10932 -28.4698,-5.414 -35.8521,-9.91405 -7.3823,-4.49994 -11.0736,-10.75775 -11.0736,-18.77344 0,-9.28116 5.08,-16.59366 15.24,-21.93751 10.2329,-5.34364 24.3033,-8.01551 42.211,-8.01562 7.6746,1.1e-4 15.4957,0.44542 23.4629,1.33594 7.967,0.89073 16.1168,2.22667 24.4495,4.00781 m 138.0357,51.39844 0,38.46094 35.5232,0 c 11.914,10e-6 20.7218,-1.5703 26.4231,-4.71094 5.7742,-3.18748 8.6614,-8.03903 8.6615,-14.55469 -10e-5,-6.56246 -2.8873,-11.39058 -8.6615,-14.48437 -5.7013,-3.14058 -14.5091,-4.71089 -26.4231,-4.71094 l -35.5232,0 m 0,-43.17188 0,31.64063 32.7822,0 c 10.8177,7e-5 18.8578,-1.289 24.1207,-3.86718 5.3356,-2.62494 8.0035,-6.60931 8.0036,-11.95313 -1e-4,-5.2968 -2.668,-9.25773 -8.0036,-11.88281 -5.2629,-2.62491 -13.303,-3.93741 -24.1207,-3.93751 l -32.7822,0 m -22.1471,-11.67187 56.574,0 c 16.8842,10e-5 29.8948,2.2501 39.0315,6.75 9.1364,4.50009 13.7047,10.89852 13.7049,19.19531 -2e-4,6.42195 -2.3392,11.53132 -7.0169,15.32813 -4.6781,3.79693 -11.5488,6.16412 -20.6122,7.10156 10.8906,1.50006 19.3329,4.64068 25.3267,9.42188 6.0665,4.73441 9.0999,10.6641 9.1,17.78906 -1e-4,9.37502 -4.9704,16.6172 -14.911,21.72657 -9.9407,5.10937 -24.0841,7.66405 -42.4303,7.66405 l -58.7667,0 0,-104.97656 m 153.9335,0 22.1472,0 0,93.02344 79.7077,0 0,11.95312 -101.8549,0 0,-104.97656 m 184.9615,13.99218 -30.041,52.2422 60.1919,0 -30.1509,-52.2422 m -12.4988,-13.99218 25.1073,0 62.3848,104.97656 -23.0242,0 -14.9109,-26.92968 -73.7873,0 -14.9109,26.92968 -23.3531,0 62.4943,-104.97656 m 229.9135,8.08594 0,14.97656 c -7.4555,-4.45304 -15.4227,-7.78116 -23.9014,-9.98438 -8.4058,-2.20303 -17.3596,-3.30459 -26.8615,-3.30468 -18.7119,9e-5 -33.0381,3.67978 -42.9787,11.03906 -9.9407,7.31257 -14.911,17.90632 -14.9109,31.78125 -10e-5,13.82816 4.9702,24.42191 14.9109,31.78125 9.9406,7.31251 24.2668,10.96876 42.9787,10.96875 9.5019,10e-6 18.4557,-1.10155 26.8615,-3.30469 8.4787,-2.20311 16.4459,-5.53122 23.9014,-9.98437 l 0,14.83594 c -7.748,3.375 -15.9709,5.90625 -24.6688,7.59374 -8.6251,1.68751 -17.7617,2.53126 -27.4098,2.53126 -24.7786,0 -44.2944,-4.85156 -58.5473,-14.55469 -14.2532,-9.74998 -21.3797,-23.03903 -21.3797,-39.86719 0,-16.87493 7.1265,-30.16398 21.3797,-39.86719 14.2529,-9.74989 33.7687,-14.62489 58.5473,-14.625 9.7942,1.1e-4 19.004,0.84386 27.629,2.53125 8.698,1.64073 16.8478,4.1251 24.4496,7.45313 m 34.4267,-8.08594 22.1471,0 0,44.36719 73.4584,-44.36719 28.5061,0 -81.2426,48.9375 87.0536,56.03906 -29.1641,0 -78.6114,-50.55469 0,50.55469 -22.1471,0 0,-104.97656 m 273.5499,13.99218 -30.0411,52.2422 60.1919,0 -30.1508,-52.2422 m -12.4989,-13.99218 25.1074,0 62.3848,104.97656 -23.0242,0 -14.9109,-26.92968 -73.7873,0 -14.9109,26.92968 -23.3532,0 62.4943,-104.97656 m 111.284,0 29.822,0 72.5812,87.82031 0,-87.82031 21.4892,0 0,104.97656 -29.8218,0 -72.5813,-87.82031 0,87.82031 -21.4893,0 0,-104.97656 m 190.1144,11.67187 0,81.63282 26.7521,0 c 22.5855,10e-6 39.1045,-3.28124 49.5569,-9.84375 10.5252,-6.56247 15.7878,-16.92184 15.788,-31.07813 -2e-4,-14.06243 -5.2628,-24.35148 -15.788,-30.86718 -10.4524,-6.56242 -26.9714,-9.84366 -49.5569,-9.84376 l -26.7521,0 m -22.1471,-11.67187 45.5003,0 c 31.7222,10e-5 55.0023,4.24229 69.8403,12.72656 14.8376,8.43759 22.2565,21.65632 22.2567,39.65625 -2e-4,18.09378 -7.4556,31.38284 -22.3664,39.8672 -14.9111,8.48437 -38.1546,12.72655 -69.7306,12.72655 l -45.5003,0 0,-104.97656 m 229.6943,0 22.3664,0 34.4267,88.73438 34.3171,-88.73438 24.8881,0 34.4267,88.73438 34.3171,-88.73438 22.4761,0 -41.1147,104.97656 -27.8484,0 -34.5364,-91.125 -34.8653,91.125 -27.8483,0 -41.0051,-104.97656 m 236.492,0 22.1471,0 0,43.03125 80.4752,0 0,-43.03125 22.1472,0 0,104.97656 -22.1472,0 0,-49.99218 -80.4752,0 0,49.99218 -22.1471,0 0,-104.97656 m 168.8442,0 22.1472,0 0,104.97656 -22.1472,0 0,-104.97656 m 43.5268,0 138.4744,0 0,11.95313 -58.1088,0 0,93.02343 -22.2568,0 0,-93.02343 -58.1088,0 0,-11.95313 m 159.9636,0 103.4995,0 0,11.95313 -81.3524,0 0,31.07812 77.9535,0 0,11.95313 -77.9535,0 0,38.03906 83.3259,0 0,11.95312 -105.473,0 0,-104.97656"
     id="text2392"
     style="font-size:179.81639099px;font-style:normal;font-weight:normal;fill:none;stroke:#000000;stroke-width:1;stroke-linecap:butt;stroke-linejoin:miter;stroke-miterlimit:4;stroke-opacity:1;stroke-dasharray:none;font-family:Bitstream Vera Sans" />
  <path
     d="m 9606.6992,755.45642 19.125,0 46.5469,87.82031 0,-87.82031 13.7812,0 0,104.97656 -19.125,0 -46.5468,-87.82031 0,87.82031 -13.7813,0 0,-104.97656 m 150.3281,9.63281 c -10.3125,10e-5 -18.5156,3.84384 -24.6093,11.53125 -6.0469,7.68758 -9.0704,18.16413 -9.0703,31.42969 -1e-4,13.21879 3.0234,23.6719 9.0703,31.35938 6.0937,7.68751 14.2968,11.53126 24.6093,11.53125 10.3125,1e-5 18.4687,-3.84374 24.4688,-11.53125 6.0468,-7.68748 9.0702,-18.14059 9.0703,-31.35938 -10e-5,-13.26556 -3.0235,-23.74211 -9.0703,-31.42969 -6.0001,-7.68741 -14.1563,-11.53115 -24.4688,-11.53125 m 0,-11.53125 c 14.7187,1.1e-4 26.4843,4.94542 35.2969,14.83594 8.8124,9.84383 13.2187,23.06257 13.2188,39.65625 -10e-5,16.54691 -4.4064,29.76565 -13.2188,39.65625 -8.8126,9.84375 -20.5782,14.76562 -35.2969,14.76563 -14.7656,-10e-6 -26.5781,-4.92188 -35.4375,-14.76563 -8.8125,-9.84373 -13.2187,-23.06246 -13.2187,-39.65625 0,-16.59368 4.4062,-29.81242 13.2187,-39.65625 8.8594,-9.89052 20.6719,-14.83583 35.4375,-14.83594 m 56.1797,1.89844 88.8047,0 0,11.95313 -37.2656,0 0,93.02343 -14.2734,0 0,-93.02343 -37.2657,0 0,-11.95313 m 133.875,0 88.805,0 0,11.95313 -37.2659,0 0,93.02343 -14.2734,0 0,-93.02343 -37.2657,0 0,-11.95313 m 102.586,0 14.203,0 0,43.03125 51.609,0 0,-43.03125 14.204,0 0,104.97656 -14.204,0 0,-49.99218 -51.609,0 0,49.99218 -14.203,0 0,-104.97656 m 108.281,0 66.375,0 0,11.95313 -52.172,0 0,31.07812 49.993,0 0,11.95313 -49.993,0 0,38.03906 53.438,0 0,11.95312 -67.641,0 0,-104.97656 m 199.899,3.44531 0,13.85157 c -5.391,-2.57804 -10.477,-4.49991 -15.258,-5.76563 -4.782,-1.26553 -9.399,-1.89834 -13.852,-1.89844 -7.734,10e-5 -13.711,1.5001 -17.929,4.5 -4.172,3.00009 -6.258,7.26571 -6.258,12.79688 0,4.6407 1.383,8.15632 4.148,10.54687 2.813,2.34382 8.11,4.24225 15.891,5.69532 l 8.578,1.75781 c 10.594,2.01568 18.398,5.57818 23.414,10.6875 5.063,5.06254 7.594,11.85941 7.594,20.39062 0,10.1719 -3.422,17.88283 -10.266,23.13282 -6.797,5.25 -16.781,7.87499 -29.953,7.875 -4.969,-10e-6 -10.266,-0.56251 -15.891,-1.6875 -5.578,-1.125 -11.367,-2.78906 -17.367,-4.99219 l 0,-14.625 c 5.766,3.23439 11.414,5.67189 16.946,7.3125 5.531,1.64063 10.968,2.46095 16.312,2.46094 8.109,1e-5 14.367,-1.59374 18.773,-4.78125 4.407,-3.18749 6.61,-7.73436 6.61,-13.64063 0,-5.15622 -1.594,-9.18746 -4.781,-12.09375 -3.141,-2.90621 -8.321,-5.08589 -15.539,-6.53906 l -8.649,-1.6875 c -10.594,-2.10933 -18.258,-5.41401 -22.992,-9.91406 -4.734,-4.49994 -7.102,-10.75775 -7.102,-18.77344 0,-9.28117 3.258,-16.59366 9.774,-21.9375 6.562,-5.34365 15.586,-8.01552 27.07,-8.01563 4.922,1.1e-4 9.937,0.44542 15.047,1.33594 5.109,0.89073 10.336,2.22667 15.68,4.00781 m 28.476,-3.44531 14.203,0 0,93.02344 51.118,0 0,11.95312 -65.321,0 0,-104.97656 m 80.156,0 14.204,0 0,104.97656 -14.204,0 0,-104.97656 m 114.047,90 0,-28.19531 -23.203,0 0,-11.67188 37.266,0 0,45.07032 c -5.485,3.89063 -11.532,6.84375 -18.141,8.85937 -6.609,1.96875 -13.664,2.95312 -21.164,2.95313 -16.406,-10e-6 -29.25,-4.78125 -38.531,-14.34375 -9.234,-9.60936 -13.852,-22.96872 -13.852,-40.07813 0,-17.15618 4.618,-30.51554 13.852,-40.07812 9.281,-9.60928 22.125,-14.41396 38.531,-14.41407 6.844,1.1e-4 13.336,0.84386 19.477,2.53125 6.187,1.68761 11.882,4.17198 17.086,7.45313 l 0,15.11719 c -5.25,-4.45304 -10.829,-7.8046 -16.735,-10.05469 -5.906,-2.24991 -12.117,-3.37491 -18.633,-3.375 -12.843,9e-5 -22.5,3.58603 -28.968,10.75781 -6.422,7.17195 -9.633,17.85944 -9.633,32.0625 0,14.15629 3.211,24.82034 9.633,31.99219 6.468,7.17189 16.125,10.75782 28.968,10.75781 5.016,10e-6 9.493,-0.42186 13.43,-1.26562 3.938,-0.89062 7.477,-2.24999 10.617,-4.07813 m 40.079,-90 14.203,0 0,43.03125 51.609,0 0,-43.03125 14.203,0 0,104.97656 -14.203,0 0,-49.99218 -51.609,0 0,49.99218 -14.203,0 0,-104.97656 m 93.726,0 88.805,0 0,11.95313 -37.266,0 0,93.02343 -14.273,0 0,-93.02343 -37.266,0 0,-11.95313 m 102.586,0 66.375,0 0,11.95313 -52.172,0 0,31.07812 49.992,0 0,11.95313 -49.992,0 0,38.03906 53.438,0 0,11.95312 -67.641,0 0,-104.97656 m 154.055,3.44531 0,13.85157 c -5.391,-2.57804 -10.477,-4.49991 -15.258,-5.76563 -4.782,-1.26553 -9.399,-1.89834 -13.852,-1.89844 -7.734,10e-5 -13.711,1.5001 -17.929,4.5 -4.172,3.00009 -6.258,7.26571 -6.258,12.79688 0,4.6407 1.383,8.15632 4.148,10.54687 2.813,2.34382 8.11,4.24225 15.891,5.69532 l 8.578,1.75781 c 10.594,2.01568 18.398,5.57818 23.414,10.6875 5.063,5.06254 7.594,11.85941 7.594,20.39062 0,10.1719 -3.422,17.88283 -10.266,23.13282 -6.797,5.25 -16.781,7.87499 -29.953,7.875 -4.969,-10e-6 -10.266,-0.56251 -15.891,-1.6875 -5.578,-1.125 -11.367,-2.78906 -17.367,-4.99219 l 0,-14.625 c 5.766,3.23439 11.414,5.67189 16.946,7.3125 5.531,1.64063 10.968,2.46095 16.312,2.46094 8.109,1e-5 14.367,-1.59374 18.774,-4.78125 4.406,-3.18749 6.609,-7.73436 6.609,-13.64063 0,-5.15622 -1.594,-9.18746 -4.781,-12.09375 -3.141,-2.90621 -8.321,-5.08589 -15.539,-6.53906 l -8.649,-1.6875 c -10.594,-2.10933 -18.258,-5.41401 -22.992,-9.91406 -4.734,-4.49994 -7.102,-10.75775 -7.102,-18.77344 0,-9.28117 3.258,-16.59366 9.774,-21.9375 6.562,-5.34365 15.586,-8.01552 27.07,-8.01563 4.922,1.1e-4 9.937,0.44542 15.047,1.33594 5.109,0.89073 10.336,2.22667 15.68,4.00781 m 13.922,-3.44531 88.804,0 0,11.95313 -37.265,0 0,93.02343 -14.274,0 0,-93.02343 -37.265,0 0,-11.95313 m 227.039,8.08594 0,14.97656 c -4.782,-4.45304 -9.891,-7.78116 -15.328,-9.98437 -5.391,-2.20304 -11.133,-3.3046 -17.227,-3.30469 -12,9e-5 -21.188,3.67978 -27.563,11.03906 -6.375,7.31258 -9.562,17.90632 -9.562,31.78125 0,13.82816 3.187,24.4219 9.562,31.78125 6.375,7.31251 15.563,10.96876 27.563,10.96875 6.094,10e-6 11.836,-1.10155 17.227,-3.30469 5.437,-2.20311 10.546,-5.53123 15.328,-9.98437 l 0,14.83594 c -4.969,3.375 -10.243,5.90625 -15.821,7.59375 -5.531,1.68749 -11.39,2.53124 -17.578,2.53125 -15.89,-10e-6 -28.406,-4.85156 -37.547,-14.55469 -9.14,-9.74998 -13.711,-23.03903 -13.711,-39.86719 0,-16.87493 4.571,-30.16398 13.711,-39.86719 9.141,-9.74989 21.657,-14.62489 37.547,-14.625 6.281,1.1e-4 12.188,0.84386 17.719,2.53125 5.578,1.64073 10.804,4.1251 15.68,7.45313 m 22.078,-8.08594 14.203,0 0,43.03125 51.609,0 0,-43.03125 14.203,0 0,104.97656 -14.203,0 0,-49.99218 -51.609,0 0,49.99218 -14.203,0 0,-104.97656 m 143.367,13.99219 -19.266,52.24219 38.602,0 -19.336,-52.24219 m -8.016,-13.99219 16.102,0 40.008,104.97656 -14.766,0 -9.562,-26.92968 -47.321,0 -9.562,26.92968 -14.977,0 40.078,-104.97656 m 71.367,0 19.126,0 46.546,87.82031 0,-87.82031 13.782,0 0,104.97656 -19.125,0 -46.547,-87.82031 0,87.82031 -13.782,0 0,-104.97656 m 179.297,90 0,-28.19531 -23.203,0 0,-11.67188 37.266,0 0,45.07032 c -5.485,3.89063 -11.532,6.84375 -18.141,8.85937 -6.609,1.96875 -13.664,2.95312 -21.164,2.95313 -16.406,-10e-6 -29.25,-4.78125 -38.531,-14.34375 -9.234,-9.60936 -13.852,-22.96872 -13.852,-40.07813 0,-17.15618 4.618,-30.51554 13.852,-40.07812 9.281,-9.60928 22.125,-14.41396 38.531,-14.41407 6.844,1.1e-4 13.336,0.84386 19.477,2.53125 6.187,1.68761 11.882,4.17198 17.086,7.45313 l 0,15.11719 c -5.25,-4.45304 -10.829,-7.8046 -16.735,-10.05469 -5.906,-2.24991 -12.117,-3.37491 -18.633,-3.375 -12.843,9e-5 -22.5,3.58603 -28.968,10.75781 -6.422,7.17195 -9.633,17.85944 -9.633,32.0625 0,14.15629 3.211,24.82034 9.633,31.99219 6.468,7.17189 16.125,10.75782 28.968,10.75781 5.016,10e-6 9.493,-0.42186 13.43,-1.26562 3.938,-0.89062 7.477,-2.24999 10.617,-4.07813 m 40.079,-90 66.374,0 0,11.95313 -52.171,0 0,31.07812 49.992,0 0,11.95313 -49.992,0 0,38.03906 53.437,0 0,11.95312 -67.64,0 0,-104.97656 m 136.968,0 14.203,0 0,104.97656 -14.203,0 0,-104.97656 m 42.469,0 19.125,0 46.547,87.82031 0,-87.82031 13.781,0 0,104.97656 -19.125,0 -46.547,-87.82031 0,87.82031 -13.781,0 0,-104.97656 m 216.492,3.44531 0,13.85157 c -5.39,-2.57804 -10.477,-4.49991 -15.258,-5.76563 -4.781,-1.26553 -9.398,-1.89834 -13.851,-1.89844 -7.735,10e-5 -13.711,1.5001 -17.93,4.5 -4.172,3.00009 -6.258,7.26571 -6.258,12.79688 0,4.6407 1.383,8.15632 4.149,10.54687 2.812,2.34382 8.109,4.24225 15.89,5.69532 l 8.579,1.75781 c 10.593,2.01568 18.398,5.57818 23.414,10.6875 5.062,5.06254 7.593,11.85941 7.593,20.39062 0,10.1719 -3.422,17.88283 -10.265,23.13282 -6.797,5.25 -16.782,7.87499 -29.953,7.875 -4.969,-10e-6 -10.266,-0.56251 -15.891,-1.6875 -5.578,-1.125 -11.367,-2.78906 -17.367,-4.99219 l 0,-14.625 c 5.765,3.23439 11.414,5.67189 16.945,7.3125 5.531,1.64063 10.969,2.46095 16.313,2.46094 8.109,1e-5 14.367,-1.59374 18.773,-4.78125 4.406,-3.18749 6.609,-7.73436 6.609,-13.64063 0,-5.15622 -1.594,-9.18746 -4.781,-12.09375 -3.141,-2.90621 -8.32,-5.08589 -15.539,-6.53906 l -8.648,-1.6875 c -10.594,-2.10933 -18.258,-5.41401 -22.993,-9.91406 -4.734,-4.49994 -7.101,-10.75775 -7.101,-18.77344 0,-9.28117 3.258,-16.59366 9.773,-21.9375 6.563,-5.34365 15.586,-8.01552 27.071,-8.01563 4.921,1.1e-4 9.937,0.44542 15.047,1.33594 5.109,0.89073 10.335,2.22667 15.679,4.00781 m 28.477,-3.44531 14.203,0 0,104.97656 -14.203,0 0,-104.97656 m 114.047,90 0,-28.19531 -23.203,0 0,-11.67188 37.265,0 0,45.07032 c -5.484,3.89063 -11.531,6.84375 -18.141,8.85937 -6.609,1.96875 -13.664,2.95312 -21.164,2.95313 -16.406,-10e-6 -29.25,-4.78125 -38.531,-14.34375 -9.234,-9.60936 -13.851,-22.96872 -13.851,-40.07813 0,-17.15618 4.617,-30.51554 13.851,-40.07812 9.281,-9.60928 22.125,-14.41396 38.531,-14.41407 6.844,1.1e-4 13.336,0.84386 19.477,2.53125 6.187,1.68761 11.883,4.17198 17.086,7.45313 l 0,15.11719 c -5.25,-4.45304 -10.828,-7.8046 -16.734,-10.05469 -5.907,-2.24991 -12.118,-3.37491 -18.633,-3.375 -12.844,9e-5 -22.5,3.58603 -28.969,10.75781 -6.422,7.17195 -9.633,17.85944 -9.633,32.0625 0,14.15629 3.211,24.82034 9.633,31.99219 6.469,7.17189 16.125,10.75782 28.969,10.75781 5.015,10e-6 9.492,-0.42186 13.429,-1.26562 3.938,-0.89062 7.477,-2.24999 10.618,-4.07813 m 40.078,-90 14.203,0 0,43.03125 51.609,0 0,-43.03125 14.203,0 0,104.97656 -14.203,0 0,-49.99218 -51.609,0 0,49.99218 -14.203,0 0,-104.97656 m 93.726,0 88.805,0 0,11.95313 -37.266,0 0,93.02343 -14.273,0 0,-93.02343 -37.266,0 0,-11.95313"
     id="text2396"
     style="font-size:144px;font-style:normal;font-weight:normal;fill:none;stroke:#000000;stroke-width:1;stroke-linecap:butt;stroke-linejoin:miter;stroke-miterlimit:4;stroke-opacity:1;stroke-dasharray:none;font-family:Bitstream Vera Sans" />
  <path
     d="m 12504.646,760.28955 115.56,0 c 0,0 -82.766,34.35589 -85.109,90.57463 l 73.397,0 c 0,0 -102.287,-10.93142 -103.848,-90.57463 z"
     id="path3172"
     style="fill:none;stroke:#000000;stroke-width:1;stroke-linecap:butt;stroke-linejoin:miter;stroke-miterlimit:4;stroke-opacity:1;stroke-dasharray:none" />
  <path
     d="m 12713.123,751.70058 121.808,0 c 0,0 -15.617,68.71179 -64.027,78.86239 -48.411,10.15061 -59.342,-78.08158 -57.781,-78.86239 z"
     id="path3174"
     style="fill:none;stroke:#000000;stroke-width:1;stroke-linecap:butt;stroke-linejoin:miter;stroke-miterlimit:4;stroke-opacity:1;stroke-dasharray:none" />
  <path
     d="m 12930.971,764.19363 93.698,0 c 0,0 -170.999,108.5334 -102.287,146.79337 68.712,38.25997 10.151,-146.01255 8.589,-146.79337 z"
     id="path3176"
     style="fill:none;stroke:#000000;stroke-width:1;stroke-linecap:butt;stroke-linejoin:miter;stroke-miterlimit:4;stroke-opacity:1;stroke-dasharray:none" />
  <path
     d="m 13108.997,748.57731 199.889,0 c 0,0 -352.929,132.73869 -115.561,132.73869 237.368,0 -81.205,-129.61542 -84.328,-132.73869 z"
     id="path3198"
     style="fill:none;stroke:#000000;stroke-width:1;stroke-linecap:butt;stroke-linejoin:miter;stroke-miterlimit:4;stroke-opacity:1;stroke-dasharray:none" />
  <path
     d="m 13405.707,706.41326 168.656,0 c 0,0 -53.095,271.7239 -95.259,146.79337 -42.164,-124.93053 -73.397,-142.10847 -73.397,-146.79337 z"
     id="path3200"
     style="fill:none;stroke:#000000;stroke-width:1;stroke-linecap:butt;stroke-linejoin:miter;stroke-miterlimit:4;stroke-opacity:1;stroke-dasharray:none" />
  <path
     d="m 13638.39,673.619 131.177,0 c 0,0 -0.211,37.15023 -24.986,71.83505 -23.424,32.79426 -104.629,-70.27342 -106.191,-71.83505 z"
     id="path3202"
     style="fill:none;stroke:#000000;stroke-width:1;stroke-linecap:butt;stroke-linejoin:miter;stroke-miterlimit:4;stroke-opacity:1;stroke-dasharray:none" />
  <path
     d="m 13813.935,1321.61 0,-639.07908 0,-17.94391 28.987,0 0,-19.3242 27.606,0 -4.671,-17.43204 22.263,-5.96538 0,-16.63129 22.437,0 0,-16.56361 17.944,0 5.2,-19.41003 23.786,1.46613 0,-19.32421 16.489,-4.41829 0,-14.90591 19.134,-5.12702 0,-16.95779 18.208,0 0,-20.7045 23.274,-6.23613 0,-17.22898 20.363,0 0,-18.25093 15.617,-1.95204 -3.904,-16.59234 19.52,1.95204 0,-18.54438 21.472,0 0,-18.54437 14.641,0 -4.166,-15.54624 19.782,0 0,-19.59047 18.544,0 0,-20.49642 20.497,0 0,978.94779"
     id="path2476"
     style="fill:none;stroke:#000000;stroke-width:1;stroke-linecap:butt;stroke-linejoin:miter;stroke-miterlimit:4;stroke-opacity:1;stroke-dasharray:none" />
  <path
     d="m 13741.71,18.869915 -1.118,18.967922 c 0,131.395753 91.255,250.198133 308.764,250.198133 l 0,-52.53181 -21.254,0 0,-17.96959 -24.613,0 0,-19.96638 -21.255,0 0,-19.96624 -24.612,0 0,-16.97141 -26.849,0 0,-21.9629 -25.731,0 0,-19.96623 -23.492,0 0,-17.96973 -23.494,0 0,-19.966247 -27.967,0 0,-22.961216 -27.968,0 0,-19.966235 -23.493,0 0,-18.968067 -36.918,0 z"
     id="path2443"
     style="fill:none;stroke:#000000;stroke-width:1;stroke-linecap:butt;stroke-linejoin:miter;stroke-miterlimit:4;stroke-opacity:1;stroke-dasharray:none" />
  <path
     d="m 14220.312,279.6875 c 0,13.8 -11.2,25 -25,25 -13.8,0 -25,-11.2 -25,-25 0,-13.8 11.2,-25 25,-25 13.8,0 25,11.2 25,25 z"
     id="path2737"
     style="fill:none;stroke:#000000;stroke-width:1;stroke-linejoin:round;stroke-miterlimit:4;stroke-opacity:1;stroke-dasharray:none" />
  <path
     d="m 4934.375,829.6875 0,16.40625 -84.375,0 0,20.3125 -30.4688,-28.51563 L 4850,809.375 l 0,20.3125 84.375,0 z"
     id="path2760"
     style="fill:none;stroke:#000000;stroke-width:1;stroke-linecap:butt;stroke-linejoin:miter;stroke-miterlimit:4;stroke-opacity:1;stroke-dasharray:none" />
  <path
     d="m 9910.2088,701.32803 c 0,13.8 -11.2,25 -25,25 -13.8,0 -25,-11.2 -25,-25 0,-13.8 11.2,-25 25,-25 13.8,0 25,11.2 25,25 z"
     id="path2404"
     style="fill:none;stroke:#000000;stroke-width:1;stroke-linejoin:round;stroke-miterlimit:4;stroke-opacity:1;stroke-dasharray:none" />
  <path
     d="m 3142.4385,811.84686 0,6.21094 7.4023,0 0,2.79297 -7.4023,0 0,11.875 c 0,1.78386 0.2409,2.92969 0.7226,3.4375 0.4948,0.50781 1.4909,0.76172 2.9883,0.76172 l 3.6914,0 0,3.00781 -3.6914,0 c -2.7734,0 -4.6875,-0.51432 -5.7422,-1.54297 -1.0547,-1.04166 -1.582,-2.92968 -1.582,-5.66406 l 0,-11.875 -2.6367,0 0,-2.79297 2.6367,0 0,-6.21094 3.6133,0 m 24.8242,9.57032 c -0.4037,-0.23436 -0.8464,-0.40363 -1.3281,-0.50782 -0.4688,-0.11717 -0.9896,-0.17576 -1.5625,-0.17578 -2.0313,2e-5 -3.5938,0.66408 -4.6875,1.99219 -1.0808,1.31512 -1.6211,3.20965 -1.6211,5.68359 l 0,11.52344 -3.6133,0 0,-21.875 3.6133,0 0,3.39844 c 0.7552,-1.32811 1.7382,-2.31118 2.9492,-2.94922 1.2109,-0.65102 2.6823,-0.97654 4.4141,-0.97656 0.2473,2e-5 0.5208,0.0196 0.8203,0.0586 0.2994,0.0261 0.6315,0.0716 0.9961,0.13672 l 0.02,3.69141 m 12.9102,20.54687 c -1.0157,2.60416 -2.0053,4.30338 -2.9688,5.09766 -0.9635,0.79426 -2.2526,1.19139 -3.8672,1.1914 l -2.8711,0 0,-3.00781 2.1094,0 c 0.9896,-10e-6 1.7578,-0.23438 2.3047,-0.70312 0.5468,-0.46876 1.1523,-1.57553 1.8164,-3.32032 l 0.6445,-1.64062 -8.8476,-21.52344 3.8086,0 6.8359,17.10938 6.8359,-17.10938 3.8086,0 -9.6093,23.90625 m 14.5703,-23.90625 3.5937,0 0,21.875 -3.5937,0 0,-21.875 m 0,-8.51562 3.5937,0 0,4.55078 -3.5937,0 0,-4.55078 m 29.2773,17.1875 0,13.20312 -3.5937,0 0,-13.08594 c -10e-5,-2.07029 -0.4037,-3.61977 -1.211,-4.64843 -0.8073,-1.02863 -2.0182,-1.54295 -3.6328,-1.54297 -1.9401,2e-5 -3.4701,0.6185 -4.5898,1.85547 -1.1198,1.23699 -1.6797,2.92319 -1.6797,5.05859 l 0,12.36328 -3.6133,0 0,-21.875 3.6133,0 0,3.39844 c 0.8593,-1.31509 1.8685,-2.29816 3.0273,-2.94922 1.1719,-0.65102 2.5195,-0.97654 4.043,-0.97656 2.513,2e-5 4.414,0.78127 5.7031,2.34375 1.2891,1.54949 1.9336,3.83465 1.9336,6.85547 m 21.6016,2.01171 c 0,-2.60415 -0.5404,-4.62238 -1.6211,-6.05468 -1.0677,-1.43228 -2.5717,-2.14842 -4.5117,-2.14844 -1.9271,2e-5 -3.431,0.71616 -4.5118,2.14844 -1.0677,1.4323 -1.6015,3.45053 -1.6015,6.05468 0,2.59116 0.5338,4.60288 1.6015,6.03516 1.0808,1.4323 2.5847,2.14844 4.5118,2.14844 1.94,0 3.444,-0.71614 4.5117,-2.14844 1.0807,-1.43228 1.6211,-3.444 1.6211,-6.03516 m 3.5937,8.47657 c 0,3.72395 -0.8268,6.49088 -2.4804,8.30078 -1.6537,1.82291 -4.1863,2.73436 -7.5977,2.73437 -1.263,-10e-6 -2.4544,-0.0977 -3.5742,-0.29297 -1.1198,-0.1823 -2.2071,-0.46875 -3.2617,-0.85937 l 0,-3.49609 c 1.0546,0.57291 2.0963,0.99608 3.125,1.26953 1.0286,0.27343 2.0768,0.41015 3.1445,0.41015 2.3567,0 4.1211,-0.61849 5.293,-1.85547 1.1718,-1.22396 1.7578,-3.07942 1.7578,-5.5664 l 0,-1.77735 c -0.7422,1.28907 -1.6928,2.25261 -2.8516,2.89063 -1.1589,0.63802 -2.5456,0.95703 -4.1601,0.95703 -2.6823,0 -4.8438,-1.02213 -6.4844,-3.06641 -1.6407,-2.04426 -2.461,-4.75259 -2.461,-8.125 0,-3.3854 0.8203,-6.10024 2.461,-8.14453 1.6406,-2.04425 3.8021,-3.06638 6.4844,-3.0664 1.6145,2e-5 3.0012,0.31903 4.1601,0.95703 1.1588,0.63804 2.1094,1.60158 2.8516,2.89062 l 0,-3.32031 3.5937,0 0,19.16016 m 38.3203,-10.48828 0,13.20312 -3.5937,0 0,-13.08594 c 0,-2.07029 -0.4037,-3.61977 -1.211,-4.64843 -0.8073,-1.02863 -2.0182,-1.54295 -3.6328,-1.54297 -1.9401,2e-5 -3.47,0.6185 -4.5898,1.85547 -1.1198,1.23699 -1.6797,2.92319 -1.6797,5.05859 l 0,12.36328 -3.6133,0 0,-21.875 3.6133,0 0,3.39844 c 0.8594,-1.31509 1.8685,-2.29816 3.0273,-2.94922 1.1719,-0.65102 2.5196,-0.97654 4.043,-0.97656 2.513,2e-5 4.4141,0.78127 5.7031,2.34375 1.2891,1.54949 1.9336,3.83465 1.9336,6.85547 m 15.6836,-6.15235 c -1.9271,2e-5 -3.4505,0.75523 -4.5703,2.26563 -1.1198,1.49741 -1.6797,3.5547 -1.6797,6.17187 0,2.6172 0.5534,4.681 1.6602,6.19141 1.1198,1.4974 2.6497,2.24609 4.5898,2.24609 1.9141,0 3.431,-0.7552 4.5508,-2.26562 1.1198,-1.51041 1.6797,-3.5677 1.6797,-6.17188 0,-2.59113 -0.5599,-4.64191 -1.6797,-6.15234 -1.1198,-1.52342 -2.6367,-2.28514 -4.5508,-2.28516 m 0,-3.04687 c 3.125,2e-5 5.5794,1.01564 7.3633,3.04687 1.7838,2.03127 2.6758,4.84377 2.6758,8.4375 0,3.58074 -0.892,6.39324 -2.6758,8.4375 -1.7839,2.03125 -4.2383,3.04688 -7.3633,3.04688 -3.138,0 -5.5989,-1.01563 -7.3828,-3.04688 -1.7708,-2.04426 -2.6562,-4.85676 -2.6562,-8.4375 0,-3.59373 0.8854,-6.40623 2.6562,-8.4375 1.7839,-2.03123 4.2448,-3.04685 7.3828,-3.04687 m 19.5313,-5.6836 0,6.21094 7.4023,0 0,2.79297 -7.4023,0 0,11.875 c 0,1.78386 0.2409,2.92969 0.7226,3.4375 0.4948,0.50781 1.4909,0.76172 2.9883,0.76172 l 3.6914,0 0,3.00781 -3.6914,0 c -2.7734,0 -4.6875,-0.51432 -5.7422,-1.54297 -1.0547,-1.04166 -1.582,-2.92968 -1.582,-5.66406 l 0,-11.875 -2.6367,0 0,-2.79297 2.6367,0 0,-6.21094 3.6133,0 m 28.4375,0 0,6.21094 7.4023,0 0,2.79297 -7.4023,0 0,11.875 c 0,1.78386 0.2409,2.92969 0.7226,3.4375 0.4948,0.50781 1.4909,0.76172 2.9883,0.76172 l 3.6914,0 0,3.00781 -3.6914,0 c -2.7734,0 -4.6875,-0.51432 -5.7422,-1.54297 -1.0547,-1.04166 -1.582,-2.92968 -1.582,-5.66406 l 0,-11.875 -2.6367,0 0,-2.79297 2.6367,0 0,-6.21094 3.6133,0 m 20.625,8.73047 c -1.9271,2e-5 -3.4506,0.75523 -4.5703,2.26563 -1.1198,1.49741 -1.6797,3.5547 -1.6797,6.17187 0,2.6172 0.5534,4.681 1.6601,6.19141 1.1198,1.4974 2.6498,2.24609 4.5899,2.24609 1.914,0 3.431,-0.7552 4.5508,-2.26562 1.1197,-1.51041 1.6796,-3.5677 1.6796,-6.17188 0,-2.59113 -0.5599,-4.64191 -1.6796,-6.15234 -1.1198,-1.52342 -2.6368,-2.28514 -4.5508,-2.28516 m 0,-3.04687 c 3.125,2e-5 5.5794,1.01564 7.3633,3.04687 1.7838,2.03127 2.6757,4.84377 2.6757,8.4375 0,3.58074 -0.8919,6.39324 -2.6757,8.4375 -1.7839,2.03125 -4.2383,3.04688 -7.3633,3.04688 -3.1381,0 -5.599,-1.01563 -7.3828,-3.04688 -1.7709,-2.04426 -2.6563,-4.85676 -2.6563,-8.4375 0,-3.59373 0.8854,-6.40623 2.6563,-8.4375 1.7838,-2.03123 4.2447,-3.04685 7.3828,-3.04687 m 28.7109,-7.98828 3.5938,0 0,30.39062 -3.5938,0 0,-30.39062 m 19.5703,11.03515 c -1.9271,2e-5 -3.4505,0.75523 -4.5703,2.26563 -1.1198,1.49741 -1.6797,3.5547 -1.6797,6.17187 0,2.6172 0.5534,4.681 1.6602,6.19141 1.1198,1.4974 2.6497,2.24609 4.5898,2.24609 1.9141,0 3.431,-0.7552 4.5508,-2.26562 1.1198,-1.51041 1.6797,-3.5677 1.6797,-6.17188 0,-2.59113 -0.5599,-4.64191 -1.6797,-6.15234 -1.1198,-1.52342 -2.6367,-2.28514 -4.5508,-2.28516 m 0,-3.04687 c 3.125,2e-5 5.5794,1.01564 7.3633,3.04687 1.7838,2.03127 2.6758,4.84377 2.6758,8.4375 0,3.58074 -0.892,6.39324 -2.6758,8.4375 -1.7839,2.03125 -4.2383,3.04688 -7.3633,3.04688 -3.138,0 -5.5989,-1.01563 -7.3828,-3.04688 -1.7708,-2.04426 -2.6562,-4.85676 -2.6562,-8.4375 0,-3.59373 0.8854,-6.40623 2.6562,-8.4375 1.7839,-2.03123 4.2448,-3.04685 7.3828,-3.04687 m 24.4532,3.04687 c -1.9271,2e-5 -3.4506,0.75523 -4.5704,2.26563 -1.1198,1.49741 -1.6797,3.5547 -1.6796,6.17187 -1e-4,2.6172 0.5533,4.681 1.6601,6.19141 1.1198,1.4974 2.6497,2.24609 4.5899,2.24609 1.914,0 3.4309,-0.7552 4.5507,-2.26562 1.1198,-1.51041 1.6797,-3.5677 1.6797,-6.17188 0,-2.59113 -0.5599,-4.64191 -1.6797,-6.15234 -1.1198,-1.52342 -2.6367,-2.28514 -4.5507,-2.28516 m 0,-3.04687 c 3.1249,2e-5 5.5794,1.01564 7.3632,3.04687 1.7839,2.03127 2.6758,4.84377 2.6758,8.4375 0,3.58074 -0.8919,6.39324 -2.6758,8.4375 -1.7838,2.03125 -4.2383,3.04688 -7.3632,3.04688 -3.1381,0 -5.599,-1.01563 -7.3829,-3.04688 -1.7708,-2.04426 -2.6562,-4.85676 -2.6562,-8.4375 0,-3.59373 0.8854,-6.40623 2.6562,-8.4375 1.7839,-2.03123 4.2448,-3.04685 7.3829,-3.04687 m 15.8398,-7.98828 3.6133,0 0,17.94921 10.7226,-9.43359 4.5899,0 -11.6016,10.23438 12.0899,11.64062 -4.6875,0 -11.1133,-10.68359 0,10.68359 -3.6133,0 0,-30.39062 m 51.7773,19.47265 c 0,-2.64321 -0.5469,-4.71352 -1.6406,-6.21094 -1.0807,-1.51039 -2.5716,-2.2656 -4.4726,-2.26562 -1.9011,2e-5 -3.3985,0.75523 -4.4922,2.26562 -1.0808,1.49742 -1.6211,3.56773 -1.6211,6.21094 0,2.64324 0.5403,4.72006 1.6211,6.23047 1.0937,1.4974 2.5911,2.2461 4.4922,2.24609 1.901,10e-6 3.3919,-0.74869 4.4726,-2.24609 1.0937,-1.51041 1.6406,-3.58723 1.6406,-6.23047 m -12.2265,-7.63672 c 0.7552,-1.30206 1.7057,-2.2656 2.8515,-2.89062 1.1589,-0.638 2.5391,-0.95701 4.1407,-0.95703 2.6562,2e-5 4.8111,1.05471 6.4648,3.16406 1.6667,2.10939 2.5,4.88283 2.5,8.32031 0,3.43751 -0.8333,6.21094 -2.5,8.32031 -1.6537,2.10938 -3.8086,3.16407 -6.4648,3.16407 -1.6016,0 -2.9818,-0.3125 -4.1407,-0.9375 -1.1458,-0.63802 -2.0963,-1.60807 -2.8515,-2.91016 l 0,3.28125 -3.6133,0 0,-30.39062 3.6133,0 0,11.83593 m 31.8554,7.5586 c -2.9036,10e-6 -4.9153,0.33204 -6.0351,0.99609 -1.1198,0.66407 -1.6797,1.79688 -1.6797,3.39844 0,1.27604 0.4167,2.29167 1.25,3.04687 0.8463,0.74219 1.9922,1.11329 3.4375,1.11328 1.9922,10e-6 3.5872,-0.70312 4.7852,-2.10937 1.2109,-1.41927 1.8163,-3.30077 1.8164,-5.64453 l 0,-0.80078 -3.5743,0 m 7.168,-1.48438 0,12.48047 -3.5937,0 0,-3.32031 c -0.8204,1.32812 -1.8425,2.3112 -3.0664,2.94922 -1.224,0.625 -2.7214,0.9375 -4.4922,0.9375 -2.2396,0 -4.0235,-0.625 -5.3516,-1.875 -1.3151,-1.26302 -1.9727,-2.94922 -1.9726,-5.0586 -1e-4,-2.46093 0.8203,-4.31639 2.4609,-5.5664 1.6536,-1.24999 4.1146,-1.87499 7.3828,-1.875 l 5.0391,0 0,-0.35157 c -1e-4,-1.65363 -0.5469,-2.92967 -1.6407,-3.82812 -1.0807,-0.91144 -2.6041,-1.36717 -4.5703,-1.36719 -1.25,2e-5 -2.4674,0.14976 -3.6523,0.44922 -1.1849,0.2995 -2.3242,0.74872 -3.418,1.34766 l 0,-3.32032 c 1.3151,-0.50779 2.5912,-0.88539 3.8281,-1.13281 1.237,-0.26039 2.4414,-0.3906 3.6133,-0.39062 3.1641,2e-5 5.5273,0.82033 7.0899,2.46093 1.5624,1.64065 2.3437,4.12762 2.3437,7.46094 m 23.1641,-8.55469 0,3.35938 c -1.0157,-0.55988 -2.0378,-0.97654 -3.0664,-1.25 -1.0157,-0.28644 -2.0443,-0.42967 -3.086,-0.42969 -2.3307,2e-5 -4.1406,0.74221 -5.4297,2.22656 -1.289,1.47137 -1.9336,3.54168 -1.9335,6.21094 -1e-4,2.66928 0.6445,4.7461 1.9335,6.23047 1.2891,1.47136 3.099,2.20703 5.4297,2.20703 1.0417,0 2.0703,-0.13671 3.086,-0.41015 1.0286,-0.28646 2.0507,-0.70964 3.0664,-1.26954 l 0,3.32032 c -1.0026,0.46875 -2.0443,0.82031 -3.125,1.05468 -1.0677,0.23438 -2.2071,0.35157 -3.418,0.35157 -3.2943,0 -5.9115,-1.03516 -7.8516,-3.10547 -1.9401,-2.07031 -2.9101,-4.86328 -2.9101,-8.37891 0,-3.56769 0.9765,-6.37368 2.9297,-8.41797 1.9661,-2.04425 4.6549,-3.06638 8.0664,-3.0664 1.1067,2e-5 2.1875,0.11721 3.2422,0.35156 1.0546,0.22138 2.0768,0.55992 3.0664,1.01562 m 6.1523,-9.35546 3.6133,0 0,17.94921 10.7227,-9.43359 4.5898,0 -11.6016,10.23438 12.0899,11.64062 -4.6875,0 -11.1133,-10.68359 0,10.68359 -3.6133,0 0,-30.39062 m -507.0508,69.47265 c 0,-2.64321 -0.5469,-4.71352 -1.6406,-6.21094 -1.0807,-1.51039 -2.5716,-2.2656 -4.4726,-2.26562 -1.9011,2e-5 -3.3985,0.75523 -4.4922,2.26562 -1.0808,1.49742 -1.6211,3.56773 -1.6211,6.21094 0,2.64324 0.5403,4.72006 1.6211,6.23047 1.0937,1.4974 2.5911,2.2461 4.4922,2.24609 1.901,10e-6 3.3919,-0.74869 4.4726,-2.24609 1.0937,-1.51041 1.6406,-3.58723 1.6406,-6.23047 m -12.2265,-7.63672 c 0.7552,-1.30206 1.7057,-2.2656 2.8515,-2.89062 1.1589,-0.638 2.5391,-0.95701 4.1407,-0.95703 2.6562,2e-5 4.8111,1.05471 6.4648,3.16406 1.6667,2.10939 2.5,4.88283 2.5,8.32031 0,3.43751 -0.8333,6.21094 -2.5,8.32031 -1.6537,2.10938 -3.8086,3.16407 -6.4648,3.16407 -1.6016,0 -2.9818,-0.3125 -4.1407,-0.9375 -1.1458,-0.63802 -2.0963,-1.60807 -2.8515,-2.91016 l 0,3.28125 -3.6133,0 0,-30.39062 3.6133,0 0,11.83593 m 40.625,6.71875 0,1.75782 -16.5235,0 c 0.1563,2.47396 0.8985,4.36198 2.2266,5.66406 1.3411,1.28906 3.2031,1.93359 5.5859,1.93359 1.3802,0 2.7149,-0.16927 4.0039,-0.50781 1.3021,-0.33854 2.5912,-0.84635 3.8672,-1.52344 l 0,3.39844 c -1.2891,0.54687 -2.6107,0.96354 -3.9648,1.25 -1.3542,0.28646 -2.7279,0.42969 -4.1211,0.42969 -3.4896,0 -6.2565,-1.01563 -8.3008,-3.04688 -2.0312,-2.03124 -3.0469,-4.77864 -3.0469,-8.24219 0,-3.58071 0.9636,-6.41925 2.8907,-8.51562 1.9401,-2.10935 4.5507,-3.16404 7.832,-3.16406 2.9427,2e-5 5.2669,0.95054 6.9727,2.85156 1.7187,1.88804 2.5781,4.45965 2.5781,7.71484 m -3.5938,-1.05468 c -0.026,-1.96614 -0.5794,-3.53514 -1.6601,-4.70704 -1.0678,-1.17185 -2.487,-1.75779 -4.2578,-1.75781 -2.0053,2e-5 -3.6133,0.56643 -4.8243,1.69922 -1.1979,1.13283 -1.888,2.72788 -2.0703,4.78516 l 12.8125,-0.0195 m 25.2344,-8.14454 0,3.35938 c -1.0156,-0.55988 -2.0378,-0.97654 -3.0664,-1.25 -1.0156,-0.28644 -2.0443,-0.42967 -3.0859,-0.42969 -2.3308,2e-5 -4.1407,0.74221 -5.4297,2.22656 -1.2891,1.47137 -1.9336,3.54168 -1.9336,6.21094 0,2.66928 0.6445,4.7461 1.9336,6.23047 1.289,1.47136 3.0989,2.20703 5.4297,2.20703 1.0416,0 2.0703,-0.13671 3.0859,-0.41015 1.0286,-0.28646 2.0508,-0.70964 3.0664,-1.26954 l 0,3.32032 c -1.0026,0.46875 -2.0443,0.82031 -3.125,1.05468 -1.0677,0.23438 -2.207,0.35157 -3.418,0.35157 -3.2942,0 -5.9114,-1.03516 -7.8515,-3.10547 -1.9401,-2.07031 -2.9102,-4.86328 -2.9102,-8.37891 0,-3.56769 0.9766,-6.37368 2.9297,-8.41797 1.9661,-2.04425 4.6549,-3.06638 8.0664,-3.0664 1.1068,2e-5 2.1875,0.11721 3.2422,0.35156 1.0547,0.22138 2.0768,0.55992 3.0664,1.01562 m 16.2305,10.03907 c -2.9037,1e-5 -4.9154,0.33204 -6.0352,0.99609 -1.1198,0.66407 -1.6797,1.79688 -1.6797,3.39844 0,1.27604 0.4167,2.29167 1.25,3.04687 0.8464,0.74219 1.9922,1.11329 3.4375,1.11328 1.9922,10e-6 3.5873,-0.70312 4.7852,-2.10937 1.2109,-1.41927 1.8164,-3.30077 1.8164,-5.64453 l 0,-0.80078 -3.5742,0 m 7.1679,-1.48438 0,12.48047 -3.5937,0 0,-3.32031 c -0.8203,1.32812 -1.8425,2.3112 -3.0664,2.94922 -1.224,0.625 -2.7214,0.9375 -4.4922,0.9375 -2.2396,0 -4.0234,-0.625 -5.3516,-1.875 -1.3151,-1.26302 -1.9726,-2.94922 -1.9726,-5.0586 0,-2.46093 0.8203,-4.31639 2.4609,-5.5664 1.6537,-1.24999 4.1146,-1.87499 7.3828,-1.875 l 5.0391,0 0,-0.35157 c 0,-1.65363 -0.5469,-2.92967 -1.6406,-3.82812 -1.0808,-0.91144 -2.6042,-1.36717 -4.5703,-1.36719 -1.2501,2e-5 -2.4675,0.14976 -3.6524,0.44922 -1.1849,0.2995 -2.3242,0.74872 -3.418,1.34766 l 0,-3.32032 c 1.3151,-0.50779 2.5912,-0.88539 3.8282,-1.13281 1.2369,-0.26039 2.4414,-0.3906 3.6132,-0.39062 3.1641,2e-5 5.5274,0.82033 7.0899,2.46093 1.5625,1.64065 2.3437,4.12762 2.3437,7.46094 m 7.0508,3.84766 0,-13.24219 3.5938,0 0,13.10547 c 0,2.07032 0.4036,3.62631 1.2109,4.66797 0.8073,1.02865 2.0182,1.54297 3.6328,1.54297 1.9401,0 3.4701,-0.61849 4.5899,-1.85547 1.1328,-1.23698 1.6992,-2.92317 1.6992,-5.0586 l 0,-12.40234 3.5937,0 0,21.875 -3.5937,0 0,-3.35937 c -0.8724,1.32812 -1.8881,2.3177 -3.0469,2.96875 -1.1458,0.63802 -2.4805,0.95703 -4.0039,0.95703 -2.513,0 -4.4206,-0.78125 -5.7227,-2.34375 -1.302,-1.5625 -1.9531,-3.84765 -1.9531,-6.85547 m 9.043,-13.76953 0,0 m 30.6641,1.17187 0,3.39844 c -1.0157,-0.52082 -2.0704,-0.91144 -3.1641,-1.17188 -1.0938,-0.26039 -2.2266,-0.3906 -3.3984,-0.39062 -1.7839,2e-5 -3.1251,0.27346 -4.0235,0.82031 -0.8854,0.54689 -1.3281,1.36721 -1.3281,2.46094 0,0.83335 0.319,1.4909 0.957,1.97266 0.638,0.46876 1.9206,0.91798 3.8477,1.34765 l 1.2304,0.27344 c 2.5521,0.54689 4.362,1.32162 5.4297,2.32422 1.0807,0.98959 1.6211,2.37631 1.6211,4.16015 0,2.03126 -0.8073,3.63933 -2.4218,4.82422 -1.6016,1.1849 -3.8087,1.77735 -6.6211,1.77735 -1.1719,0 -2.3959,-0.11719 -3.6719,-0.35157 -1.263,-0.22135 -2.5977,-0.55989 -4.0039,-1.01562 l 0,-3.71094 c 1.3281,0.69011 2.6367,1.21094 3.9258,1.5625 1.289,0.33855 2.5651,0.50782 3.8281,0.50781 1.6927,10e-6 2.9948,-0.28645 3.9062,-0.85937 0.9115,-0.58593 1.3672,-1.40625 1.3672,-2.46094 0,-0.97655 -0.332,-1.72525 -0.9961,-2.24609 -0.651,-0.52083 -2.0898,-1.02213 -4.3164,-1.50391 l -1.25,-0.29297 c -2.2265,-0.46874 -3.8346,-1.18488 -4.8242,-2.14843 -0.9896,-0.97655 -1.4844,-2.31119 -1.4844,-4.00391 0,-2.05727 0.7292,-3.64581 2.1875,-4.76563 1.4584,-1.11977 3.5287,-1.67966 6.211,-1.67968 1.3281,2e-5 2.5781,0.0977 3.75,0.29297 1.1718,0.19533 2.2526,0.4883 3.2422,0.8789 m 25.625,9.39453 0,1.75782 -16.5235,0 c 0.1563,2.47396 0.8984,4.36198 2.2266,5.66406 1.3411,1.28906 3.2031,1.93359 5.5859,1.93359 1.3802,0 2.7148,-0.16927 4.0039,-0.50781 1.3021,-0.33854 2.5911,-0.84635 3.8672,-1.52344 l 0,3.39844 c -1.2891,0.54687 -2.6107,0.96354 -3.9648,1.25 -1.3542,0.28646 -2.7279,0.42969 -4.1211,0.42969 -3.4896,0 -6.2565,-1.01563 -8.3008,-3.04688 -2.0313,-2.03124 -3.0469,-4.77864 -3.0469,-8.24219 0,-3.58071 0.9636,-6.41925 2.8906,-8.51562 1.9401,-2.10935 4.5508,-3.16404 7.8321,-3.16406 2.9427,2e-5 5.2669,0.95054 6.9726,2.85156 1.7188,1.88804 2.5781,4.45965 2.5782,7.71484 m -3.5938,-1.05468 c -0.026,-1.96614 -0.5794,-3.53514 -1.6602,-4.70704 -1.0677,-1.17185 -2.4869,-1.75779 -4.2578,-1.75781 -2.0052,2e-5 -3.6133,0.56643 -4.8242,1.69922 -1.1979,1.13283 -1.888,2.72788 -2.0703,4.78516 l 12.8125,-0.0195 m 25.7813,-15.19532 0,6.21094 7.4023,0 0,2.79297 -7.4023,0 0,11.875 c -1e-4,1.78386 0.2408,2.92969 0.7226,3.4375 0.4948,0.50781 1.4909,0.76172 2.9883,0.76172 l 3.6914,0 0,3.00781 -3.6914,0 c -2.7735,0 -4.6875,-0.51432 -5.7422,-1.54297 -1.0547,-1.04166 -1.582,-2.92968 -1.582,-5.66406 l 0,-11.875 -2.6367,0 0,-2.79297 2.6367,0 0,-6.21094 3.6133,0 m 30.332,14.88282 0,13.20312 -3.5938,0 0,-13.08594 c 0,-2.07029 -0.4036,-3.61977 -1.2109,-4.64843 -0.8073,-1.02863 -2.0182,-1.54295 -3.6328,-1.54297 -1.9401,2e-5 -3.4701,0.6185 -4.5899,1.85547 -1.1198,1.23699 -1.6797,2.92319 -1.6796,5.05859 l 0,12.36328 -3.6133,0 0,-30.39062 3.6133,0 0,11.91406 c 0.8593,-1.31509 1.8684,-2.29816 3.0273,-2.94922 1.1719,-0.65102 2.5195,-0.97654 4.043,-0.97656 2.513,2e-5 4.414,0.78127 5.7031,2.34375 1.289,1.54949 1.9336,3.83465 1.9336,6.85547 m 25.918,1.36718 0,1.75782 -16.5235,0 c 0.1563,2.47396 0.8984,4.36198 2.2266,5.66406 1.3411,1.28906 3.2031,1.93359 5.5859,1.93359 1.3802,0 2.7148,-0.16927 4.0039,-0.50781 1.3021,-0.33854 2.5911,-0.84635 3.8672,-1.52344 l 0,3.39844 c -1.2891,0.54687 -2.6107,0.96354 -3.9648,1.25 -1.3542,0.28646 -2.7279,0.42969 -4.1211,0.42969 -3.4896,0 -6.2565,-1.01563 -8.3008,-3.04688 -2.0313,-2.03124 -3.0469,-4.77864 -3.0469,-8.24219 0,-3.58071 0.9636,-6.41925 2.8906,-8.51562 1.9401,-2.10935 4.5508,-3.16404 7.8321,-3.16406 2.9427,2e-5 5.2669,0.95054 6.9726,2.85156 1.7188,1.88804 2.5781,4.45965 2.5782,7.71484 m -3.5938,-1.05468 c -0.026,-1.96614 -0.5794,-3.53514 -1.6602,-4.70704 -1.0677,-1.17185 -2.4869,-1.75779 -4.2578,-1.75781 -2.0052,2e-5 -3.6133,0.56643 -4.8242,1.69922 -1.1979,1.13283 -1.888,2.72788 -2.0703,4.78516 l 12.8125,-0.0195 m 27.6758,-0.3125 0,13.20312 -3.5938,0 0,-13.08594 c 0,-2.07029 -0.4036,-3.61977 -1.2109,-4.64843 -0.8073,-1.02863 -2.0182,-1.54295 -3.6328,-1.54297 -1.9401,2e-5 -3.4701,0.6185 -4.5899,1.85547 -1.1198,1.23699 -1.6797,2.92319 -1.6796,5.05859 l 0,12.36328 -3.6133,0 0,-21.875 3.6133,0 0,3.39844 c 0.8593,-1.31509 1.8684,-2.29816 3.0273,-2.94922 1.1719,-0.65102 2.5195,-0.97654 4.043,-0.97656 2.513,2e-5 4.414,0.78127 5.7031,2.34375 1.289,1.54949 1.9336,3.83465 1.9336,6.85547 m 20.0976,-15.95704 3.9454,0 0,29.16016 -3.9454,0 0,-29.16016 m 41.4063,11.48438 c 0.8984,-1.61456 1.9726,-2.80597 3.2226,-3.57422 1.25,-0.76821 2.7214,-1.15232 4.4141,-1.15234 2.2786,2e-5 4.0364,0.8008 5.2734,2.40234 1.237,1.58856 1.8555,3.85418 1.8555,6.79688 l 0,13.20312 -3.6133,0 0,-13.08594 c 0,-2.09634 -0.3711,-3.65232 -1.1132,-4.66797 -0.7423,-1.0156 -1.8751,-1.52341 -3.3985,-1.52343 -1.862,2e-5 -3.3333,0.6185 -4.414,1.85547 -1.0808,1.23699 -1.6212,2.92319 -1.6211,5.05859 l 0,12.36328 -3.6133,0 0,-13.08594 c 0,-2.10936 -0.3711,-3.66535 -1.1133,-4.66797 -0.7422,-1.0156 -1.888,-1.52341 -3.4375,-1.52343 -1.836,2e-5 -3.2943,0.62502 -4.375,1.875 -1.0807,1.23699 -1.6211,2.91668 -1.6211,5.03906 l 0,12.36328 -3.6133,0 0,-21.875 3.6133,0 0,3.39844 c 0.8203,-1.34113 1.8034,-2.33071 2.9492,-2.96875 1.1458,-0.638 2.5065,-0.95701 4.0821,-0.95703 1.5885,2e-5 2.9361,0.40366 4.0429,1.21093 1.1198,0.80732 1.9466,1.97919 2.4805,3.51563 m 21.9531,-4.19922 3.5938,0 0,21.875 -3.5938,0 0,-21.875 m 0,-8.51562 3.5938,0 0,4.55078 -3.5938,0 0,-4.55078 m 25.4883,19.19921 c 0,-2.60415 -0.5404,-4.62238 -1.6211,-6.05468 -1.0677,-1.43228 -2.5716,-2.14842 -4.5117,-2.14844 -1.9271,2e-5 -3.431,0.71616 -4.5117,2.14844 -1.0678,1.4323 -1.6016,3.45053 -1.6016,6.05468 0,2.59116 0.5338,4.60288 1.6016,6.03516 1.0807,1.4323 2.5846,2.14844 4.5117,2.14844 1.9401,0 3.444,-0.71614 4.5117,-2.14844 1.0807,-1.43228 1.6211,-3.444 1.6211,-6.03516 m 3.5937,8.47657 c 0,3.72395 -0.8268,6.49088 -2.4804,8.30078 -1.6537,1.82291 -4.1862,2.73436 -7.5977,2.73437 -1.263,-10e-6 -2.4544,-0.0977 -3.5742,-0.29297 -1.1198,-0.1823 -2.207,-0.46875 -3.2617,-0.85937 l 0,-3.49609 c 1.0547,0.57291 2.0963,0.99608 3.125,1.26953 1.0286,0.27343 2.0768,0.41015 3.1445,0.41015 2.3568,0 4.1211,-0.61849 5.293,-1.85547 1.1718,-1.22396 1.7578,-3.07942 1.7578,-5.5664 l 0,-1.77735 c -0.7422,1.28907 -1.6927,2.25261 -2.8516,2.89063 -1.1588,0.63802 -2.5456,0.95703 -4.1601,0.95703 -2.6823,0 -4.8438,-1.02213 -6.4844,-3.06641 -1.6406,-2.04426 -2.4609,-4.75259 -2.4609,-8.125 0,-3.3854 0.8203,-6.10024 2.4609,-8.14453 1.6406,-2.04425 3.8021,-3.06638 6.4844,-3.0664 1.6145,2e-5 3.0013,0.31903 4.1601,0.95703 1.1589,0.63804 2.1094,1.60158 2.8516,2.89062 l 0,-3.32031 3.5937,0 0,19.16016 m 25.586,-10.48828 0,13.20312 -3.5938,0 0,-13.08594 c 0,-2.07029 -0.4036,-3.61977 -1.2109,-4.64843 -0.8073,-1.02863 -2.0182,-1.54295 -3.6328,-1.54297 -1.9401,2e-5 -3.4701,0.6185 -4.5899,1.85547 -1.1198,1.23699 -1.6797,2.92319 -1.6796,5.05859 l 0,12.36328 -3.6133,0 0,-30.39062 3.6133,0 0,11.91406 c 0.8593,-1.31509 1.8684,-2.29816 3.0273,-2.94922 1.1719,-0.65102 2.5195,-0.97654 4.043,-0.97656 2.513,2e-5 4.414,0.78127 5.7031,2.34375 1.289,1.54949 1.9336,3.83465 1.9336,6.85547 m 10.7617,-14.88282 0,6.21094 7.4023,0 0,2.79297 -7.4023,0 0,11.875 c 0,1.78386 0.2409,2.92969 0.7227,3.4375 0.4947,0.50781 1.4908,0.76172 2.9882,0.76172 l 3.6914,0 0,3.00781 -3.6914,0 c -2.7734,0 -4.6875,-0.51432 -5.7421,-1.54297 -1.0547,-1.04166 -1.5821,-2.92968 -1.5821,-5.66406 l 0,-11.875 -2.6367,0 0,-2.79297 2.6367,0 0,-6.21094 3.6133,0 m 40.625,7.05078 0,3.35938 c -1.0156,-0.55988 -2.0378,-0.97654 -3.0664,-1.25 -1.0156,-0.28644 -2.0443,-0.42967 -3.0859,-0.42969 -2.3308,2e-5 -4.1407,0.74221 -5.4297,2.22656 -1.2891,1.47137 -1.9336,3.54168 -1.9336,6.21094 0,2.66928 0.6445,4.7461 1.9336,6.23047 1.289,1.47136 3.0989,2.20703 5.4297,2.20703 1.0416,0 2.0703,-0.13671 3.0859,-0.41015 1.0286,-0.28646 2.0508,-0.70964 3.0664,-1.26954 l 0,3.32032 c -1.0026,0.46875 -2.0443,0.82031 -3.125,1.05468 -1.0677,0.23438 -2.207,0.35157 -3.418,0.35157 -3.2942,0 -5.9114,-1.03516 -7.8515,-3.10547 -1.9401,-2.07031 -2.9102,-4.86328 -2.9102,-8.37891 0,-3.56769 0.9766,-6.37368 2.9297,-8.41797 1.9661,-2.04425 4.6549,-3.06638 8.0664,-3.0664 1.1068,2e-5 2.1875,0.11721 3.2422,0.35156 1.0547,0.22138 2.0768,0.55992 3.0664,1.01562 m 18.9648,2.51954 c -0.4036,-0.23436 -0.8463,-0.40363 -1.3281,-0.50782 -0.4687,-0.11717 -0.9896,-0.17576 -1.5625,-0.17578 -2.0312,2e-5 -3.5937,0.66408 -4.6875,1.99219 -1.0807,1.31512 -1.6211,3.20965 -1.6211,5.68359 l 0,11.52344 -3.6133,0 0,-21.875 3.6133,0 0,3.39844 c 0.7552,-1.32811 1.7383,-2.31118 2.9492,-2.94922 1.211,-0.65102 2.6823,-0.97654 4.4141,-0.97656 0.2474,2e-5 0.5208,0.0196 0.8203,0.0586 0.2995,0.0261 0.6315,0.0716 0.9961,0.13672 l 0.02,3.69141 m 13.75,7.51953 c -2.9036,10e-6 -4.9153,0.33204 -6.0351,0.99609 -1.1198,0.66407 -1.6797,1.79688 -1.6797,3.39844 0,1.27604 0.4167,2.29167 1.25,3.04687 0.8463,0.74219 1.9922,1.11329 3.4375,1.11328 1.9922,10e-6 3.5872,-0.70312 4.7852,-2.10937 1.2109,-1.41927 1.8163,-3.30077 1.8164,-5.64453 l 0,-0.80078 -3.5743,0 m 7.168,-1.48438 0,12.48047 -3.5937,0 0,-3.32031 c -0.8204,1.32812 -1.8425,2.3112 -3.0664,2.94922 -1.224,0.625 -2.7214,0.9375 -4.4922,0.9375 -2.2396,0 -4.0235,-0.625 -5.3516,-1.875 -1.3151,-1.26302 -1.9727,-2.94922 -1.9726,-5.0586 -10e-5,-2.46093 0.8203,-4.31639 2.4609,-5.5664 1.6536,-1.24999 4.1146,-1.87499 7.3828,-1.875 l 5.0391,0 0,-0.35157 c -1e-4,-1.65363 -0.5469,-2.92967 -1.6407,-3.82812 -1.0807,-0.91144 -2.6041,-1.36717 -4.5703,-1.36719 -1.25,2e-5 -2.4674,0.14976 -3.6523,0.44922 -1.1849,0.2995 -2.3242,0.74872 -3.418,1.34766 l 0,-3.32032 c 1.3151,-0.50779 2.5912,-0.88539 3.8281,-1.13281 1.237,-0.26039 2.4414,-0.3906 3.6133,-0.39062 3.1641,2e-5 5.5273,0.82033 7.0899,2.46093 1.5624,1.64065 2.3437,4.12762 2.3437,7.46094 m 23.1641,-8.55469 0,3.35938 c -1.0157,-0.55988 -2.0378,-0.97654 -3.0664,-1.25 -1.0157,-0.28644 -2.0443,-0.42967 -3.086,-0.42969 -2.3307,2e-5 -4.1406,0.74221 -5.4297,2.22656 -1.289,1.47137 -1.9336,3.54168 -1.9335,6.21094 -10e-5,2.66928 0.6445,4.7461 1.9335,6.23047 1.2891,1.47136 3.099,2.20703 5.4297,2.20703 1.0417,0 2.0703,-0.13671 3.086,-0.41015 1.0286,-0.28646 2.0507,-0.70964 3.0664,-1.26954 l 0,3.32032 c -1.0026,0.46875 -2.0443,0.82031 -3.125,1.05468 -1.0677,0.23438 -2.2071,0.35157 -3.418,0.35157 -3.2943,0 -5.9115,-1.03516 -7.8516,-3.10547 -1.9401,-2.07031 -2.9101,-4.86328 -2.9101,-8.37891 0,-3.56769 0.9765,-6.37368 2.9297,-8.41797 1.9661,-2.04425 4.6549,-3.06638 8.0664,-3.0664 1.1067,2e-5 2.1875,0.11721 3.2422,0.35156 1.0546,0.22138 2.0768,0.55992 3.0664,1.01562 m 6.1523,-9.35546 3.6133,0 0,17.94921 10.7227,-9.43359 4.5898,0 -11.6016,10.23438 12.0899,11.64062 -4.6875,0 -11.1133,-10.68359 0,10.68359 -3.6133,0 0,-30.39062"
     id="text2433"
     style="font-size:40px;font-style:normal;font-weight:normal;text-align:end;text-anchor:end;fill:none;stroke:#000000;stroke-width:1;stroke-linecap:butt;stroke-linejoin:miter;stroke-miterlimit:4;stroke-opacity:1;stroke-dasharray:none;font-family:Bitstream Vera Sans" />
  <path
     d="m 3728.2737,689.86768 0,3.39843 c -1.0157,-0.52081 -2.0703,-0.91144 -3.1641,-1.17187 -1.0937,-0.2604 -2.2266,-0.39061 -3.3984,-0.39063 -1.7839,2e-5 -3.125,0.27346 -4.0235,0.82032 -0.8854,0.54689 -1.3281,1.3672 -1.3281,2.46093 0,0.83335 0.319,1.4909 0.9571,1.97266 0.638,0.46876 1.9205,0.91798 3.8476,1.34766 l 1.2305,0.27343 c 2.552,0.54689 4.3619,1.32163 5.4297,2.32422 1.0807,0.98959 1.621,2.37631 1.6211,4.16016 -1e-4,2.03125 -0.8074,3.63932 -2.4219,4.82422 -1.6016,1.18489 -3.8086,1.77734 -6.6211,1.77734 -1.1719,0 -2.3959,-0.11719 -3.6719,-0.35156 -1.263,-0.22136 -2.5976,-0.5599 -4.0039,-1.01563 l 0,-3.71093 c 1.3281,0.6901 2.6367,1.21094 3.9258,1.5625 1.289,0.33854 2.5651,0.50781 3.8281,0.50781 1.6927,0 2.9948,-0.28646 3.9063,-0.85938 0.9114,-0.58593 1.3671,-1.40624 1.3672,-2.46093 -10e-5,-0.97656 -0.3321,-1.72526 -0.9961,-2.2461 -0.6511,-0.52082 -2.0899,-1.02212 -4.3164,-1.5039 l -1.25,-0.29297 c -2.2266,-0.46874 -3.8347,-1.18489 -4.8243,-2.14844 -0.9896,-0.97655 -1.4843,-2.31118 -1.4843,-4.00391 0,-2.05727 0.7291,-3.64581 2.1875,-4.76562 1.4583,-1.11977 3.5286,-1.67967 6.2109,-1.67969 1.3281,2e-5 2.5781,0.0977 3.75,0.29297 1.1719,0.19533 2.2526,0.4883 3.2422,0.87891 m 6.914,-0.64454 3.5938,0 0,21.875 -3.5938,0 0,-21.875 m 0,-8.51562 3.5938,0 0,4.55078 -3.5938,0 0,-4.55078 m 29.2774,17.1875 0,13.20312 -3.5938,0 0,-13.08593 c 0,-2.0703 -0.4036,-3.61978 -1.2109,-4.64844 -0.8073,-1.02863 -2.0182,-1.54295 -3.6328,-1.54297 -1.9401,2e-5 -3.4701,0.61851 -4.5899,1.85547 -1.1198,1.23699 -1.6797,2.92319 -1.6796,5.05859 l 0,12.36328 -3.6133,0 0,-21.875 3.6133,0 0,3.39844 c 0.8593,-1.31508 1.8684,-2.29815 3.0273,-2.94922 1.1719,-0.65102 2.5195,-0.97654 4.043,-0.97656 2.513,2e-5 4.414,0.78127 5.7031,2.34375 1.289,1.5495 1.9336,3.83465 1.9336,6.85547 m 22.9492,-7.83203 0,3.35937 c -1.0156,-0.55987 -2.0378,-0.97654 -3.0664,-1.25 -1.0156,-0.28644 -2.0443,-0.42966 -3.0859,-0.42968 -2.3308,2e-5 -4.1407,0.7422 -5.4297,2.22656 -1.2891,1.47137 -1.9336,3.54168 -1.9336,6.21094 0,2.66927 0.6445,4.7461 1.9336,6.23046 1.289,1.47136 3.0989,2.20704 5.4297,2.20704 1.0416,0 2.0703,-0.13672 3.0859,-0.41016 1.0286,-0.28646 2.0508,-0.70963 3.0664,-1.26953 l 0,3.32031 c -1.0026,0.46875 -2.0443,0.82031 -3.125,1.05469 -1.0677,0.23437 -2.207,0.35156 -3.418,0.35156 -3.2942,0 -5.9114,-1.03515 -7.8515,-3.10547 -1.9401,-2.07031 -2.9102,-4.86327 -2.9102,-8.3789 0,-3.5677 0.9766,-6.37368 2.9297,-8.41797 1.9661,-2.04425 4.6549,-3.06639 8.0664,-3.06641 1.1068,2e-5 2.1875,0.11721 3.2422,0.35156 1.0547,0.22138 2.0768,0.55992 3.0664,1.01563 m 25,9.19922 0,1.75781 -16.5234,0 c 0.1562,2.47397 0.8984,4.36198 2.2265,5.66406 1.3412,1.28907 3.2031,1.9336 5.586,1.9336 1.3802,0 2.7148,-0.16927 4.0039,-0.50782 1.302,-0.33854 2.5911,-0.84635 3.8672,-1.52343 l 0,3.39843 c -1.2891,0.54688 -2.6107,0.96355 -3.9649,1.25 -1.3542,0.28646 -2.7279,0.42969 -4.1211,0.42969 -3.4896,0 -6.2565,-1.01562 -8.3008,-3.04687 -2.0312,-2.03125 -3.0468,-4.77864 -3.0468,-8.24219 0,-3.58072 0.9635,-6.41926 2.8906,-8.51563 1.9401,-2.10935 4.5508,-3.16404 7.832,-3.16406 2.9427,2e-5 5.2669,0.95054 6.9727,2.85156 1.7187,1.88804 2.5781,4.45965 2.5781,7.71485 m -3.5937,-1.05469 c -0.026,-1.96613 -0.5795,-3.53514 -1.6602,-4.70703 -1.0677,-1.17186 -2.487,-1.75779 -4.2578,-1.75781 -2.0052,2e-5 -3.6133,0.56642 -4.8242,1.69921 -1.198,1.13283 -1.8881,2.72788 -2.0703,4.78516 l 12.8125,-0.0195 m 22.2265,-8.98438 3.5938,0 0,21.875 -3.5938,0 0,-21.875 m 0,-8.51562 3.5938,0 0,4.55078 -3.5938,0 0,-4.55078 m 14.6485,2.30469 0,6.21093 7.4023,0 0,2.79297 -7.4023,0 0,11.875 c -1e-4,1.78386 0.2408,2.9297 0.7226,3.4375 0.4948,0.50782 1.4909,0.76173 2.9883,0.76172 l 3.6914,0 0,3.00781 -3.6914,0 c -2.7735,0 -4.6875,-0.51432 -5.7422,-1.54296 -1.0547,-1.04167 -1.582,-2.92969 -1.582,-5.66407 l 0,-11.875 -2.6367,0 0,-2.79297 2.6367,0 0,-6.21093 3.6133,0 m 34.8242,17.08984 c -2.9037,10e-6 -4.9154,0.33204 -6.0352,0.99609 -1.1198,0.66408 -1.6797,1.79689 -1.6797,3.39844 0,1.27605 0.4167,2.29167 1.25,3.04688 0.8464,0.74219 1.9922,1.11328 3.4375,1.11328 1.9922,0 3.5873,-0.70312 4.7852,-2.10938 1.2109,-1.41926 1.8164,-3.30077 1.8164,-5.64453 l 0,-0.80078 -3.5742,0 m 7.1679,-1.48437 0,12.48046 -3.5937,0 0,-3.32031 c -0.8203,1.32813 -1.8425,2.3112 -3.0664,2.94922 -1.224,0.625 -2.7214,0.9375 -4.4922,0.9375 -2.2396,0 -4.0234,-0.625 -5.3516,-1.875 -1.3151,-1.26302 -1.9726,-2.94921 -1.9726,-5.05859 0,-2.46093 0.8203,-4.3164 2.4609,-5.56641 1.6537,-1.24999 4.1146,-1.87499 7.3828,-1.875 l 5.0391,0 0,-0.35156 c 0,-1.65363 -0.5469,-2.92967 -1.6406,-3.82813 -1.0808,-0.91144 -2.6042,-1.36716 -4.5703,-1.36718 -1.2501,2e-5 -2.4675,0.14975 -3.6524,0.44921 -1.1849,0.2995 -2.3242,0.74872 -3.418,1.34766 l 0,-3.32031 c 1.3151,-0.50779 2.5912,-0.8854 3.8282,-1.13281 1.2369,-0.2604 2.4414,-0.39061 3.6133,-0.39063 3.164,2e-5 5.5273,0.82033 7.0898,2.46094 1.5625,1.64064 2.3437,4.12762 2.3437,7.46094 m 7.4219,-17.91016 3.5938,0 0,30.39062 -3.5938,0 0,-30.39062 m 11.0938,0 3.5937,0 0,30.39062 -3.5937,0 0,-30.39062 m 39.5312,19.47266 c 0,-2.64322 -0.5469,-4.71353 -1.6406,-6.21094 -1.0808,-1.5104 -2.5716,-2.26561 -4.4727,-2.26563 -1.901,2e-5 -3.3984,0.75523 -4.4921,2.26563 -1.0808,1.49741 -1.6212,3.56772 -1.6211,6.21094 -1e-4,2.64323 0.5403,4.72005 1.6211,6.23046 1.0937,1.4974 2.5911,2.2461 4.4921,2.2461 1.9011,0 3.3919,-0.7487 4.4727,-2.2461 1.0937,-1.51041 1.6406,-3.58723 1.6406,-6.23046 m -12.2265,-7.63672 c 0.7552,-1.30207 1.7057,-2.26561 2.8515,-2.89063 1.1589,-0.638 2.5391,-0.95701 4.1406,-0.95703 2.6563,2e-5 4.8112,1.05471 6.4649,3.16406 1.6666,2.1094 2.5,4.88283 2.5,8.32032 0,3.4375 -0.8334,6.21094 -2.5,8.32031 -1.6537,2.10937 -3.8086,3.16406 -6.4649,3.16406 -1.6015,0 -2.9817,-0.3125 -4.1406,-0.9375 -1.1458,-0.63802 -2.0963,-1.60807 -2.8515,-2.91016 l 0,3.28125 -3.6133,0 0,-30.39062 3.6133,0 0,11.83594 m 40.625,6.71875 0,1.75781 -16.5235,0 c 0.1563,2.47397 0.8984,4.36198 2.2266,5.66406 1.3411,1.28907 3.2031,1.9336 5.5859,1.9336 1.3802,0 2.7148,-0.16927 4.0039,-0.50782 1.3021,-0.33854 2.5912,-0.84635 3.8672,-1.52343 l 0,3.39843 c -1.2891,0.54688 -2.6107,0.96355 -3.9648,1.25 -1.3542,0.28646 -2.7279,0.42969 -4.1211,0.42969 -3.4896,0 -6.2565,-1.01562 -8.3008,-3.04687 -2.0313,-2.03125 -3.0469,-4.77864 -3.0469,-8.24219 0,-3.58072 0.9636,-6.41926 2.8906,-8.51563 1.9401,-2.10935 4.5508,-3.16404 7.8321,-3.16406 2.9427,2e-5 5.2669,0.95054 6.9726,2.85156 1.7188,1.88804 2.5781,4.45965 2.5782,7.71485 m -3.5938,-1.05469 c -0.026,-1.96613 -0.5794,-3.53514 -1.6601,-4.70703 -1.0678,-1.17186 -2.487,-1.75779 -4.2579,-1.75781 -2.0052,2e-5 -3.6133,0.56642 -4.8242,1.69921 -1.1979,1.13283 -1.888,2.72788 -2.0703,4.78516 l 12.8125,-0.0195 m 23.8867,1.69922 c 0,-2.60415 -0.5404,-4.62238 -1.6211,-6.05469 -1.0677,-1.43227 -2.5716,-2.14842 -4.5117,-2.14844 -1.9271,2e-5 -3.431,0.71617 -4.5117,2.14844 -1.0677,1.43231 -1.6016,3.45054 -1.6016,6.05469 0,2.59115 0.5339,4.60287 1.6016,6.03515 1.0807,1.4323 2.5846,2.14845 4.5117,2.14844 1.9401,1e-5 3.444,-0.71614 4.5117,-2.14844 1.0807,-1.43228 1.6211,-3.444 1.6211,-6.03515 m 3.5938,8.47656 c 0,3.72396 -0.8269,6.49088 -2.4805,8.30078 -1.6537,1.82291 -4.1862,2.73437 -7.5976,2.73438 -1.2631,-10e-6 -2.4545,-0.0977 -3.5743,-0.29297 -1.1198,-0.1823 -2.207,-0.46876 -3.2617,-0.85938 l 0,-3.49609 c 1.0547,0.57291 2.0964,0.99609 3.125,1.26953 1.0286,0.27343 2.0768,0.41015 3.1445,0.41016 2.3568,-10e-6 4.1211,-0.6185 5.293,-1.85547 1.1719,-1.22396 1.7578,-3.07943 1.7578,-5.56641 l 0,-1.77734 c -0.7422,1.28906 -1.6927,2.2526 -2.8515,2.89062 -1.1589,0.63802 -2.5456,0.95703 -4.1602,0.95703 -2.6823,0 -4.8437,-1.02213 -6.4844,-3.0664 -1.6406,-2.04427 -2.4609,-4.7526 -2.4609,-8.125 0,-3.3854 0.8203,-6.10024 2.4609,-8.14453 1.6407,-2.04425 3.8021,-3.06639 6.4844,-3.06641 1.6146,2e-5 3.0013,0.31903 4.1602,0.95703 1.1588,0.63804 2.1093,1.60158 2.8515,2.89063 l 0,-3.32032 3.5938,0 0,19.16016 m 7.0312,-5.91797 0,-13.24219 3.5938,0 0,13.10547 c 0,2.07032 0.4036,3.62631 1.2109,4.66797 0.8073,1.02865 2.0182,1.54297 3.6328,1.54297 1.9401,0 3.4701,-0.61849 4.5899,-1.85547 1.1328,-1.23697 1.6992,-2.92317 1.6992,-5.05859 l 0,-12.40235 3.5937,0 0,21.875 -3.5937,0 0,-3.35937 c -0.8724,1.32813 -1.888,2.31771 -3.0469,2.96875 -1.1458,0.63802 -2.4805,0.95703 -4.0039,0.95703 -2.513,0 -4.4206,-0.78125 -5.7226,-2.34375 -1.3021,-1.5625 -1.9532,-3.84765 -1.9532,-6.85547 m 9.043,-13.76953 0,0 m 34.9023,9.19922 0,13.20312 -3.5937,0 0,-13.08593 c 0,-2.0703 -0.4037,-3.61978 -1.2109,-4.64844 -0.8074,-1.02863 -2.0183,-1.54295 -3.6329,-1.54297 -1.9401,2e-5 -3.47,0.61851 -4.5898,1.85547 -1.1198,1.23699 -1.6797,2.92319 -1.6797,5.05859 l 0,12.36328 -3.6133,0 0,-21.875 3.6133,0 0,3.39844 c 0.8594,-1.31508 1.8685,-2.29815 3.0274,-2.94922 1.1718,-0.65102 2.5195,-0.97654 4.0429,-0.97656 2.513,2e-5 4.4141,0.78127 5.7031,2.34375 1.2891,1.5495 1.9336,3.83465 1.9336,6.85547 m -547.6367,34.04297 3.9453,0 0,29.16015 -3.9453,0 0,-29.16015 m 15.0391,0 0,10.83984 -3.3203,0 0,-10.83984 3.3203,0 m 5.039,7.28515 3.8086,0 6.836,18.35938 6.8359,-18.35938 3.8086,0 -8.2031,21.875 -4.8828,0 -8.2032,-21.875 m 44.961,10.03907 0,1.75781 -16.5235,0 c 0.1563,2.47397 0.8985,4.36198 2.2266,5.66406 1.3411,1.28907 3.2031,1.9336 5.5859,1.9336 1.3802,0 2.7149,-0.16927 4.004,-0.50782 1.302,-0.33854 2.5911,-0.84635 3.8671,-1.52343 l 0,3.39843 c -1.289,0.54688 -2.6107,0.96355 -3.9648,1.25 -1.3542,0.28646 -2.7279,0.42969 -4.1211,0.42969 -3.4896,0 -6.2565,-1.01562 -8.3008,-3.04687 -2.0312,-2.03125 -3.0469,-4.77864 -3.0469,-8.24219 0,-3.58072 0.9636,-6.41926 2.8907,-8.51563 1.9401,-2.10935 4.5507,-3.16404 7.832,-3.16406 2.9427,2e-5 5.2669,0.95054 6.9727,2.85156 1.7187,1.88804 2.5781,4.45965 2.5781,7.71485 m -3.5938,-1.05469 c -0.026,-1.96613 -0.5794,-3.53514 -1.6601,-4.70703 -1.0677,-1.17186 -2.487,-1.75779 -4.2578,-1.75781 -2.0053,2e-5 -3.6133,0.56642 -4.8243,1.69921 -1.1979,1.13283 -1.888,2.72788 -2.0703,4.78516 l 12.8125,-0.0195 m 32.168,1.89453 c -2.9037,1e-5 -4.9154,0.33204 -6.0352,0.99609 -1.1198,0.66408 -1.6796,1.79689 -1.6796,3.39844 0,1.27605 0.4166,2.29167 1.25,3.04688 0.8463,0.74219 1.9921,1.11328 3.4375,1.11328 1.9921,0 3.5872,-0.70312 4.7851,-2.10938 1.2109,-1.41926 1.8164,-3.30077 1.8164,-5.64453 l 0,-0.80078 -3.5742,0 m 7.168,-1.48437 0,12.48046 -3.5938,0 0,-3.32031 c -0.8203,1.32813 -1.8424,2.3112 -3.0664,2.94922 -1.224,0.625 -2.7214,0.9375 -4.4922,0.9375 -2.2396,0 -4.0234,-0.625 -5.3515,-1.875 -1.3151,-1.26302 -1.9727,-2.94921 -1.9727,-5.05859 0,-2.46093 0.8203,-4.3164 2.4609,-5.56641 1.6537,-1.24999 4.1146,-1.87499 7.3829,-1.875 l 5.039,0 0,-0.35156 c 0,-1.65363 -0.5469,-2.92967 -1.6406,-3.82813 -1.0807,-0.91144 -2.6042,-1.36716 -4.5703,-1.36718 -1.25,2e-5 -2.4675,0.14975 -3.6524,0.44921 -1.1849,0.2995 -2.3242,0.74872 -3.4179,1.34766 l 0,-3.32031 c 1.3151,-0.50779 2.5911,-0.8854 3.8281,-1.13281 1.237,-0.2604 2.4414,-0.39061 3.6133,-0.39063 3.164,2e-5 5.5273,0.82033 7.0898,2.46094 1.5625,1.64064 2.3437,4.12762 2.3438,7.46094 m 7.4218,-17.91016 3.5938,0 0,30.39062 -3.5938,0 0,-30.39062 m 9.004,8.51562 3.5937,0 4.4922,17.07032 4.4726,-17.07032 4.2383,0 4.4922,17.07032 4.4727,-17.07032 3.5937,0 -5.7226,21.875 -4.2383,0 -4.707,-17.92968 -4.7266,17.92968 -4.2383,0 -5.7226,-21.875 m 44.7656,10.87891 c -2.9037,1e-5 -4.9154,0.33204 -6.0352,0.99609 -1.1198,0.66408 -1.6797,1.79689 -1.6797,3.39844 0,1.27605 0.4167,2.29167 1.25,3.04688 0.8464,0.74219 1.9922,1.11328 3.4375,1.11328 1.9922,0 3.5873,-0.70312 4.7852,-2.10938 1.2109,-1.41926 1.8164,-3.30077 1.8164,-5.64453 l 0,-0.80078 -3.5742,0 m 7.1679,-1.48437 0,12.48046 -3.5937,0 0,-3.32031 c -0.8203,1.32813 -1.8425,2.3112 -3.0664,2.94922 -1.224,0.625 -2.7214,0.9375 -4.4922,0.9375 -2.2396,0 -4.0234,-0.625 -5.3516,-1.875 -1.3151,-1.26302 -1.9726,-2.94921 -1.9726,-5.05859 0,-2.46093 0.8203,-4.3164 2.4609,-5.56641 1.6537,-1.24999 4.1146,-1.87499 7.3828,-1.875 l 5.0391,0 0,-0.35156 c 0,-1.65363 -0.5469,-2.92967 -1.6406,-3.82813 -1.0808,-0.91144 -2.6042,-1.36716 -4.5703,-1.36718 -1.2501,2e-5 -2.4675,0.14975 -3.6524,0.44921 -1.1849,0.2995 -2.3242,0.74872 -3.418,1.34766 l 0,-3.32031 c 1.3151,-0.50779 2.5912,-0.8854 3.8282,-1.13281 1.2369,-0.2604 2.4414,-0.39061 3.6133,-0.39063 3.164,2e-5 5.5273,0.82033 7.0898,2.46094 1.5625,1.64064 2.3437,4.12762 2.3437,7.46094 m 16.5235,14.51171 c -1.0157,2.60417 -2.0052,4.30338 -2.9688,5.09766 -0.9635,0.79426 -2.2526,1.1914 -3.8672,1.19141 l -2.871,0 0,-3.00782 2.1093,0 c 0.9896,0 1.7578,-0.23438 2.3047,-0.70312 0.5469,-0.46875 1.1523,-1.57552 1.8164,-3.32031 l 0.6446,-1.64063 -8.8477,-21.52344 3.8086,0 6.8359,17.10938 6.836,-17.10938 3.8086,0 -9.6094,23.90625 m 28.5156,-23.26171 0,3.39843 c -1.0156,-0.52081 -2.0703,-0.91144 -3.1641,-1.17187 -1.0937,-0.2604 -2.2265,-0.39061 -3.3984,-0.39063 -1.7839,2e-5 -3.125,0.27346 -4.0234,0.82032 -0.8855,0.54689 -1.3282,1.3672 -1.3282,2.46093 0,0.83335 0.319,1.4909 0.9571,1.97266 0.638,0.46876 1.9205,0.91798 3.8476,1.34766 l 1.2305,0.27343 c 2.5521,0.54689 4.362,1.32163 5.4297,2.32422 1.0807,0.98959 1.6211,2.37631 1.6211,4.16016 0,2.03125 -0.8073,3.63932 -2.4219,4.82422 -1.6016,1.18489 -3.8086,1.77734 -6.6211,1.77734 -1.1719,0 -2.3958,-0.11719 -3.6719,-0.35156 -1.263,-0.22136 -2.5976,-0.5599 -4.0039,-1.01563 l 0,-3.71093 c 1.3282,0.6901 2.6367,1.21094 3.9258,1.5625 1.2891,0.33854 2.5651,0.50781 3.8281,0.50781 1.6927,0 2.9948,-0.28646 3.9063,-0.85938 0.9114,-0.58593 1.3672,-1.40624 1.3672,-2.46093 0,-0.97656 -0.3321,-1.72526 -0.9961,-2.2461 -0.6511,-0.52082 -2.0899,-1.02212 -4.3164,-1.5039 l -1.25,-0.29297 c -2.2266,-0.46874 -3.8347,-1.18489 -4.8242,-2.14844 -0.9896,-0.97655 -1.4844,-2.31118 -1.4844,-4.00391 0,-2.05727 0.7291,-3.64581 2.1875,-4.76562 1.4583,-1.11977 3.5286,-1.67967 6.2109,-1.67969 1.3281,2e-5 2.5781,0.0977 3.75,0.29297 1.1719,0.19533 2.2526,0.4883 3.2422,0.87891 m 35.3516,10.3125 c -10e-5,-2.64322 -0.5469,-4.71353 -1.6407,-6.21094 -1.0807,-1.5104 -2.5716,-2.26561 -4.4726,-2.26563 -1.9011,2e-5 -3.3985,0.75523 -4.4922,2.26563 -1.0807,1.49741 -1.6211,3.56772 -1.6211,6.21094 0,2.64323 0.5404,4.72005 1.6211,6.23046 1.0937,1.4974 2.5911,2.2461 4.4922,2.2461 1.901,0 3.3919,-0.7487 4.4726,-2.2461 1.0938,-1.51041 1.6406,-3.58723 1.6407,-6.23046 m -12.2266,-7.63672 c 0.7552,-1.30207 1.7057,-2.26561 2.8516,-2.89063 1.1588,-0.638 2.539,-0.95701 4.1406,-0.95703 2.6562,2e-5 4.8112,1.05471 6.4648,3.16406 1.6667,2.1094 2.5,4.88283 2.5,8.32032 0,3.4375 -0.8333,6.21094 -2.5,8.32031 -1.6536,2.10937 -3.8086,3.16406 -6.4648,3.16406 -1.6016,0 -2.9818,-0.3125 -4.1406,-0.9375 -1.1459,-0.63802 -2.0964,-1.60807 -2.8516,-2.91016 l 0,3.28125 -3.6133,0 0,-30.39062 3.6133,0 0,11.83594 m 40.625,6.71875 0,1.75781 -16.5234,0 c 0.1562,2.47397 0.8984,4.36198 2.2265,5.66406 1.3412,1.28907 3.2031,1.9336 5.586,1.9336 1.3802,0 2.7148,-0.16927 4.0039,-0.50782 1.302,-0.33854 2.5911,-0.84635 3.8672,-1.52343 l 0,3.39843 c -1.2891,0.54688 -2.6107,0.96355 -3.9649,1.25 -1.3542,0.28646 -2.7279,0.42969 -4.1211,0.42969 -3.4896,0 -6.2565,-1.01562 -8.3008,-3.04687 -2.0312,-2.03125 -3.0468,-4.77864 -3.0468,-8.24219 0,-3.58072 0.9635,-6.41926 2.8906,-8.51563 1.9401,-2.10935 4.5508,-3.16404 7.832,-3.16406 2.9427,2e-5 5.2669,0.95054 6.9727,2.85156 1.7187,1.88804 2.5781,4.45965 2.5781,7.71485 m -3.5937,-1.05469 c -0.026,-1.96613 -0.5795,-3.53514 -1.6602,-4.70703 -1.0677,-1.17186 -2.487,-1.75779 -4.2578,-1.75781 -2.0052,2e-5 -3.6133,0.56642 -4.8242,1.69921 -1.198,1.13283 -1.8881,2.72788 -2.0703,4.78516 l 12.8125,-0.0195 m 28.2031,1.05469 0,1.75781 -16.5235,0 c 0.1563,2.47397 0.8985,4.36198 2.2266,5.66406 1.3411,1.28907 3.2031,1.9336 5.5859,1.9336 1.3802,0 2.7149,-0.16927 4.004,-0.50782 1.302,-0.33854 2.5911,-0.84635 3.8671,-1.52343 l 0,3.39843 c -1.289,0.54688 -2.6107,0.96355 -3.9648,1.25 -1.3542,0.28646 -2.7279,0.42969 -4.1211,0.42969 -3.4896,0 -6.2565,-1.01562 -8.3008,-3.04687 -2.0312,-2.03125 -3.0469,-4.77864 -3.0469,-8.24219 0,-3.58072 0.9636,-6.41926 2.8907,-8.51563 1.9401,-2.10935 4.5507,-3.16404 7.832,-3.16406 2.9427,2e-5 5.2669,0.95054 6.9727,2.85156 1.7187,1.88804 2.5781,4.45965 2.5781,7.71485 m -3.5938,-1.05469 c -0.026,-1.96613 -0.5794,-3.53514 -1.6601,-4.70703 -1.0677,-1.17186 -2.487,-1.75779 -4.2578,-1.75781 -2.0053,2e-5 -3.6133,0.56642 -4.8243,1.69921 -1.1979,1.13283 -1.888,2.72788 -2.0703,4.78516 l 12.8125,-0.0195 m 27.6758,-0.3125 0,13.20312 -3.5937,0 0,-13.08593 c -1e-4,-2.0703 -0.4037,-3.61978 -1.211,-4.64844 -0.8073,-1.02863 -2.0182,-1.54295 -3.6328,-1.54297 -1.9401,2e-5 -3.47,0.61851 -4.5898,1.85547 -1.1198,1.23699 -1.6797,2.92319 -1.6797,5.05859 l 0,12.36328 -3.6133,0 0,-21.875 3.6133,0 0,3.39844 c 0.8593,-1.31508 1.8685,-2.29815 3.0273,-2.94922 1.1719,-0.65102 2.5195,-0.97654 4.043,-0.97656 2.513,2e-5 4.414,0.78127 5.7031,2.34375 1.2891,1.5495 1.9336,3.83465 1.9336,6.85547 m 28.418,-6.15234 c -1.9271,2e-5 -3.4505,0.75522 -4.5703,2.26562 -1.1198,1.49741 -1.6797,3.5547 -1.6797,6.17188 0,2.61719 0.5534,4.68099 1.6601,6.1914 1.1198,1.4974 2.6498,2.2461 4.5899,2.2461 1.914,0 3.431,-0.75521 4.5508,-2.26563 1.1197,-1.51041 1.6796,-3.5677 1.6797,-6.17187 -10e-5,-2.59114 -0.56,-4.64192 -1.6797,-6.15235 -1.1198,-1.52342 -2.6368,-2.28513 -4.5508,-2.28515 m 0,-3.04688 c 3.125,2e-5 5.5794,1.01565 7.3633,3.04688 1.7838,2.03126 2.6757,4.84376 2.6757,8.4375 0,3.58073 -0.8919,6.39323 -2.6757,8.4375 -1.7839,2.03125 -4.2383,3.04687 -7.3633,3.04687 -3.138,0 -5.599,-1.01562 -7.3828,-3.04687 -1.7709,-2.04427 -2.6563,-4.85677 -2.6563,-8.4375 0,-3.59374 0.8854,-6.40624 2.6563,-8.4375 1.7838,-2.03123 4.2448,-3.04686 7.3828,-3.04688 m 34.1601,9.19922 0,13.20312 -3.5937,0 0,-13.08593 c 0,-2.0703 -0.4037,-3.61978 -1.2109,-4.64844 -0.8074,-1.02863 -2.0183,-1.54295 -3.6329,-1.54297 -1.9401,2e-5 -3.47,0.61851 -4.5898,1.85547 -1.1198,1.23699 -1.6797,2.92319 -1.6797,5.05859 l 0,12.36328 -3.6133,0 0,-21.875 3.6133,0 0,3.39844 c 0.8594,-1.31508 1.8685,-2.29815 3.0274,-2.94922 1.1718,-0.65102 2.5195,-0.97654 4.0429,-0.97656 2.513,2e-5 4.4141,0.78127 5.7031,2.34375 1.2891,1.5495 1.9336,3.83465 1.9336,6.85547 m 23.4961,-14.88281 0,6.21093 7.4024,0 0,2.79297 -7.4024,0 0,11.875 c 0,1.78386 0.2409,2.9297 0.7227,3.4375 0.4948,0.50782 1.4909,0.76173 2.9883,0.76172 l 3.6914,0 0,3.00781 -3.6914,0 c -2.7735,0 -4.6875,-0.51432 -5.7422,-1.54296 -1.0547,-1.04167 -1.5821,-2.92969 -1.582,-5.66407 l 0,-11.875 -2.6368,0 0,-2.79297 2.6368,0 0,-6.21093 3.6132,0 m 30.3321,14.88281 0,13.20312 -3.5938,0 0,-13.08593 c 0,-2.0703 -0.4037,-3.61978 -1.2109,-4.64844 -0.8073,-1.02863 -2.0183,-1.54295 -3.6328,-1.54297 -1.9402,2e-5 -3.4701,0.61851 -4.5899,1.85547 -1.1198,1.23699 -1.6797,2.92319 -1.6797,5.05859 l 0,12.36328 -3.6132,0 0,-30.39062 3.6132,0 0,11.91406 c 0.8594,-1.31508 1.8685,-2.29815 3.0274,-2.94922 1.1718,-0.65102 2.5195,-0.97654 4.0429,-0.97656 2.513,2e-5 4.4141,0.78127 5.7032,2.34375 1.289,1.5495 1.9335,3.83465 1.9336,6.85547 m 25.9179,1.36719 0,1.75781 -16.5234,0 c 0.1562,2.47397 0.8984,4.36198 2.2266,5.66406 1.3411,1.28907 3.2031,1.9336 5.5859,1.9336 1.3802,0 2.7148,-0.16927 4.0039,-0.50782 1.3021,-0.33854 2.5911,-0.84635 3.8672,-1.52343 l 0,3.39843 c -1.2891,0.54688 -2.6107,0.96355 -3.9649,1.25 -1.3541,0.28646 -2.7278,0.42969 -4.121,0.42969 -3.4896,0 -6.2566,-1.01562 -8.3008,-3.04687 -2.0313,-2.03125 -3.0469,-4.77864 -3.0469,-8.24219 0,-3.58072 0.9635,-6.41926 2.8906,-8.51563 1.9401,-2.10935 4.5508,-3.16404 7.8321,-3.16406 2.9426,2e-5 5.2669,0.95054 6.9726,2.85156 1.7187,1.88804 2.5781,4.45965 2.5781,7.71485 m -3.5937,-1.05469 c -0.026,-1.96613 -0.5795,-3.53514 -1.6602,-4.70703 -1.0677,-1.17186 -2.487,-1.75779 -4.2578,-1.75781 -2.0052,2e-5 -3.6133,0.56642 -4.8242,1.69921 -1.1979,1.13283 -1.888,2.72788 -2.0703,4.78516 l 12.8125,-0.0195 m 34.9023,-5.625 c -0.4036,-0.23436 -0.8463,-0.40363 -1.3281,-0.50781 -0.4688,-0.11717 -0.9896,-0.17577 -1.5625,-0.17578 -2.0313,1e-5 -3.5938,0.66408 -4.6875,1.99218 -1.0807,1.31512 -1.6211,3.20965 -1.6211,5.6836 l 0,11.52343 -3.6133,0 0,-21.875 3.6133,0 0,3.39844 c 0.7552,-1.3281 1.7383,-2.31118 2.9492,-2.94922 1.211,-0.65102 2.6823,-0.97654 4.4141,-0.97656 0.2474,2e-5 0.5208,0.0195 0.8203,0.0586 0.2995,0.0261 0.6315,0.0716 0.9961,0.13672 l 0.019,3.69141 m 3.4375,9.88281 0,-13.24219 3.5938,0 0,13.10547 c 0,2.07032 0.4036,3.62631 1.2109,4.66797 0.8073,1.02865 2.0182,1.54297 3.6328,1.54297 1.9401,0 3.4701,-0.61849 4.5899,-1.85547 1.1328,-1.23697 1.6992,-2.92317 1.6992,-5.05859 l 0,-12.40235 3.5937,0 0,21.875 -3.5937,0 0,-3.35937 c -0.8724,1.32813 -1.888,2.31771 -3.0469,2.96875 -1.1458,0.63802 -2.4805,0.95703 -4.0039,0.95703 -2.513,0 -4.4206,-0.78125 -5.7226,-2.34375 -1.3021,-1.5625 -1.9532,-3.84765 -1.9532,-6.85547 m 9.043,-13.76953 0,0 m 34.9023,9.19922 0,13.20312 -3.5937,0 0,-13.08593 c 0,-2.0703 -0.4037,-3.61978 -1.2109,-4.64844 -0.8074,-1.02863 -2.0183,-1.54295 -3.6329,-1.54297 -1.9401,2e-5 -3.47,0.61851 -4.5898,1.85547 -1.1198,1.23699 -1.6797,2.92319 -1.6797,5.05859 l 0,12.36328 -3.6133,0 0,-21.875 3.6133,0 0,3.39844 c 0.8594,-1.31508 1.8685,-2.29815 3.0274,-2.94922 1.1718,-0.65102 2.5195,-0.97654 4.0429,-0.97656 2.513,2e-5 4.4141,0.78127 5.7031,2.34375 1.2891,1.5495 1.9336,3.83465 1.9336,6.85547"
     id="text2443"
     style="font-size:40px;font-style:normal;font-weight:normal;text-align:end;text-anchor:end;fill:none;stroke:#000000;stroke-width:1;stroke-linecap:butt;stroke-linejoin:miter;stroke-miterlimit:4;stroke-opacity:1;stroke-dasharray:none;font-family:Bitstream Vera Sans" />
  <path
     d="m 2723.3167,934.30597 302.5907,0 0,75.64773 -302.5907,0 0,-75.64773 z"
     id="rect2407"
     style="fill:none;stroke:#000000;stroke-width:1;stroke-linejoin:round;stroke-miterlimit:4;stroke-opacity:1" />
  <path
     d="m 2759.2078,956.19202 -7.4922,20.3164 15.0117,0 -7.5195,-20.3164 m -3.1172,-5.44141 6.2617,0 15.5586,40.82422 -5.7422,0 -3.7187,-10.47266 -18.4024,0 -3.7187,10.47266 -5.8243,0 15.586,-40.82422 m 27.7539,0 5.5234,0 0,40.82422 -5.5234,0 0,-40.82422 m 16.5156,0 8.2305,0 10.4179,27.78125 10.4727,-27.78125 8.2305,0 0,40.82422 -5.3867,0 0,-35.84766 -10.5274,28 -5.5508,0 -10.5273,-28 0,35.84766 -5.3594,0 0,-40.82422 m 62.5352,0 5.5781,0 8.5859,34.50781 8.5586,-34.50781 6.2071,0 8.5859,34.50781 8.5586,-34.50781 5.6055,0 -10.254,40.82422 -6.9453,0 -8.6132,-35.4375 -8.6954,35.4375 -6.9453,0 -10.2265,-40.82422 m 58.9804,0 25.8125,0 0,4.64844 -20.289,0 0,12.08594 19.4414,0 0,4.64843 -19.4414,0 0,14.79297 20.7812,0 0,4.64844 -26.3047,0 0,-40.82422 m 35.4375,0 5.5235,0 0,36.17578 19.8789,0 0,4.64844 -25.4024,0 0,-40.82422 m 31.1719,0 5.5234,0 0,36.17578 19.879,0 0,4.64844 -25.4024,0 0,-40.82422"
     id="text2409"
     style="font-size:56px;font-style:normal;font-weight:normal;fill:none;stroke:#000000;stroke-width:1px;stroke-linecap:butt;stroke-linejoin:miter;stroke-opacity:1;font-family:Bitstream Vera Sans" />
  <path
     d="m 2614.7241,821.93131 -37.3029,0 0,-113.31645 -38.0068,0 0,113.31645 -37.3029,0 56.3063,64.04842 56.3063,-64.04842 z"
     id="path2413"
     style="fill:none;stroke:#000000;stroke-width:1px;stroke-linecap:butt;stroke-linejoin:miter;stroke-opacity:1" />
  <path
     d="m 2623.1701,5368.6655 0,-112.6126 -130.9122,0 0,108.3897"
     id="path2418"
     style="fill:none;stroke:#000000;stroke-width:1px;stroke-linecap:butt;stroke-linejoin:miter;stroke-opacity:1" />
  <path
     d="m 2362.9948,5404.7722 c 0,0 -79.6291,-103.5179 -201.0636,-113.4716 -121.4344,-9.9536 -298.6093,157.2676 -416.0623,115.4623 -117.4529,-41.8053 -175.1841,-147.3139 -298.6092,-125.4159 -123.4252,21.898 -292.6371,-27.8702 -418.053,65.694"
     id="path3232"
     style="fill:none;stroke:#000000;stroke-width:1px;stroke-linecap:butt;stroke-linejoin:miter;stroke-opacity:1" />
  <path
     d="m 1693.4121,5052.6465 c 0,24.8648 -20.1802,45.045 -45.045,45.045 -24.8649,0 -45.0451,-20.1802 -45.0451,-45.045 0,-24.8649 20.1802,-45.0451 45.0451,-45.0451 24.8648,0 45.045,20.1802 45.045,45.0451 z"
     id="path3234"
     style="fill:none;stroke:#000000;stroke-width:1;stroke-linejoin:round;stroke-miterlimit:4;stroke-opacity:1" />
  <path
     d="m 1646.9595,4997.7477 0,-33.7837"
     id="path3236"
     style="fill:none;stroke:#000000;stroke-width:1px;stroke-linecap:butt;stroke-linejoin:miter;stroke-opacity:1" />
  <path
     d="m 1677.9279,5004.786 14.0766,-30.9684"
     id="path3238"
     style="fill:none;stroke:#000000;stroke-width:1px;stroke-linecap:butt;stroke-linejoin:miter;stroke-opacity:1" />
  <path
     d="m 1703.2658,5028.7162 22.5225,-16.8919"
     id="path3240"
     style="fill:none;stroke:#000000;stroke-width:1px;stroke-linecap:butt;stroke-linejoin:miter;stroke-opacity:1" />
  <path
     d="m 1707.4887,5059.6847 28.1532,16.8919"
     id="path3242"
     style="fill:none;stroke:#000000;stroke-width:1px;stroke-linecap:butt;stroke-linejoin:miter;stroke-opacity:1" />
  <path
     d="m 1690.5969,5094.8761 5.6306,28.1532"
     id="path3244"
     style="fill:none;stroke:#000000;stroke-width:1px;stroke-linecap:butt;stroke-linejoin:miter;stroke-opacity:1" />
  <path
     d="m 1653.9978,5114.5833 0,26.7455"
     id="path3246"
     style="fill:none;stroke:#000000;stroke-width:1px;stroke-linecap:butt;stroke-linejoin:miter;stroke-opacity:1" />
  <path
     d="m 1617.3987,5096.2838 -22.5226,16.8919"
     id="path3248"
     style="fill:none;stroke:#000000;stroke-width:1px;stroke-linecap:butt;stroke-linejoin:miter;stroke-opacity:1" />
  <path
     d="m 1600.5068,5069.5383 -36.5991,7.0383"
     id="path3250"
     style="fill:none;stroke:#000000;stroke-width:1px;stroke-linecap:butt;stroke-linejoin:miter;stroke-opacity:1" />
  <path
     d="M 1593.4685,5031.5315 1566.723,5017.455"
     id="path3252"
     style="fill:none;stroke:#000000;stroke-width:1px;stroke-linecap:butt;stroke-linejoin:miter;stroke-opacity:1" />
  <path
     d="m 1617.3987,5007.6013 -18.2996,-26.7454"
     id="path3254"
     style="fill:none;stroke:#000000;stroke-width:1px;stroke-linecap:butt;stroke-linejoin:miter;stroke-opacity:1" />
  <path
     d="m 965.65316,5474.9437 0,-136.5428 -147.80406,0 0,70.3829"
     id="path3256"
     style="fill:none;stroke:#000000;stroke-width:1px;stroke-linecap:butt;stroke-linejoin:miter;stroke-opacity:1" />
  <path
     d="m 686.65195,5309.6551 -61.15139,0.4183 30.21339,-53.1678 30.938,52.7495 z"
     id="path3268"
     style="fill:none;stroke:#000000;stroke-width:1;stroke-linejoin:round;stroke-miterlimit:4;stroke-opacity:1" />
  <path
     d="m 768.08052,5309.6551 -61.15139,0.4183 30.21339,-53.1678 30.938,52.7495 z"
     id="path3270"
     style="fill:none;stroke:#000000;stroke-width:1;stroke-linejoin:round;stroke-miterlimit:4;stroke-opacity:1" />
  <path
     d="m 728.43767,5239.2979 -61.15139,0.4183 30.21339,-53.1678 30.938,52.7495 z"
     id="path3272"
     style="fill:none;stroke:#000000;stroke-width:1;stroke-linejoin:round;stroke-miterlimit:4;stroke-opacity:1" />
</svg>
