<?xml version="1.0" encoding="UTF-8" standalone="no"?>
<!-- Created with Inkscape (http://www.inkscape.org/) -->
<svg
   xmlns:svg="http://www.w3.org/2000/svg"
   xmlns="http://www.w3.org/2000/svg"
   version="1.0"
   width="50"
   height="60"
   id="svg2">
  <defs
     id="defs4" />
  <g
     transform="matrix(-1,0,0,1,51.682202,0)"
     id="layer1">
    <path
       d="M 26.229876,33.035715 C 26.229876,33.035715 18.908447,41.25 19.979875,44.821428 C 21.051304,48.392857 32.122732,54.821429 32.122732,54.821429 C 32.122732,54.821429 17.479875,56.607143 18.729875,58.571429 C 19.979875,60.535714 32.658447,59.285714 37.301304,59.107143 C 41.944161,58.928572 43.391056,58.595859 39.622732,53.571429 C 35.872732,48.571429 27.479876,43.928571 27.479876,43.928571 C 27.479876,43.928571 41.051304,38.392857 48.372733,26.785714 C 51.229876,15.178571 49.801304,-2.8571431 13.551304,0.53571384 C 13.551304,0.53571384 2.8370182,2.3214278 0.51558969,10.892857 C 1.051304,18.75 23.551304,12.142857 23.551304,12.142857 C 29.087018,20 27.658447,28.214286 27.658447,28.214286"
       id="path2407"
       style="fill:none;fill-rule:evenodd;stroke:#000000;stroke-width:1px;stroke-linecap:butt;stroke-linejoin:miter;stroke-opacity:1" />
    <path
       d="M 40.51559,35.535714 L 43.551303,45 C 45.243403,50.275371 52.465751,55.120532 50.962017,57.321429 C 46.051304,58.928572 41.944161,58.75 41.944161,58.75 M 33.551304,40.357144 C 33.551304,40.357144 35.515589,44.642857 38.729875,48.571429 C 40.694161,52.142858 44.265589,55.000001 44.265589,55.000001 C 39.979875,55.535715 41.765589,55.714286 41.765589,55.714286"
       id="path2411"
       style="fill:none;fill-rule:evenodd;stroke:#000000;stroke-width:1px;stroke-linecap:butt;stroke-linejoin:miter;stroke-opacity:1" />
    <path
       d="M 36.408447,11.25 C 38.194162,19.642858 47.122732,29.464286 23.908446,32.857143 C 12.673122,39.517886 19.897678,25.523634 26.229875,29.107143 C 36.634317,28.042933 35.909643,19.700452 29.622733,13.928571"
       id="path2413"
       style="fill:none;fill-rule:evenodd;stroke:#000000;stroke-width:1px;stroke-linecap:butt;stroke-linejoin:miter;stroke-opacity:1" />
    <path
       d="M 1.4084468,12.678571 C 9.979875,10.714286 12.658447,10.357143 12.658447,10.357143"
       id="path2420"
       style="fill:none;fill-rule:evenodd;stroke:#000000;stroke-width:1px;stroke-linecap:butt;stroke-linejoin:miter;stroke-opacity:1" />
    <path
       d="M 8.551304,5.7142858 C 12.122733,0.35714274 16.229875,3.2142858 16.229875,3.2142858 C 12.301304,7.4999998 8.551304,5.8928568 8.551304,5.7142858 z"
       id="path2422"
       style="fill:none;fill-rule:evenodd;stroke:#000000;stroke-width:1px;stroke-linecap:butt;stroke-linejoin:miter;stroke-opacity:1" />
    <path
       d="M 26.229875,3.9285708 C 24.444161,8.7499998 33.372733,8.9285708 29.801304,3.9285708"
       id="path2424"
       style="fill:none;fill-rule:evenodd;stroke:#000000;stroke-width:1px;stroke-linecap:butt;stroke-linejoin:miter;stroke-opacity:1" />
    <path
       d="M 42.476753,9.0690228 C 33.760415,12.091253 46.288882,20.84427 46.482892,11.4225"
       id="path2426"
       style="fill:none;fill-rule:evenodd;stroke:#000000;stroke-width:1px;stroke-linecap:butt;stroke-linejoin:miter;stroke-opacity:1" />
    <path
       d="M 28.729876,7.1428568 C 25.337018,13.035714 38.551304,13.571429 35.158447,8.2142858"
       id="path2428"
       style="fill:none;fill-rule:evenodd;stroke:#000000;stroke-width:1px;stroke-linecap:butt;stroke-linejoin:miter;stroke-opacity:1" />
    <path
       d="M 35.887236,3.6326128 C 29.554256,7.1239298 40.034443,12.141742 39.264159,5.6480418"
       id="path2430"
       style="fill:none;fill-rule:evenodd;stroke:#000000;stroke-width:1px;stroke-linecap:butt;stroke-linejoin:miter;stroke-opacity:1" />
    <path
       d="M 19.087018,5.8928568 C 12.479875,13.035715 27.479875,12.5 23.551304,6.4285718"
       id="path2432"
       style="fill:none;fill-rule:evenodd;stroke:#000000;stroke-width:1px;stroke-linecap:butt;stroke-linejoin:miter;stroke-opacity:1" />
    <path
       d="M 47.837018,20.178571 C 44.535325,15.4017 38.127297,25.02739 45.872733,23.928571"
       id="path2434"
       style="fill:none;fill-rule:evenodd;stroke:#000000;stroke-width:1px;stroke-linecap:butt;stroke-linejoin:miter;stroke-opacity:1" />
    <path
       d="M 41.229876,34.464286 C 32.658447,33.214286 40.694161,25 43.551304,30.357143"
       id="path2436"
       style="fill:none;fill-rule:evenodd;stroke:#000000;stroke-width:1px;stroke-linecap:butt;stroke-linejoin:miter;stroke-opacity:1" />
  </g>
</svg>
