<?xml version="1.0" encoding="UTF-8" standalone="no"?>
<!-- Created with Inkscape (http://www.inkscape.org/) -->
<svg
   xmlns:svg="http://www.w3.org/2000/svg"
   xmlns="http://www.w3.org/2000/svg"
   version="1.0"
   width="50"
   height="60"
   id="svg2">
  <defs
     id="defs4" />
  <g
     transform="matrix(-0.9842723,0,0,0.9842723,57.581422,-8.8177658)"
     id="layer1">
    <path
       d="M 37.857143,41.964286 C 37.857143,41.964286 33.571429,52.857143 34.642857,56.428571 C 35.714286,60 49.285714,64.464286 49.285714,64.464286 C 49.285714,64.464286 35.535714,66.607143 36.785714,68.571429 C 38.035714,70.535714 49.821429,68.928571 54.464286,68.75 C 59.107143,68.571429 59.821429,69.464286 58.214286,63.392857 C 56.607143,57.321429 41.428572,53.035714 41.428572,53.035714 C 41.428572,53.035714 46.25,48.035714 53.571429,36.428571 C 56.428572,24.821428 55,6.7857141 18.75,10.178571 C 18.75,10.178571 8.0357143,11.964285 5.7142858,20.535714 C 6.2500001,28.392857 28.75,21.785714 28.75,21.785714 C 34.285714,29.642857 32.321429,34.464286 32.321429,34.464286"
       id="path2407"
       style="fill:none;fill-rule:evenodd;stroke:#000000;stroke-width:1px;stroke-linecap:butt;stroke-linejoin:miter;stroke-opacity:1" />
    <path
       d="M 36.25,48.035714 L 30.535714,52.678571 C 33.386075,57.42917 37.307305,64.763389 35.803571,66.964286 C 34.240791,69.251603 18.928571,69.642857 14.821429,67.857143 C 10.714286,66.071429 30.892857,64.821429 30.892857,64.821429 C 30.892857,64.821429 27.857143,61.607143 25.714286,56.25 C 23.571429,50.892857 31.25,39.107143 31.25,39.107143"
       id="path2411"
       style="fill:none;fill-rule:evenodd;stroke:#000000;stroke-width:1px;stroke-linecap:butt;stroke-linejoin:miter;stroke-opacity:1" />
    <path
       d="M 41.607143,20.892857 C 51.071429,35.714286 44.642857,37.321429 21.428571,40.714286 C 10.193247,47.375029 17.417803,33.380777 23.75,36.964286 C 36.964286,34.821429 37.321429,33.392857 39.107143,30.892857 C 40.892857,28.392857 34.821429,23.571428 34.821429,23.571428"
       id="path2413"
       style="fill:none;fill-rule:evenodd;stroke:#000000;stroke-width:1px;stroke-linecap:butt;stroke-linejoin:miter;stroke-opacity:1" />
    <path
       d="M 54.285714,31.607143 C 57.5,36.25 59.107143,38.035714 56.964286,39.821429 C 54.821429,41.607143 53.392857,37.5 53.392857,37.5"
       id="path2418"
       style="fill:none;fill-rule:evenodd;stroke:#000000;stroke-width:1px;stroke-linecap:butt;stroke-linejoin:miter;stroke-opacity:1" />
    <path
       d="M 6.6071429,22.321428 C 15.178571,20.357143 17.857143,20 17.857143,20"
       id="path2420"
       style="fill:none;fill-rule:evenodd;stroke:#000000;stroke-width:1px;stroke-linecap:butt;stroke-linejoin:miter;stroke-opacity:1" />
    <path
       d="M 13.75,15.357143 C 17.321429,9.9999999 21.428571,12.857143 21.428571,12.857143 C 17.5,17.142857 13.75,15.535714 13.75,15.357143 z"
       id="path2422"
       style="fill:none;fill-rule:evenodd;stroke:#000000;stroke-width:1px;stroke-linecap:butt;stroke-linejoin:miter;stroke-opacity:1" />
    <path
       d="M 31.428571,13.571428 C 29.642857,18.392857 38.571429,18.571428 35,13.571428"
       id="path2424"
       style="fill:none;fill-rule:evenodd;stroke:#000000;stroke-width:1px;stroke-linecap:butt;stroke-linejoin:miter;stroke-opacity:1" />
    <path
       d="M 47.675449,18.71188 C 38.959111,21.73411 51.487578,30.487127 51.681588,21.065357"
       id="path2426"
       style="fill:none;fill-rule:evenodd;stroke:#000000;stroke-width:1px;stroke-linecap:butt;stroke-linejoin:miter;stroke-opacity:1" />
    <path
       d="M 33.928572,16.785714 C 30.535714,22.678571 43.75,23.214286 40.357143,17.857143"
       id="path2428"
       style="fill:none;fill-rule:evenodd;stroke:#000000;stroke-width:1px;stroke-linecap:butt;stroke-linejoin:miter;stroke-opacity:1" />
    <path
       d="M 41.085932,13.27547 C 34.752952,16.766787 45.233139,21.784599 44.462855,15.290899"
       id="path2430"
       style="fill:none;fill-rule:evenodd;stroke:#000000;stroke-width:1px;stroke-linecap:butt;stroke-linejoin:miter;stroke-opacity:1" />
    <path
       d="M 24.285714,15.535714 C 17.678571,22.678572 32.678571,22.142857 28.75,16.071429"
       id="path2432"
       style="fill:none;fill-rule:evenodd;stroke:#000000;stroke-width:1px;stroke-linecap:butt;stroke-linejoin:miter;stroke-opacity:1" />
    <path
       d="M 53.035714,29.821428 C 49.734021,25.044557 43.325993,34.670247 51.071429,33.571428"
       id="path2434"
       style="fill:none;fill-rule:evenodd;stroke:#000000;stroke-width:1px;stroke-linecap:butt;stroke-linejoin:miter;stroke-opacity:1" />
    <path
       d="M 46.428572,44.107143 C 37.857143,42.857143 45.892857,34.642857 48.75,40"
       id="path2436"
       style="fill:none;fill-rule:evenodd;stroke:#000000;stroke-width:1px;stroke-linecap:butt;stroke-linejoin:miter;stroke-opacity:1" />
  </g>
</svg>
