<?xml version="1.0" encoding="UTF-8" standalone="no"?>
<!-- Created with Inkscape (http://www.inkscape.org/) -->
<svg
   xmlns:svg="http://www.w3.org/2000/svg"
   xmlns="http://www.w3.org/2000/svg"
   version="1.0"
   width="50000"
   height="1000"
   id="svg2484">
  <defs
     id="defs2486" />
  <g
     id="layer1"
     style="fill:none;fill-opacity:1;stroke:#000000;stroke-opacity:1">
    <path
       d="M 91.428571,674.28571 C 314.28571,542.85714 657.14286,805.71429 874.28571,785.71429 C 1091.4286,765.71429 1265.7143,620 1465.7143,620 C 1665.7143,620 2054.2857,691.42857 2054.2857,691.42857"
       id="path2494"
       style="fill:none;fill-opacity:1;fill-rule:evenodd;stroke:#000000;stroke-width:1px;stroke-linecap:butt;stroke-linejoin:miter;stroke-opacity:1" />
  </g>
  <path
     d="M 1720.9722,775.26111 L 1747.4003,775.26111 L 1780.8525,864.4669 L 1814.4802,775.26111 L 1840.9083,775.26111 L 1840.9083,906.34796 L 1823.6116,906.34796 L 1823.6116,791.24089 L 1789.8082,881.14908 L 1771.9846,881.14908 L 1738.1812,791.24089 L 1738.1812,906.34796 L 1720.9722,906.34796 L 1720.9722,775.26111 M 1858.2051,775.26111 L 1877.2579,775.26111 L 1913.6075,829.17091 L 1949.6937,775.26111 L 1968.7466,775.26111 L 1922.3876,843.92147 L 1922.3876,906.34796 L 1904.564,906.34796 L 1904.564,843.92147 L 1858.2051,775.26111 M 2031.6999,775.26111 L 2049.6113,775.26111 L 2077.1808,886.06594 L 2104.6625,775.26111 L 2124.5933,775.26111 L 2152.1628,886.06594 L 2179.6445,775.26111 L 2197.6437,775.26111 L 2164.7183,906.34796 L 2142.4169,906.34796 L 2114.7596,792.5579 L 2086.8389,906.34796 L 2064.5374,906.34796 L 2031.6999,775.26111 M 2274.294,787.28984 C 2261.4164,787.28996 2251.173,792.08974 2243.5636,801.6892 C 2236.0127,811.28887 2232.2373,824.3712 2232.2373,840.93624 C 2232.2373,857.44287 2236.0127,870.49593 2243.5636,880.09547 C 2251.173,889.69506 2261.4164,894.49484 2274.294,894.49483 C 2287.1713,894.49484 2297.3562,889.69506 2304.8487,880.09547 C 2312.3995,870.49593 2316.1749,857.44287 2316.175,840.93624 C 2316.1749,824.3712 2312.3995,811.28887 2304.8487,801.6892 C 2297.3562,792.08974 2287.1713,787.28996 2274.294,787.28984 M 2274.294,772.89048 C 2292.6735,772.89062 2307.3655,779.06595 2318.37,791.41649 C 2329.3743,803.70873 2334.8765,820.21529 2334.8766,840.93624 C 2334.8765,861.59878 2329.3743,878.10534 2318.37,890.45599 C 2307.3655,902.74813 2292.6735,908.89419 2274.294,908.89419 C 2255.8557,908.89419 2241.1051,902.74813 2230.0423,890.45599 C 2219.0379,878.16388 2213.5357,861.65731 2213.5357,840.93624 C 2213.5357,820.21529 2219.0379,803.70873 2230.0423,791.41649 C 2241.1051,779.06595 2255.8557,772.89062 2274.294,772.89048 M 2424.7848,844.88728 C 2428.5895,846.17509 2432.2771,848.92618 2435.8478,853.14057 C 2439.4768,857.35507 2443.1059,863.14993 2446.7351,870.52516 L 2464.7343,906.34796 L 2445.6815,906.34796 L 2428.9115,872.72019 C 2424.5799,863.94013 2420.3654,858.11601 2416.2681,855.2478 C 2412.2292,852.37968 2406.6978,850.9456 2399.6738,850.94555 L 2380.3575,850.94555 L 2380.3575,906.34796 L 2362.6218,906.34796 L 2362.6218,775.26111 L 2402.659,775.26111 C 2417.6436,775.26124 2428.8236,778.39281 2436.199,784.65581 C 2443.5741,790.91907 2447.2618,800.37229 2447.2619,813.01553 C 2447.2618,821.2689 2445.3302,828.11737 2441.467,833.56096 C 2437.6622,839.00468 2432.1015,842.78012 2424.7848,844.88728 M 2380.3575,789.83607 L 2380.3575,836.37059 L 2402.659,836.37059 C 2411.2049,836.37066 2417.6436,834.40977 2421.9752,830.48792 C 2426.3652,826.50769 2428.5602,820.68357 2428.5603,813.01553 C 2428.5602,805.34768 2426.3652,799.58209 2421.9752,795.71874 C 2417.6436,791.79707 2411.2049,789.83619 2402.659,789.83607 L 2380.3575,789.83607 M 2487.6503,775.26111 L 2505.3861,775.26111 L 2505.3861,891.4218 L 2569.2174,891.4218 L 2569.2174,906.34796 L 2487.6503,906.34796 L 2487.6503,775.26111 M 2605.4792,789.83607 L 2605.4792,891.773 L 2626.9026,891.773 C 2644.9896,891.77301 2658.2182,887.67564 2666.5887,879.48086 C 2675.0175,871.28614 2679.2319,858.35014 2679.232,840.67283 C 2679.2319,823.11272 2675.0175,810.26453 2666.5887,802.12821 C 2658.2182,793.93356 2644.9896,789.83619 2626.9026,789.83607 L 2605.4792,789.83607 M 2587.7434,775.26111 L 2624.1808,775.26111 C 2649.5845,775.26124 2668.2275,780.55856 2680.11,791.15309 C 2691.9923,801.68931 2697.9335,818.19587 2697.9336,840.67283 C 2697.9335,863.26699 2691.963,879.86136 2680.0222,890.45599 C 2668.0812,901.05064 2649.4674,906.34796 2624.1808,906.34796 L 2587.7434,906.34796 L 2587.7434,775.26111 M 2783.3639,775.26111 L 2801.0997,775.26111 L 2801.0997,906.34796 L 2783.3639,906.34796 L 2783.3639,775.26111 M 2914.9777,779.56336 L 2914.9777,796.86015 C 2908.2462,793.64089 2901.8952,791.241 2895.9249,789.66047 C 2889.9543,788.08017 2884.1887,787.28996 2878.6281,787.28984 C 2868.9699,787.28996 2861.5068,789.16305 2856.2388,792.90911 C 2851.0293,796.65539 2848.4245,801.98198 2848.4245,808.88888 C 2848.4245,814.68384 2850.1513,819.07388 2853.6048,822.05903 C 2857.1168,824.98581 2863.7311,827.35643 2873.4478,829.17091 L 2884.1595,831.36593 C 2897.3881,833.88296 2907.134,838.33154 2913.3973,844.71168 C 2919.7188,851.0334 2922.8797,859.52082 2922.8798,870.17396 C 2922.8797,882.87586 2918.6067,892.50469 2910.0608,899.06048 C 2901.5733,905.61629 2889.1056,908.89419 2872.6576,908.89419 C 2866.4529,908.89419 2859.8386,908.19178 2852.8146,906.78697 C 2845.849,905.38215 2838.6201,903.3042 2831.1277,900.5531 L 2831.1277,882.2905 C 2838.3274,886.32936 2845.3807,889.37312 2852.2878,891.4218 C 2859.1947,893.4705 2865.9847,894.49484 2872.6576,894.49483 C 2882.7839,894.49484 2890.5982,892.50469 2896.1005,888.52436 C 2901.6026,884.54408 2904.3537,878.86628 2904.3538,871.49098 C 2904.3537,865.05228 2902.3635,860.01836 2898.3833,856.38921 C 2894.4614,852.76016 2887.9934,850.03833 2878.9793,848.22372 L 2868.1798,846.11649 C 2854.951,843.48253 2845.3807,839.35589 2839.4688,833.73656 C 2833.5569,828.11737 2830.6009,820.30309 2830.6009,810.2937 C 2830.6009,798.70408 2834.669,789.57279 2842.8053,782.89979 C 2851,776.22705 2862.2678,772.89062 2876.6086,772.89048 C 2882.7546,772.89062 2889.0178,773.44669 2895.3981,774.5587 C 2901.7782,775.67098 2908.3047,777.3392 2914.9777,779.56336 M 3025.519,843.74587 L 3025.519,891.773 L 3053.9666,891.773 C 3063.5075,891.77301 3070.5609,889.81213 3075.1266,885.89033 C 3079.7507,881.91005 3082.0628,875.85179 3082.0629,867.71553 C 3082.0628,859.52082 3079.7507,853.49183 3075.1266,849.62853 C 3070.5609,845.70682 3063.5075,843.74593 3053.9666,843.74587 L 3025.519,843.74587 M 3025.519,789.83607 L 3025.519,829.34651 L 3051.7715,829.34651 C 3060.4345,829.34659 3066.8732,827.7369 3071.0878,824.51746 C 3075.3606,821.23964 3077.4971,816.26425 3077.4972,809.59129 C 3077.4971,802.97705 3075.3606,798.03094 3071.0878,794.75293 C 3066.8732,791.47514 3060.4345,789.83619 3051.7715,789.83607 L 3025.519,789.83607 M 3007.7832,775.26111 L 3053.0886,775.26111 C 3066.6098,775.26124 3077.0289,778.07087 3084.3457,783.69 C 3091.6623,789.30938 3095.3207,797.29926 3095.3208,807.65967 C 3095.3207,815.67891 3093.4476,822.05911 3089.7016,826.80028 C 3085.9553,831.54161 3080.4531,834.49757 3073.195,835.66818 C 3081.9164,837.54134 3088.6771,841.46311 3093.477,847.43351 C 3098.3352,853.34549 3100.7644,860.75004 3100.7645,869.64716 C 3100.7644,881.35398 3096.7841,890.39747 3088.8235,896.77766 C 3080.8628,903.15786 3069.5365,906.34796 3054.8446,906.34796 L 3007.7832,906.34796 L 3007.7832,775.26111 M 3131.0558,775.26111 L 3148.7916,775.26111 L 3148.7916,891.4218 L 3212.6229,891.4218 L 3212.6229,906.34796 L 3131.0558,906.34796 L 3131.0558,775.26111 M 3279.1761,792.7335 L 3255.1187,857.96963 L 3303.3214,857.96963 L 3279.1761,792.7335 M 3269.1668,775.26111 L 3289.2732,775.26111 L 3339.232,906.34796 L 3320.7938,906.34796 L 3308.8529,872.72019 L 3249.7628,872.72019 L 3237.8219,906.34796 L 3219.1203,906.34796 L 3269.1668,775.26111 M 3453.2854,785.35822 L 3453.2854,804.05983 C 3447.3149,798.49921 3440.9347,794.3433 3434.1448,791.59209 C 3427.4133,788.84111 3420.2429,787.46556 3412.6336,787.46545 C 3397.6488,787.46556 3386.1762,792.06048 3378.2156,801.2502 C 3370.2549,810.38159 3366.2746,823.61026 3366.2747,840.93624 C 3366.2746,858.20381 3370.2549,871.43248 3378.2156,880.62228 C 3386.1762,889.75359 3397.6488,894.31924 3412.6336,894.31923 C 3420.2429,894.31924 3427.4133,892.94369 3434.1448,890.19258 C 3440.9347,887.4415 3447.3149,883.2856 3453.2854,877.72484 L 3453.2854,896.25085 C 3447.0807,900.4653 3440.4957,903.62613 3433.5302,905.73335 C 3426.6231,907.84058 3419.3064,908.89419 3411.58,908.89419 C 3391.7369,908.89419 3376.1083,902.83593 3364.6943,890.71939 C 3353.2801,878.54435 3347.5731,861.94998 3347.5731,840.93624 C 3347.5731,819.86409 3353.2801,803.26972 3364.6943,791.15309 C 3376.1083,778.97815 3391.7369,772.89062 3411.58,772.89048 C 3419.4234,772.89062 3426.7987,773.94423 3433.7058,776.05132 C 3440.6713,778.10014 3447.1978,781.20243 3453.2854,785.35822 M 3480.8549,775.26111 L 3498.5907,775.26111 L 3498.5907,830.66352 L 3557.4174,775.26111 L 3580.2456,775.26111 L 3515.1851,836.37059 L 3584.8991,906.34796 L 3561.544,906.34796 L 3498.5907,843.21906 L 3498.5907,906.34796 L 3480.8549,906.34796 L 3480.8549,775.26111 M 3699.9183,792.7335 L 3675.8609,857.96963 L 3724.0636,857.96963 L 3699.9183,792.7335 M 3689.909,775.26111 L 3710.0154,775.26111 L 3759.9742,906.34796 L 3741.536,906.34796 L 3729.5951,872.72019 L 3670.505,872.72019 L 3658.5641,906.34796 L 3639.8625,906.34796 L 3689.909,775.26111 M 3779.0271,775.26111 L 3802.909,775.26111 L 3861.0333,884.92452 L 3861.0333,775.26111 L 3878.2422,775.26111 L 3878.2422,906.34796 L 3854.3604,906.34796 L 3796.2361,796.68455 L 3796.2361,906.34796 L 3779.0271,906.34796 L 3779.0271,775.26111 M 3931.2739,789.83607 L 3931.2739,891.773 L 3952.6974,891.773 C 3970.7843,891.77301 3984.013,887.67564 3992.3834,879.48086 C 4000.8122,871.28614 4005.0266,858.35014 4005.0267,840.67283 C 4005.0266,823.11272 4000.8122,810.26453 3992.3834,802.12821 C 3984.013,793.93356 3970.7843,789.83619 3952.6974,789.83607 L 3931.2739,789.83607 M 3913.5381,775.26111 L 3949.9755,775.26111 C 3975.3792,775.26124 3994.0223,780.55856 4005.9048,791.15309 C 4017.787,801.68931 4023.7282,818.19587 4023.7284,840.67283 C 4023.7282,863.26699 4017.7578,879.86136 4005.817,890.45599 C 3993.8759,901.05064 3975.2621,906.34796 3949.9755,906.34796 L 3913.5381,906.34796 L 3913.5381,775.26111 M 4097.4812,775.26111 L 4115.3926,775.26111 L 4142.9621,886.06594 L 4170.4438,775.26111 L 4190.3746,775.26111 L 4217.9441,886.06594 L 4245.4258,775.26111 L 4263.425,775.26111 L 4230.4997,906.34796 L 4208.1982,906.34796 L 4180.5409,792.5579 L 4152.6202,906.34796 L 4130.3188,906.34796 L 4097.4812,775.26111 M 4286.868,775.26111 L 4304.6038,775.26111 L 4304.6038,828.9953 L 4369.0497,828.9953 L 4369.0497,775.26111 L 4386.7855,775.26111 L 4386.7855,906.34796 L 4369.0497,906.34796 L 4369.0497,843.92147 L 4304.6038,843.92147 L 4304.6038,906.34796 L 4286.868,906.34796 L 4286.868,775.26111 M 4422.0813,775.26111 L 4439.8171,775.26111 L 4439.8171,906.34796 L 4422.0813,906.34796 L 4422.0813,775.26111 M 4456.9383,775.26111 L 4567.8309,775.26111 L 4567.8309,790.18728 L 4521.2964,790.18728 L 4521.2964,906.34796 L 4503.4728,906.34796 L 4503.4728,790.18728 L 4456.9383,790.18728 L 4456.9383,775.26111 M 4585.0398,775.26111 L 4667.924,775.26111 L 4667.924,790.18728 L 4602.7756,790.18728 L 4602.7756,828.9953 L 4665.2021,828.9953 L 4665.2021,843.92147 L 4602.7756,843.92147 L 4602.7756,891.4218 L 4669.5044,891.4218 L 4669.5044,906.34796 L 4585.0398,906.34796 L 4585.0398,775.26111"
     transform="scale(1.2487249,0.8008169)"
     id="text2392"
     style="font-size:179.81639099px;font-style:normal;font-weight:normal;fill:none;fill-opacity:1;stroke:#000000;stroke-width:1px;stroke-linecap:butt;stroke-linejoin:miter;stroke-opacity:1;font-family:Bitstream Vera Sans" />
  <path
     d="M 5606.6992,755.45642 L 5625.8242,755.45642 L 5672.3711,843.27673 L 5672.3711,755.45642 L 5686.1523,755.45642 L 5686.1523,860.43298 L 5667.0273,860.43298 L 5620.4805,772.61267 L 5620.4805,860.43298 L 5606.6992,860.43298 L 5606.6992,755.45642 M 5757.0273,765.08923 C 5746.7148,765.08933 5738.5117,768.93307 5732.418,776.62048 C 5726.3711,784.30806 5723.3476,794.78461 5723.3477,808.05017 C 5723.3476,821.26896 5726.3711,831.72207 5732.418,839.40955 C 5738.5117,847.09706 5746.7148,850.94081 5757.0273,850.9408 C 5767.3398,850.94081 5775.496,847.09706 5781.4961,839.40955 C 5787.5429,831.72207 5790.5663,821.26896 5790.5664,808.05017 C 5790.5663,794.78461 5787.5429,784.30806 5781.4961,776.62048 C 5775.496,768.93307 5767.3398,765.08933 5757.0273,765.08923 M 5757.0273,753.55798 C 5771.746,753.55809 5783.5116,758.5034 5792.3242,768.39392 C 5801.1366,778.23775 5805.5429,791.45649 5805.543,808.05017 C 5805.5429,824.59708 5801.1366,837.81582 5792.3242,847.70642 C 5783.5116,857.55017 5771.746,862.47204 5757.0273,862.47205 C 5742.2617,862.47204 5730.4492,857.55017 5721.5898,847.70642 C 5712.7773,837.86269 5708.3711,824.64396 5708.3711,808.05017 C 5708.3711,791.45649 5712.7773,778.23775 5721.5898,768.39392 C 5730.4492,758.5034 5742.2617,753.55809 5757.0273,753.55798 M 5813.207,755.45642 L 5902.0117,755.45642 L 5902.0117,767.40955 L 5864.7461,767.40955 L 5864.7461,860.43298 L 5850.4727,860.43298 L 5850.4727,767.40955 L 5813.207,767.40955 L 5813.207,755.45642 M 5947.082,755.45642 L 6035.8867,755.45642 L 6035.8867,767.40955 L 5998.6211,767.40955 L 5998.6211,860.43298 L 5984.3477,860.43298 L 5984.3477,767.40955 L 5947.082,767.40955 L 5947.082,755.45642 M 6049.668,755.45642 L 6063.8711,755.45642 L 6063.8711,798.48767 L 6115.4805,798.48767 L 6115.4805,755.45642 L 6129.6836,755.45642 L 6129.6836,860.43298 L 6115.4805,860.43298 L 6115.4805,810.4408 L 6063.8711,810.4408 L 6063.8711,860.43298 L 6049.668,860.43298 L 6049.668,755.45642 M 6157.9492,755.45642 L 6224.3242,755.45642 L 6224.3242,767.40955 L 6172.1523,767.40955 L 6172.1523,798.48767 L 6222.1445,798.48767 L 6222.1445,810.4408 L 6172.1523,810.4408 L 6172.1523,848.47986 L 6225.5898,848.47986 L 6225.5898,860.43298 L 6157.9492,860.43298 L 6157.9492,755.45642 M 6357.8477,758.90173 L 6357.8477,772.7533 C 6352.457,770.17526 6347.371,768.25339 6342.5898,766.98767 C 6337.8085,765.72214 6333.1914,765.08933 6328.7383,765.08923 C 6321.0039,765.08933 6315.0273,766.58933 6310.8086,769.58923 C 6306.6367,772.58932 6304.5508,776.85494 6304.5508,782.38611 C 6304.5508,787.02681 6305.9336,790.54243 6308.6992,792.93298 C 6311.5117,795.2768 6316.8086,797.17523 6324.5898,798.6283 L 6333.168,800.38611 C 6343.7617,802.40179 6351.5663,805.96429 6356.582,811.07361 C 6361.6445,816.13615 6364.1757,822.93302 6364.1758,831.46423 C 6364.1757,841.63613 6360.7538,849.34706 6353.9102,854.59705 C 6347.1132,859.84705 6337.1288,862.47204 6323.957,862.47205 C 6318.9882,862.47204 6313.6914,861.90954 6308.0664,860.78455 C 6302.4883,859.65955 6296.6992,857.99549 6290.6992,855.79236 L 6290.6992,841.16736 C 6296.4648,844.40175 6302.1133,846.83925 6307.6445,848.47986 C 6313.1757,850.12049 6318.6132,850.94081 6323.957,850.9408 C 6332.0664,850.94081 6338.3242,849.34706 6342.7305,846.15955 C 6347.1367,842.97206 6349.3398,838.42519 6349.3398,832.51892 C 6349.3398,827.3627 6347.746,823.33146 6344.5586,820.42517 C 6341.4179,817.51896 6336.2382,815.33928 6329.0195,813.88611 L 6320.3711,812.19861 C 6309.7773,810.08928 6302.1133,806.7846 6297.3789,802.28455 C 6292.6445,797.78461 6290.2773,791.5268 6290.2773,783.51111 C 6290.2773,774.22994 6293.5351,766.91745 6300.0508,761.57361 C 6306.6133,756.22996 6315.6367,753.55809 6327.1211,753.55798 C 6332.0429,753.55809 6337.0585,754.0034 6342.168,754.89392 C 6347.2773,755.78465 6352.5038,757.12059 6357.8477,758.90173 M 6386.3242,755.45642 L 6400.5273,755.45642 L 6400.5273,848.47986 L 6451.6445,848.47986 L 6451.6445,860.43298 L 6386.3242,860.43298 L 6386.3242,755.45642 M 6466.4805,755.45642 L 6480.6836,755.45642 L 6480.6836,860.43298 L 6466.4805,860.43298 L 6466.4805,755.45642 M 6580.5273,845.45642 L 6580.5273,817.26111 L 6557.3242,817.26111 L 6557.3242,805.58923 L 6594.5898,805.58923 L 6594.5898,850.65955 C 6589.1054,854.55018 6583.0585,857.5033 6576.4492,859.51892 C 6569.8398,861.48767 6562.7851,862.47204 6555.2852,862.47205 C 6538.8789,862.47204 6526.0351,857.6908 6516.7539,848.1283 C 6507.5195,838.51894 6502.9023,825.15958 6502.9023,808.05017 C 6502.9023,790.89399 6507.5195,777.53463 6516.7539,767.97205 C 6526.0351,758.36277 6538.8789,753.55809 6555.2852,753.55798 C 6562.1288,753.55809 6568.621,754.40184 6574.7617,756.08923 C 6580.9491,757.77684 6586.6444,760.26121 6591.8477,763.54236 L 6591.8477,778.65955 C 6586.5976,774.20651 6581.0194,770.85495 6575.1133,768.60486 C 6569.207,766.35495 6562.996,765.22995 6556.4805,765.22986 C 6543.6367,765.22995 6533.9804,768.81589 6527.5117,775.98767 C 6521.0898,783.15962 6517.8789,793.84711 6517.8789,808.05017 C 6517.8789,822.20646 6521.0898,832.87051 6527.5117,840.04236 C 6533.9804,847.21425 6543.6367,850.80018 6556.4805,850.80017 C 6561.496,850.80018 6565.9726,850.37831 6569.9102,849.53455 C 6573.8476,848.64393 6577.3866,847.28456 6580.5273,845.45642 M 6620.6055,755.45642 L 6634.8086,755.45642 L 6634.8086,798.48767 L 6686.418,798.48767 L 6686.418,755.45642 L 6700.6211,755.45642 L 6700.6211,860.43298 L 6686.418,860.43298 L 6686.418,810.4408 L 6634.8086,810.4408 L 6634.8086,860.43298 L 6620.6055,860.43298 L 6620.6055,755.45642 M 6714.332,755.45642 L 6803.1367,755.45642 L 6803.1367,767.40955 L 6765.8711,767.40955 L 6765.8711,860.43298 L 6751.5977,860.43298 L 6751.5977,767.40955 L 6714.332,767.40955 L 6714.332,755.45642 M 6816.918,755.45642 L 6883.293,755.45642 L 6883.293,767.40955 L 6831.1211,767.40955 L 6831.1211,798.48767 L 6881.1133,798.48767 L 6881.1133,810.4408 L 6831.1211,810.4408 L 6831.1211,848.47986 L 6884.5586,848.47986 L 6884.5586,860.43298 L 6816.918,860.43298 L 6816.918,755.45642 M 6970.9727,758.90173 L 6970.9727,772.7533 C 6965.582,770.17526 6960.496,768.25339 6955.7148,766.98767 C 6950.9335,765.72214 6946.3164,765.08933 6941.8633,765.08923 C 6934.1289,765.08933 6928.1523,766.58933 6923.9336,769.58923 C 6919.7617,772.58932 6917.6758,776.85494 6917.6758,782.38611 C 6917.6758,787.02681 6919.0586,790.54243 6921.8242,792.93298 C 6924.6367,795.2768 6929.9336,797.17523 6937.7148,798.6283 L 6946.293,800.38611 C 6956.8867,802.40179 6964.6913,805.96429 6969.707,811.07361 C 6974.7695,816.13615 6977.3007,822.93302 6977.3008,831.46423 C 6977.3007,841.63613 6973.8788,849.34706 6967.0352,854.59705 C 6960.2382,859.84705 6950.2538,862.47204 6937.082,862.47205 C 6932.1132,862.47204 6926.8164,861.90954 6921.1914,860.78455 C 6915.6133,859.65955 6909.8242,857.99549 6903.8242,855.79236 L 6903.8242,841.16736 C 6909.5898,844.40175 6915.2383,846.83925 6920.7695,848.47986 C 6926.3007,850.12049 6931.7382,850.94081 6937.082,850.9408 C 6945.1914,850.94081 6951.4492,849.34706 6955.8555,846.15955 C 6960.2617,842.97206 6962.4648,838.42519 6962.4648,832.51892 C 6962.4648,827.3627 6960.871,823.33146 6957.6836,820.42517 C 6954.5429,817.51896 6949.3632,815.33928 6942.1445,813.88611 L 6933.4961,812.19861 C 6922.9023,810.08928 6915.2383,806.7846 6910.5039,802.28455 C 6905.7695,797.78461 6903.4023,791.5268 6903.4023,783.51111 C 6903.4023,774.22994 6906.6601,766.91745 6913.1758,761.57361 C 6919.7383,756.22996 6928.7617,753.55809 6940.2461,753.55798 C 6945.1679,753.55809 6950.1835,754.0034 6955.293,754.89392 C 6960.4023,755.78465 6965.6288,757.12059 6970.9727,758.90173 M 6984.8945,755.45642 L 7073.6992,755.45642 L 7073.6992,767.40955 L 7036.4336,767.40955 L 7036.4336,860.43298 L 7022.1602,860.43298 L 7022.1602,767.40955 L 6984.8945,767.40955 L 6984.8945,755.45642 M 7211.9336,763.54236 L 7211.9336,778.51892 C 7207.1523,774.06588 7202.0429,770.73776 7196.6055,768.53455 C 7191.2148,766.33151 7185.4726,765.22995 7179.3789,765.22986 C 7167.3789,765.22995 7158.1914,768.90964 7151.8164,776.26892 C 7145.4414,783.5815 7142.2539,794.17524 7142.2539,808.05017 C 7142.2539,821.87833 7145.4414,832.47207 7151.8164,839.83142 C 7158.1914,847.14393 7167.3789,850.80018 7179.3789,850.80017 C 7185.4726,850.80018 7191.2148,849.69862 7196.6055,847.49548 C 7202.0429,845.29237 7207.1523,841.96425 7211.9336,837.51111 L 7211.9336,852.34705 C 7206.9648,855.72205 7201.6913,858.2533 7196.1133,859.9408 C 7190.582,861.62829 7184.7226,862.47204 7178.5352,862.47205 C 7162.6445,862.47204 7150.1289,857.62049 7140.9883,847.91736 C 7131.8476,838.16738 7127.2773,824.87833 7127.2773,808.05017 C 7127.2773,791.17524 7131.8476,777.88619 7140.9883,768.18298 C 7150.1289,758.43309 7162.6445,753.55809 7178.5352,753.55798 C 7184.8163,753.55809 7190.7226,754.40184 7196.2539,756.08923 C 7201.8319,757.72996 7207.0585,760.21433 7211.9336,763.54236 M 7234.0117,755.45642 L 7248.2148,755.45642 L 7248.2148,798.48767 L 7299.8242,798.48767 L 7299.8242,755.45642 L 7314.0273,755.45642 L 7314.0273,860.43298 L 7299.8242,860.43298 L 7299.8242,810.4408 L 7248.2148,810.4408 L 7248.2148,860.43298 L 7234.0117,860.43298 L 7234.0117,755.45642 M 7377.3789,769.44861 L 7358.1133,821.6908 L 7396.7148,821.6908 L 7377.3789,769.44861 M 7369.3633,755.45642 L 7385.4648,755.45642 L 7425.4727,860.43298 L 7410.707,860.43298 L 7401.1445,833.5033 L 7353.8242,833.5033 L 7344.2617,860.43298 L 7329.2852,860.43298 L 7369.3633,755.45642 M 7440.7305,755.45642 L 7459.8555,755.45642 L 7506.4023,843.27673 L 7506.4023,755.45642 L 7520.1836,755.45642 L 7520.1836,860.43298 L 7501.0586,860.43298 L 7454.5117,772.61267 L 7454.5117,860.43298 L 7440.7305,860.43298 L 7440.7305,755.45642 M 7620.0273,845.45642 L 7620.0273,817.26111 L 7596.8242,817.26111 L 7596.8242,805.58923 L 7634.0898,805.58923 L 7634.0898,850.65955 C 7628.6054,854.55018 7622.5585,857.5033 7615.9492,859.51892 C 7609.3398,861.48767 7602.2851,862.47204 7594.7852,862.47205 C 7578.3789,862.47204 7565.5351,857.6908 7556.2539,848.1283 C 7547.0195,838.51894 7542.4023,825.15958 7542.4023,808.05017 C 7542.4023,790.89399 7547.0195,777.53463 7556.2539,767.97205 C 7565.5351,758.36277 7578.3789,753.55809 7594.7852,753.55798 C 7601.6288,753.55809 7608.121,754.40184 7614.2617,756.08923 C 7620.4491,757.77684 7626.1444,760.26121 7631.3477,763.54236 L 7631.3477,778.65955 C 7626.0976,774.20651 7620.5194,770.85495 7614.6133,768.60486 C 7608.707,766.35495 7602.496,765.22995 7595.9805,765.22986 C 7583.1367,765.22995 7573.4804,768.81589 7567.0117,775.98767 C 7560.5898,783.15962 7557.3789,793.84711 7557.3789,808.05017 C 7557.3789,822.20646 7560.5898,832.87051 7567.0117,840.04236 C 7573.4804,847.21425 7583.1367,850.80018 7595.9805,850.80017 C 7600.996,850.80018 7605.4726,850.37831 7609.4102,849.53455 C 7613.3476,848.64393 7616.8866,847.28456 7620.0273,845.45642 M 7660.1055,755.45642 L 7726.4805,755.45642 L 7726.4805,767.40955 L 7674.3086,767.40955 L 7674.3086,798.48767 L 7724.3008,798.48767 L 7724.3008,810.4408 L 7674.3086,810.4408 L 7674.3086,848.47986 L 7727.7461,848.47986 L 7727.7461,860.43298 L 7660.1055,860.43298 L 7660.1055,755.45642 M 7797.0742,755.45642 L 7811.2773,755.45642 L 7811.2773,860.43298 L 7797.0742,860.43298 L 7797.0742,755.45642 M 7839.543,755.45642 L 7858.668,755.45642 L 7905.2148,843.27673 L 7905.2148,755.45642 L 7918.9961,755.45642 L 7918.9961,860.43298 L 7899.8711,860.43298 L 7853.3242,772.61267 L 7853.3242,860.43298 L 7839.543,860.43298 L 7839.543,755.45642 M 8056.0352,758.90173 L 8056.0352,772.7533 C 8050.6445,770.17526 8045.5585,768.25339 8040.7773,766.98767 C 8035.996,765.72214 8031.3789,765.08933 8026.9258,765.08923 C 8019.1914,765.08933 8013.2148,766.58933 8008.9961,769.58923 C 8004.8242,772.58932 8002.7383,776.85494 8002.7383,782.38611 C 8002.7383,787.02681 8004.1211,790.54243 8006.8867,792.93298 C 8009.6992,795.2768 8014.9961,797.17523 8022.7773,798.6283 L 8031.3555,800.38611 C 8041.9492,802.40179 8049.7538,805.96429 8054.7695,811.07361 C 8059.832,816.13615 8062.3632,822.93302 8062.3633,831.46423 C 8062.3632,841.63613 8058.9413,849.34706 8052.0977,854.59705 C 8045.3007,859.84705 8035.3163,862.47204 8022.1445,862.47205 C 8017.1757,862.47204 8011.8789,861.90954 8006.2539,860.78455 C 8000.6758,859.65955 7994.8867,857.99549 7988.8867,855.79236 L 7988.8867,841.16736 C 7994.6523,844.40175 8000.3008,846.83925 8005.832,848.47986 C 8011.3632,850.12049 8016.8007,850.94081 8022.1445,850.9408 C 8030.2539,850.94081 8036.5117,849.34706 8040.918,846.15955 C 8045.3242,842.97206 8047.5273,838.42519 8047.5273,832.51892 C 8047.5273,827.3627 8045.9335,823.33146 8042.7461,820.42517 C 8039.6054,817.51896 8034.4257,815.33928 8027.207,813.88611 L 8018.5586,812.19861 C 8007.9648,810.08928 8000.3008,806.7846 7995.5664,802.28455 C 7990.832,797.78461 7988.4648,791.5268 7988.4648,783.51111 C 7988.4648,774.22994 7991.7226,766.91745 7998.2383,761.57361 C 8004.8008,756.22996 8013.8242,753.55809 8025.3086,753.55798 C 8030.2304,753.55809 8035.246,754.0034 8040.3555,754.89392 C 8045.4648,755.78465 8050.6913,757.12059 8056.0352,758.90173 M 8084.5117,755.45642 L 8098.7148,755.45642 L 8098.7148,860.43298 L 8084.5117,860.43298 L 8084.5117,755.45642 M 8198.5586,845.45642 L 8198.5586,817.26111 L 8175.3555,817.26111 L 8175.3555,805.58923 L 8212.6211,805.58923 L 8212.6211,850.65955 C 8207.1366,854.55018 8201.0898,857.5033 8194.4805,859.51892 C 8187.871,861.48767 8180.8163,862.47204 8173.3164,862.47205 C 8156.9101,862.47204 8144.0664,857.6908 8134.7852,848.1283 C 8125.5508,838.51894 8120.9336,825.15958 8120.9336,808.05017 C 8120.9336,790.89399 8125.5508,777.53463 8134.7852,767.97205 C 8144.0664,758.36277 8156.9101,753.55809 8173.3164,753.55798 C 8180.1601,753.55809 8186.6523,754.40184 8192.793,756.08923 C 8198.9804,757.77684 8204.6757,760.26121 8209.8789,763.54236 L 8209.8789,778.65955 C 8204.6288,774.20651 8199.0507,770.85495 8193.1445,768.60486 C 8187.2382,766.35495 8181.0273,765.22995 8174.5117,765.22986 C 8161.6679,765.22995 8152.0117,768.81589 8145.543,775.98767 C 8139.1211,783.15962 8135.9101,793.84711 8135.9102,808.05017 C 8135.9101,822.20646 8139.1211,832.87051 8145.543,840.04236 C 8152.0117,847.21425 8161.6679,850.80018 8174.5117,850.80017 C 8179.5273,850.80018 8184.0038,850.37831 8187.9414,849.53455 C 8191.8788,848.64393 8195.4179,847.28456 8198.5586,845.45642 M 8238.6367,755.45642 L 8252.8398,755.45642 L 8252.8398,798.48767 L 8304.4492,798.48767 L 8304.4492,755.45642 L 8318.6523,755.45642 L 8318.6523,860.43298 L 8304.4492,860.43298 L 8304.4492,810.4408 L 8252.8398,810.4408 L 8252.8398,860.43298 L 8238.6367,860.43298 L 8238.6367,755.45642 M 8332.3633,755.45642 L 8421.168,755.45642 L 8421.168,767.40955 L 8383.9023,767.40955 L 8383.9023,860.43298 L 8369.6289,860.43298 L 8369.6289,767.40955 L 8332.3633,767.40955 L 8332.3633,755.45642"
     id="text2396"
     style="font-size:144px;font-style:normal;font-weight:normal;fill:none;fill-opacity:1;stroke:#000000;stroke-width:1px;stroke-linecap:butt;stroke-linejoin:miter;stroke-opacity:1;font-family:Bitstream Vera Sans" />
  <path
     d="M 8504.6456,760.28955 L 8620.2063,760.28955 C 8620.2063,760.28955 8537.4399,794.64544 8535.0974,850.86418 L 8608.4941,850.86418 C 8608.4941,850.86418 8506.2072,839.93276 8504.6456,760.28955 z"
     id="path3172"
     style="fill:none;fill-rule:evenodd;stroke:#000000;stroke-width:1px;stroke-linecap:butt;stroke-linejoin:miter;stroke-opacity:1" />
  <path
     d="M 8713.1234,751.70058 L 8834.9307,751.70058 C 8834.9307,751.70058 8819.3144,820.41237 8770.9038,830.56297 C 8722.4932,840.71358 8711.5618,752.48139 8713.1234,751.70058 z"
     id="path3174"
     style="fill:none;fill-rule:evenodd;stroke:#000000;stroke-width:1px;stroke-linecap:butt;stroke-linejoin:miter;stroke-opacity:1" />
  <path
     d="M 8930.971,764.19363 L 9024.6689,764.19363 C 9024.6689,764.19363 8853.6703,872.72703 8922.3821,910.987 C 8991.0939,949.24697 8932.5327,764.97445 8930.971,764.19363 z"
     id="path3176"
     style="fill:none;fill-rule:evenodd;stroke:#000000;stroke-width:1px;stroke-linecap:butt;stroke-linejoin:miter;stroke-opacity:1" />
  <path
     d="M 9108.997,748.57731 L 9308.8859,748.57731 C 9308.8859,748.57731 8955.9571,881.316 9193.3251,881.316 C 9430.6931,881.316 9112.1203,751.70058 9108.997,748.57731 z"
     id="path3198"
     style="fill:none;fill-rule:evenodd;stroke:#000000;stroke-width:1px;stroke-linecap:butt;stroke-linejoin:miter;stroke-opacity:1" />
  <path
     d="M 9405.707,706.41326 L 9574.3633,706.41326 C 9574.3633,706.41326 9521.2678,978.13716 9479.1037,853.20663 C 9436.9397,728.2761 9405.707,711.09816 9405.707,706.41326 z"
     id="path3200"
     style="fill:none;fill-rule:evenodd;stroke:#000000;stroke-width:1px;stroke-linecap:butt;stroke-linejoin:miter;stroke-opacity:1" />
  <path
     d="M 9638.3901,673.619 L 9769.5672,673.619 C 9769.5672,673.619 9769.3558,710.76923 9744.5811,745.45405 C 9721.1567,778.24831 9639.9518,675.18063 9638.3901,673.619 z"
     id="path3202"
     style="fill:none;fill-rule:evenodd;stroke:#000000;stroke-width:1px;stroke-linecap:butt;stroke-linejoin:miter;stroke-opacity:1" />
  <path
     d="M 9813.9355,1321.61 L 9813.9355,682.53092 L 9813.9355,664.58701 L 9842.9219,664.58701 L 9842.9219,645.26281 L 9870.5279,645.26281 L 9865.857,627.83077 L 9888.12,621.86539 L 9888.12,605.2341 L 9910.5566,605.2341 L 9910.5566,588.67049 L 9928.5005,588.67049 L 9933.7014,569.26046 L 9957.4868,570.72659 L 9957.4868,551.40238 L 9973.9761,546.98409 L 9973.9761,532.07818 L 9993.1104,526.95116 L 9993.1104,509.99337 L 10011.318,509.99337 L 10011.318,489.28887 L 10034.592,483.05274 L 10034.592,465.82376 L 10054.955,465.82376 L 10054.955,447.57283 L 10070.572,445.62079 L 10066.668,429.02845 L 10086.188,430.98049 L 10086.188,412.43611 L 10107.66,412.43611 L 10107.66,393.89174 L 10122.301,393.89174 L 10118.135,378.3455 L 10137.917,378.3455 L 10137.917,358.75503 L 10156.461,358.75503 L 10156.461,338.25861 L 10176.958,338.25861 L 10176.958,1317.2064"
     id="path2476"
     style="fill:none;fill-rule:evenodd;stroke:#000000;stroke-width:1px;stroke-linecap:butt;stroke-linejoin:miter;stroke-opacity:1" />
  <path
     d="M 9741.7102,18.869915 L 9740.5915,37.837837 C 9740.5915,169.23359 9831.8468,288.03597 10049.356,288.03597 L 10049.356,235.50416 L 10028.102,235.50416 L 10028.102,217.53457 L 10003.489,217.53457 L 10003.489,197.56819 L 9982.234,197.56819 L 9982.234,177.60195 L 9957.6219,177.60195 L 9957.6219,160.63054 L 9930.7728,160.63054 L 9930.7728,138.66764 L 9905.0424,138.66764 L 9905.0424,118.70141 L 9881.5495,118.70141 L 9881.5495,100.73168 L 9858.0565,100.73168 L 9858.0565,80.765433 L 9830.0887,80.765433 L 9830.0887,57.804217 L 9802.1206,57.804217 L 9802.1206,37.837982 L 9778.6277,37.837982 L 9778.6277,18.869915 L 9741.7102,18.869915 z"
     id="path2443"
     style="fill:none;fill-rule:evenodd;stroke:#000000;stroke-width:1.56867111px;stroke-linecap:butt;stroke-linejoin:miter;stroke-opacity:1" />
  <path
     d="M 10207.812,251.5625 C 10207.812,265.3625 10196.612,276.5625 10182.812,276.5625 C 10169.012,276.5625 10157.812,265.3625 10157.812,251.5625 C 10157.812,237.7625 10169.012,226.5625 10182.812,226.5625 C 10196.612,226.5625 10207.812,237.7625 10207.812,251.5625 z"
     transform="translate(12.5,28.125)"
     id="path2737"
     style="fill:none;fill-opacity:1;stroke:#000000;stroke-width:1;stroke-linejoin:round;stroke-miterlimit:4;stroke-opacity:1" />
  <path
     d="M 934.375,829.6875 L 934.375,846.09375 L 850,846.09375 L 850,866.40625 L 819.53125,837.89062 L 850,809.375 L 850,829.6875 L 934.375,829.6875 z"
     id="path2760"
     style="fill:none;fill-rule:evenodd;stroke:#000000;stroke-width:1px;stroke-linecap:butt;stroke-linejoin:miter;stroke-opacity:1" />
  <path
     d="M 5910.2088,701.32803 C 5910.2088,715.12803 5899.0088,726.32803 5885.2088,726.32803 C 5871.4088,726.32803 5860.2088,715.12803 5860.2088,701.32803 C 5860.2088,687.52803 5871.4088,676.32803 5885.2088,676.32803 C 5899.0088,676.32803 5910.2088,687.52803 5910.2088,701.32803 z"
     id="path2404"
     style="fill:none;fill-opacity:1;stroke:#000000;stroke-width:1;stroke-linejoin:round;stroke-miterlimit:4;stroke-opacity:1" />
</svg>
